<svg width="1920" height="761" viewBox="0 0 1920 761" fill="none" xmlns="http://www.w3.org/2000/svg"><path d="M711.433 761C703.746 761 696.265 760.378 689.075 759.138C673.997 756.535 660.066 751.191 647.67 743.253C634.346 734.723 622.66 723.101 612.934 708.71C593.387 679.784 583.607 645.143 574.149 611.642C572.29 605.064 570.369 598.262 568.419 591.662C555.11 546.679 538.238 507.276 516.844 471.202C474.167 399.241 414.148 337.828 343.273 293.601C261.307 242.457 173.18 216.979 95.1237 221.864C49.2465 224.737 -11.3702 252.052 -38.4612 298.7C-54.5387 326.386 -55.8351 357.11 -42.2078 387.545L-42.4784 387.674C-49.6236 371.712 -52.7367 355.71 -51.7287 340.112C-50.804 325.804 -46.4271 311.817 -38.717 298.541C-26.4545 277.425 -6.23207 258.71 19.7648 244.417C43.7872 231.211 70.5423 223.092 95.1059 221.555C135.955 219 179.4 224.669 224.234 238.408C264.875 250.863 304.978 269.343 343.427 293.335C414.344 337.586 474.398 399.033 517.1 471.037C538.506 507.135 555.386 546.56 568.704 591.567C570.658 598.167 572.579 604.972 574.434 611.55C583.884 645.027 593.657 679.643 613.178 708.526C632.056 736.463 657.61 753.387 689.126 758.826C732.77 766.36 785.769 750.603 830.894 716.673C895.923 667.779 941.054 596.611 984.701 527.789C992.352 515.726 1000.26 503.252 1008.09 491.207C1028.43 459.929 1055.96 419.399 1088.69 383.291C1122.14 346.385 1156.13 319.269 1192.61 300.391C1214.94 288.836 1238.6 281.051 1262.94 277.253C1285.42 273.744 1309.22 273.526 1333.67 276.601C1375.61 281.878 1420.8 296.783 1471.81 322.166C1572.25 372.15 1672.59 432.819 1770.03 502.492C1862.64 568.714 1953.47 643.649 2040 725.208L2039.8 725.435C1860.43 556.366 1669.29 420.78 1471.68 322.441C1360.03 266.884 1271.4 259.962 1192.74 300.664C1112.73 342.069 1056.83 416.793 1008.34 491.375C1000.51 503.417 992.601 515.891 984.951 527.955C941.292 596.801 896.146 667.99 831.072 716.918C810.044 732.73 786.387 745.062 762.662 752.581C750.129 756.553 737.67 759.15 725.628 760.302C720.829 760.77 716.092 761 711.433 761Z" fill="#D60D0D"/><path d="M718.947 743.846C699.346 743.846 681.191 740.003 664.965 732.417C646.871 723.958 631.258 710.85 618.555 693.461C617.431 691.921 616.316 690.328 615.24 688.723C595.9 659.923 585.687 625.733 575.812 592.666C573.814 585.984 571.75 579.071 569.657 572.364C557.189 532.429 542.176 497.231 523.756 464.764C521.487 460.768 519.138 456.762 516.768 452.86C473.463 381.518 412.956 320.882 341.79 277.507C259.232 227.235 170.856 202.811 92.9394 208.737C47.3952 212.238 -12.942 240 -40.149 286.291C-56.4405 314.01 -58.284 344.795 -45.4863 375.319L-45.7599 375.442C-52.468 359.443 -55.2243 343.41 -53.9487 327.794C-52.7772 313.453 -48.2219 299.435 -40.4047 286.131C-28.0173 265.052 -7.8544 246.315 17.8986 231.949C41.701 218.669 68.3401 210.318 92.9126 208.431C133.711 205.329 177.204 210.456 222.18 223.667C262.919 235.636 303.212 253.662 341.939 277.244C413.147 320.643 473.686 381.316 517.018 452.698C519.388 456.603 521.74 460.612 524.008 464.611C542.441 497.099 557.463 532.315 569.936 572.272C572.033 578.979 574.096 585.892 576.094 592.577C585.966 625.622 596.171 659.788 615.484 688.549C616.557 690.147 617.672 691.74 618.793 693.277C645.043 729.223 681.11 743.846 719.04 743.846C719.248 743.846 719.453 743.846 719.661 743.846C719.423 743.843 719.185 743.846 718.947 743.846ZM727.038 743.632C762.3 741.767 798.686 727.811 829.902 707.05C897.235 662.082 945.628 592.629 992.43 525.464C994.357 522.696 996.284 519.933 998.21 517.171C1002.44 511.107 1007.46 503.928 1012.58 496.692C1035.55 464.238 1063.35 426.476 1095.36 392.488C1129.43 356.322 1163.46 329.485 1199.4 310.439C1221.48 298.749 1244.82 290.514 1268.76 285.963C1290.95 281.746 1314.39 280.554 1338.44 282.42C1379.98 285.644 1424.65 297.87 1475 319.798C1524.08 341.144 1564.43 361.238 1601.98 383.034C1655.17 413.941 1705.83 449.553 1748.38 480.31C1847.29 552.023 1944.35 633.453 2036.84 722.341L2036.64 722.565C1944.15 633.689 1847.11 552.265 1748.21 480.561C1705.67 449.807 1655.01 414.202 1601.83 383.303C1564.3 361.513 1523.96 341.426 1474.88 320.086C1365.21 272.316 1277.71 269.336 1199.53 310.715C1118.39 353.707 1060.61 429.349 1012.82 496.875C1007.7 504.112 1002.68 511.288 998.451 517.355C996.524 520.114 994.598 522.879 992.671 525.648C945.854 592.834 897.443 662.312 830.062 707.313C813.354 718.424 795.576 727.25 777.218 733.544C760.13 739.396 743.285 742.78 727.038 743.632Z" fill="#D60D0D"/><path d="M727.234 727.085C724.876 727.085 722.533 727.033 720.208 726.926C700.625 726.035 682.502 721.407 666.344 713.166C648.673 704.153 633.362 690.803 620.841 673.484C619.729 671.941 618.62 670.345 617.55 668.741C598.427 640.081 587.788 606.347 577.503 573.728C575.359 566.929 573.141 559.897 570.893 553.074C557.81 513.273 542.402 478.357 523.782 446.328C521.478 442.368 519.093 438.396 516.688 434.525C472.755 363.805 411.761 303.947 340.303 261.423C257.156 212.024 168.53 188.651 90.7506 195.618C46.9577 199.602 -13.204 225.781 -41.8085 273.839C-58.3349 301.604 -60.7404 332.472 -48.7664 363.103L-49.0429 363.217C-55.3169 347.169 -57.7105 331.1 -56.1643 315.456C-54.743 301.068 -49.9974 287.014 -42.0613 273.68C-29.5431 252.649 -9.44556 233.906 16.0606 219.472C39.6401 206.129 66.1572 197.551 90.7238 195.315C131.475 191.667 175.015 196.249 220.131 208.934C260.971 220.419 301.452 237.989 340.451 261.16C411.951 303.711 472.978 363.603 516.937 434.363C519.343 438.237 521.73 442.209 524.035 446.175C542.664 478.222 558.081 513.16 571.17 552.982C573.418 559.808 575.636 566.84 577.78 573.639C588.062 606.24 598.692 639.949 617.791 668.575C618.861 670.18 619.964 671.773 621.076 673.31C671.955 743.681 762.121 736.126 828.908 697.425C899.052 656.42 951.179 588.269 1001.59 522.363L1002.11 521.686C1006.99 515.297 1012.04 508.694 1017.06 502.174C1070.09 433.389 1128.37 362.699 1206.19 320.482C1228.03 308.654 1251.05 299.969 1274.59 294.667C1296.49 289.737 1319.58 287.571 1343.22 288.233C1384.43 289.384 1428.58 298.934 1478.19 317.425C1530.33 336.79 1569.57 354.589 1605.42 375.142C1656.49 404.485 1705.97 441.563 1749.62 474.277C1846.81 547.506 1942.38 629.999 2033.69 719.46L2033.49 719.68C1942.19 630.229 1846.62 547.745 1749.44 474.522C1705.8 441.814 1656.33 404.742 1605.27 375.409C1569.44 354.862 1530.22 337.068 1478.09 317.71C1370.54 277.627 1284.19 278.592 1206.32 320.748C1128.56 362.938 1070.3 433.597 1017.3 502.358C1012.27 508.878 1007.22 515.484 1002.34 521.869L1001.82 522.546C976.7 555.389 950.724 589.35 922.673 619.685C891.148 653.774 860.525 679.288 829.051 697.685C796.123 716.765 760.254 727.085 727.234 727.085Z" fill="#D60D0D"/><path d="M2030.34 716.792C1940.22 626.765 1846.13 543.221 1750.69 468.483C1746.64 465.341 1742.59 462.183 1738.53 459.016C1697.19 426.792 1654.44 393.471 1608.72 367.513C1564.37 342.4 1519.43 327.045 1481.31 315.336C1376.09 282.818 1290.87 287.727 1213.12 330.781C1133.31 375.108 1071.47 448.705 1021.78 507.843C1018.8 511.392 1015.82 514.948 1012.84 518.507C1010.64 521.134 1008.44 523.762 1006.23 526.387C977.943 560.093 952.207 590.229 923.772 617.728C891.288 649.14 859.977 672.146 828.045 688.062C798.121 702.98 766.153 710.872 736.419 710.875C731.001 710.875 725.664 710.615 720.419 710.085C701.27 708.153 683.542 702.723 667.729 693.945C650.474 684.369 635.467 670.765 623.119 653.51C622.015 651.964 620.915 650.365 619.851 648.757C600.955 620.248 589.902 586.989 579.216 554.826C576.914 547.898 574.533 540.732 572.124 533.777C558.416 494.101 542.61 459.464 523.806 427.882C521.466 423.953 519.042 420.018 516.604 416.18C472.041 346.081 410.562 287.002 338.816 245.326C255.081 196.8 166.207 174.483 88.5648 182.483C35.4859 188.059 -18.7913 220.48 -43.4293 261.319C-60.2144 289.142 -63.1908 320.108 -52.0434 350.868L-52.3229 350.975C-58.1597 334.869 -60.1936 318.751 -58.3679 303.068C-56.6879 288.628 -51.746 274.528 -43.6821 261.157C-31.033 240.187 -11.0009 221.444 14.2495 206.959C37.603 193.56 63.9834 184.758 88.5351 182.179C129.239 177.984 172.823 182.023 218.079 194.182C259.017 205.182 299.691 222.299 338.964 245.057C410.755 286.757 472.267 345.87 516.857 416.012C519.298 419.852 521.721 423.791 524.061 427.72C542.877 459.32 558.69 493.976 572.406 533.669C574.815 540.628 577.197 547.791 579.498 554.721C590.179 586.866 601.225 620.104 620.098 648.58C621.162 650.185 622.259 651.78 623.359 653.324C676.474 727.542 766.751 718.271 827.917 687.784C900.895 651.406 956.739 584.882 1006.01 526.184C1008.22 523.557 1010.42 520.929 1012.62 518.305C1015.6 514.746 1018.58 511.19 1021.56 507.641C1049.92 473.885 1077.93 441.082 1108.73 410.855C1144.14 376.091 1178.24 349.812 1212.99 330.511C1234.6 318.54 1257.29 309.404 1280.43 303.362C1302.05 297.711 1324.79 294.575 1348.01 294.036C1388.95 293.087 1432.59 299.959 1481.4 315.042C1519.53 326.757 1564.5 342.118 1608.87 367.247C1654.6 393.214 1697.36 426.544 1738.71 458.774C1742.77 461.941 1746.83 465.099 1750.87 468.241C1846.32 542.986 1940.42 626.538 2030.55 716.575L2030.34 716.792Z" fill="#D60D0D"/><path d="M2027.19 713.907C1936.56 621.583 1843.95 536.977 1751.93 462.443C1746.42 457.984 1740.79 453.387 1735.34 448.943C1696.33 417.117 1655.99 384.207 1612.17 359.618C1568.42 335.151 1523.09 322.3 1484.52 312.96C1381.86 287.856 1297.78 296.707 1219.92 340.814C1145.66 383.037 1087.48 446.53 1031.21 507.931L1025.03 514.672C1020.15 519.998 1015.11 525.501 1010.13 530.901C953.808 591.95 897.425 649.167 827.041 678.433C809.961 685.535 792.424 690.457 774.911 693.069C756.103 695.871 737.835 695.911 720.609 693.186C701.901 690.224 684.574 684.004 669.112 674.697C652.286 664.569 637.579 650.717 625.406 633.53C624.309 631.974 623.217 630.372 622.162 628.768C603.497 600.427 592.047 567.657 580.974 535.966C578.503 528.895 575.945 521.581 573.365 514.479C559.021 474.926 542.821 440.567 523.839 409.439C521.466 405.55 519.007 401.645 516.53 397.838C471.34 328.361 409.376 270.059 337.336 229.232C253.009 181.585 163.886 160.318 86.3768 169.356C33.7825 175.619 -20.2479 208.266 -45.0107 248.75C-62.0753 276.644 -65.6405 307.729 -55.3226 338.645L-55.6051 338.746C-61.0049 322.57 -62.673 306.39 -60.5648 290.661C-58.6202 276.16 -53.4732 262.005 -45.2665 248.591C-32.4807 227.692 -12.5199 208.967 12.463 194.438C35.5845 180.991 61.8221 171.978 86.3411 169.056C126.997 164.315 170.626 167.81 216.025 179.441C257.064 189.958 297.926 206.618 337.475 228.966C409.557 269.814 471.557 328.153 516.774 397.67C519.251 401.48 521.713 405.388 524.086 409.277C543.08 440.42 559.288 474.798 573.638 514.372C576.219 521.474 578.776 528.79 581.247 535.862C592.314 567.535 603.759 600.289 622.403 628.596C623.455 630.195 624.546 631.794 625.641 633.349C677.477 706.535 763.606 704.48 826.925 678.152C897.253 648.91 953.612 591.714 1009.91 530.692C1014.89 525.293 1019.93 519.79 1024.81 514.464L1030.99 507.723C1058.61 477.584 1087.17 446.417 1118.18 417.423C1153.31 384.587 1186.54 359.44 1219.77 340.544C1241.17 328.422 1263.54 318.837 1286.26 312.056C1307.61 305.68 1330 301.57 1352.78 299.84C1393.54 296.743 1436.66 300.939 1484.59 312.659C1523.17 322.006 1568.52 334.86 1612.31 359.348C1656.15 383.947 1696.5 416.866 1735.52 448.701C1740.97 453.145 1746.6 457.739 1752.11 462.201C1844.14 536.741 1936.76 621.353 2027.39 713.686L2027.19 713.907Z" fill="#D60D0D"/><path d="M2024.03 711.022C1934.18 617.672 1843.05 532.006 1753.17 456.407C1746.41 450.726 1739.49 444.818 1732.79 439.107C1695.88 407.624 1657.71 375.069 1615.61 351.729C1572.06 327.682 1526.53 317.437 1487.74 310.589C1387.92 292.701 1304.98 305.496 1226.72 350.853C1158.42 390.602 1102.34 446.935 1048.11 501.411C1042.4 507.144 1036.5 513.071 1030.75 518.813C1024 525.557 1018.84 530.68 1014.02 535.421C988.24 560.798 957.542 590.017 925.328 614.322C891.19 640.075 858.711 657.899 826.033 668.814C808.849 674.553 791.386 678.173 774.125 679.57C755.592 681.07 737.647 679.968 720.794 676.29C702.534 672.305 685.612 665.295 670.492 655.455C654.096 644.785 639.696 630.685 627.689 613.553C626.607 612 625.522 610.396 624.469 608.785C606.051 580.634 594.217 548.37 582.769 517.168C580.114 509.931 577.37 502.45 574.601 495.182C559.612 455.739 543.017 421.662 523.865 390.997C521.457 387.141 518.962 383.273 516.45 379.497C470.632 310.641 408.181 253.117 335.849 213.139C250.936 166.367 161.563 146.157 84.1912 156.227C40.1663 162.083 -17.3341 189.058 -46.5512 236.117C-63.922 264.097 -68.0908 295.323 -58.6025 326.417L-58.885 326.509C-63.8477 310.249 -65.1441 294 -62.7416 278.209C-60.5234 263.634 -55.1623 249.418 -46.801 235.952C-33.8784 215.139 -13.992 196.445 10.7144 181.885C33.604 168.398 59.684 159.179 84.1555 155.924C124.764 150.638 168.441 153.587 213.976 164.692C255.114 174.725 296.165 190.932 335.988 212.869C408.362 252.869 470.849 310.427 516.693 379.322C519.206 383.099 521.704 386.973 524.112 390.832C543.273 421.512 559.877 455.608 574.875 495.069C577.646 502.339 580.391 509.821 583.046 517.058C594.485 548.244 606.316 580.49 624.713 608.61C625.765 610.218 626.848 611.82 627.93 613.369C671.054 674.908 745.078 695.526 825.941 668.517C899.171 644.059 958.907 589.243 1013.82 535.194C1018.63 530.454 1023.79 525.33 1030.54 518.586C1036.29 512.844 1042.19 506.918 1047.9 501.185C1074.6 474.366 1102.2 446.634 1131.65 420.667C1164.95 391.3 1196 368.374 1226.57 350.58C1247.77 338.299 1269.81 328.263 1292.09 320.754C1313.2 313.64 1335.23 308.559 1357.56 305.646C1398.23 300.348 1440.83 301.864 1487.79 310.28C1526.61 317.134 1572.17 327.381 1615.75 351.45C1657.88 374.805 1696.06 407.369 1732.98 438.862C1739.67 444.573 1746.6 450.481 1753.35 456.162C1843.25 531.771 1934.39 617.443 2024.24 710.799L2024.03 711.022Z" fill="#D60D0D"/><path d="M2020.88 708.137C1931.81 613.755 1842.16 527.027 1754.4 450.368C1746.94 443.848 1739.27 437.003 1731.86 430.385C1696.53 398.859 1660.01 366.261 1619.06 343.834C1575.48 320.074 1529.84 312.494 1490.95 308.213C1395.66 297.442 1311.45 314.672 1233.51 360.886C1171.45 397.851 1118.25 447.302 1066.81 495.127C1056.41 504.786 1045.67 514.776 1035.23 524.298C1028.84 530.126 1023.17 535.244 1017.91 539.941C993.437 561.765 960.88 589.748 926.091 612.616C891.135 635.591 858.074 650.828 825.018 659.191C788.965 668.315 752.983 668.382 720.965 659.391C703.163 654.389 686.643 646.592 671.862 636.213C655.903 625.007 641.809 610.662 629.966 593.582C628.892 592.026 627.816 590.419 626.769 588.808C608.614 560.871 596.41 529.137 584.612 498.45C581.757 491.026 578.808 483.352 575.831 475.894C560.185 436.556 543.195 402.754 523.888 372.563C521.444 368.741 518.914 364.907 516.365 361.165C469.92 292.931 406.984 236.182 334.361 197.057C248.862 151.165 159.24 132.009 82.0017 143.11C29.6572 150.797 -22.607 183.077 -48.0478 223.429C-65.7517 251.51 -70.536 282.898 -61.8833 314.2L-62.1687 314.283C-66.6913 297.926 -67.6131 281.59 -64.9102 265.732C-62.4125 251.075 -56.8224 236.785 -48.2976 223.261C-35.2382 202.545 -15.4291 183.894 8.98878 169.323C31.6375 155.808 57.554 146.387 81.9601 142.804C122.521 136.973 166.245 139.38 211.92 149.955C253.159 159.504 294.401 175.258 334.498 196.782C407.163 235.93 470.134 292.71 516.609 360.987C519.157 364.729 521.688 368.567 524.135 372.392C543.451 402.601 560.45 436.418 576.105 475.775C579.081 483.232 582.031 490.91 584.885 498.334C596.678 529.005 608.875 560.724 627.013 588.633C628.06 590.244 629.133 591.846 630.207 593.402C672.59 654.542 745.389 679.025 824.946 658.894C897.475 640.54 960.458 590.765 1017.71 539.712C1022.97 535.014 1028.64 529.899 1035.03 524.071C1045.47 514.55 1056.22 504.563 1066.6 494.904C1118.06 447.069 1171.27 397.606 1233.36 360.626C1254.36 348.17 1276.08 337.687 1297.92 329.461C1318.8 321.596 1340.47 315.542 1362.33 311.465C1402.99 303.886 1445.07 302.725 1490.98 307.913C1529.9 312.197 1575.57 319.78 1619.19 343.567C1660.18 366.01 1696.71 398.62 1732.05 430.158C1739.46 436.776 1747.13 443.618 1754.6 450.138C1842.35 526.803 1932.02 613.538 2021.09 707.926L2020.88 708.137Z" fill="#D60D0D"/><path d="M2017.73 705.252C1929.45 609.829 1841.27 522.044 1755.64 444.331C1747.78 437.19 1739.68 429.628 1731.85 422.315C1697.82 390.522 1662.63 357.646 1622.5 335.941C1578.74 312.384 1533.07 307.505 1494.16 305.839C1402.47 301.625 1319.43 322.913 1240.3 370.922C1184.81 404.751 1135.34 447.566 1087.5 488.968C1071.05 503.206 1055.51 516.654 1039.71 529.783C1033.28 535.127 1027.42 539.929 1021.8 544.459C985.543 573.66 955.374 594.774 926.859 610.901C891.085 631.135 857.444 643.784 824.01 649.566C811.04 651.808 798.118 652.925 785.43 652.925C762.939 652.925 741.176 649.422 721.141 642.482C684.883 629.923 654.976 606.748 632.25 573.602C631.18 572.031 630.112 570.423 629.077 568.818C611.198 541.124 598.653 509.953 586.521 479.805C583.447 472.167 580.271 464.272 577.069 456.594C560.753 417.347 543.365 383.828 523.918 354.118C521.439 350.329 518.873 346.529 516.289 342.82C469.216 275.208 405.792 219.236 332.878 180.961C246.793 135.95 156.924 117.844 79.8196 129.978C27.2581 138.422 -23.4986 170.088 -49.4836 210.655C-67.5472 238.852 -72.9649 270.427 -65.1566 301.968L-65.445 302.045C-69.5216 285.574 -70.0628 269.141 -67.0507 253.2C-64.2616 238.445 -58.4366 224.075 -49.7304 210.487C-36.5342 189.885 -16.8114 171.295 7.30923 156.723C29.7141 143.187 55.4493 133.583 79.7751 129.675C120.288 123.299 164.06 125.161 209.872 135.209C251.212 144.277 292.641 159.578 333.014 180.685C405.971 218.985 469.43 274.987 516.532 342.639C519.116 346.351 521.682 350.152 524.165 353.943C543.623 383.668 561.021 417.206 577.342 456.468C580.545 464.146 583.723 472.045 586.795 479.683C598.921 509.815 611.46 540.974 629.324 568.644C630.359 570.246 631.423 571.853 632.494 573.421C674.931 635.322 744.718 662.965 823.96 649.26C899.393 636.213 966.206 588.838 1021.62 544.214C1027.24 539.684 1033.09 534.885 1039.52 529.541C1055.32 516.412 1070.86 502.967 1087.31 488.729C1135.16 447.318 1184.64 404.497 1240.15 370.655C1261 358.007 1282.4 347.074 1303.75 338.156C1324.44 329.519 1345.75 322.491 1367.12 317.269C1407.86 307.313 1449.42 303.472 1494.17 305.53C1533.11 307.196 1578.82 312.081 1622.64 335.666C1662.8 357.385 1698 390.277 1732.05 422.082C1739.88 429.395 1747.97 436.957 1755.84 444.096C1841.47 521.814 1929.66 609.609 2017.94 705.038L2017.73 705.252Z" fill="#D60D0D"/><path d="M2014.57 702.368C1925.86 604.537 1841.57 518.158 1756.88 438.292C1748.8 430.673 1740.85 422.891 1732.42 414.652C1699.5 382.447 1665.45 349.147 1625.94 328.049C1581.63 304.501 1533.96 302.541 1497.38 303.466C1409.86 305.39 1327.99 330.738 1247.1 380.961C1198.56 411.241 1153.75 447.603 1110.41 482.77C1087.64 501.252 1066.12 518.706 1044.19 535.271C1037.67 540.193 1031.62 544.676 1025.69 548.979C988.938 575.611 957.777 594.74 927.62 609.183C891.017 626.713 856.796 636.774 822.999 639.94C805.635 641.567 788.389 641.26 771.74 639.031C754.114 636.67 737.147 632.14 721.314 625.571C686.218 611.008 657.022 586.805 634.534 553.628C633.472 552.054 632.414 550.443 631.385 548.839C613.806 521.429 600.946 490.852 588.508 461.283C585.189 453.394 581.758 445.235 578.306 437.303C561.307 398.142 543.525 364.901 523.945 335.681C521.427 331.927 518.825 328.16 516.211 324.485C468.511 257.494 404.603 202.301 331.397 164.873C263.828 130.471 194.149 112.522 130.252 112.522C112.189 112.522 94.6009 113.955 77.6374 116.855C25.7091 125.908 -24.7294 157.688 -50.8659 197.82C-69.3132 226.149 -75.388 257.938 -68.4331 289.749L-68.7245 289.816C-72.355 273.217 -72.5067 256.67 -69.1764 240.638C-66.09 225.775 -60.0123 211.311 -51.1157 197.649C-37.7828 177.175 -18.1521 158.662 5.65921 144.106C28.1355 130.364 53.0083 120.837 77.5838 116.555C118.049 109.634 161.869 110.954 207.821 120.472C249.259 129.053 290.881 143.898 331.528 164.594C404.776 202.043 468.723 257.268 516.452 324.298C519.069 327.973 521.674 331.743 524.192 335.501C543.781 364.736 561.571 397.992 578.579 437.171C582.032 445.103 585.466 453.262 588.784 461.154C601.216 490.711 614.07 521.276 631.635 548.664C632.663 550.266 633.722 551.877 634.78 553.448C676.834 615.486 745.425 646.896 822.976 639.631C901.448 632.278 972.442 587.185 1025.53 548.722C1031.46 544.419 1037.5 539.936 1044.02 535.017C1065.95 518.458 1087.46 501.001 1110.23 482.522C1153.58 447.351 1198.4 410.98 1246.95 380.692C1288.6 354.835 1329.47 335.991 1371.9 323.079C1412.82 310.626 1453.87 304.109 1497.38 303.154C1522.2 302.526 1542.45 303.616 1561.11 306.581C1585.21 310.409 1606.46 317.34 1626.09 327.771C1665.63 348.887 1699.69 382.205 1732.64 414.426C1741.06 422.664 1749.01 430.443 1757.09 438.063C1841.78 517.931 1926.08 604.317 2014.79 702.153L2014.57 702.368Z" fill="#D60D0D"/><path d="M2011.42 699.483C1923.52 600.58 1840.66 513.172 1758.12 432.253C1749.96 424.247 1741.9 416 1733.38 407.268C1701.44 374.554 1668.41 340.722 1629.39 320.154C1584.71 296.716 1537.09 297.653 1500.59 301.086C1418 308.587 1337.31 337.996 1253.89 390.991C1212.79 417.228 1173.66 447.253 1135.82 476.292C1105.91 499.246 1077.65 520.929 1048.67 540.747C1042.12 545.231 1035.69 549.518 1029.58 553.487C992.757 577.388 959.653 595.037 928.382 607.447C890.937 622.306 856.136 629.785 821.989 630.305C804.615 630.569 787.437 628.952 770.944 625.494C753.653 621.868 737.014 616.199 721.486 608.641C687.595 592.143 659.107 566.911 636.815 533.642C635.768 532.071 634.715 530.457 633.69 528.843C616.441 501.767 603.301 471.836 590.592 442.892C586.997 434.703 583.278 426.232 579.54 417.997C561.845 378.909 543.669 345.95 523.972 317.229C521.418 313.508 518.781 309.775 516.131 306.134C467.804 239.765 403.408 185.349 329.911 148.77C242.658 105.527 152.286 89.5279 75.4492 103.72C24.193 113.352 -25.9095 145.214 -52.1918 184.89C-71.0553 213.369 -77.805 245.397 -71.7154 277.517L-72.0068 277.575C-75.1824 260.832 -74.9386 244.157 -71.2783 228.014C-67.8796 213.029 -61.5432 198.46 -52.4386 184.715C-38.9748 164.389 -19.4423 145.968 4.04794 131.442C26.2655 117.703 50.9362 108.014 75.3957 103.417C115.817 95.9531 159.681 96.7249 205.769 105.717C247.308 113.82 289.118 128.211 330.038 148.491C403.581 185.089 468.012 239.538 516.366 305.947C519.019 309.588 521.659 313.324 524.213 317.049C543.921 345.785 562.104 378.759 579.808 417.862C583.548 426.097 587.265 434.568 590.863 442.76C603.566 471.693 616.699 501.611 633.936 528.668C634.962 530.279 636.015 531.893 637.058 533.461C679.555 596.881 745.229 631.169 821.983 629.993C884.262 629.044 950.177 604.647 1029.42 553.221C1035.53 549.252 1041.95 544.967 1048.5 540.484C1077.48 520.669 1105.73 498.992 1135.64 476.038C1173.49 446.996 1212.62 416.965 1253.74 390.721C1295.79 364.001 1336.01 343.775 1376.67 328.882C1417.87 313.796 1458.4 304.599 1500.56 300.771C1537.1 297.332 1584.78 296.398 1629.52 319.872C1668.59 340.465 1701.63 374.312 1733.59 407.042C1742.11 415.773 1750.16 424.018 1758.33 432.02C1840.87 512.942 1923.73 600.357 2011.64 699.265L2011.42 699.483Z" fill="#D60D0D"/><path d="M2008.27 696.597C1921.19 596.62 1839.77 508.177 1759.36 426.216C1751.2 417.895 1743.14 409.25 1734.61 400.096C1703.57 366.797 1671.48 332.364 1632.83 312.262C1587.74 288.909 1540.19 292.753 1503.81 298.71C1426.1 311.19 1348.85 343.702 1260.69 401.027C1227.63 422.624 1195.31 446.316 1164.07 469.227C1126.11 497.053 1090.26 523.339 1053.15 546.232C1046.46 550.36 1039.84 554.323 1033.47 558.004C995.988 579.669 961.862 595.276 929.145 605.713C910.82 611.559 892.729 615.795 875.376 618.303C856.867 620.977 838.565 621.776 820.98 620.68C785.302 618.453 751.886 608.708 721.664 591.717C689.025 573.366 661.247 547.108 639.103 513.665C638.063 512.081 637.019 510.464 635.999 508.859C619.119 482.182 605.744 452.962 592.813 424.706C588.897 416.153 584.85 407.308 580.779 398.702C562.371 359.679 543.799 326.999 524.001 298.789C521.411 295.099 518.735 291.399 516.053 287.795C467.099 222.045 402.218 168.407 328.429 132.682C240.593 90.3239 149.975 75.3786 73.2658 90.5965C-8.86967 107.144 -88.9059 178.639 -74.9901 265.294L-75.2845 265.343C-78.7664 243.666 -76.7266 222.311 -69.2246 201.865C-62.3738 183.193 -51.1312 165.62 -35.8091 149.64C-21.5633 134.78 -4.47194 121.951 14.9863 111.508C33.493 101.576 53.6262 94.2379 73.2063 90.2933C113.58 82.2847 157.492 82.5144 203.72 90.9793C245.36 98.602 287.36 112.54 328.554 132.407C402.384 168.156 467.304 221.824 516.288 287.611C518.973 291.219 521.649 294.918 524.242 298.612C544.048 326.833 562.629 359.532 581.047 398.571C585.117 407.176 589.164 416.021 593.08 424.578C606.009 452.824 619.378 482.031 636.249 508.694C637.266 510.299 638.306 511.916 639.347 513.496C681.906 577.767 746.418 615.721 820.998 620.376C884.136 624.312 953.59 603.826 1033.33 557.741C1039.69 554.06 1046.31 550.1 1052.99 545.972C1090.1 523.085 1125.95 496.802 1163.89 468.979C1195.14 446.065 1227.46 422.37 1260.53 400.769C1348.73 343.42 1426.01 310.896 1503.76 298.406C1528.21 294.404 1548.45 293.124 1567.46 294.382C1591.77 295.99 1613.19 301.748 1632.97 311.986C1671.65 332.11 1703.77 366.564 1734.82 399.881C1743.35 409.032 1751.41 417.678 1759.57 425.996C1839.98 507.962 1921.4 596.409 2008.48 696.392L2008.27 696.597Z" fill="#D60D0D"/><path d="M2005.12 693.713C1918.86 592.645 1838.88 503.172 1760.6 420.177C1752.5 411.59 1744.5 402.595 1736.03 393.067C1705.83 359.131 1674.61 324.037 1636.28 304.366C1590.2 280.818 1540.44 288.502 1507.02 296.33C1416.32 317.315 1335.04 366.101 1267.49 411.063C1243.21 427.288 1218.99 444.475 1195.57 461.096C1148.59 494.438 1104.21 525.93 1057.63 551.717C1050.78 555.512 1043.97 559.147 1037.37 562.525C999.152 582.061 964.003 595.622 929.916 603.977C891.273 613.449 854.286 615.832 819.976 611.054C784.728 606.145 751.711 593.944 721.846 574.787C690.521 554.697 663.454 527.413 641.391 493.691C640.362 492.107 639.324 490.487 638.31 488.876C621.849 462.688 608.308 434.271 595.21 406.787C590.919 397.78 586.48 388.47 582.02 379.408C562.618 339.895 544.192 308.421 524.035 280.35C521.409 276.693 518.7 273.03 515.98 269.456C466.391 204.331 401.023 151.471 326.943 116.592C238.525 75.1214 147.656 61.2266 71.078 77.4704C-11.3518 95.1873 -89.7526 165.712 -78.2691 253.071L-78.5635 253.111C-81.4121 231.438 -78.9471 210.104 -71.2399 189.704C-64.175 171.013 -52.867 153.422 -37.6251 137.423C-23.4121 122.502 -6.40992 109.578 12.9115 99.0032C31.3082 88.9335 51.4028 81.3843 71.0186 77.1672C111.347 68.6135 155.304 68.3011 201.669 76.2362C243.41 83.3781 285.6 96.8625 327.068 116.313C401.193 151.211 466.597 204.101 516.209 269.266C518.929 272.843 521.641 276.509 524.27 280.166C544.438 308.25 562.871 339.742 582.281 379.27C586.742 388.332 591.181 397.646 595.472 406.653C608.567 434.127 622.105 462.535 638.554 488.711C639.568 490.322 640.603 491.939 641.631 493.522C684.52 559.073 747.87 600.706 820.011 610.751C884.713 619.761 955.767 603.894 1037.24 562.249C1043.83 558.874 1050.64 555.242 1057.49 551.447C1104.06 525.667 1148.43 494.181 1195.4 460.842C1218.82 444.221 1243.04 427.031 1267.32 410.802C1312.75 380.572 1350.53 358.237 1386.23 340.514C1428.26 319.651 1467.75 305.101 1506.95 296.03C1530.85 290.432 1551.69 287.896 1570.64 288.282C1595.05 288.778 1616.56 293.947 1636.41 304.091C1674.79 323.786 1706.03 358.901 1736.24 392.859C1744.72 402.383 1752.72 411.378 1760.81 419.96C1839.1 502.958 1919.08 592.437 2005.34 693.507L2005.12 693.713Z" fill="#D60D0D"/><path d="M2001.96 690.825C1916.54 588.664 1838 498.159 1761.84 414.135C1753.86 405.324 1745.95 396.016 1737.59 386.161C1708.19 351.542 1677.79 315.744 1639.72 296.471C1593.14 272.978 1543.52 283.78 1510.24 293.951C1428.06 318.852 1354.76 366.267 1274.29 421.096C1259.77 431.021 1245.09 441.266 1230.89 451.176C1176.29 489.287 1119.83 528.693 1062.11 557.199C1055.1 560.666 1048.08 563.976 1041.26 567.039C1002.78 584.287 965.579 596.127 930.68 602.231C891.145 609.146 853.561 608.873 818.962 601.425C784.208 593.944 751.592 579.283 722.019 557.851C692.091 536.162 665.728 507.855 643.665 473.717C642.645 472.13 641.617 470.507 640.609 468.896C624.644 443.321 611.017 415.828 597.839 389.242C593.09 379.662 588.181 369.758 583.248 360.12C563.088 320.647 544.278 289.442 524.053 261.916C521.397 258.302 518.65 254.67 515.89 251.124C465.684 186.611 399.834 134.529 325.456 100.501C236.458 59.9189 145.343 47.0775 68.8896 64.3443C-10.9235 82.5665 -90.7724 150.617 -81.5518 240.846L-81.8461 240.876C-84.0614 219.203 -81.1712 197.893 -73.2588 177.54C-65.9828 158.827 -54.6064 141.221 -39.4478 125.203C-11.4796 95.6559 27.984 73.3635 68.8242 64.0411C109.105 54.9453 153.109 54.0877 199.614 61.493C241.456 68.1571 283.834 81.1853 325.575 100.219C399.995 134.266 465.883 186.381 516.122 250.925C518.885 254.474 521.632 258.106 524.29 261.723C544.525 289.265 563.344 320.481 583.51 359.97C588.443 369.611 593.355 379.515 598.103 389.095C611.279 415.675 624.903 443.161 640.858 468.725C641.863 470.336 642.892 471.956 643.912 473.542C688.053 541.843 748.604 585.959 819.018 601.122C884.22 615.161 958.948 603.6 1041.13 566.757C1047.96 563.695 1054.97 560.387 1061.98 556.923C1119.67 528.426 1176.13 489.026 1230.72 450.922C1244.92 441.012 1259.6 430.767 1274.11 420.842C1309.34 396.84 1350.33 369.311 1391.01 346.326C1433.56 322.285 1472.53 305.058 1510.15 293.66C1533.83 286.423 1554.66 282.668 1573.82 282.184C1597.98 281.572 1620.19 286.288 1639.85 296.198C1656.9 304.832 1674.06 317.716 1692.32 335.589C1708.43 351.37 1723.36 368.956 1737.8 385.959C1746.17 395.811 1754.07 405.118 1762.05 413.926C1838.21 497.954 1916.76 588.462 2002.18 690.625L2001.96 690.825Z" fill="#D60D0D"/><path d="M1998.81 687.939C1914.23 584.676 1837.12 493.139 1763.08 408.098C1755.24 399.094 1747.47 389.505 1739.25 379.356C1710.62 344.017 1681.02 307.474 1643.17 288.581C1607.8 270.981 1565.37 271.961 1513.45 291.577C1440.86 318.849 1375.98 364.466 1307.28 412.765C1298.72 418.78 1289.88 424.997 1281.08 431.137C1277.63 433.548 1274.18 435.964 1270.74 438.377C1205.28 484.221 1137.6 531.626 1066.59 562.687C1059.41 565.829 1052.2 568.815 1045.15 571.559C1005.83 586.85 967.577 596.583 931.456 600.485C891.008 604.852 852.82 601.93 817.959 591.799C783.747 581.855 751.532 564.736 722.211 540.915C693.791 517.826 668.136 488.499 645.957 453.742C644.946 452.153 643.926 450.527 642.924 448.913C627.567 424.14 613.984 397.756 600.844 372.241C595.525 361.908 590.021 351.223 584.493 340.823C563.554 301.377 544.364 270.442 524.091 243.473C521.397 239.89 518.617 236.294 515.822 232.782C464.979 168.894 398.641 117.587 323.972 84.4098C234.397 44.719 143.029 32.9282 66.7036 51.2178C-11.6437 70.1474 -91.3796 138.755 -84.8291 228.623L-85.1264 228.647C-86.7053 206.97 -83.3929 185.686 -75.2754 165.384C-67.7853 146.65 -56.3435 129.022 -41.2651 112.993C-13.4159 83.3838 25.9109 60.7607 66.6352 50.9207C106.872 41.2798 150.92 39.8771 197.562 46.7556C239.505 52.9359 282.076 65.5107 324.091 84.128C398.802 117.326 465.181 168.661 516.045 232.583C518.84 236.095 521.626 239.697 524.32 243.28C544.602 270.264 563.804 301.208 584.749 340.669C590.28 351.07 595.78 361.758 601.103 372.091C614.237 397.599 627.819 423.977 643.171 448.741C644.173 450.355 645.19 451.978 646.201 453.568C691.299 524.239 750.718 571.932 818.036 591.496C884.49 610.809 960.866 604.001 1045.04 571.265C1052.09 568.521 1059.3 565.538 1066.47 562.399C1137.45 531.351 1205.13 483.954 1270.57 438.117C1274.02 435.701 1277.46 433.287 1280.91 430.877C1289.71 424.737 1298.55 418.52 1307.11 412.508C1375.82 364.199 1440.73 318.57 1513.35 291.286C1536.8 282.423 1557.62 277.452 1577 276.083C1601.26 274.371 1623.56 278.484 1643.3 288.303C1660.25 296.765 1677.2 309.707 1695.11 327.871C1710.91 343.897 1725.44 361.823 1739.48 379.157C1747.7 389.303 1755.47 398.889 1763.3 407.89C1837.35 492.934 1914.46 584.474 1999.04 687.74L1998.81 687.939Z" fill="#D60D0D"/><path d="M1995.66 685.055C1918.46 588.829 1840.63 493.614 1764.32 402.059C1756.55 392.792 1748.85 382.835 1740.7 372.297C1714.19 338.015 1684.15 299.16 1646.61 280.689C1610.83 263.12 1568.32 265.903 1516.66 289.197C1455.24 316.803 1400.88 357.394 1343.33 400.368C1325.31 413.825 1306.67 427.744 1287.87 441.171C1255.06 464.658 1219.56 489.51 1182.36 512.146C1142.51 536.389 1106.11 554.712 1071.07 568.169C1063.7 570.996 1056.29 573.657 1049.03 576.074C1008.88 589.435 969.587 597.04 932.244 598.675C890.904 600.482 852.112 594.933 816.943 582.168C751.997 558.305 695.234 508.376 648.232 433.765C647.23 432.173 646.219 430.544 645.223 428.93C630.644 405.25 617.3 380.269 604.395 356.108C598.32 344.737 592.04 332.977 585.722 321.532C563.986 282.095 544.409 251.433 524.112 225.037C521.379 221.484 518.563 217.922 515.736 214.446C464.274 151.174 397.449 100.648 322.489 68.3193C232.334 29.5166 140.719 18.7824 64.5185 38.0918C-14.3045 58.1792 -92.0422 125.877 -88.1084 216.4L-88.4057 216.412C-89.3483 194.73 -85.6077 173.469 -77.291 153.22C-69.5838 134.461 -58.0766 116.815 -43.0845 100.773C-28.9606 85.6595 -12.2201 72.4446 6.67016 61.4928C25.0104 50.8627 44.4478 42.8878 64.4442 37.7917C104.636 27.6087 148.732 25.6609 195.511 32.0096C237.555 37.7151 280.313 49.8337 322.602 68.0345C397.607 100.381 464.471 150.938 515.962 214.241C518.789 217.72 521.611 221.285 524.344 224.838C544.649 251.249 564.236 281.924 585.98 321.373C592.299 332.82 598.579 344.581 604.654 355.955C617.558 380.112 630.9 405.091 645.473 428.761C646.466 430.378 647.48 432.005 648.479 433.597C695.445 508.149 752.157 558.038 817.041 581.877C883.875 606.133 964.066 604.025 1048.94 575.779C1056.19 573.363 1063.6 570.705 1070.96 567.881C1149.31 537.798 1220.99 488.665 1287.7 440.917C1306.5 427.49 1325.13 413.574 1343.15 400.117C1400.72 357.134 1455.09 316.534 1516.54 288.916C1568.28 265.585 1610.87 262.801 1646.74 280.411C1663.55 288.683 1680.24 301.65 1697.77 320.046C1713.22 336.269 1727.31 354.488 1740.93 372.104C1749.08 382.642 1756.78 392.595 1764.55 401.857C1840.85 493.415 1918.69 588.63 1995.89 684.859L1995.66 685.055Z" fill="#D60D0D"/><path d="M1992.51 682.17C1916.49 585.411 1840.13 489.137 1765.56 396.019C1758.03 386.651 1750.57 376.52 1742.66 365.795C1716.8 330.713 1687.5 290.949 1650.05 272.791C1613.84 255.252 1571.26 259.84 1519.87 286.812C1466.03 315.03 1416.57 354.874 1368.73 393.41C1344.74 412.732 1319.94 432.712 1294.66 451.201C1254.77 480.411 1221.21 502.695 1189.03 521.33C1149.36 544.309 1112.23 561.422 1075.55 573.648C1068.01 576.159 1060.4 578.493 1052.92 580.585C1013.96 591.478 975.697 596.991 939.094 596.994C937.06 596.994 935.039 596.975 933.017 596.942C890.699 596.231 851.306 588.017 815.934 572.533C798.861 565.018 782.141 555.478 766.242 544.177C751.297 533.556 736.612 521.045 722.592 506.994C697.368 481.716 673.789 451.225 650.513 413.785C649.514 412.174 648.517 410.56 647.527 408.94C634.022 386.85 621.245 363.758 608.89 341.426C601.757 328.536 594.383 315.205 586.955 302.229C564.086 262.25 544.714 232.751 524.135 206.588C521.367 203.069 518.516 199.541 515.652 196.099C463.566 133.454 396.256 83.7057 321.005 52.2256C230.273 14.3142 138.408 4.63346 62.3327 24.9627C-15.0125 45.6901 -92.6491 113.903 -91.3854 204.171L-91.6827 204.175C-92.2715 162.129 -76.093 122.147 -44.8986 88.5537C-30.7985 73.3696 -14.1472 60.0597 4.59738 48.9855C22.8365 38.2114 42.2352 30.0282 62.2584 24.6626C102.403 13.9345 146.547 11.4446 193.462 17.2635C235.607 22.4912 278.556 34.1565 321.115 51.9378C396.414 83.4392 463.763 133.218 515.881 195.9C518.745 199.345 521.602 202.876 524.37 206.395C544.958 232.574 564.339 262.081 587.214 302.075C594.642 315.055 602.019 328.386 609.149 341.276C621.504 363.605 634.278 386.694 647.78 408.778C648.77 410.398 649.763 412.012 650.762 413.62C700.223 493.179 754.289 545.068 816.05 572.251C901.593 609.7 992.036 597.294 1052.85 580.291C1060.32 578.199 1067.92 575.868 1075.45 573.357C1159.84 545.237 1236.84 493.17 1294.49 450.953C1319.76 432.47 1344.57 412.49 1368.55 393.171C1416.4 354.629 1465.87 314.773 1519.74 286.542C1542.73 274.473 1563.54 267.061 1583.36 263.888C1607.8 259.974 1630.28 262.878 1650.18 272.519C1666.95 280.65 1683.48 293.721 1700.72 312.476C1715.91 329.001 1729.63 347.613 1742.9 365.614C1750.8 376.336 1758.27 386.464 1765.79 395.827C1840.36 488.944 1916.72 585.218 1992.74 681.977L1992.51 682.17Z" fill="#D60D0D"/><path d="M1989.35 679.285L1766.8 389.983C1759.53 380.535 1752.31 370.254 1744.67 359.373C1719.45 323.461 1690.87 282.76 1653.5 264.902C1617.36 247.635 1573.48 254.208 1523.09 284.438C1474.64 313.499 1430.45 352.145 1387.72 389.521C1359.86 413.883 1331.06 439.073 1301.46 461.243C1212.51 527.878 1134.77 567.235 1056.82 585.105C1024.48 592.516 992.577 596.247 961.639 596.247C952.26 596.247 942.977 595.904 933.792 595.218C890.475 591.983 850.482 581.111 814.929 562.908C781.977 546.033 751.833 522.212 722.782 490.08C699.583 464.422 677.345 433.833 652.799 393.814C639.844 372.695 627.299 350.752 615.167 329.531C587.71 281.51 559.32 231.854 524.171 188.151C470.256 121.121 399.488 68.5552 319.518 36.1349C228.212 -0.882245 136.098 -9.51254 60.147 11.8366C-13.3862 32.5058 -93.1964 97.6832 -94.6653 191.949L-94.9626 191.943C-94.3055 149.808 -77.6215 109.832 -46.7155 76.3371C-18.7711 46.0515 19.1522 23.0394 60.0697 11.5395C100.17 0.269279 144.361 -2.76572 191.41 2.52332C233.656 7.27029 276.795 18.4854 319.628 35.8501C359.198 51.8918 396.78 73.0081 431.331 98.6142C466.171 124.435 497.484 154.491 524.397 187.949C559.561 231.667 587.96 281.336 615.423 329.369C627.554 350.586 640.099 372.527 653.052 393.643C688.864 452.034 739.644 524.007 815.063 562.626C901.554 606.913 994.234 599.128 1056.75 584.799C1134.67 566.941 1212.37 527.599 1301.29 460.989C1330.87 438.828 1359.67 413.638 1387.52 389.282C1430.27 351.9 1474.47 313.245 1522.94 284.169C1573.42 253.886 1617.39 247.308 1653.62 264.62C1670.36 272.617 1686.74 285.801 1703.7 304.933C1718.64 321.774 1732 340.795 1744.91 359.189C1752.55 370.07 1759.77 380.345 1767.03 389.79L1989.59 679.092L1989.35 679.285Z" fill="#D60D0D"/><path d="M1987.56 657.044C1930.89 576.493 1882.27 511.129 1834.54 451.344C1811.38 422.302 1787.72 393.716 1764.22 366.38C1757.11 358.111 1750.07 349.315 1742.62 340.002C1723.88 316.595 1704.51 292.391 1682.22 274.429C1670.25 264.767 1658.73 257.849 1647 253.279C1610.98 239.115 1568.72 248.48 1521.4 281.118C1496.91 297.984 1474.61 317.177 1456.02 333.727C1436.35 351.248 1416.94 370.569 1398.17 389.254C1371.19 416.113 1343.29 443.884 1313.3 467.735C1295.05 482.291 1276.56 495.298 1258.32 506.397C1221.84 528.6 1182.68 546.896 1141.93 560.776C1116.75 569.256 1091.45 575.666 1066.74 579.825C1045.44 583.396 1024.11 585.457 1003.32 585.95C972.207 586.691 941.895 583.864 913.225 577.54C882.742 570.815 853.893 560.081 827.483 545.631C803.933 532.747 781.689 516.525 759.48 496.033C718.096 457.88 685.088 413.764 660.955 379.592C649.1 362.726 637.525 345.527 626.33 328.894C594.094 280.993 563.646 235.749 525.545 195.449C494.469 162.796 459.014 134.617 420.154 111.691C390.292 94.0722 357.813 79.6629 323.621 68.8613C315.477 66.2918 307.178 63.8968 298.962 61.75C263.59 52.5225 223.77 46.5138 180.61 43.8891C137.097 41.1818 99.4502 43.5247 65.5262 51.0586C46.3475 55.2849 27.7664 61.9154 10.2915 70.7631C-51.4015 102.001 -91.0167 154.441 -95.6791 211.044L-96.0508 211.01C-94.8079 195.921 -91.1594 181.058 -85.2096 166.829C-79.5571 153.314 -71.7934 140.28 -62.1357 128.088C-43.8876 105.058 -18.8988 85.1143 10.1279 70.417C27.6296 61.554 46.2404 54.9144 65.4489 50.6819C99.4086 43.1419 137.085 40.796 180.634 43.5063C223.817 46.1309 263.659 52.1458 299.055 61.3794C307.279 63.5293 315.581 65.9243 323.731 68.4968C357.95 79.3046 390.455 93.7262 420.341 111.36C459.228 134.302 494.713 162.505 525.803 195.18C563.929 235.504 594.383 280.76 626.63 328.674C637.822 345.306 649.398 362.503 661.25 379.365C685.37 413.522 718.364 457.616 759.724 495.745C781.909 516.215 804.13 532.423 827.653 545.291C879.34 573.568 938.437 587.12 1003.31 585.567C1024.08 585.074 1045.4 583.013 1066.68 579.445C1091.37 575.286 1116.65 568.882 1141.81 560.408C1182.53 546.538 1221.67 528.254 1258.13 506.063C1276.35 494.974 1294.84 481.973 1313.07 467.429C1343.05 443.59 1370.94 415.825 1397.91 388.975C1416.68 370.288 1436.09 350.96 1455.77 333.433C1474.37 316.873 1496.68 297.674 1521.19 280.796C1542.26 266.265 1562.66 256.226 1581.83 250.955C1605.38 244.481 1627.35 245.142 1647.13 252.921C1658.9 257.506 1670.45 264.442 1682.45 274.126C1704.77 292.116 1724.16 316.334 1742.91 339.757C1750.36 349.067 1757.4 357.863 1764.5 366.126C1788 393.465 1811.66 422.054 1834.83 451.102C1882.56 510.893 1931.19 576.263 1987.86 656.821L1987.56 657.044Z" fill="#D60D0D"/><path d="M1985.77 634.798C1933.22 552.884 1883.91 484.338 1835.01 425.246C1811.16 396.381 1786.47 368.634 1761.64 342.777C1755.05 335.917 1748.55 328.787 1741.66 321.241C1721.04 298.642 1699.71 275.275 1675.83 259.108C1663.77 250.909 1652.21 245.201 1640.49 241.654C1595.62 228.069 1550.05 253.806 1519.71 277.789C1498.21 294.731 1478.58 313.888 1458.7 333.663C1441.3 350.972 1424.92 369.593 1407.59 389.303C1381.86 418.563 1355.25 448.818 1325.14 474.222C1307.28 489.379 1288.63 502.483 1269.72 513.172C1234.5 533.084 1195.93 548.547 1151.81 560.448C1127.12 567.106 1101.83 571.85 1076.65 574.542C1055.41 576.787 1034.2 577.59 1013.62 576.919C983 575.933 953.07 571.498 924.655 563.741C894.814 555.591 866.34 543.684 840.028 528.35C816.975 514.917 794.716 498.251 771.978 477.401C730.683 439.587 695.308 397.667 669.106 365.369C659.406 353.413 649.862 341.383 640.629 329.746C603.862 283.403 569.136 239.627 526.919 202.747C495.367 175.184 459.945 151.878 421.641 133.478C392.659 119.556 361.94 109.125 327.734 101.588C319.839 99.8515 311.808 98.2866 303.866 96.936C268.981 91.0344 231.751 88.8018 186.706 86.4927C154.236 84.7439 111.731 83.5924 70.8963 90.2749C51.5571 93.3803 32.863 98.7735 15.3286 106.298C-46.406 132.799 -88.284 179.092 -96.6989 230.139L-97.1389 230.062C-94.9088 216.526 -90.3892 203.25 -83.7138 190.598C-77.3507 178.544 -68.9893 166.986 -58.8647 156.236C-39.6236 135.815 -14.0282 118.398 15.1562 105.873C32.7233 98.3325 51.453 92.9301 70.825 89.8186C111.698 83.1269 154.236 84.2815 186.727 86.0302C231.786 88.3394 269.029 90.572 303.937 96.4766C311.885 97.8302 319.922 99.3952 327.826 101.132C362.065 108.678 392.813 119.118 421.828 133.056C460.171 151.474 495.623 174.799 527.207 202.389C569.454 239.296 604.195 283.085 640.974 329.446C650.204 341.08 659.748 353.11 669.448 365.063C695.644 397.349 731.004 439.254 772.275 477.049C794.987 497.877 817.222 514.525 840.248 527.942C891.986 558.093 950.325 574.414 1013.64 576.453C1034.2 577.121 1055.39 576.322 1076.61 574.077C1101.77 571.388 1127.03 566.65 1151.7 559.995C1195.78 548.106 1234.32 532.656 1269.51 512.761C1288.39 502.085 1307.02 488.999 1324.86 473.858C1354.95 448.475 1381.54 418.232 1407.26 388.988C1424.6 369.268 1440.98 350.645 1458.39 333.326C1478.29 313.539 1497.93 294.376 1519.44 277.416C1539.11 261.867 1558.51 250.683 1577.1 244.165C1599.65 236.264 1621.02 235.269 1640.63 241.204C1652.39 244.766 1663.98 250.493 1676.08 258.716C1700 274.914 1721.35 298.302 1741.99 320.919C1748.87 328.462 1755.38 335.589 1761.96 342.446C1786.8 368.312 1811.49 396.069 1835.35 424.942C1884.26 484.05 1933.59 552.608 1986.14 634.541L1985.77 634.798Z" fill="#D60D0D"/><path d="M1983.97 612.552C1934.8 528.163 1886.22 458.358 1835.47 399.15C1810.93 370.463 1785.22 343.558 1759.06 319.177C1753.47 313.965 1747.72 308.434 1742.15 303.086C1719.16 280.993 1695.39 258.149 1669.44 243.789C1657.26 237.002 1645.66 232.501 1634 230.029C1589.23 220.538 1546.22 248.953 1518.02 274.458C1498.91 291.675 1481.44 311.19 1464.55 330.064L1461.39 333.599C1446.05 350.721 1431.66 369.501 1416.42 389.386C1392.16 421.05 1367.08 453.789 1336.98 480.709C1319.47 496.487 1300.68 509.69 1281.12 519.949C1247.02 537.838 1209.06 550.603 1161.69 560.121C1137.19 565.043 1111.91 568.117 1086.56 569.257C1065.37 570.172 1044.29 569.713 1023.91 567.885C962.216 562.375 904.567 543.259 852.567 511.068C830.088 497.152 807.814 480.047 784.475 458.769C744.979 422.836 709.851 385.901 677.259 351.15C672.888 346.492 668.565 341.865 664.274 337.274C619.758 289.654 577.714 244.674 528.301 210.055C496.042 187.453 460.655 169.023 423.128 155.272C395.576 145.178 365.716 138.324 331.849 134.318C324.216 133.421 316.452 132.682 308.772 132.125C289.451 130.747 268.958 130.523 247.26 130.288C229.833 130.098 211.814 129.902 192.799 129.102C156.074 127.427 114.451 125.531 76.2606 129.5C56.5556 131.549 37.7485 135.702 20.3598 141.846C-41.351 163.651 -85.4948 203.804 -97.7246 249.256L-98.2271 249.112C-95.0038 237.128 -89.616 225.438 -82.2151 214.367C-75.1383 203.78 -66.1823 193.692 -55.5968 184.385C-35.3506 166.585 -9.14268 151.701 20.1874 141.337C37.6147 135.178 56.4604 131.016 76.2041 128.965C114.434 124.992 156.077 126.891 192.817 128.566C211.82 129.363 229.839 129.562 247.26 129.752C268.966 129.987 289.465 130.211 308.805 131.592C316.491 132.153 324.264 132.891 331.902 133.788C365.812 137.797 395.707 144.66 423.297 154.77C460.87 168.536 496.295 186.988 528.59 209.614C578.047 244.264 620.112 289.265 664.646 336.906C668.936 341.497 673.263 346.122 677.631 350.783C710.217 385.527 745.333 422.453 784.817 458.374C808.132 479.628 830.382 496.717 852.835 510.615C904.766 542.765 962.341 561.854 1023.96 567.358C1044.32 569.183 1065.37 569.643 1086.54 568.727C1111.86 567.588 1137.11 564.516 1161.59 559.6C1208.91 550.091 1246.82 537.342 1280.88 519.478C1300.4 509.24 1319.16 496.061 1336.64 480.311C1366.69 453.424 1391.76 420.704 1416.01 389.059C1431.25 369.164 1445.65 350.375 1461 333.24L1464.16 329.706C1481.07 310.822 1498.54 291.296 1517.68 274.059C1545.96 248.472 1589.12 219.975 1634.1 229.508C1645.82 231.992 1657.46 236.509 1669.68 243.324C1695.69 257.715 1719.49 280.583 1742.5 302.701C1748.06 308.048 1753.82 313.579 1759.41 318.788C1785.58 343.181 1811.3 370.101 1835.85 398.804C1886.63 458.037 1935.22 527.866 1984.41 612.283L1983.97 612.552Z" fill="#D60D0D"/><path d="M1982.18 590.302C1937.03 504.64 1887.83 431.545 1835.94 373.057C1810.71 344.55 1783.98 318.485 1756.49 295.583C1752.52 292.275 1748.46 288.842 1744.53 285.523C1718.55 263.592 1691.68 240.91 1663.07 228.476C1650.79 223.083 1639.16 219.791 1627.52 218.407C1582.87 213.102 1542.42 244.147 1516.34 271.125C1500.15 287.792 1485.54 306.327 1471.41 324.252C1468.96 327.354 1466.52 330.45 1464.07 333.534C1450.63 350.476 1438.06 369.403 1424.75 389.438C1402.13 423.5 1378.74 458.72 1348.83 487.201C1331.26 503.926 1312.84 516.856 1292.52 526.736C1250 547.399 1207.51 555.046 1171.56 559.805C1147.24 563.021 1121.98 564.43 1096.47 563.983C1075.34 563.569 1054.4 561.845 1034.21 558.862C974.366 550.039 917.472 528.148 865.112 493.795C843.326 479.505 821.04 461.957 796.976 440.148C772.668 418.171 750.016 397.024 728.108 376.572C713.22 362.671 699.156 349.542 685.421 336.946C633.505 289.329 585.951 247.464 529.696 217.371C496.744 199.746 461.393 186.185 424.623 177.068C398.27 170.533 370.099 167.351 335.973 167.047C328.611 166.992 321.112 167.081 313.687 167.314C302.409 167.691 290.741 168.478 278.392 169.314C254.694 170.915 227.829 172.732 198.891 171.715C187.872 171.326 176.629 170.778 165.755 170.245C137.787 168.876 108.867 167.461 81.6217 168.726C61.6134 169.657 42.6904 172.572 25.385 177.393C-36.2218 194.558 -82.6284 228.574 -98.7563 268.384L-99.3064 268.149C-95.0841 257.724 -88.828 247.623 -80.7134 238.126C-72.92 229.006 -63.3694 220.391 -52.3319 212.523C-31.0629 197.364 -4.24538 185.012 25.2244 176.802C42.5715 171.969 61.5361 169.044 81.589 168.113C108.864 166.845 137.796 168.263 165.779 169.632C176.65 170.165 187.893 170.713 198.909 171.102C227.82 172.119 254.664 170.306 278.351 168.704C290.705 167.868 302.376 167.081 313.666 166.704C321.1 166.472 328.605 166.383 335.976 166.438C370.15 166.738 398.362 169.929 424.76 176.474C461.574 185.603 496.973 199.18 529.967 216.829C555.378 230.421 581.128 247.642 608.689 269.472C633.362 289.014 657.364 310.397 685.814 336.49C699.548 349.089 713.612 362.218 728.503 376.119C750.409 396.568 773.06 417.715 797.362 439.689C821.403 461.476 843.665 479.006 865.425 493.281C917.713 527.587 974.526 549.448 1034.29 558.259C1054.45 561.239 1075.37 562.96 1096.47 563.373C1121.96 563.82 1147.19 562.415 1171.48 559.199C1207.39 554.449 1249.82 546.811 1292.26 526.185C1312.53 516.332 1330.9 503.436 1348.42 486.754C1378.28 458.321 1401.65 423.129 1424.26 389.095C1437.57 369.048 1450.15 350.112 1463.6 333.151C1466.05 330.068 1468.49 326.971 1470.94 323.872C1485.08 305.935 1499.7 287.388 1515.91 270.7C1532.88 253.148 1550.28 239.645 1567.64 230.568C1588.2 219.815 1608.37 215.522 1627.57 217.806C1639.27 219.197 1650.96 222.504 1663.29 227.919C1691.98 240.387 1718.88 263.095 1744.89 285.054C1748.82 288.374 1752.89 291.807 1756.85 295.111C1784.36 318.032 1811.11 344.122 1836.36 372.649C1863.91 403.707 1890.89 439.092 1916.55 477.821C1939.24 512.051 1961.48 549.8 1982.68 590.014L1982.18 590.302Z" fill="#D60D0D"/><path d="M1980.38 568.046C1938.59 479.927 1890.15 405.544 1836.4 346.96C1810.49 318.634 1782.74 293.411 1753.93 271.986C1752.56 270.966 1751.19 269.946 1749.81 268.923C1719.86 246.615 1688.88 223.548 1656.71 213.163C1644.24 209.139 1632.58 207.053 1621.05 206.784C1576.58 205.748 1538.65 239.388 1514.67 267.787C1500.56 284.401 1488.03 302.611 1475.92 320.221C1472.93 324.576 1469.83 329.078 1466.77 333.463C1455.12 350.167 1444.3 369.158 1432.84 389.266C1411.99 425.842 1390.44 463.662 1360.68 493.687C1343.46 511.058 1324.9 524.086 1303.92 533.519C1262.59 552.1 1220.63 556.978 1181.44 559.483C1157.27 561.027 1132.02 560.764 1106.38 558.702C1085.32 556.957 1064.51 553.971 1044.51 549.83C986.699 537.886 930.561 513.22 877.66 476.516C856.474 461.818 834.81 444.343 809.485 421.521C761.354 378.266 725.613 347.799 693.601 322.738C629.931 272.895 581.336 243.571 531.117 224.687C497.496 212.045 462.181 203.357 426.146 198.861C401.145 195.743 374.613 196.022 340.121 199.773C333.053 200.551 325.822 201.467 318.626 202.499C311.829 203.488 304.924 204.621 297.613 205.819C270.617 210.244 240.017 215.261 204.996 214.324C186.537 213.831 167.682 212.48 149.449 211.175C128.727 209.693 107.3 208.159 86.9857 207.95C66.6176 207.742 47.5787 209.421 30.413 212.942C-30.9886 225.533 -79.6639 253.417 -99.7911 287.531L-100.362 287.173C-95.1347 278.31 -88.0104 269.799 -79.1881 261.876C-70.6722 254.226 -60.5328 247.087 -49.0493 240.652C-26.7425 228.151 0.690445 218.333 30.2822 212.266C47.4954 208.738 66.576 207.053 86.9917 207.261C107.324 207.47 128.763 209.004 149.493 210.489C167.721 211.794 186.566 213.145 205.011 213.638C239.969 214.572 270.536 209.561 297.503 205.142C304.817 203.942 311.728 202.812 318.528 201.819C325.732 200.787 332.97 199.871 340.044 199.09C374.589 195.336 401.166 195.054 426.22 198.181C462.306 202.683 497.672 211.384 531.34 224.044C581.627 242.952 630.273 272.307 693.999 322.193C726.023 347.263 761.776 377.739 809.919 421.007C835.226 443.81 856.867 461.267 878.029 475.949C930.858 512.602 986.913 537.234 1044.64 549.16C1064.61 553.294 1085.4 556.274 1106.43 558.019C1132.04 560.078 1157.26 560.341 1181.39 558.8C1220.52 556.298 1262.41 551.432 1303.65 532.894C1324.55 523.498 1343.05 510.513 1360.21 493.203C1389.9 463.242 1411.43 425.463 1432.26 388.926C1443.72 368.805 1454.56 349.799 1466.22 333.071C1469.28 328.689 1472.38 324.187 1475.37 319.832C1487.49 302.207 1500.03 283.985 1514.16 267.343C1529.81 248.808 1546.22 234.148 1562.93 223.766C1582.5 211.604 1602.06 205.666 1621.06 206.104C1632.65 206.373 1644.38 208.471 1656.9 212.514C1689.18 222.936 1720.2 246.033 1750.2 268.375C1751.58 269.398 1752.95 270.421 1754.32 271.437C1783.16 292.888 1810.94 318.141 1836.89 346.498C1890.68 405.133 1939.16 479.575 1980.98 567.755L1980.38 568.046Z" fill="#D60D0D"/><path d="M1196.23 559.165C1194.56 559.165 1192.92 559.162 1191.3 559.153C1167.26 559.049 1142.02 557.12 1116.28 553.414C1095.3 550.336 1074.61 546.088 1054.8 540.793C1026.49 533.241 998.084 522.387 970.357 508.535C943.581 495.158 916.615 478.571 890.205 459.231C864.327 440.283 840.156 419.17 821.988 402.892C779.48 364.91 739.035 333.164 701.778 308.531C641.435 268.639 587.66 244.319 532.541 231.998C499.289 224.565 463.614 220.645 429.265 220.645C428.732 220.645 428.203 220.645 427.671 220.648C398.163 220.752 370.147 226.4 344.272 232.488C337.537 234.084 330.57 235.826 323.565 237.673C319.726 238.696 315.881 239.749 311.814 240.864C283.123 248.738 250.602 257.659 211.094 256.927C187.033 256.48 162.458 253.914 138.691 251.43C123.345 249.825 107.479 248.168 92.3438 247.167C71.5387 245.792 52.3927 246.233 35.4321 248.484C-25.6424 256.581 -76.5864 278.338 -100.847 306.685L-101.406 306.179C-88.9619 291.641 -70.244 279.054 -45.7726 268.764C-22.4013 258.939 5.64715 251.663 35.337 247.727C52.3421 245.473 71.5387 245.026 92.3914 246.407C107.541 247.409 123.416 249.069 138.768 250.674C162.52 253.157 187.081 255.724 211.109 256.168C250.516 256.9 282.98 247.991 311.623 240.132C315.694 239.014 319.539 237.961 323.38 236.938C330.392 235.091 337.365 233.346 344.105 231.75C370.025 225.653 398.088 219.996 427.668 219.889C462.564 219.763 498.879 223.695 532.699 231.257C561.146 237.618 588.725 246.98 617.005 259.88C644.242 272.304 672.103 288.009 702.176 307.894C739.463 332.545 779.938 364.316 822.473 402.322C840.626 418.591 864.779 439.689 890.63 458.615C944.221 497.859 999.518 525.26 1054.98 540.061C1074.77 545.35 1095.43 549.592 1116.38 552.667C1142.09 556.366 1167.29 558.295 1191.3 558.397C1228.87 558.556 1272.49 557.251 1315.03 539.596C1336.57 530.659 1355.2 517.591 1371.99 499.647C1401.47 468.134 1421.02 427.686 1439.93 388.568C1449.66 368.447 1458.84 349.441 1468.83 332.989C1472.03 327.718 1475.26 322.289 1478.38 317.036C1488.93 299.292 1499.84 280.947 1512.4 263.99C1526.76 244.481 1542.17 228.657 1558.2 216.958C1576.79 203.394 1595.74 195.805 1614.52 194.402C1626.11 193.535 1637.88 194.421 1650.49 197.109C1684.22 204.294 1717.64 225.169 1751.76 247.761C1781.52 267.459 1811.13 292.557 1837.4 320.344C1866.58 351.119 1893.99 387.224 1918.89 427.653C1941.06 463.672 1961.37 503.32 1979.26 545.497L1978.58 545.803C1940.17 455.225 1892.49 379.549 1836.87 320.88C1810.63 293.133 1781.07 268.072 1751.36 248.407C1717.3 225.855 1683.94 205.02 1650.34 197.86C1637.8 195.186 1626.1 194.307 1614.57 195.168C1580.06 197.749 1543.98 222.354 1512.99 264.455C1500.45 281.382 1489.55 299.711 1479.01 317.437C1475.89 322.693 1472.66 328.126 1469.46 333.396C1459.49 349.818 1450.31 368.809 1440.6 388.911C1431.32 408.104 1421.73 427.953 1410.72 447.033C1398.24 468.664 1385.75 486.047 1372.52 500.18C1355.66 518.204 1336.95 531.33 1315.31 540.309C1296.23 548.229 1275.72 553.463 1252.62 556.317C1233.05 558.721 1213.39 559.165 1196.23 559.165Z" fill="#D60D0D"/><path d="M1243.91 560.7C1228.75 560.7 1214.19 559.769 1201.16 558.825C1177.2 557.092 1151.97 553.493 1126.17 548.128C1105.27 543.721 1084.72 538.214 1065.08 531.755C1011.29 514.106 958.19 484.727 902.738 441.946C878.555 423.292 855.758 403.22 834.486 384.262C792.489 346.945 750.593 316.687 709.955 294.324C650.189 261.435 594.27 243.951 533.975 239.302C499.62 236.653 463.391 237.734 429.203 242.426C400.586 246.352 373.608 255.828 348.423 265.193C342.122 267.548 335.42 270.121 328.507 272.837C326.779 273.52 325.037 274.215 323.271 274.917C294.265 286.469 261.444 299.54 219.322 299.54C218.611 299.54 217.904 299.537 217.187 299.527C188.69 299.23 159.594 295.041 131.454 290.986C120.297 289.378 108.76 287.718 97.6904 286.374C76.0675 283.752 57.3407 282.977 40.4367 284.013C-21.0452 287.779 -72.9407 303.019 -101.938 325.832L-102.434 325.161C-88.0994 313.885 -67.3715 304.094 -42.4986 296.848C-18.0331 289.721 10.6279 284.993 40.3861 283.17C57.3377 282.132 76.1121 282.907 97.7825 285.535C108.865 286.879 120.404 288.542 131.564 290.147C159.678 294.196 188.746 298.382 217.19 298.679C260.189 299.132 293.545 285.844 322.97 274.124C324.734 273.422 326.479 272.727 328.207 272.041C335.126 269.321 341.831 266.749 348.138 264.394C373.364 255.01 400.393 245.522 429.087 241.584C463.329 236.886 499.617 235.802 534.028 238.454C563.909 240.757 592.397 246.196 621.121 255.077C650.703 264.225 679.885 276.816 710.333 293.574C751.021 315.967 792.971 346.262 835.012 383.616C856.275 402.567 879.058 422.627 903.22 441.263C958.598 483.986 1011.62 513.322 1065.32 530.944C1084.93 537.39 1105.46 542.891 1126.32 547.292C1152.09 552.651 1177.29 556.247 1201.21 557.974C1241.46 560.883 1284.28 562.378 1326.41 546.278C1348.58 537.804 1367.34 524.653 1383.76 506.073C1413.01 472.976 1431.22 427.83 1447.28 387.999C1455.36 367.957 1463 349.028 1471.42 332.891C1474.46 327.069 1477.52 321.051 1480.48 315.232C1489.73 297.025 1499.3 278.2 1510.63 260.618C1523.73 240.135 1538.15 223.147 1553.47 210.125C1571.08 195.171 1589.41 185.934 1607.97 182.679C1619.57 180.642 1631.38 180.317 1644.07 181.677C1679.53 185.484 1715.55 204.294 1749.2 224.057C1780.27 242.304 1810.94 266.547 1837.9 294.165C1867.9 324.797 1895.53 361.263 1920.04 402.543C1941.95 439.459 1961.3 480.056 1977.54 523.214L1976.78 523.517C1942.26 431.781 1894.04 352.678 1837.33 294.759C1810.42 267.193 1779.81 242.996 1748.8 224.786C1715.23 205.069 1679.3 186.305 1643.99 182.513C1631.37 181.159 1619.64 181.484 1608.11 183.505C1573.85 189.517 1539.47 217.065 1511.32 261.077C1500.01 278.622 1490.45 297.43 1481.21 315.618C1478.25 321.44 1475.19 327.458 1472.15 333.286C1463.74 349.386 1456.12 368.297 1448.04 388.317C1431.95 428.21 1413.71 473.429 1384.36 506.636C1367.85 525.318 1348.99 538.542 1326.7 547.065C1307.35 554.458 1286.49 558.74 1262.9 560.145C1256.52 560.543 1250.17 560.7 1243.91 560.7Z" fill="#D60D0D"/><path d="M1273.84 564.017C1273.62 564.017 1273.41 564.017 1273.19 564.017C1251.77 563.961 1230.73 561.26 1211.02 558.498C1187.09 555.147 1161.88 549.877 1136.06 542.839C1115.26 537.109 1094.84 530.338 1075.36 522.718C1023.73 502.545 972.861 471.389 915.28 424.664C894.543 407.841 874.137 389.726 854.399 372.211C851.931 370.019 849.46 367.829 846.989 365.639C804.775 328.331 761.425 299.558 718.147 280.123C658.883 253.513 599.114 242.549 535.423 246.607C500.5 248.833 464.304 254.918 430.748 264.204C404.273 271.533 380.682 283.29 352.588 297.898C346.894 300.872 340.814 304.082 333.457 308.002L333.047 308.222C318.855 315.836 302.768 324.463 284.726 331.023C264.004 338.557 243.9 342.183 223.285 342.14C191.139 342.057 158.333 335.896 126.61 329.933C118.837 328.472 110.797 326.962 103.036 325.596C80.78 321.685 61.9402 319.71 45.4406 319.56C-15.3128 319.009 -69.4355 328.282 -103.047 344.998L-103.434 344.171C-86.9699 335.981 -64.7612 329.336 -39.2104 324.95C-13.612 320.555 15.6645 318.375 45.4495 318.644C61.9967 318.794 80.884 320.773 103.188 324.693C110.954 326.059 118.995 327.568 126.77 329.029C158.455 334.983 191.22 341.139 223.288 341.221C223.431 341.221 223.577 341.221 223.719 341.221C269.591 341.221 304.538 322.479 332.637 307.408L333.05 307.187C340.409 303.264 346.49 300.054 352.187 297.081C380.328 282.448 403.961 270.669 430.519 263.319C464.131 254.015 500.386 247.92 535.369 245.691C566.537 243.706 595.935 245.219 625.25 250.322C656.84 255.819 687.345 265.291 718.504 279.284C761.865 298.756 805.289 327.575 847.572 364.944C850.043 367.134 852.514 369.326 854.982 371.519C874.71 389.028 895.111 407.137 915.83 423.947C973.337 470.615 1024.13 501.727 1075.68 521.867C1095.13 529.477 1115.52 536.236 1136.29 541.96C1162.07 548.989 1187.25 554.25 1211.13 557.594C1253.91 563.591 1295.79 567.75 1337.81 553C1360.61 544.995 1379.5 531.762 1395.55 512.541C1424.54 477.821 1440.37 429.711 1454.35 387.261C1460.89 367.388 1467.07 348.614 1474.04 332.839C1476.72 326.769 1479.41 320.491 1482.01 314.418C1490.15 295.43 1498.56 275.799 1508.87 257.289C1520.75 235.823 1534.17 217.669 1548.75 203.33C1565.39 186.988 1583.11 176.11 1601.43 171.001C1612.79 167.835 1624.38 166.291 1636.84 166.291C1637.11 166.291 1637.38 166.291 1637.66 166.294C1676.39 166.502 1716.25 184.627 1746.65 200.393C1779.03 217.191 1810.77 240.576 1838.42 268.023C1869.24 298.514 1897.09 335.338 1921.21 377.476C1942.85 415.289 1961.23 456.839 1975.83 500.977L1974.98 501.274C1953.26 435.6 1911.83 341.941 1837.81 268.688C1810.22 241.302 1778.55 217.972 1746.25 201.213C1715.94 185.49 1676.2 167.418 1637.65 167.213C1624.96 167.136 1613.2 168.674 1601.66 171.889C1567.72 181.356 1535.04 211.847 1509.65 257.745C1499.36 276.212 1490.95 295.822 1482.83 314.788C1480.23 320.865 1477.53 327.146 1474.85 333.219C1467.9 348.954 1461.72 367.703 1455.19 387.555C1441.19 430.082 1425.33 478.283 1396.22 513.138C1380.07 532.487 1361.05 545.81 1338.1 553.867C1318.64 560.694 1297.61 564.017 1273.84 564.017Z" fill="#D60D0D"/><path d="M1297.64 568.328C1293.02 568.328 1288.31 568.175 1283.48 567.869C1262.34 566.53 1241.8 562.515 1220.87 558.166C1196.6 553.125 1172.1 546.382 1145.95 537.549C1125.26 530.499 1104.97 522.469 1085.65 513.677C1036.62 491.406 987.948 458.621 927.822 407.378C912.89 394.653 897.963 381.307 883.527 368.398C875.668 361.372 867.545 354.105 859.495 347.009C816.779 309.45 771.981 282.169 726.345 265.919C666.046 244.447 604.074 240.515 536.88 253.898C501.38 260.969 465.217 272.059 432.304 285.966C405.864 297.138 382.832 312.828 358.446 329.439L356.76 330.588C352.951 333.191 349.101 335.831 345.203 338.501C342.958 340.042 340.698 341.591 338.417 343.153C324.198 352.944 308.84 363.158 291.229 371.02C270.78 380.146 250.555 384.636 229.39 384.746C194.155 384.924 158.215 376.489 123.461 368.324C118.501 367.158 113.369 365.954 108.389 364.812C85.0381 359.452 66.6296 356.368 50.4481 355.1C-9.26462 350.424 -65.6173 353.719 -104.165 364.144L-104.412 363.182C-65.763 352.73 -9.29435 349.422 50.5224 354.108C66.7485 355.379 85.2047 358.472 108.6 363.841C113.583 364.986 118.715 366.19 123.678 367.357C158.006 375.42 193.492 383.754 228.26 383.754C228.635 383.754 229.009 383.754 229.387 383.751C274.357 383.518 306.369 364.022 337.885 342.326C340.166 340.764 342.425 339.215 344.67 337.674C348.569 335.001 352.416 332.364 356.228 329.758L357.914 328.609C382.341 311.97 405.412 296.253 431.938 285.044C464.91 271.11 501.136 260.002 536.698 252.918C604.062 239.501 666.201 243.446 726.663 264.975C772.412 281.268 817.314 308.611 860.126 346.253C868.175 353.352 876.301 360.616 884.16 367.645C898.59 380.55 913.514 393.894 928.438 406.61C988.492 457.794 1037.1 490.533 1086.04 512.767C1105.33 521.544 1125.59 529.565 1146.25 536.603C1172.36 545.423 1196.83 552.158 1221.06 557.189C1257.84 564.831 1303.62 574.343 1349.21 559.692C1372.64 552.161 1391.66 538.845 1407.33 518.981C1436.04 482.598 1449.35 431.425 1461.1 386.28C1466.2 366.668 1471.02 348.142 1476.65 332.768C1478.84 326.778 1481.04 320.582 1483.16 314.589C1490.28 294.489 1497.65 273.707 1507.11 253.941C1517.79 231.477 1530.21 212.155 1544.03 196.512C1559.69 178.786 1576.8 166.269 1594.88 159.308C1606.48 154.84 1618.37 152.086 1631.23 150.889C1648.46 149.284 1666.79 150.999 1687.28 156.12C1704.61 160.456 1723.19 167.188 1744.09 176.703C1777.79 192.05 1810.59 214.581 1838.94 241.859C1870.57 272.206 1898.64 309.395 1922.37 352.387C1943.74 391.101 1961.15 433.603 1974.11 478.717L1973.19 478.999C1945.81 383.754 1897.9 299.794 1838.28 242.588C1810.01 215.383 1777.3 192.916 1743.7 177.616C1698.68 157.115 1662.97 148.935 1631.32 151.881C1618.55 153.069 1606.74 155.804 1595.22 160.239C1552.21 176.798 1524.04 220.574 1507.98 254.379C1498.54 274.096 1491.18 294.854 1484.07 314.929C1481.94 320.925 1479.74 327.124 1477.55 333.117C1471.94 348.445 1467.13 366.949 1462.03 386.538C1450.26 431.781 1436.92 483.06 1408.08 519.609C1392.28 539.629 1373.12 553.052 1349.49 560.644C1333.48 565.789 1316.4 568.328 1297.64 568.328Z" fill="#D60D0D"/><path d="M1318.26 573.271C1286.81 573.271 1256.58 564.95 1230.72 557.833C1206.39 551.138 1181.89 542.771 1155.83 532.257C1135.26 523.897 1115.1 514.605 1095.92 504.636C1038.43 474.789 987.178 431.946 940.358 390.093C930.798 381.549 921.141 372.741 911.804 364.224C898.84 352.396 885.432 340.168 871.998 328.383C828.643 290.453 782.397 264.657 734.548 251.712C672.65 234.969 608.468 238.065 538.336 261.181C502.227 273.082 466.1 289.176 433.859 307.723C408.992 322.025 387.952 340.082 365.677 359.198C364.099 360.552 362.517 361.912 360.926 363.272L360.064 364.013C354.649 368.665 349.05 373.473 343.374 378.3C329.773 389.916 314.796 401.93 297.473 411.109C277.363 421.763 257.09 427.077 235.488 427.353C197.571 427.84 158.925 416.86 121.555 406.242C118.935 405.498 116.327 404.757 113.732 404.025C89.0877 397.061 71.1102 392.932 55.4461 390.636C-2.76796 382.103 -61.3567 379.42 -105.298 383.276L-105.387 382.207C-61.3745 378.342 -2.69957 381.028 55.5918 389.573C71.3005 391.876 89.3166 396.013 114.005 402.99C116.601 403.722 119.209 404.463 121.831 405.21C159.13 415.807 197.702 426.758 235.473 426.281C282.385 425.68 315.423 400.773 342.708 377.473C348.384 372.646 353.983 367.838 359.398 363.189L360.26 362.448C361.851 361.085 363.433 359.728 365.011 358.375C387.324 339.224 408.4 321.137 433.35 306.786C465.651 288.205 501.846 272.084 538.018 260.161C571.267 249.203 602.497 242.876 633.49 240.818C668.062 238.524 702.149 241.841 734.81 250.677C782.81 263.662 829.193 289.531 872.671 327.565C886.113 339.356 899.524 351.588 912.491 363.419C921.828 371.936 931.479 380.74 941.036 389.282C987.808 431.089 1039 473.885 1096.39 503.678C1115.54 513.631 1135.67 522.911 1156.21 531.259C1182.23 541.758 1206.69 550.112 1230.98 556.798C1268.29 567.063 1314.71 579.84 1360.59 566.396C1384.66 559.34 1403.8 545.941 1419.1 525.434C1447.51 487.339 1458.14 433.018 1467.53 385.089C1471.3 365.832 1474.86 347.643 1479.24 332.707C1480.87 327.182 1482.5 321.474 1484.07 315.952C1490.24 294.355 1496.62 272.02 1505.34 250.603C1514.83 227.122 1526.25 206.628 1539.28 189.695C1553.99 170.588 1570.49 156.432 1588.32 147.621C1599.89 141.901 1611.82 137.935 1624.79 135.494C1642.27 132.208 1661.65 132.318 1682.42 135.821C1700.6 138.89 1720.48 144.675 1741.51 153.021C1776.53 166.916 1810.39 188.589 1839.44 215.699C1871.89 245.905 1900.18 283.452 1923.52 327.302C1944.61 366.916 1961.05 410.374 1972.39 456.465L1971.38 456.729C1947.36 359.064 1900.25 273.747 1838.74 216.495C1809.79 189.474 1776.04 167.871 1741.14 154.022C1695.91 136.073 1657.91 130.355 1624.98 136.55C1612.11 138.973 1600.26 142.911 1588.77 148.589C1546.35 169.552 1520.51 215.858 1506.3 251.016C1497.6 272.378 1491.23 294.682 1485.07 316.252C1483.5 321.774 1481.86 327.486 1480.24 333.017C1475.87 347.904 1472.31 366.068 1468.55 385.301C1464.03 408.359 1458.92 434.491 1451.49 458.992C1442.99 487.063 1432.66 509.01 1419.92 526.086C1412.56 535.96 1404.1 544.364 1394.77 551.065C1384.74 558.271 1373.33 563.777 1360.87 567.428C1346.62 571.608 1332.31 573.271 1318.26 573.271Z" fill="#D60D0D"/><path d="M1336.84 578.694C1326.45 578.694 1315.55 577.653 1304.05 575.574C1281.39 571.479 1259.7 564.049 1240.57 557.498C1216.45 549.239 1191.26 538.964 1165.72 526.962C1145.27 517.302 1125.25 506.749 1106.2 495.589C1051.53 463.594 1004.42 421.052 952.894 372.805C948.315 368.517 943.665 364.144 939.169 359.911C921.462 343.254 903.155 326.03 884.502 309.756C840.427 271.382 792.736 247.074 742.752 237.507C679.703 225.437 611.415 235.85 539.794 268.46C503.042 285.194 466.947 306.289 435.414 329.469C411.671 346.923 392.126 367.5 371.434 389.287C369.332 391.501 367.221 393.722 365.098 395.951C359.814 401.507 354.123 407.47 348.333 413.439C336.193 425.998 321.397 440.309 303.72 451.191C283.932 463.374 263.608 469.514 241.593 469.958C201.291 470.776 160.266 457.031 120.591 443.74L119.081 443.234C99.6554 436.729 79.1059 430.157 60.4505 426.167C3.58637 414.005 -55.6774 405.562 -106.419 402.392L-106.351 401.247C-55.5555 404.419 3.76181 412.869 60.6765 425.043C79.3854 429.045 99.9706 435.627 119.426 442.141L120.936 442.646C160.525 455.907 201.466 469.618 241.572 468.807C287.889 467.869 319.878 441.25 347.546 412.621C353.335 406.655 359.02 400.692 364.304 395.14C366.427 392.913 368.538 390.69 370.64 388.479C391.368 366.655 410.948 346.041 434.769 328.529C466.361 305.303 502.524 284.168 539.345 267.404C572.948 252.106 606.015 241.565 637.623 236.077C673.738 229.808 709.179 229.906 742.96 236.371C793.134 245.975 841.001 270.368 885.225 308.874C903.892 325.163 922.208 342.393 939.924 359.06C944.42 363.289 949.07 367.663 953.65 371.95C1005.13 420.152 1052.18 462.648 1106.76 494.587C1125.78 505.729 1145.77 516.267 1166.19 525.914C1191.69 537.898 1216.84 548.158 1240.92 556.405C1278.68 569.335 1325.66 585.423 1372 573.096C1396.71 566.521 1415.97 553.042 1430.88 531.886C1458.99 492.027 1467.12 431.949 1473.65 383.674C1476.2 364.869 1478.6 347.11 1481.86 332.654C1482.89 328.097 1483.92 323.402 1484.93 318.861C1490.13 295.267 1495.52 270.867 1503.59 247.273C1516.06 210.556 1539.74 161.439 1581.77 135.949C1593.37 128.912 1605.35 123.73 1618.37 120.11C1652.45 110.502 1693.02 113.611 1738.96 129.343C1775.29 141.787 1810.21 162.603 1839.96 189.544C1873.23 219.606 1901.74 257.515 1924.69 302.225C1935.22 322.732 1944.53 344.635 1952.35 367.326C1959.83 388.999 1965.99 411.506 1970.68 434.221L1969.59 434.46C1948.94 334.369 1902.64 247.696 1839.22 190.405C1809.59 163.564 1774.79 142.828 1738.6 130.431C1692.88 114.769 1652.53 111.669 1618.66 121.215C1605.73 124.808 1593.85 129.95 1582.33 136.935C1540.59 162.247 1517.05 211.114 1504.64 247.65C1496.59 271.183 1491.21 295.548 1486.01 319.112C1485.01 323.654 1483.98 328.352 1482.95 332.912C1479.7 347.318 1477.3 365.053 1474.76 383.83C1471.47 408.122 1467.74 435.654 1461.37 461.64C1454.06 491.5 1444.38 514.699 1431.79 532.56C1424.6 542.749 1416.2 551.343 1406.81 558.099C1396.7 565.378 1385.08 570.799 1372.27 574.205C1361.03 577.2 1349.29 578.694 1336.84 578.694Z" fill="#D60D0D"/><path d="M1353.97 584.423C1341.51 584.423 1328.37 582.76 1314.33 579.425C1291.59 574.025 1269.71 565.064 1250.41 557.157C1226.11 547.203 1200.94 535.263 1175.6 521.662C1155.29 510.713 1135.4 498.898 1116.47 486.54C1064.4 452.561 1019.74 408.767 972.459 362.406C970.119 360.112 967.779 357.815 965.433 355.518C943.444 333.982 920.709 311.711 897.008 291.131C852.165 252.27 803.029 229.448 750.964 223.298C685.566 215.571 615.009 233.214 541.25 275.732C504.356 296.998 467.321 323.805 436.969 351.212C414.049 371.906 395.667 395.19 376.206 419.844C373.902 422.762 371.591 425.69 369.263 428.624C364.613 434.495 359.079 441.456 353.287 448.577C342.559 461.798 327.941 478.599 309.964 491.238C290.491 504.931 270.123 511.911 247.694 512.569C229.259 513.044 208.914 510.113 185.495 503.605C165.389 498.019 145.94 490.718 124.418 482.449C104.772 474.808 84.0386 466.915 65.4367 461.703C10.3358 446.262 -47.8664 432.74 -107.549 421.507L-107.335 420.303C-47.6166 431.54 10.6183 445.073 65.7489 460.521C84.4013 465.749 105.165 473.653 124.834 481.3C160.908 495.164 205.804 512.425 247.661 511.344C295.516 509.935 326.27 479.965 352.374 447.787C358.163 440.672 363.694 433.714 368.341 427.846C370.67 424.912 372.98 421.985 375.281 419.069C394.775 394.376 413.19 371.051 436.184 350.29C466.599 322.828 503.705 295.969 540.67 274.663C614.653 232.017 685.453 214.328 751.101 222.082C776.271 225.056 800.995 231.962 824.581 242.607C849.888 254.028 874.514 270.042 897.775 290.196C921.503 310.798 944.253 333.082 966.253 354.633C968.599 356.933 970.943 359.227 973.283 361.52C1020.52 407.842 1065.14 451.593 1117.11 485.508C1136.01 497.847 1155.87 509.647 1176.15 520.578C1201.46 534.157 1226.59 546.083 1250.85 556.021C1288.99 571.64 1336.46 591.078 1383.39 579.804C1408.81 573.698 1428.2 560.137 1442.66 538.35C1470.51 496.736 1475.47 433.166 1479.46 382.089C1480.89 363.82 1482.23 346.566 1484.47 332.613C1484.93 329.734 1485.39 326.84 1485.85 323.931C1490.02 297.651 1494.33 270.474 1501.82 243.952C1512.52 205.805 1533.94 154.078 1575.21 124.285C1586.72 115.974 1598.73 109.579 1611.94 104.734C1630.29 97.9381 1650.73 94.7439 1672.71 95.2339C1692.78 95.681 1714.2 99.1938 1736.38 105.671C1774.02 116.657 1810.01 136.615 1840.46 163.388C1874.56 193.303 1903.29 231.579 1925.85 277.147C1936.2 298.055 1945.17 320.409 1952.49 343.586C1959.51 365.784 1965.05 388.796 1968.96 411.982L1967.79 412.19C1950.76 311.154 1904.07 220.808 1839.69 164.319C1809.37 137.663 1773.53 117.787 1736.06 106.844C1689.85 93.3504 1647.07 93.0197 1612.33 105.882C1599.23 110.691 1587.31 117.036 1575.89 125.284C1534.9 154.871 1513.61 206.331 1502.96 244.289C1495.49 270.74 1491.18 297.877 1487.02 324.124C1486.56 327.033 1486.1 329.93 1485.64 332.809C1483.41 346.71 1482.07 363.943 1480.64 382.184C1476.64 433.408 1471.67 497.161 1443.64 539.042C1436.67 549.543 1428.33 558.333 1418.87 565.159C1408.68 572.503 1396.84 577.832 1383.66 580.999C1374.14 583.277 1364.29 584.423 1353.97 584.423Z" fill="#D60D0D"/><path d="M1370.06 590.385C1355.86 590.385 1340.83 588.021 1324.62 583.274C1301.69 576.558 1279.67 566.069 1260.25 556.817C1235.71 545.124 1210.55 531.511 1185.47 516.363C1165.31 504.144 1145.55 491.064 1126.74 477.493C1080.43 444.087 1040.84 403.162 998.93 359.833C992.079 352.749 984.993 345.427 977.964 338.227C953.255 312.93 932.155 292.071 909.506 272.504C863.864 233.129 813.286 211.792 759.172 209.084C691.175 205.682 618.341 230.55 542.696 282.996C505.118 309.053 468.116 340.995 438.51 372.944C416.206 397.012 398.77 423.213 380.31 450.95C378.024 454.386 375.728 457.835 373.418 461.286C369.303 467.445 363.855 475.561 358.233 483.698C334.57 518.023 303.655 553.362 253.787 555.169C252.232 555.221 250.671 555.246 249.113 555.246C210.173 555.246 170.418 539.372 129.747 521.649L127.208 520.535C107.063 511.678 88.0327 503.314 70.418 497.225C4.0359 474.281 -60.1637 454.913 -108.678 440.605L-108.331 439.352C-59.8039 453.667 4.41351 473.037 70.8194 495.991C88.4817 502.095 107.533 510.471 127.704 519.337L130.241 520.452C172.401 538.824 213.575 555.212 253.743 553.871C303.057 552.082 333.714 517.016 357.201 482.948C362.821 474.817 368.262 466.707 372.377 460.551C374.688 457.097 376.98 453.651 379.267 450.215C397.756 422.435 415.219 396.192 437.594 372.046C467.26 340.03 504.336 308.024 541.988 281.915C576.935 257.684 611.894 239.079 645.893 226.612C684.901 212.306 723.036 205.973 759.231 207.783C813.625 210.502 864.459 231.943 910.315 271.503C932.996 291.1 954.117 311.98 978.85 337.299C985.882 344.499 992.968 351.824 999.822 358.908C1041.69 402.194 1081.24 443.079 1127.47 476.418C1146.25 489.973 1165.98 503.032 1186.11 515.233C1211.15 530.362 1236.27 543.954 1260.78 555.628C1299.25 573.958 1347.13 596.768 1394.78 586.499C1420.83 580.885 1440.34 567.245 1454.43 544.799C1481.93 501.289 1483.58 434.143 1484.91 380.19C1485.34 362.586 1485.75 345.956 1487.07 332.558L1487.09 332.251C1490.04 302.248 1493.08 271.224 1500.05 240.614C1506.09 213.914 1514.5 189.91 1525.05 169.262C1536.94 145.983 1551.61 126.922 1568.64 112.605C1580.03 103.025 1592.09 95.4145 1605.49 89.3414C1641.7 72.8373 1686.07 70.2892 1733.8 81.979C1753.01 86.6831 1771.96 93.8097 1790.13 103.157C1808.4 112.559 1825.51 124.022 1840.96 137.222C1875.89 166.993 1904.84 205.63 1927.01 252.061C1946.94 293.795 1960.85 341.402 1967.24 389.733L1965.99 389.907C1952.31 286.466 1906.45 194.73 1840.16 138.223C1809.16 111.756 1772.28 92.7439 1733.51 83.2531C1686.05 71.6306 1641.96 74.1511 1606 90.5419C1592.71 96.5691 1580.75 104.118 1569.44 113.621C1537.64 140.354 1514.08 184.373 1501.28 240.917C1494.33 271.447 1491.29 302.428 1488.36 332.389L1488.33 332.696C1487.02 346.045 1486.61 362.65 1486.17 380.23C1484.84 434.348 1483.18 501.697 1455.48 545.513C1448.69 556.336 1440.42 565.315 1430.9 572.2C1420.63 579.624 1408.57 584.864 1395.04 587.782C1386.98 589.516 1378.67 590.385 1370.06 590.385Z" fill="#D60D0D"/><path d="M254.712 597.885C237.299 597.885 218.337 594.39 196.938 587.254C175.674 580.165 154.646 570.377 135.087 560.858C131.546 559.125 128.031 557.394 124.54 555.676C107.163 547.123 90.7499 539.044 75.4099 532.75C14.2432 507.665 -44.0601 485.118 -100.446 463.319L-109.788 459.705L-109.318 458.416L-99.9757 462.029C-43.5873 483.835 14.7249 506.381 75.9035 531.473C91.2851 537.782 107.719 545.87 125.117 554.436C128.605 556.154 132.119 557.884 135.658 559.615C175.808 579.154 218.465 598.09 259.838 596.402C310.696 594.222 341.173 553.416 362.041 518.114C367.387 509.086 372.537 500.088 376.427 493.258C378.573 489.494 380.705 485.734 382.831 481.982C400.464 450.882 417.118 421.506 439.021 393.808C467.931 357.253 504.971 320.092 543.323 289.175C578.903 260.491 614.808 237.828 650.043 221.817C690.458 203.451 729.933 193.921 767.372 193.489C823.707 192.625 876.031 212.587 922.868 252.814C948.832 275.14 972.111 299.291 991.463 319.972C1001.99 331.227 1012.52 342.764 1022.7 353.921C1058.75 393.419 1096.03 434.258 1137.83 467.337C1156.5 482.117 1176.1 496.437 1196.08 509.897C1220.81 526.518 1245.92 541.775 1270.71 555.245C1309.48 576.297 1357.71 602.497 1406.18 593.199C1432.85 588.081 1452.49 574.361 1466.2 551.254C1493.34 505.772 1491.51 434.947 1490.03 378.039C1489.6 361.21 1489.18 345.312 1489.68 332.514C1490.8 303.661 1492.48 270.129 1498.3 237.286C1503.2 209.457 1510.6 184.28 1520.3 162.456C1531.27 137.769 1545.33 117.072 1562.08 100.938C1573.18 90.2468 1585.62 81.1724 1599.06 73.9631C1618.22 63.6423 1639.73 57.1527 1662.99 54.6782C1684.76 52.3598 1707.72 53.5787 1731.23 58.2981C1751.05 62.2795 1770.59 68.8272 1789.3 77.7638C1808.13 86.7555 1825.69 97.9583 1841.48 111.06C1859.68 126.146 1876.42 143.961 1891.22 164.012C1905.25 183.009 1917.68 204.195 1928.17 226.981C1947.81 269.609 1960.72 318.199 1965.53 367.491L1964.2 367.629C1953.87 261.778 1908.84 168.654 1840.64 112.135C1809.4 86.2195 1770.46 67.5808 1730.97 59.6518C1682.15 49.8485 1636.75 55.2203 1599.67 75.1851C1586.35 82.3362 1574.01 91.3401 1563 101.946C1531.43 132.345 1510.1 177.962 1499.61 237.534C1493.8 270.289 1492.13 303.762 1491.02 332.569C1490.52 345.321 1490.93 361.195 1491.37 378.002C1492.1 406.076 1492.92 437.899 1490.16 468.663C1486.96 504.36 1479.49 531.611 1467.34 551.974C1460.73 563.115 1452.52 572.288 1442.94 579.234C1432.59 586.737 1420.3 591.891 1406.42 594.552C1399.42 595.897 1392.43 596.506 1385.47 596.506C1343.82 596.506 1303.46 574.585 1270.09 556.46C1245.26 542.97 1220.11 527.691 1195.35 511.046C1175.35 497.567 1155.72 483.225 1137.02 468.424C1095.13 435.278 1057.82 394.396 1021.73 354.861C1011.55 343.707 1001.03 332.174 990.502 320.925C971.178 300.268 947.931 276.15 922.015 253.867C875.43 213.855 823.413 194.009 767.393 194.861C679.418 195.878 597.434 247.295 544.15 290.253C505.875 321.109 468.91 358.19 440.061 394.671C418.224 422.286 401.594 451.617 383.988 482.668C381.862 486.42 379.727 490.18 377.58 493.947C373.688 500.78 368.535 509.784 363.186 518.821C354.426 533.641 340.674 555.214 322.458 571.384C313.613 579.237 304.199 585.408 294.478 589.729C283.64 594.546 272.002 597.254 259.894 597.771C258.179 597.848 256.451 597.885 254.712 597.885Z" fill="#D60D0D"/><path d="M260.302 640.522C242.869 640.522 223.946 636.758 202.659 629.077C180.62 621.127 158.831 609.949 140.425 600.06C134.769 597.015 129.126 593.928 123.667 590.942C108.407 582.597 93.9916 574.711 80.4 568.273C31.5909 545.151 -16.9 522.577 -63.7972 500.744C-79.3096 493.522 -95.3484 486.056 -110.894 478.804L-110.311 477.478C-94.7656 484.73 -78.7268 492.196 -63.2144 499.418C-16.3172 521.251 32.1796 543.828 80.9917 566.953C94.619 573.409 109.052 581.301 124.33 589.659C129.786 592.645 135.43 595.729 141.079 598.773C179.252 619.274 223.53 640.975 265.928 638.933C317.984 636.366 347.222 591.809 366.882 553.279C371.922 543.408 376.796 533.498 380.477 525.967C382.368 522.102 384.247 518.24 386.124 514.388C402.989 479.735 418.918 447.005 440.451 415.574C468.458 374.695 505.469 332.386 544.659 296.441C599.236 246.597 683.59 185.799 775.511 179.206C833.969 174.9 887.773 193.379 935.423 234.136C956.832 252.456 978.003 273.588 1004.07 302.661C1017.25 317.352 1030.32 332.579 1042.97 347.3C1075.86 385.604 1109.87 425.212 1148.2 458.272C1166.76 474.293 1186.23 489.872 1206.06 504.578C1230.06 522.369 1255.16 539.292 1280.65 554.881C1319.8 578.68 1368.53 608.304 1417.58 599.919C1444.47 595.417 1464.79 581.222 1477.98 557.732C1504.74 510.192 1499 432.415 1494.8 375.626C1493.62 359.689 1492.51 344.636 1492.3 332.493C1491.81 305.506 1491.85 269.922 1496.54 233.983C1504.63 171.706 1524.48 123.023 1555.53 89.2951C1566.41 77.4123 1578.9 67.0885 1592.63 58.6082C1612.15 46.5295 1634.19 38.4045 1658.12 34.463C1680.67 30.7512 1704.4 30.8094 1728.65 34.6376C1749.12 37.939 1769.24 43.9233 1788.47 52.4188C1807.88 61.0001 1825.89 71.9334 1841.99 84.9156C1860.6 99.916 1877.6 117.792 1892.52 138.051C1906.66 157.25 1919.04 178.737 1929.34 201.921C1948.67 245.446 1960.59 295.016 1963.82 345.273L1962.41 345.368C1955.46 237.1 1911.25 142.587 1841.12 86.0641C1809.32 60.4213 1769.3 42.6676 1728.44 36.077C1678.07 28.1296 1631.36 36.3526 1593.36 59.8578C1579.74 68.2675 1567.36 78.5087 1556.56 90.2965C1525.72 123.801 1505.99 172.208 1497.94 234.179C1493.26 270.02 1493.23 305.533 1493.71 332.468C1493.93 344.569 1495.04 359.603 1496.21 375.519C1498.38 404.874 1500.84 438.148 1499.43 470.633C1497.8 508.458 1491.18 537.188 1479.2 558.464C1472.76 569.939 1464.61 579.311 1454.98 586.318C1444.54 593.916 1432.04 598.975 1417.81 601.358C1395.75 605.128 1372 601.741 1345.21 591.001C1321.93 581.663 1299.62 568.102 1279.94 556.139C1254.41 540.53 1229.28 523.581 1205.24 505.767C1185.38 491.039 1165.89 475.438 1147.29 459.396C1108.89 426.269 1074.84 386.618 1041.91 348.274C1029.27 333.556 1016.2 318.338 1003.04 303.659C977.012 274.638 955.88 253.546 934.522 235.269C887.155 194.745 833.692 176.376 775.606 180.654C684.081 187.223 600.006 247.835 545.592 297.528C506.48 333.399 469.547 375.62 441.599 416.413C420.125 447.755 404.22 480.439 387.381 515.04C385.505 518.896 383.626 522.758 381.735 526.623C378.051 534.159 373.174 544.079 368.128 553.959C348.295 592.832 318.763 637.787 265.99 640.387C264.114 640.476 262.214 640.522 260.302 640.522Z" fill="#D60D0D"/><path d="M266.005 683.162C218.37 683.162 168.39 653.03 124.083 626.315C110.467 618.107 97.607 610.353 85.3862 603.796L-112 497.902L-111.313 496.545L86.073 602.439C98.3266 609.012 111.202 616.775 124.835 624.995C170.855 652.742 223.018 684.191 272.017 681.466C325.221 678.51 353.249 630.201 371.723 588.449C377.765 574.794 383.599 560.899 389.242 547.46C404.677 510.709 420.636 472.706 441.875 437.337C458.741 409.253 479.692 379.8 502.462 352.167C527.442 321.851 554.188 294.036 581.951 269.499C612.563 242.448 643.689 220.069 674.461 202.99C708.498 184.1 742.03 171.767 774.131 166.331C838.438 155.443 896.925 171.966 947.964 215.445C990.38 251.574 1026.43 296.251 1061.29 339.457C1091.64 377.065 1123.02 415.951 1158.55 449.192C1199.59 487.584 1244.02 523.015 1290.58 554.495C1329.82 581.02 1378.65 614.034 1428.97 606.614C1471.47 600.348 1496.05 571.057 1504.1 517.064C1510.94 471.138 1504.43 416.658 1499.2 372.885C1497.42 357.967 1495.73 343.876 1494.91 332.45C1490.34 269.459 1493.25 217.46 1503.79 173.485C1510.37 146.047 1520.08 121.59 1532.64 100.792C1546.67 77.5593 1564.69 58.1917 1586.18 43.228C1604.78 30.2826 1625.74 20.8805 1648.49 15.2822C1670.14 9.9533 1692.93 8.16783 1716.24 9.97474C1762.07 13.5273 1806.91 30.8492 1842.48 58.746C1861.5 73.6576 1878.77 91.5981 1893.8 112.065C1908.05 131.463 1920.4 153.254 1930.49 176.835C1949.52 221.258 1960.44 271.811 1962.08 323.027L1960.6 323.079C1957.09 214.015 1912.6 115.655 1841.58 59.968C1766.16 0.829935 1659.1 -5.678 1587.01 44.499C1515.6 94.2043 1485.96 188.357 1496.38 332.337C1497.21 343.726 1498.89 357.799 1500.67 372.698C1505.91 416.566 1512.44 471.163 1505.56 517.297C1501.82 542.425 1494.29 562.62 1483.19 577.323C1476.94 585.589 1469.42 592.345 1460.82 597.398C1451.66 602.776 1441.02 606.387 1429.18 608.133C1424.34 608.846 1419.42 609.204 1414.42 609.204C1396.18 609.204 1376.76 604.454 1355.47 594.832C1331.49 583.99 1308.35 568.347 1289.76 555.778C1243.13 524.252 1198.65 488.775 1157.55 450.328C1121.93 417.017 1090.52 378.085 1060.14 340.437C1025.32 297.286 989.319 252.664 947.01 216.627C896.313 173.445 838.227 157.03 774.363 167.844C645.179 189.716 512.105 323.293 443.13 438.145C421.947 473.417 406.01 511.368 390.595 548.07C384.949 561.514 379.112 575.418 373.064 589.087C360.798 616.806 348.685 636.654 334.941 651.544C326.363 660.836 317.056 668.162 307.279 673.316C296.408 679.046 284.568 682.305 272.086 683C270.07 683.107 268.039 683.162 266.005 683.162Z" fill="#D60D0D"/></svg>