<svg width="321" height="135" viewBox="0 0 321 135" fill="none" xmlns="http://www.w3.org/2000/svg"><path d="M22.6679 36.7273C22.1483 36.8669 21.6332 37.0432 21.1136 37.1314C20.838 37.1755 20.7386 37.4915 20.6257 37.7854C20.5353 38.0205 20.4314 38.094 20.2642 38.1381C18.8544 38.4982 17.4491 38.8803 16.0439 39.2551C15.8676 39.1595 15.7818 39.0053 15.8225 38.8215C15.8451 38.7113 15.8993 38.557 15.9535 38.5423C16.916 38.2704 17.8738 37.9911 18.8408 37.778C19.1164 37.7193 19.1933 37.3959 19.3333 37.1314C19.3785 37.0432 19.4147 36.9109 19.4734 36.8595C19.5322 36.8007 19.618 36.8081 19.6948 36.7934C21.2492 36.3745 22.8036 35.963 24.358 35.5442C24.5342 35.6397 24.62 35.794 24.5794 35.9777C24.5568 36.0879 24.5025 36.2423 24.4483 36.257C23.8519 36.4113 23.2599 36.5656 22.6679 36.7273Z" fill="#4C442C"/><path d="M307.18 75.8566C306.945 75.9448 306.647 76.0697 306.403 75.6435C306.285 75.4377 306.159 75.3716 306.005 75.4157C305.784 75.4892 305.558 75.548 305.332 75.5921C305.273 75.5994 305.196 75.5185 305.138 75.4524C305.011 75.3201 304.903 75.0997 304.767 75.0409C304.631 74.9821 304.469 75.1438 304.329 75.107C304.143 75.0556 304.067 74.8572 304.116 74.6735C304.143 74.5706 304.198 74.4237 304.256 74.4016C305.092 74.1297 305.097 74.1297 305.332 74.3943C305.513 74.6 305.68 74.8278 305.937 74.7028C306.154 74.6 306.385 74.5779 306.606 74.5118C306.913 74.4236 306.913 74.431 307.41 74.8939C307.537 75.0115 307.672 75.0042 307.835 74.938C307.975 74.8866 308.111 75.0042 308.224 75.2026C308.151 75.4524 308.047 75.6141 307.907 75.6582C307.681 75.7317 307.46 75.7831 307.18 75.8566Z" fill="#4C442C"/><path d="M298.859 73.5929C299.429 73.4386 300.003 73.3064 300.572 73.1301C300.807 73.0566 300.992 73.1374 301.155 73.3872C301.331 73.6591 301.53 73.6371 301.747 73.5857C301.882 73.5563 302.013 73.6738 302.104 73.8795C302.14 73.9603 302.131 74.1074 302.144 74.225C301.647 74.3572 301.146 74.4968 300.644 74.6144C300.586 74.6291 300.513 74.5556 300.459 74.4968C300.337 74.3719 300.233 74.1515 300.102 74.1074C299.822 74.0045 299.542 74.2028 299.257 74.2396C299.122 74.2543 298.99 74.1441 298.9 73.9457C298.864 73.8502 298.873 73.7105 298.859 73.5929Z" fill="#4C442C"/><path d="M93.1099 10.4107C93.7018 10.249 94.2937 10.0948 94.8857 9.93311C95.0619 10.036 95.1432 10.1829 95.1071 10.3666C95.0845 10.4769 95.0302 10.6312 94.976 10.6459C93.7922 10.9766 92.6084 11.2925 91.429 11.6085C91.2528 11.5056 91.1715 11.3587 91.2076 11.1749C91.2302 11.0647 91.2845 10.9104 91.3387 10.8957C91.9261 10.7267 92.518 10.5723 93.1099 10.4107Z" fill="#4C442C"/><path d="M1.89863 51.2468C1.63204 51.2614 1.35195 51.5333 1.05373 51.3276C0.994986 51.2908 0.913631 51.1732 0.918149 51.1071C0.927186 50.9969 0.981417 50.8572 1.04016 50.8131C1.29771 50.6294 1.61856 50.6074 1.74959 50.093C1.81285 49.8285 1.93033 49.7403 2.08848 49.6889C2.25567 49.6301 2.37311 49.6521 2.50415 49.8064C2.67585 50.0048 2.82047 50.3722 3.09158 50.1812C3.10513 50.2988 3.13668 50.431 3.12313 50.5412C3.10957 50.6515 3.05093 50.7544 2.99671 50.8352C2.947 50.9087 2.87916 50.9748 2.8159 50.9968C2.51768 51.085 2.21944 51.1586 1.89863 51.2468Z" fill="#4C442C"/><path d="M236.899 49.7706C237.12 49.7118 237.351 49.6824 237.567 49.5795C237.739 49.4987 237.848 49.5501 237.983 49.7264C238.214 50.0351 238.227 50.0057 238.792 50.0498C238.855 50.0572 238.932 50.1673 238.968 50.2629C238.991 50.3143 238.959 50.454 238.932 50.5275C238.891 50.623 238.833 50.7479 238.778 50.7479C238.421 50.7699 238.06 51.2035 237.712 50.7038C237.536 50.454 237.341 50.3363 237.102 50.4466C236.957 50.5127 236.804 50.5421 236.655 50.5715C236.51 50.6009 236.361 50.5201 236.271 50.2996C236.14 49.9763 236.216 49.8514 236.451 49.8735C236.6 49.8882 236.75 49.8073 236.899 49.7706Z" fill="#4C442C"/><path d="M318.792 100.424C319.076 100.35 319.361 100.262 319.65 100.203C319.709 100.189 319.781 100.27 319.835 100.321C320.052 100.541 320.021 100.916 320.03 101.247C320.034 101.592 319.533 101.871 319.32 101.636C319.085 101.372 318.873 101.071 318.548 101.232C318.421 101.291 318.272 101.159 318.191 100.946C318.069 100.637 318.136 100.512 318.367 100.534C318.502 100.549 318.647 100.468 318.792 100.424Z" fill="#4C442C"/><path d="M175.339 0.403147C175.632 0.322315 175.926 0.197453 176.22 0.190105C176.391 0.182756 176.477 0.425207 176.436 0.601568C176.414 0.711794 176.36 0.866114 176.305 0.880811C175.718 1.05717 175.131 1.20417 174.543 1.36583C174.372 1.26295 174.286 1.10866 174.326 0.9323C174.349 0.822074 174.403 0.675102 174.457 0.653057C174.751 0.55018 175.045 0.483979 175.339 0.403147Z" fill="#4C442C"/><path d="M313.158 76.5014C313.443 76.4279 313.732 76.3177 314.017 76.2809C314.166 76.2662 314.283 76.4352 314.301 76.6263C314.31 76.7145 314.238 76.8688 314.179 76.9055C313.773 77.1554 313.334 77.1848 312.91 77.3097C312.774 77.3465 312.629 77.2289 312.548 77.0231C312.426 76.7071 312.494 76.5896 312.724 76.6117C312.869 76.619 313.013 76.5382 313.158 76.5014Z" fill="#4C442C"/><path d="M244.363 50.7642C244.508 50.7274 244.657 50.6319 244.797 50.6613C244.946 50.698 245.041 50.9111 245.086 51.1242C245.136 51.3667 245.131 51.5946 245.086 51.8003C245.014 52.1531 244.941 52.1384 244.774 51.9032C244.517 51.5358 244.499 51.5799 243.988 51.5946C243.929 51.5946 243.857 51.4843 243.812 51.3888C243.744 51.2418 243.78 51.0141 243.938 50.8818C244.056 50.7863 244.218 50.8009 244.363 50.7642Z" fill="#4C442C"/><path d="M302.572 74.0918C302.784 74.033 302.997 73.9375 303.209 73.9375C303.358 73.9301 303.476 74.0991 303.489 74.2828C303.494 74.371 303.426 74.518 303.372 74.5621C303.114 74.7605 302.825 74.7752 302.545 74.8413C302.414 74.8707 302.269 74.7531 302.188 74.5474C302.066 74.2387 302.138 74.0991 302.36 74.1432C302.427 74.1579 302.5 74.1138 302.572 74.0918Z" fill="#4C442C"/><path d="M269.148 65.0756C268.832 65.1635 268.533 65.0536 268.556 64.8631C268.588 64.6139 268.719 64.4526 268.854 64.4086C269.071 64.3353 269.288 64.2767 269.509 64.2327C269.649 64.2034 269.776 64.3133 269.889 64.5039C269.821 64.7384 269.717 64.907 269.582 64.9583C269.442 65.0096 269.292 65.0389 269.148 65.0756Z" fill="#4C442C"/><path d="M267.072 64.1379C267.284 64.0791 267.497 63.9836 267.709 63.9836C267.858 63.9763 267.976 64.1453 267.989 64.329C267.994 64.4172 267.926 64.5641 267.872 64.6082C267.614 64.8066 267.325 64.8213 267.045 64.8875C266.914 64.9169 266.769 64.7993 266.688 64.5935C266.566 64.2849 266.638 64.1453 266.86 64.1894C266.927 64.2041 267 64.16 267.072 64.1379Z" fill="#4C442C"/><path d="M241.802 50.703C242.015 50.6442 242.227 50.5486 242.44 50.5412C242.589 50.5339 242.706 50.703 242.72 50.8867C242.724 50.9749 242.656 51.1145 242.602 51.1659C242.345 51.3643 242.055 51.379 241.775 51.4452C241.644 51.4746 241.5 51.357 241.418 51.1512C241.296 50.8426 241.369 50.7029 241.59 50.747C241.658 50.7617 241.73 50.7177 241.802 50.703Z" fill="#4C442C"/><path d="M240.613 50.2716C240.838 50.2128 240.911 50.176 240.983 50.176C241.119 50.176 241.259 50.2642 241.34 50.4773C241.462 50.786 241.39 50.8742 241.168 50.8889C240.884 50.9036 240.604 51.0579 240.319 51.0873C240.17 51.102 240.052 50.9256 240.043 50.7419C240.039 50.6537 240.106 50.4994 240.161 50.47C240.35 50.3598 240.558 50.2936 240.613 50.2716Z" fill="#4C442C"/><path d="M265.233 7.03966C265.088 7.07641 264.935 7.17929 264.799 7.14255C264.618 7.09111 264.546 6.89273 264.591 6.70902C264.618 6.60614 264.668 6.45918 264.722 6.43713C265.011 6.33426 265.305 6.26806 265.594 6.19458C265.766 6.30481 265.843 6.45911 265.798 6.64282C265.771 6.7457 265.721 6.88531 265.667 6.91471C265.527 6.98819 265.377 7.00292 265.233 7.03966Z" fill="#4C442C"/><path d="M89.8713 11.2785C90.0113 11.2711 90.1378 11.3664 90.2462 11.5496C90.1784 11.7841 90.0791 11.938 89.9435 12.004C89.8757 12.0333 89.7989 12.0553 89.7266 12.0626C89.5866 12.0773 89.46 11.9747 89.3516 11.7914C89.4193 11.5569 89.5232 11.403 89.6543 11.3371C89.722 11.3078 89.799 11.3005 89.8713 11.2785Z" fill="#4C442C"/><path d="M311.613 76.4719C311.609 76.2593 311.884 76.0175 312.133 76.0248C312.264 76.0321 312.4 76.1348 312.476 76.3327C312.594 76.6331 312.526 76.7503 312.305 76.7284C312.169 76.7137 312.024 76.8383 311.889 76.8163C311.735 76.809 311.645 76.6478 311.613 76.4719Z" fill="#4C442C"/><path d="M245.674 51.6505C245.67 51.5699 245.647 51.4746 245.661 51.4013C245.746 50.9982 246.266 50.8737 246.402 51.2254C246.424 51.2914 246.433 51.4013 246.415 51.4673C246.388 51.5699 246.338 51.7018 246.284 51.7311C246.144 51.8044 245.999 51.841 245.855 51.8484C245.792 51.8484 245.733 51.7238 245.674 51.6505Z" fill="#4C442C"/><path d="M3.50904 50.071C2.97586 50.2249 2.96682 50.2102 3.06171 49.8438C3.14756 49.514 3.30573 49.3162 3.53618 49.3162C3.60395 49.3162 3.67622 49.3015 3.73496 49.3308C3.79822 49.3675 3.88865 49.4407 3.9022 49.5286C3.92931 49.6972 3.85243 49.8804 3.71687 50.005C3.65813 50.0636 3.58134 50.0491 3.50904 50.071Z" fill="#4C442C"/><path d="M96.544 10.2412C96.3859 10.3658 96.2504 10.3218 96.151 10.0873C96.0516 9.8528 96.2097 9.57428 96.4853 9.50832C96.5576 9.49367 96.6344 9.43508 96.7022 9.4644C96.77 9.48638 96.8378 9.57425 96.8785 9.6622C96.9508 9.80877 96.9056 10.0067 96.761 10.1753C96.7023 10.2412 96.6163 10.2265 96.544 10.2412Z" fill="#4C442C"/><path d="M310.672 75.9216C310.712 75.8263 310.753 75.731 310.798 75.6431C310.965 75.7677 311.038 75.9142 310.992 76.0828C310.965 76.1854 310.911 76.2733 310.87 76.3686C310.703 76.244 310.635 76.0901 310.672 75.9216Z" fill="#4C442C"/><path d="M10.666 133.724C10.666 133.636 10.7293 133.497 10.779 133.468C10.8739 133.416 10.9913 133.519 11.0726 133.724C11.1856 134.017 11.1179 134.171 10.91 134.091C10.7654 134.032 10.666 133.885 10.666 133.724Z" fill="#4C442C"/><path d="M247.514 44.8096C247.573 44.8753 247.631 44.941 247.686 45.014C247.609 45.2841 247.514 45.4008 247.415 45.3278C247.351 45.284 247.297 45.1964 247.238 45.1307C247.315 44.8606 247.406 44.7585 247.514 44.8096Z" fill="#4C442C"/><path d="M245.95 44.4808C246.041 44.3713 246.149 44.4298 246.275 44.6415C246.235 44.7364 246.199 44.8458 246.149 44.9188C246.063 45.0356 245.95 44.9772 245.828 44.7582C245.864 44.6706 245.905 44.5757 245.95 44.4808Z" fill="#4C442C"/><path d="M244.752 44.8038C244.811 44.8695 244.87 44.9353 244.924 45.0083C244.847 45.2783 244.757 45.3951 244.653 45.3221C244.589 45.2783 244.535 45.1907 244.477 45.125C244.553 44.8549 244.644 44.7455 244.752 44.8038Z" fill="#4C442C"/><path d="M243.87 44.4125C243.938 44.5591 243.902 44.7349 243.771 44.9328C243.712 44.8669 243.644 44.8156 243.599 44.7277C243.527 44.5884 243.563 44.4052 243.698 44.2073C243.753 44.2806 243.811 44.3465 243.87 44.4125Z" fill="#4C442C"/></svg>