<svg width="1920" height="535" viewBox="0 0 1920 535" fill="none" xmlns="http://www.w3.org/2000/svg"><g opacity="0.3"><path d="M648.673 534.438C639.202 534.438 629.983 534.002 621.124 533.132C602.543 531.306 585.378 527.557 570.102 521.989C553.684 516.006 539.284 507.854 527.299 497.759C503.212 477.469 491.161 453.17 479.506 429.67C477.216 425.056 474.849 420.285 472.445 415.655C456.045 384.102 435.255 356.463 408.892 331.159C356.303 280.681 282.344 237.603 195.009 206.58C94.0064 170.704 -14.5879 152.833 -110.772 156.26C-167.304 158.275 -241.999 177.435 -275.382 210.157C-295.193 229.577 -296.791 251.128 -279.999 272.477L-280.332 272.567C-289.137 261.371 -292.973 250.146 -291.731 239.205C-290.591 229.169 -285.198 219.358 -275.697 210.045C-260.587 195.233 -235.668 182.105 -203.633 172.079C-174.032 162.816 -141.063 157.121 -110.794 156.043C-60.4578 154.251 -6.92279 158.227 48.3233 167.864C98.4032 176.601 147.82 189.564 195.199 206.393C282.586 237.433 356.589 280.535 409.208 331.043C435.585 356.364 456.386 384.018 472.797 415.589C475.204 420.218 477.571 424.992 479.857 429.606C491.502 453.088 503.545 477.37 527.6 497.63C550.862 517.226 582.351 529.098 621.186 532.913C674.966 538.197 740.274 527.145 795.879 503.344C876.011 469.048 931.624 419.127 985.408 370.852C994.836 362.39 1004.58 353.64 1014.23 345.191C1039.29 323.251 1073.22 294.821 1113.55 269.493C1154.77 243.605 1196.65 224.584 1241.6 211.343C1269.12 203.237 1298.28 197.776 1328.27 195.113C1355.97 192.651 1385.3 192.498 1415.43 194.655C1467.11 198.356 1522.78 208.812 1585.64 226.617C1709.42 261.678 1833.05 304.235 1953.12 353.107C2067.25 399.559 2179.18 452.122 2285.8 509.332L2285.55 509.491C2064.53 390.897 1828.99 295.79 1585.48 226.81C1447.91 187.839 1338.69 182.984 1241.77 211.534C1143.17 240.578 1074.29 292.993 1014.54 345.309C1004.89 353.756 995.143 362.506 985.716 370.968C931.917 419.26 876.286 469.196 796.099 503.516C770.187 514.608 741.036 523.259 711.801 528.532C696.357 531.319 681.005 533.14 666.166 533.948C660.252 534.277 654.415 534.438 648.673 534.438Z" fill="#FFE492"/><path d="M657.934 522.406C633.781 522.406 611.408 519.71 591.414 514.388C569.118 508.455 549.878 499.26 534.226 487.063C532.841 485.982 531.466 484.865 530.14 483.739C506.309 463.537 493.723 439.554 481.555 416.36C479.093 411.672 476.55 406.824 473.971 402.119C458.607 374.106 440.108 349.416 417.409 326.643C414.613 323.839 411.719 321.03 408.799 318.293C355.436 268.249 280.877 225.716 193.182 195.291C91.4503 160.027 -17.4517 142.895 -113.464 147.052C-169.586 149.508 -243.936 168.981 -277.462 201.452C-297.537 220.896 -299.809 242.49 -284.039 263.901L-284.376 263.987C-292.642 252.765 -296.038 241.519 -294.466 230.565C-293.023 220.505 -287.41 210.672 -277.777 201.34C-262.513 186.554 -237.667 173.411 -205.933 163.334C-176.602 154.019 -143.776 148.161 -113.497 146.837C-63.2227 144.661 -9.62903 148.257 45.793 157.525C95.9937 165.92 145.645 178.565 193.365 195.106C281.111 225.549 355.711 268.108 409.107 318.179C412.027 320.918 414.925 323.73 417.721 326.535C440.434 349.324 458.945 374.027 474.315 402.055C476.898 406.759 479.441 411.608 481.903 416.298C494.068 439.477 506.643 463.443 530.441 483.617C531.763 484.738 533.137 485.855 534.519 486.934C566.865 512.148 611.309 522.406 658.047 522.406C658.304 522.406 658.557 522.406 658.813 522.406C658.52 522.403 658.227 522.406 657.934 522.406ZM667.904 522.255C711.355 520.947 756.192 511.157 794.657 496.594C877.629 465.052 937.261 416.334 994.932 369.221C997.307 367.279 999.681 365.341 1002.06 363.404C1007.27 359.15 1013.45 354.115 1019.76 349.038C1048.06 326.273 1082.32 299.786 1121.77 275.944C1163.74 250.576 1205.68 231.751 1249.97 218.391C1277.18 210.191 1305.94 204.414 1335.44 201.222C1362.78 198.264 1391.67 197.428 1421.3 198.737C1472.49 200.999 1527.53 209.575 1589.57 224.956C1650.06 239.929 1699.78 254.024 1746.05 269.313C1811.59 290.993 1874.02 315.973 1926.45 337.547C2048.34 387.851 2167.93 444.97 2281.91 507.321L2281.66 507.477C2167.69 445.136 2048.11 388.02 1926.24 337.724C1873.82 316.151 1811.4 291.175 1745.87 269.502C1699.62 254.217 1649.91 240.127 1589.43 225.158C1454.29 191.65 1346.47 189.559 1250.14 218.584C1150.15 248.741 1078.95 301.801 1020.06 349.167C1013.74 354.243 1007.57 359.277 1002.35 363.532C999.978 365.468 997.604 367.408 995.229 369.35C937.539 416.478 877.885 465.213 794.855 496.779C774.267 504.573 752.359 510.764 729.738 515.179C708.681 519.284 687.924 521.658 667.904 522.255Z" fill="#FFE492"/><path d="M668.145 510.649C665.24 510.649 662.352 510.612 659.487 510.537C635.356 509.912 613.024 506.666 593.113 500.885C571.338 494.563 552.472 485.199 537.043 473.05C535.672 471.968 534.306 470.848 532.987 469.723C509.423 449.619 496.314 425.957 483.64 403.076C480.998 398.307 478.265 393.374 475.495 388.588C459.373 360.669 440.386 336.177 417.442 313.711C414.602 310.933 411.664 308.147 408.699 305.432C354.563 255.825 279.403 213.837 191.35 184.009C88.8926 149.358 -20.3173 132.962 -116.161 137.85C-170.124 140.644 -244.259 159.008 -279.507 192.718C-299.871 212.194 -302.835 233.846 -288.08 255.333L-288.421 255.412C-296.152 244.155 -299.102 232.883 -297.196 221.91C-295.445 211.818 -289.597 201.96 -279.818 192.606C-264.392 177.854 -239.627 164.707 -208.197 154.582C-179.142 145.222 -146.466 139.205 -116.194 137.637C-65.9783 135.078 -12.326 138.292 43.2682 147.19C93.5935 155.246 143.476 167.57 191.533 183.824C279.638 213.672 354.838 255.683 409.007 305.318C411.971 308.035 414.914 310.822 417.753 313.604C440.708 336.083 459.706 360.59 475.835 388.523C478.605 393.312 481.339 398.244 483.98 403.013C496.651 425.881 509.75 449.527 533.284 469.607C534.603 470.732 535.962 471.849 537.332 472.928C600.027 522.29 711.135 516.99 793.433 489.843C879.867 461.08 944.101 413.275 1006.22 367.045L1006.86 366.571C1012.87 362.089 1019.1 357.458 1025.29 352.884C1090.63 304.635 1162.45 255.049 1258.33 225.436C1285.25 217.139 1313.62 211.047 1342.63 207.328C1369.61 203.869 1398.07 202.351 1427.19 202.815C1477.97 203.622 1532.37 210.32 1593.51 223.292C1657.76 236.875 1706.12 249.36 1750.29 263.777C1813.23 284.36 1874.19 310.368 1927.98 333.316C2047.74 384.682 2165.51 442.547 2278.03 505.3L2277.77 505.454C2165.27 442.709 2047.51 384.85 1927.76 333.488C1873.98 310.544 1813.03 284.54 1750.11 263.964C1705.95 249.552 1657.62 237.07 1593.39 223.491C1460.86 195.375 1354.45 196.052 1258.5 225.622C1162.68 255.217 1090.89 304.781 1025.57 353.013C1019.38 357.587 1013.16 362.22 1007.14 366.699L1006.51 367.174C975.549 390.212 943.541 414.034 908.974 435.312C870.128 459.224 832.392 477.121 793.609 490.026C753.033 503.409 708.834 510.649 668.145 510.649Z" fill="#FFE492"/><path d="M2273.89 503.428C2162.85 440.279 2046.91 381.677 1929.29 329.251C1924.31 327.047 1919.32 324.832 1914.31 322.611C1863.37 300.007 1810.69 276.634 1754.36 258.426C1699.71 240.81 1644.32 230.039 1597.35 221.826C1467.69 199.016 1362.69 202.46 1266.88 232.66C1168.54 263.754 1092.33 315.378 1031.1 356.86C1027.43 359.35 1023.76 361.844 1020.09 364.341C1017.37 366.184 1014.66 368.027 1011.94 369.868C977.081 393.512 945.368 414.65 910.329 433.939C870.3 455.974 831.718 472.111 792.37 483.276C755.495 493.74 716.103 499.276 679.463 499.278C672.787 499.278 666.21 499.095 659.747 498.724C636.151 497.368 614.306 493.559 594.82 487.403C573.558 480.685 555.066 471.143 539.849 459.039C538.49 457.954 537.134 456.833 535.822 455.705C512.537 435.707 498.918 412.377 485.75 389.817C482.914 384.957 479.979 379.93 477.011 375.052C460.12 347.221 440.642 322.925 417.471 300.772C414.587 298.016 411.601 295.255 408.596 292.564C353.684 243.392 277.926 201.951 189.517 172.718C86.3347 138.679 -23.1792 123.024 -118.854 128.636C-184.261 132.548 -251.144 155.289 -281.504 183.936C-302.187 203.452 -305.855 225.173 -292.118 246.75L-292.463 246.825C-299.655 235.528 -302.162 224.222 -299.912 213.22C-297.842 203.091 -291.752 193.201 -281.815 183.822C-266.229 169.113 -241.544 155.966 -210.429 145.804C-181.652 136.406 -149.145 130.232 -118.891 128.423C-68.734 125.48 -15.0268 128.313 40.7396 136.842C91.1859 144.558 141.306 156.565 189.7 172.528C278.165 201.779 353.962 243.244 408.908 292.445C411.916 295.139 414.902 297.902 417.786 300.658C440.972 322.824 460.457 347.133 477.359 374.977C480.327 379.857 483.262 384.882 486.098 389.743C499.259 412.291 512.871 435.606 536.126 455.581C537.438 456.706 538.79 457.826 540.146 458.908C605.596 510.969 716.84 504.466 792.212 483.08C882.138 457.564 950.953 410.899 1011.67 369.726C1014.38 367.883 1017.1 366.04 1019.81 364.199C1023.48 361.703 1027.15 359.208 1030.83 356.719C1065.78 333.041 1100.29 310.031 1138.24 288.828C1181.87 264.443 1223.9 246.009 1266.71 232.471C1293.35 224.073 1321.31 217.665 1349.82 213.427C1376.47 209.463 1404.48 207.263 1433.09 206.885C1483.54 206.219 1537.31 211.04 1597.46 221.62C1644.45 229.837 1699.86 240.613 1754.54 258.239C1810.89 276.454 1863.58 299.833 1914.54 322.441C1919.54 324.663 1924.54 326.877 1929.52 329.081C2047.14 381.511 2163.1 440.12 2274.15 503.276L2273.89 503.428Z" fill="#FFE492"/><path d="M2270.01 501.404C2158.33 436.644 2044.22 377.296 1930.82 325.015C1924.04 321.887 1917.1 318.662 1910.38 315.545C1862.31 293.221 1812.6 270.136 1758.61 252.887C1704.69 235.725 1648.84 226.711 1601.31 220.159C1474.81 202.55 1371.2 208.758 1275.26 239.697C1183.75 269.315 1112.05 313.852 1042.72 356.922L1035.1 361.651C1029.09 365.386 1022.87 369.247 1016.74 373.034C947.34 415.857 877.863 455.993 791.132 476.521C770.086 481.503 748.475 484.955 726.894 486.788C703.719 488.753 681.208 488.781 659.982 486.869C636.928 484.792 615.578 480.429 596.525 473.901C575.79 466.796 557.668 457.08 542.667 445.024C541.315 443.933 539.971 442.809 538.67 441.683C515.671 421.804 501.561 398.817 487.916 376.587C484.871 371.627 481.72 366.497 478.54 361.515C460.864 333.771 440.903 309.67 417.512 287.835C414.588 285.107 411.558 282.368 408.505 279.697C352.82 230.962 276.465 190.066 187.693 161.428C83.7814 128.006 -26.0404 113.088 -121.55 119.428C-186.36 123.821 -252.939 146.721 -283.453 175.119C-304.48 194.685 -308.874 216.49 -296.159 238.176L-296.508 238.247C-303.161 226.9 -305.217 215.551 -302.619 204.518C-300.223 194.346 -293.88 184.416 -283.768 175.007C-268.012 160.348 -243.416 147.213 -212.631 137.022C-184.139 127.589 -151.808 121.267 -121.594 119.217C-71.4962 115.892 -17.734 118.343 38.2083 126.502C88.7791 133.879 139.13 145.566 187.865 161.241C276.689 189.894 353.087 230.816 408.806 279.579C411.858 282.252 414.892 284.993 417.816 287.721C441.221 309.567 461.194 333.681 478.877 361.44C482.057 366.422 485.208 371.554 488.253 376.514C501.89 398.731 515.993 421.707 538.967 441.563C540.264 442.684 541.608 443.806 542.957 444.897C606.832 496.234 712.964 494.792 790.989 476.324C877.651 455.812 947.098 415.692 1016.47 372.888C1022.6 369.101 1028.82 365.24 1034.83 361.505L1042.45 356.776C1076.48 335.635 1111.67 313.773 1149.89 293.435C1193.18 270.402 1234.13 252.763 1275.08 239.508C1301.44 231.005 1329.01 224.281 1357 219.525C1383.32 215.053 1410.9 212.17 1438.97 210.956C1489.21 208.784 1542.33 211.727 1601.39 219.948C1648.94 226.505 1704.82 235.521 1758.77 252.698C1812.8 269.953 1862.52 293.044 1910.61 315.375C1917.32 318.492 1924.26 321.715 1931.05 324.845C2044.45 377.131 2158.58 436.482 2270.26 501.25L2270.01 501.404Z" fill="#FFE492"/><path d="M2266.12 499.381C2155.41 433.9 2043.11 373.81 1932.35 320.781C1924.03 316.796 1915.49 312.652 1907.24 308.645C1861.76 286.561 1814.73 263.725 1762.85 247.354C1709.19 230.486 1653.08 223.3 1605.27 218.496C1482.28 205.949 1380.07 214.924 1283.63 246.739C1199.47 274.621 1130.37 314.136 1063.54 352.349C1056.51 356.37 1049.24 360.527 1042.15 364.555C1033.83 369.286 1027.47 372.88 1021.54 376.205C989.769 394.006 951.942 414.502 912.246 431.55C870.179 449.615 830.157 462.118 789.89 469.774C768.715 473.8 747.196 476.339 725.927 477.319C703.089 478.371 680.977 477.598 660.209 475.018C637.708 472.223 616.856 467.306 598.225 460.403C578.021 452.919 560.276 443.028 545.481 431.011C544.147 429.922 542.81 428.796 541.513 427.666C518.818 407.92 504.235 385.288 490.129 363.402C486.857 358.325 483.475 353.077 480.063 347.979C461.593 320.312 441.144 296.409 417.544 274.898C414.576 272.194 411.502 269.481 408.406 266.832C351.947 218.533 274.992 178.183 185.861 150.139C81.2272 117.331 -28.9023 103.155 -124.244 110.219C-178.493 114.326 -249.348 133.248 -285.351 166.258C-306.756 185.884 -311.893 207.787 -300.201 229.599L-300.549 229.663C-306.665 218.258 -308.262 206.859 -305.302 195.783C-302.568 185.56 -295.962 175.587 -285.659 166.142C-269.735 151.542 -245.23 138.429 -214.786 128.217C-186.58 118.756 -154.443 112.29 -124.288 110.006C-74.2482 106.298 -20.4274 108.367 35.6834 116.156C86.3752 123.194 136.961 134.562 186.033 149.95C275.215 178.009 352.215 218.383 408.707 266.709C411.803 269.358 414.88 272.076 417.848 274.782C441.459 296.304 461.919 320.22 480.401 347.9C483.815 353 487.197 358.248 490.469 363.324C504.565 385.2 519.144 407.819 541.813 427.544C543.11 428.672 544.444 429.795 545.778 430.882C598.917 474.049 690.133 488.511 789.776 469.566C880.014 452.41 953.624 413.958 1021.29 376.046C1027.22 372.721 1033.57 369.127 1041.89 364.396C1048.98 360.368 1056.25 356.212 1063.28 352.19C1096.18 333.378 1130.2 313.926 1166.49 295.711C1207.52 275.111 1245.78 259.029 1283.46 246.548C1309.57 237.934 1336.73 230.894 1364.19 225.626C1390.2 220.636 1417.35 217.072 1444.87 215.029C1494.98 211.313 1547.47 212.376 1605.34 218.279C1653.17 223.087 1709.31 230.275 1763.02 247.158C1814.93 263.541 1861.98 286.383 1907.47 308.473C1915.72 312.48 1924.26 316.624 1932.58 320.609C2043.35 373.645 2155.66 433.739 2266.38 499.224L2266.12 499.381Z" fill="#FFE492"/><path d="M2262.24 497.358C2152.48 431.153 2042.01 370.317 1933.87 316.544C1924.67 311.971 1915.23 307.17 1906.09 302.527C1862.56 280.413 1817.56 257.547 1767.09 241.816C1713.39 225.15 1657.16 219.833 1609.23 216.83C1491.81 209.274 1388.04 221.36 1292 253.777C1215.53 279.706 1149.98 314.394 1086.58 347.941C1073.78 354.717 1060.54 361.724 1047.67 368.403C1039.79 372.491 1032.82 376.081 1026.33 379.376C996.173 394.685 956.055 414.313 913.186 430.354C870.112 446.47 829.372 457.158 788.639 463.024C744.213 469.424 699.874 469.471 660.42 463.164C638.484 459.656 618.126 454.186 599.912 446.906C580.248 439.046 562.88 428.983 548.286 417.003C546.964 415.911 545.637 414.783 544.348 413.654C521.975 394.057 506.938 371.797 492.399 350.272C488.882 345.064 485.247 339.681 481.579 334.45C462.299 306.856 441.363 283.146 417.572 261.968C414.561 259.287 411.442 256.598 408.302 253.973C351.07 206.11 273.518 166.303 184.028 138.859C78.6723 106.668 -31.765 93.2306 -126.942 101.018C-191.443 106.41 -255.846 129.052 -287.195 157.358C-309.011 177.055 -314.906 199.072 -304.244 221.029L-304.595 221.087C-310.168 209.614 -311.304 198.155 -307.974 187.031C-304.896 176.75 -298.007 166.726 -287.503 157.24C-271.41 142.709 -247.001 129.626 -216.912 119.405C-189.003 109.925 -157.067 103.317 -126.993 100.803C-77.012 96.7129 -23.1325 98.4014 33.1505 105.819C83.9668 112.517 134.787 123.568 184.196 138.666C273.737 166.127 351.334 205.955 408.603 253.848C411.743 256.473 414.861 259.165 417.876 261.848C441.678 283.038 462.625 306.759 481.916 334.366C485.584 339.597 489.219 344.983 492.736 350.19C507.268 371.705 522.297 393.954 544.648 413.531C545.938 414.661 547.26 415.785 548.583 416.876C600.81 459.763 690.516 476.936 788.551 462.816C877.924 449.942 955.535 415.026 1026.09 379.215C1032.57 375.92 1039.55 372.332 1047.42 368.244C1060.29 361.565 1073.53 354.56 1086.33 347.784C1149.74 314.231 1215.31 279.535 1291.82 253.595C1317.7 244.858 1344.46 237.504 1371.37 231.734C1397.1 226.217 1423.81 221.97 1450.75 219.111C1500.84 213.794 1552.7 212.98 1609.27 216.619C1657.22 219.624 1713.5 224.943 1767.26 241.629C1817.76 257.371 1862.78 280.246 1906.33 302.368C1915.47 307.011 1924.91 311.81 1934.11 316.383C2042.25 370.16 2152.74 431.001 2262.5 497.209L2262.24 497.358Z" fill="#FFE492"/><path d="M2258.35 495.334C2149.58 428.399 2040.92 366.822 1935.4 312.31C1925.71 307.301 1915.73 301.997 1906.09 296.867C1864.15 274.566 1820.78 251.504 1771.33 236.28C1717.41 219.755 1661.13 216.333 1613.19 215.165C1500.21 212.209 1397.88 227.141 1300.38 260.817C1231.99 284.546 1171.04 314.579 1112.08 343.621C1091.81 353.608 1072.66 363.041 1053.19 372.25C1045.27 375.999 1038.05 379.368 1031.13 382.545C986.446 403.028 949.271 417.838 914.133 429.151C870.051 443.344 828.596 452.217 787.398 456.272C771.415 457.845 755.491 458.629 739.857 458.629C712.142 458.629 685.325 456.171 660.637 451.303C615.958 442.494 579.105 426.238 551.101 402.987C549.782 401.885 548.467 400.758 547.192 399.632C525.16 380.205 509.701 358.341 494.752 337.193C490.964 331.836 487.05 326.297 483.104 320.912C463 293.382 441.572 269.87 417.61 249.029C414.554 246.372 411.392 243.706 408.208 241.105C350.203 193.678 272.049 154.417 182.2 127.568C76.1227 95.9953 -34.6187 83.2949 -129.63 91.8062C-194.399 97.7289 -256.944 119.942 -288.964 148.397C-311.223 168.176 -317.899 190.325 -308.277 212.449L-308.633 212.503C-313.656 200.95 -314.323 189.422 -310.611 178.241C-307.174 167.89 -299.997 157.811 -289.268 148.279C-273.007 133.828 -248.704 120.788 -218.981 110.567C-191.373 101.072 -159.661 94.3347 -129.685 91.5935C-79.7631 87.1209 -25.825 88.427 30.6266 95.4754C81.5675 101.836 132.618 112.569 182.368 127.375C272.269 154.241 350.466 193.523 408.508 240.978C411.692 243.582 414.854 246.248 417.914 248.907C441.891 269.758 463.329 293.283 483.441 320.824C487.387 326.209 491.304 331.75 495.089 337.107C510.031 358.244 525.482 380.1 547.496 399.509C548.771 400.633 550.082 401.761 551.401 402.861C603.694 446.281 689.689 465.671 787.335 456.058C880.288 446.906 962.619 413.675 1030.9 382.373C1037.82 379.196 1045.04 375.829 1052.96 372.081C1072.43 362.871 1091.58 353.44 1111.85 343.453C1170.81 314.405 1231.78 284.368 1300.19 260.63C1325.88 251.758 1352.24 244.089 1378.56 237.833C1404.05 231.775 1430.32 226.845 1456.64 223.182C1506.84 216.198 1558.06 213.504 1613.21 214.948C1661.19 216.116 1717.51 219.543 1771.5 236.086C1820.99 251.322 1864.37 274.394 1906.33 296.703C1915.98 301.833 1925.95 307.137 1935.64 312.145C2041.16 366.661 2149.83 428.244 2258.61 495.183L2258.35 495.334Z" fill="#FFE492"/><path d="M2254.47 493.31C2145.15 424.687 2041.28 364.096 1936.93 308.074C1926.97 302.729 1917.17 297.27 1906.79 291.492C1866.22 268.901 1824.26 245.543 1775.58 230.744C1720.98 214.226 1662.23 212.851 1617.15 213.5C1509.31 214.849 1408.43 232.63 1308.75 267.859C1248.94 289.099 1193.72 314.605 1140.32 339.273C1112.25 352.237 1085.74 364.48 1058.71 376.1C1050.68 379.552 1043.23 382.697 1035.92 385.716C990.63 404.397 952.231 417.815 915.071 427.946C869.967 440.242 827.797 447.299 786.152 449.521C764.754 450.661 743.503 450.446 722.988 448.882C701.268 447.226 680.361 444.049 660.85 439.441C617.603 429.226 581.626 412.249 553.915 388.977C552.607 387.872 551.303 386.742 550.035 385.617C528.373 366.39 512.526 344.942 497.2 324.201C493.111 318.667 488.883 312.944 484.629 307.38C463.681 279.91 441.771 256.594 417.643 236.097C414.539 233.463 411.333 230.821 408.113 228.243C349.335 181.253 270.584 142.537 180.375 116.283C97.1143 92.1521 11.2515 79.5613 -67.4847 79.5613C-89.7436 79.5613 -111.416 80.5667 -132.32 82.6011C-196.308 88.9513 -258.461 111.244 -290.668 139.394C-313.399 159.265 -320.885 181.564 -312.315 203.878L-312.674 203.925C-317.148 192.282 -317.334 180.675 -313.231 169.429C-309.427 159.003 -301.938 148.857 -290.975 139.274C-274.546 124.913 -250.356 111.927 -221.015 101.716C-193.318 92.0769 -162.669 85.3938 -132.385 82.3905C-82.5218 77.5355 -28.5251 78.4614 28.0987 85.1381C79.1605 91.1575 130.449 101.57 180.537 116.088C270.796 142.357 349.595 181.094 408.41 228.112C411.634 230.69 414.844 233.334 417.947 235.97C442.086 256.477 464.008 279.805 484.966 307.288C489.22 312.852 493.452 318.575 497.541 324.111C512.86 344.843 528.699 366.283 550.343 385.494C551.611 386.618 552.915 387.748 554.219 388.85C606.04 432.367 690.561 454.399 786.123 449.304C882.82 444.146 970.302 412.515 1035.72 385.535C1043.02 382.517 1050.47 379.372 1058.5 375.922C1085.53 364.306 1112.03 352.061 1140.1 339.099C1193.51 314.428 1248.73 288.916 1308.56 267.67C1359.89 249.532 1410.25 236.314 1462.53 227.257C1512.96 218.522 1563.54 213.951 1617.15 213.281C1647.74 212.84 1672.7 213.605 1695.69 215.685C1725.38 218.37 1751.57 223.231 1775.75 230.548C1824.48 245.36 1866.46 268.731 1907.05 291.333C1917.43 297.111 1927.23 302.568 1937.18 307.913C2041.54 363.937 2145.42 424.532 2254.74 493.16L2254.47 493.31Z" fill="#FFE492"/><path d="M2250.58 491.287C2142.27 421.911 2040.17 360.598 1938.45 303.838C1928.39 298.222 1918.47 292.437 1907.97 286.312C1868.61 263.365 1827.91 239.633 1779.82 225.205C1724.77 208.765 1666.09 209.422 1621.11 211.831C1519.35 217.092 1419.91 237.721 1317.12 274.894C1266.48 293.298 1218.26 314.36 1171.63 334.729C1134.76 350.83 1099.95 366.04 1064.23 379.941C1056.16 383.086 1048.24 386.094 1040.71 388.878C995.335 405.643 954.544 418.023 916.009 426.728C869.868 437.151 826.984 442.397 784.907 442.762C763.498 442.947 742.331 441.813 722.006 439.387C700.7 436.844 680.196 432.867 661.063 427.565C619.3 415.993 584.195 398.294 556.726 374.957C555.436 373.855 554.139 372.723 552.875 371.591C531.62 352.598 515.429 331.604 499.769 311.3C495.339 305.556 490.755 299.614 486.15 293.837C464.345 266.419 441.947 243.3 417.676 223.154C414.529 220.544 411.279 217.925 408.014 215.371C348.463 168.816 269.111 130.646 178.544 104.988C71.0268 74.6546 -40.3338 63.4322 -135.016 73.3871C-198.176 80.1434 -259.915 102.494 -292.301 130.324C-315.546 150.301 -323.863 172.767 -316.359 195.298L-316.718 195.338C-320.632 183.594 -320.331 171.897 -315.821 160.573C-311.633 150.062 -303.825 139.843 -292.605 130.202C-276.015 115.944 -251.946 103.022 -223 92.833C-195.622 83.196 -165.222 76.399 -135.082 73.1745C-85.2731 67.9392 -31.2214 68.4806 25.571 74.7878C76.7574 80.472 128.277 90.5666 178.701 104.792C269.324 130.464 348.719 168.657 408.304 215.24C411.572 217.794 414.826 220.415 417.973 223.027C442.258 243.184 464.664 266.314 486.479 293.743C491.089 299.52 495.669 305.462 500.102 311.208C515.755 331.503 531.939 352.489 553.179 371.468C554.443 372.598 555.74 373.731 557.026 374.83C609.393 419.316 690.32 443.368 784.899 442.543C861.642 441.877 942.866 424.764 1040.52 388.691C1048.04 385.907 1055.95 382.901 1064.02 379.756C1099.73 365.857 1134.55 350.652 1171.4 334.551C1218.04 314.179 1266.27 293.114 1316.93 274.705C1368.75 255.962 1418.3 241.775 1468.42 231.328C1519.18 220.746 1569.12 214.295 1621.08 211.609C1666.1 209.197 1724.85 208.542 1779.99 225.008C1828.13 239.453 1868.85 263.195 1908.23 286.153C1918.73 292.278 1928.65 298.061 1938.71 303.674C2040.43 360.437 2142.53 421.754 2250.85 491.134L2250.58 491.287Z" fill="#FFE492"/><path d="M2246.7 489.263C2139.39 419.133 2039.07 357.094 1939.98 299.603C1929.93 293.766 1919.99 287.702 1909.48 281.281C1871.24 257.923 1831.69 233.77 1784.07 219.669C1728.5 203.289 1669.91 205.985 1625.08 210.163C1529.32 218.917 1434.13 241.723 1325.5 281.934C1284.75 297.083 1244.93 313.702 1206.43 329.773C1159.66 349.292 1115.49 367.73 1069.75 383.788C1061.51 386.684 1053.35 389.464 1045.51 392.046C999.317 407.243 957.265 418.19 916.949 425.512C894.368 429.613 872.076 432.584 850.693 434.343C827.884 436.218 805.332 436.779 783.663 436.01C739.698 434.448 698.522 427.613 661.281 415.694C621.061 402.822 586.832 384.403 559.546 360.944C558.263 359.833 556.977 358.699 555.721 357.573C534.92 338.86 518.439 318.364 502.504 298.544C497.679 292.544 492.692 286.34 487.676 280.303C464.992 252.931 442.107 230.007 417.712 210.219C414.52 207.631 411.223 205.036 407.918 202.507C347.593 156.386 267.644 118.762 176.718 93.703C68.4825 63.9906 -43.1822 53.5072 -137.707 64.1818C-238.918 75.7888 -337.542 125.939 -320.395 186.724L-320.758 186.758C-325.048 171.553 -322.535 156.573 -313.29 142.232C-304.848 129.134 -290.995 116.807 -272.114 105.598C-254.56 95.1745 -233.499 86.1755 -209.522 78.85C-186.717 71.8833 -161.908 66.7361 -137.78 63.9692C-88.0299 58.3515 -33.9196 58.5126 23.045 64.4504C74.356 69.7973 126.11 79.574 176.872 93.5096C267.849 118.586 347.846 156.232 408.207 202.378C411.516 204.909 414.813 207.504 418.008 210.095C442.414 229.891 465.311 252.827 488.006 280.211C493.022 286.248 498.009 292.452 502.834 298.454C518.765 318.267 535.239 338.755 556.028 357.457C557.281 358.583 558.564 359.717 559.846 360.826C612.289 405.909 691.784 432.532 783.685 435.797C861.487 438.558 947.071 424.188 1045.33 391.862C1053.17 389.279 1061.32 386.502 1069.56 383.606C1115.29 367.552 1159.46 349.116 1206.22 329.599C1244.73 313.526 1284.55 296.905 1325.3 281.753C1433.98 241.526 1529.21 218.711 1625.02 209.951C1655.14 207.143 1680.08 206.245 1703.52 207.128C1733.47 208.256 1759.87 212.294 1784.23 219.476C1831.9 233.592 1871.47 257.76 1909.74 281.13C1920.25 287.549 1930.18 293.614 1940.24 299.449C2039.33 356.944 2139.66 418.985 2246.96 489.119L2246.7 489.263Z" fill="#FFE492"/><path d="M2242.81 487.239C2136.53 416.345 2037.97 353.584 1941.51 295.367C1931.53 289.343 1921.67 283.034 1911.23 276.351C1874.02 252.546 1835.54 227.929 1788.31 214.131C1731.53 197.613 1670.22 203.003 1629.04 208.494C1517.27 223.214 1417.11 257.435 1333.87 288.974C1303.96 300.355 1274.12 312.411 1245.25 324.069C1187.36 347.457 1132.68 369.548 1075.28 387.636C1066.83 390.298 1058.44 392.848 1050.31 395.217C1003.22 408.921 959.904 418.433 917.899 424.293C870.282 430.938 824.705 432.609 782.426 429.258C738.992 425.814 698.307 417.256 661.506 403.819C622.905 389.726 589.552 370.587 562.365 346.933C561.097 345.823 559.818 344.686 558.569 343.556C538.285 325.187 521.599 305.253 505.459 285.975C500.171 279.657 494.701 273.126 489.205 266.769C465.297 239.053 442.591 216.975 417.753 197.285C414.518 194.72 411.18 192.15 407.827 189.643C346.722 143.961 266.172 106.882 174.887 82.416C65.9335 53.3267 -46.0391 43.5801 -140.402 54.9744C-241.976 67.4019 -338.586 116.872 -324.435 178.15L-324.798 178.178C-328.308 162.975 -325.271 148.01 -315.773 133.701C-307.068 120.59 -293.133 108.251 -274.352 97.0283C-256.838 86.5621 -235.887 77.4965 -212.078 70.0787C-189.409 63.0152 -164.647 57.7198 -140.476 54.7617C-90.7805 48.7617 -36.6152 48.5425 20.5179 54.1086C71.9535 59.1183 123.942 68.577 175.041 82.2205C266.381 106.7 346.975 143.8 408.109 189.51C411.462 192.019 414.803 194.591 418.042 197.156C442.895 216.855 465.609 238.945 489.527 266.673C495.023 273.029 500.494 279.562 505.781 285.88C521.917 305.152 538.6 325.079 558.869 343.44C560.119 344.57 561.394 345.704 562.661 346.815C615.511 392.796 693.573 421.999 782.47 429.045C862.199 435.365 949.754 424.235 1050.14 395.024C1058.27 392.656 1066.67 390.108 1075.1 387.447C1132.49 369.363 1187.16 347.277 1245.05 323.891C1273.91 312.233 1303.75 300.175 1333.67 288.791C1389.64 267.586 1436.2 251.919 1480.19 239.487C1531.98 224.853 1580.64 214.647 1628.95 208.284C1658.41 204.357 1684.08 202.578 1707.43 202.849C1737.51 203.197 1764.02 206.823 1788.47 213.938C1835.77 227.753 1874.26 252.385 1911.49 276.204C1921.94 282.886 1931.8 289.195 1941.77 295.214C2038.24 353.434 2136.8 416.199 2243.09 487.095L2242.81 487.239Z" fill="#FFE492"/><path d="M2238.93 485.213C2133.67 413.552 2036.88 350.068 1943.04 291.128C1933.2 284.948 1923.46 278.419 1913.15 271.506C1876.92 247.223 1839.47 222.112 1792.56 208.593C1735.16 192.114 1674.01 199.691 1633 206.825C1531.74 224.292 1441.41 257.551 1342.25 296.011C1324.36 302.974 1306.27 310.16 1288.78 317.111C1221.49 343.844 1151.92 371.486 1080.8 391.481C1072.16 393.913 1063.51 396.235 1055.1 398.384C1007.69 410.483 961.846 418.788 918.841 423.069C870.124 427.92 823.811 427.729 781.176 422.504C738.351 417.256 698.161 406.972 661.718 391.939C624.84 376.725 592.354 356.869 565.167 332.922C563.911 331.81 562.643 330.671 561.401 329.541C541.729 311.601 524.937 292.316 508.698 273.668C502.846 266.948 496.797 260 490.718 253.24C465.876 225.551 442.698 203.663 417.775 184.354C414.503 181.82 411.117 179.272 407.717 176.784C345.85 131.531 264.707 94.9984 173.055 71.1293C63.3869 42.663 -48.8897 33.6554 -143.099 45.7672C-241.449 58.5492 -339.842 106.283 -328.48 169.575L-328.843 169.596C-331.573 154.393 -328.011 139.445 -318.261 125.168C-309.296 112.043 -295.277 99.6923 -276.598 88.457C-242.134 67.7308 -193.505 52.0937 -143.18 45.5545C-93.5432 39.1742 -39.3193 38.5727 17.986 43.7671C69.5461 48.4417 121.766 57.5803 173.201 70.9317C264.904 94.8136 346.096 131.37 408.003 176.644C411.407 179.134 414.792 181.682 418.068 184.219C443.002 203.538 466.191 225.435 491.041 253.135C497.119 259.897 503.172 266.845 509.024 273.564C525.259 292.209 542.047 311.489 561.709 329.421C562.947 330.551 564.215 331.687 565.472 332.8C619.864 380.71 694.478 411.655 781.246 422.291C861.591 432.139 953.675 424.029 1054.95 398.186C1063.35 396.038 1071.99 393.718 1080.63 391.288C1151.73 371.299 1221.29 343.661 1288.56 316.933C1306.06 309.981 1324.15 302.796 1342.04 295.833C1385.44 278.997 1435.95 259.687 1486.08 243.564C1538.52 226.701 1586.54 214.617 1632.89 206.621C1662.07 201.545 1687.74 198.911 1711.35 198.572C1741.12 198.142 1768.49 201.45 1792.71 208.402C1813.72 214.458 1834.87 223.495 1857.37 236.033C1877.23 247.102 1895.63 259.438 1913.42 271.365C1923.72 278.276 1933.46 284.804 1943.3 290.982C2037.15 349.924 2133.94 413.411 2239.2 485.074L2238.93 485.213Z" fill="#FFE492"/><path d="M2235.04 483.189C2130.82 410.755 2035.8 346.546 1944.57 286.894C1934.9 280.578 1925.33 273.852 1915.2 266.733C1879.92 241.944 1843.44 216.311 1796.8 203.059C1753.22 190.713 1700.93 191.4 1636.96 205.16C1547.51 224.29 1467.56 256.288 1382.9 290.168C1372.36 294.387 1361.47 298.748 1350.62 303.055C1346.37 304.746 1342.12 306.441 1337.88 308.134C1257.22 340.291 1173.81 373.543 1086.32 395.331C1077.47 397.535 1068.59 399.629 1059.9 401.554C1011.45 412.28 964.307 419.107 919.797 421.844C869.955 424.908 822.898 422.858 779.941 415.752C737.783 408.776 698.087 396.768 661.956 380.059C626.935 363.863 595.322 343.292 567.992 318.911C566.746 317.796 565.49 316.656 564.255 315.523C545.33 298.146 528.593 279.639 512.401 261.742C505.847 254.494 499.064 246.999 492.253 239.703C466.451 212.034 442.803 190.335 417.822 171.417C414.502 168.904 411.077 166.382 407.632 163.918C344.981 119.103 263.237 83.1139 171.226 59.842C60.8473 32.0008 -51.7408 23.7301 -145.793 36.5594C-242.336 49.8377 -340.59 97.9626 -332.519 161.001L-332.885 161.018C-334.831 145.812 -330.749 130.882 -320.746 116.642C-311.516 103.501 -297.417 91.1354 -278.837 79.8916C-244.52 59.1224 -196.059 43.2533 -145.877 36.351C-96.2953 29.5884 -42.0165 28.6045 15.4574 33.4294C67.1421 37.7646 119.6 46.5852 171.373 59.6444C263.435 82.9313 345.23 118.94 407.907 163.778C411.351 166.242 414.785 168.769 418.104 171.282C443.096 190.21 466.759 211.916 492.568 239.596C499.383 246.891 506.162 254.389 512.72 261.637C528.904 279.53 545.642 298.032 564.559 315.403C565.794 316.535 567.047 317.674 568.293 318.789C623.865 368.362 697.083 401.816 780.036 415.539C861.924 429.086 956.038 424.31 1059.77 401.348C1068.45 399.423 1077.33 397.331 1086.17 395.129C1173.64 373.35 1257.03 340.104 1337.67 307.951C1341.92 306.256 1346.16 304.563 1350.41 302.872C1361.26 298.565 1372.15 294.204 1382.69 289.987C1467.37 256.101 1547.35 224.094 1636.83 204.956C1665.73 198.739 1691.39 195.252 1715.27 194.292C1745.16 193.091 1772.64 195.976 1796.96 202.863C1817.85 208.799 1838.73 217.877 1860.81 230.619C1880.28 241.86 1898.18 254.434 1915.48 266.593C1925.62 273.71 1935.18 280.434 1944.84 286.748C2036.08 346.402 2131.1 410.613 2235.32 483.05L2235.04 483.189Z" fill="#FFE492"/><path d="M2231.16 481.166C2136.03 413.668 2040.12 346.88 1946.09 282.658C1936.52 276.157 1927.03 269.173 1916.99 261.781C1884.33 237.734 1847.3 210.479 1801.05 197.523C1756.95 185.199 1704.58 187.151 1640.92 203.491C1565.23 222.855 1498.24 251.328 1427.33 281.472C1405.12 290.911 1382.15 300.675 1358.99 310.093C1318.56 326.568 1274.82 344.001 1228.97 359.879C1179.87 376.884 1135.01 389.737 1091.83 399.176C1082.76 401.159 1073.63 403.026 1064.68 404.721C1015.2 414.094 966.785 419.428 920.768 420.575C869.827 421.842 822.026 417.95 778.688 408.996C698.659 392.257 628.713 357.234 570.795 304.899C569.561 303.782 568.315 302.639 567.087 301.507C549.123 284.896 532.678 267.373 516.777 250.426C509.291 242.449 501.553 234.2 493.767 226.172C466.983 198.509 442.859 177.001 417.848 158.485C414.481 155.993 411.011 153.495 407.526 151.057C344.113 106.674 261.768 71.2323 169.398 48.5555C58.3047 21.3373 -54.5875 13.8077 -148.485 27.3523C-245.615 41.4427 -341.407 88.9295 -336.56 152.427L-336.926 152.436C-338.088 137.226 -333.478 122.313 -323.23 108.109C-313.733 94.951 -299.553 82.5729 -281.079 71.3204C-263.675 60.7188 -243.047 51.4492 -219.769 43.7671C-197.169 36.3105 -173.218 30.7165 -148.577 27.1418C-99.0504 19.9989 -44.713 18.6326 12.9295 23.0859C64.7387 27.0881 117.427 35.5887 169.537 48.3557C261.962 71.0454 344.355 106.509 407.805 150.913C411.289 153.353 414.766 155.854 418.134 158.346C443.155 176.872 467.29 198.389 494.085 226.06C501.871 234.09 509.61 242.34 517.095 250.318C532.997 267.264 549.438 284.785 567.395 301.388C568.619 302.523 569.868 303.663 571.099 304.78C628.973 357.075 698.857 392.07 778.809 408.792C861.165 425.806 959.98 424.328 1064.57 404.515C1073.51 402.82 1082.64 400.955 1091.7 398.974C1188.25 377.872 1276.58 343.408 1358.78 309.915C1381.94 300.497 1404.9 290.735 1427.11 281.296C1498.04 251.145 1565.04 222.666 1640.77 203.293C1704.52 186.928 1757 184.975 1801.2 197.328C1821.92 203.13 1842.49 212.226 1864.09 225.13C1883.13 236.509 1900.49 249.289 1917.28 261.646C1927.32 269.038 1936.8 276.02 1946.37 282.516C2040.4 346.74 2136.31 413.529 2231.44 481.029L2231.16 481.166Z" fill="#FFE492"/><path d="M2227.27 479.143C2133.6 411.271 2039.51 343.739 1947.62 278.422C1938.35 271.85 1929.15 264.744 1919.4 257.221C1887.54 232.613 1851.43 204.72 1805.29 191.983C1760.67 179.68 1708.2 182.898 1644.87 201.818C1578.53 221.612 1517.57 249.56 1458.63 276.591C1429.07 290.145 1398.5 304.16 1367.36 317.129C1318.2 337.619 1276.84 353.249 1237.2 366.321C1188.31 382.44 1142.56 394.444 1097.35 403.02C1088.07 404.781 1078.69 406.418 1069.48 407.885C1021.46 415.527 974.314 419.394 929.209 419.396C926.703 419.396 924.212 419.383 921.72 419.359C869.574 418.861 821.033 413.099 777.446 402.238C756.407 396.966 735.804 390.274 716.213 382.347C697.797 374.897 679.701 366.122 662.425 356.265C631.343 338.534 602.287 317.146 573.605 290.884C572.374 289.754 571.146 288.622 569.926 287.485C553.284 271.99 537.54 255.792 522.316 240.127C513.526 231.085 504.439 221.734 495.287 212.632C467.107 184.589 443.235 163.897 417.877 145.544C414.466 143.076 410.952 140.601 407.423 138.187C343.241 94.2445 260.298 59.3485 167.569 37.2667C55.7651 10.6737 -57.4349 3.88308 -151.179 18.1431C-246.487 32.6824 -342.155 80.5301 -340.598 143.85L-340.964 143.852C-341.69 114.358 -321.754 86.3132 -283.315 62.7492C-265.94 52.0982 -245.421 42.7619 -222.323 34.9939C-199.848 27.4364 -175.944 21.6963 -151.271 17.9326C-101.803 10.4073 -47.4065 8.66076 10.4045 12.7424C62.3383 16.4095 115.262 24.5921 167.705 37.0648C260.492 59.1616 343.482 94.0791 407.705 138.047C411.234 140.464 414.755 142.941 418.166 145.409C443.536 163.772 467.418 184.471 495.605 212.524C504.758 221.629 513.849 230.98 522.635 240.022C537.859 255.685 553.599 271.88 570.238 287.371C571.458 288.508 572.682 289.64 573.913 290.768C634.86 346.575 701.483 382.972 777.589 402.04C882.999 428.309 994.447 419.606 1069.38 407.679C1078.59 406.212 1087.96 404.577 1097.24 402.816C1201.22 383.09 1296.1 346.568 1367.15 316.955C1398.29 303.99 1428.85 289.975 1458.4 276.424C1517.37 249.388 1578.33 221.431 1644.71 201.629C1673.04 193.162 1698.69 187.964 1723.1 185.738C1753.22 182.993 1780.92 185.029 1805.44 191.792C1826.1 197.495 1846.48 206.664 1867.72 219.82C1886.44 231.412 1903.35 244.467 1919.7 257.094C1929.44 264.615 1938.63 271.719 1947.9 278.286C2039.79 343.604 2133.88 411.136 2227.56 479.007L2227.27 479.143Z" fill="#FFE492"/><path d="M2223.39 477.119L1949.15 274.187C1940.19 267.56 1931.3 260.348 1921.88 252.716C1890.81 227.525 1855.58 198.975 1809.53 186.449C1765 174.337 1710.94 178.947 1648.83 200.153C1589.13 220.537 1534.68 247.646 1482.02 273.863C1447.7 290.952 1412.2 308.622 1375.74 324.173C1266.13 370.914 1170.33 398.521 1074.28 411.056C1034.43 416.255 995.114 418.871 956.99 418.871C945.434 418.871 933.995 418.631 922.676 418.15C869.299 415.881 820.018 408.255 776.207 395.486C735.602 383.649 698.457 366.94 662.659 344.4C634.072 326.402 606.669 304.946 576.423 276.875C560.458 262.061 545 246.668 530.051 231.783C496.217 198.099 461.233 163.267 417.921 132.612C351.485 85.5933 264.281 48.7209 165.737 25.9796C53.2257 0.0138371 -60.282 -6.0399 -153.872 8.93548C-244.483 23.434 -342.829 69.1528 -344.639 135.276L-345.006 135.271C-344.196 105.716 -323.637 77.6749 -285.553 54.1796C-251.119 32.9356 -204.388 16.7937 -153.967 8.7271C-104.554 0.821577 -50.0997 -1.30733 7.87616 2.40268C59.9346 5.73245 113.092 13.5993 165.872 25.7798C214.633 37.0323 260.943 51.8444 303.519 69.8059C346.45 87.9177 385.036 109.001 418.199 132.47C461.53 163.136 496.525 197.976 530.366 231.669C545.315 246.552 560.773 261.942 576.734 276.755C620.863 317.713 683.438 368.199 776.372 395.288C882.951 426.354 997.155 420.893 1074.19 410.841C1170.21 398.315 1265.95 370.719 1375.52 323.994C1411.97 308.45 1447.46 290.78 1481.78 273.695C1534.45 247.474 1588.92 220.359 1648.65 199.963C1710.86 178.722 1765.04 174.107 1809.69 186.251C1830.31 191.86 1850.49 201.109 1871.4 214.529C1889.8 226.342 1906.26 239.684 1922.18 252.587C1931.59 260.22 1940.49 267.427 1949.44 274.052L2223.68 476.983L2223.39 477.119Z" fill="#FFE492"/><path d="M2221.18 461.518C2151.35 405.015 2091.43 359.165 2032.62 317.229C2004.08 296.857 1974.92 276.806 1945.97 257.631C1937.21 251.83 1928.54 245.661 1919.35 239.128C1896.27 222.709 1872.4 205.731 1844.93 193.132C1830.18 186.354 1815.98 181.501 1801.52 178.296C1757.14 168.361 1705.07 174.93 1646.75 197.824C1616.57 209.654 1589.09 223.117 1566.19 234.726C1541.95 247.016 1518.03 260.569 1494.9 273.676C1461.66 292.516 1427.28 311.996 1390.33 328.727C1367.84 338.937 1345.05 348.061 1322.58 355.846C1277.62 371.421 1229.36 384.254 1179.15 393.99C1148.13 399.939 1116.95 404.435 1086.5 407.352C1060.26 409.857 1033.96 411.303 1008.35 411.649C970.012 412.169 932.661 410.186 897.333 405.75C859.769 401.032 824.221 393.503 791.677 383.367C762.658 374.329 735.247 362.95 707.881 348.576C656.885 321.814 616.21 290.868 586.473 266.898C571.865 255.068 557.601 243.003 543.806 231.336C504.084 197.736 466.564 166 419.614 137.731C381.321 114.826 337.631 95.0604 289.746 78.9787C252.948 66.6198 212.926 56.5124 170.794 48.9355C160.758 47.1332 150.531 45.4532 140.408 43.9473C96.8206 37.4747 47.752 33.2598 -5.43134 31.4188C-59.0506 29.5197 -105.441 31.1631 -147.244 36.4478C-170.877 39.4124 -193.773 44.0633 -215.307 50.2696C-291.328 72.1816 -340.143 108.966 -345.889 148.67L-346.347 148.646C-344.815 138.062 -340.319 127.636 -332.988 117.656C-326.022 108.175 -316.456 99.0325 -304.555 90.4803C-282.069 74.3256 -251.276 60.3362 -215.508 50.0268C-193.942 43.8098 -171.009 39.1524 -147.339 36.1836C-105.492 30.8946 -59.0653 29.249 -5.40204 31.1502C47.8106 32.9913 96.9048 37.2104 140.521 43.6874C150.656 45.1954 160.886 46.8754 170.929 48.6799C213.095 56.261 253.15 66.3771 289.977 78.7467C337.895 94.8391 381.621 114.622 419.932 137.542C466.913 165.828 504.439 197.572 544.176 231.182C557.967 242.849 572.231 254.911 586.836 266.739C616.558 290.698 657.214 321.629 708.181 348.374C735.518 362.733 762.9 374.102 791.886 383.129C855.577 402.963 928.4 412.469 1008.33 411.38C1033.93 411.034 1060.2 409.589 1086.43 407.086C1116.86 404.169 1148.01 399.677 1179 393.732C1229.19 384.003 1277.41 371.178 1322.34 355.612C1344.8 347.833 1367.58 338.714 1390.04 328.512C1426.98 311.79 1461.35 292.314 1494.58 273.48C1517.71 260.372 1541.63 246.814 1565.89 234.52C1588.8 222.904 1616.29 209.437 1646.5 197.598C1672.46 187.405 1697.6 180.363 1721.22 176.666C1750.24 172.124 1777.31 172.588 1801.68 178.045C1816.19 181.261 1830.42 186.126 1845.21 192.919C1872.72 205.538 1896.6 222.526 1919.7 238.956C1928.89 245.487 1937.56 251.656 1946.31 257.452C1975.27 276.63 2004.43 296.684 2032.98 317.06C2091.79 359 2151.71 404.854 2221.55 461.361L2221.18 461.518Z" fill="#FFE492"/><path d="M2218.97 445.913C2154.22 388.454 2093.46 340.372 2033.19 298.922C2003.81 278.675 1973.39 259.212 1942.79 241.074C1934.67 236.262 1926.66 231.261 1918.17 225.968C1892.76 210.116 1866.48 193.725 1837.05 182.384C1822.19 176.634 1807.95 172.629 1793.51 170.142C1738.22 160.612 1682.06 178.666 1644.67 195.489C1618.19 207.373 1594 220.81 1569.49 234.681C1548.05 246.823 1527.87 259.884 1506.51 273.71C1474.8 294.235 1442.02 315.457 1404.92 333.277C1382.9 343.909 1359.92 353.101 1336.62 360.598C1293.22 374.566 1245.7 385.413 1191.33 393.761C1160.9 398.431 1129.75 401.758 1098.72 403.647C1072.54 405.221 1046.41 405.784 1021.04 405.314C983.313 404.622 946.431 401.511 911.417 396.07C874.645 390.353 839.559 382.001 807.136 371.245C778.728 361.823 751.3 350.132 723.281 335.507C672.395 308.982 628.804 279.577 596.517 256.922C584.565 248.535 572.803 240.097 561.426 231.934C516.121 199.426 473.328 168.719 421.307 142.85C382.428 123.516 338.778 107.168 291.578 94.2614C255.865 84.4955 218.012 77.1786 175.861 71.8918C166.133 70.6737 156.237 69.576 146.45 68.6286C103.464 64.4889 57.5864 62.9229 2.08014 61.3031C-37.931 60.0765 -90.3082 59.2687 -140.626 63.9562C-164.457 66.1345 -187.493 69.9175 -209.1 75.1958C-285.172 93.7845 -336.776 126.257 -347.145 162.064L-347.688 162.01C-344.939 152.515 -339.37 143.203 -331.144 134.328C-323.303 125.873 -313 117.765 -300.524 110.225C-276.814 95.9005 -245.274 83.6835 -209.312 74.8972C-187.665 69.6082 -164.585 65.8187 -140.714 63.6361C-90.3485 58.9422 -37.931 59.7521 2.10574 60.9787C57.6303 62.5985 103.522 64.1646 146.538 68.3064C156.332 69.2559 166.236 70.3536 175.975 71.5717C218.166 76.865 256.056 84.1883 291.809 93.965C339.057 106.884 382.743 123.245 421.662 142.599C473.721 168.487 516.531 199.203 561.851 231.723C573.224 239.884 584.986 248.322 596.938 256.707C629.218 279.354 672.791 308.748 723.647 335.26C751.633 349.87 779.032 361.548 807.407 370.959C871.161 392.109 943.049 403.557 1021.06 404.987C1046.4 405.456 1072.51 404.895 1098.66 403.32C1129.66 401.434 1160.79 398.111 1191.19 393.443C1245.51 385.103 1293 374.265 1336.36 360.31C1359.63 352.822 1382.58 343.642 1404.57 333.021C1441.64 315.217 1474.41 294.003 1506.11 273.489C1527.48 259.657 1547.66 246.593 1569.12 234.445C1593.63 220.565 1617.83 207.124 1644.34 195.227C1668.58 184.32 1692.48 176.475 1715.39 171.903C1743.17 166.361 1769.51 165.663 1793.67 169.826C1808.16 172.324 1822.45 176.341 1837.36 182.109C1866.84 193.471 1893.14 209.878 1918.58 225.742C1927.06 231.033 1935.08 236.032 1943.19 240.842C1973.8 258.986 2004.22 278.456 2033.62 298.71C2093.89 340.171 2154.68 388.261 2219.43 445.733L2218.97 445.913Z" fill="#FFE492"/><path d="M2216.76 430.309C2156.16 371.114 2096.31 322.149 2033.77 280.617C2003.53 260.495 1971.85 241.623 1939.62 224.52C1932.73 220.864 1925.63 216.984 1918.77 213.234C1890.45 197.736 1861.16 181.712 1829.18 171.639C1814.17 166.879 1799.88 163.721 1785.51 161.987C1730.33 155.33 1677.34 175.261 1642.59 193.152C1619.05 205.229 1597.52 218.918 1576.7 232.157L1572.8 234.636C1553.9 246.647 1536.17 259.82 1517.4 273.769C1487.5 295.979 1456.59 318.944 1419.51 337.827C1397.93 348.895 1374.77 358.156 1350.67 365.353C1308.65 377.901 1261.88 386.854 1203.5 393.531C1173.31 396.983 1142.17 399.14 1110.93 399.939C1084.81 400.582 1058.84 400.259 1033.73 398.977C957.701 395.112 886.663 381.703 822.587 359.123C794.887 349.361 767.44 337.363 738.681 322.437C690.011 297.232 646.725 271.324 606.563 246.948C601.177 243.681 595.85 240.435 590.563 237.214C535.709 203.811 483.899 172.26 423.011 147.976C383.26 132.122 339.654 119.194 293.41 109.549C259.46 102.468 222.665 97.6603 180.932 94.8504C171.527 94.221 161.96 93.7033 152.496 93.3123C128.687 92.3456 103.434 92.1888 76.6981 92.0233C55.2233 91.8902 33.0193 91.7527 9.58786 91.192C-35.6665 90.0169 -86.9554 88.6871 -134.016 91.4712C-158.298 92.9084 -181.473 95.8214 -202.9 100.131C-278.943 115.426 -333.339 143.592 -348.409 175.474L-349.028 175.373C-345.057 166.967 -338.417 158.767 -329.298 151.001C-320.577 143.575 -309.541 136.498 -296.497 129.97C-271.549 117.484 -239.254 107.044 -203.112 99.7742C-181.637 95.4541 -158.415 92.5346 -134.086 91.0953C-86.9774 88.309 -35.6628 89.6409 9.60986 90.816C33.0266 91.3746 55.2306 91.5142 76.6981 91.6474C103.445 91.8128 128.705 91.9696 152.536 92.9385C162.008 93.3316 171.585 93.8493 180.998 94.4788C222.783 97.2908 259.621 102.105 293.619 109.196C339.918 118.853 383.571 131.796 423.366 147.667C484.31 171.972 536.145 203.539 591.021 236.957C596.308 240.177 601.639 243.421 607.021 246.69C647.175 271.062 690.448 296.963 739.102 322.16C767.832 337.069 795.25 349.056 822.917 358.805C886.909 381.357 957.855 394.747 1033.78 398.607C1058.87 399.888 1084.81 400.21 1110.9 399.568C1142.1 398.769 1173.22 396.614 1203.37 393.166C1261.69 386.496 1308.41 377.553 1350.37 365.022C1374.43 357.84 1397.54 348.596 1419.08 337.548C1456.12 318.689 1487.01 295.737 1516.89 273.539C1535.67 259.584 1553.41 246.405 1572.33 234.385L1576.22 231.906C1597.05 218.66 1618.59 204.963 1642.17 192.873C1677.02 174.924 1730.2 154.935 1785.63 161.622C1800.07 163.364 1814.41 166.533 1829.48 171.313C1861.53 181.407 1890.85 197.448 1919.21 212.963C1926.06 216.714 1933.16 220.593 1940.04 224.248C1972.29 241.358 2003.98 260.241 2034.24 280.375C2096.81 321.924 2156.68 370.906 2217.3 430.12L2216.76 430.309Z" fill="#FFE492"/><path d="M2214.55 414.702C2158.91 354.613 2098.28 303.341 2034.34 262.314C2003.26 242.318 1970.32 224.035 1936.45 207.97C1931.56 205.65 1926.55 203.242 1921.7 200.913C1889.69 185.53 1856.59 169.62 1821.33 160.898C1806.19 157.115 1791.86 154.806 1777.52 153.835C1722.5 150.114 1672.65 171.89 1640.53 190.814C1620.57 202.505 1602.57 215.506 1585.15 228.08C1582.14 230.256 1579.13 232.428 1576.11 234.591C1559.55 246.475 1544.06 259.751 1527.66 273.805C1499.79 297.698 1470.96 322.403 1434.1 342.381C1412.45 354.113 1389.76 363.183 1364.71 370.113C1312.32 384.607 1259.97 389.971 1215.67 393.31C1185.7 395.565 1154.57 396.553 1123.14 396.24C1097.1 395.95 1071.29 394.74 1046.42 392.648C972.673 386.459 902.565 371.103 838.045 347.006C811.199 336.983 783.737 324.673 754.084 309.376C724.131 293.96 696.219 279.126 669.222 264.78C650.876 255.03 633.545 245.82 616.621 236.984C552.647 203.583 494.049 174.217 424.729 153.108C384.124 140.745 340.563 131.233 295.253 124.838C262.779 120.253 228.066 118.021 186.014 117.809C176.942 117.77 167.701 117.832 158.552 117.995C144.655 118.26 130.277 118.812 115.06 119.398C85.8582 120.522 52.7538 121.796 17.0955 121.082C3.5166 120.81 -10.3371 120.425 -23.7364 120.051C-58.2002 119.091 -93.8365 118.099 -127.41 118.986C-152.065 119.639 -175.383 121.684 -196.708 125.065C-272.622 137.106 -329.807 160.967 -349.681 188.892L-350.358 188.726C-345.155 181.414 -337.446 174.329 -327.447 167.667C-317.844 161.27 -306.075 155.227 -292.474 149.708C-266.265 139.074 -233.22 130.41 -196.905 124.651C-175.53 121.261 -152.16 119.209 -127.45 118.556C-93.8401 117.667 -58.1892 118.661 -23.7071 119.622C-10.3114 119.995 3.54224 120.38 17.1175 120.653C52.7428 121.366 85.8215 120.094 115.009 118.971C130.233 118.384 144.614 117.832 158.527 117.568C167.687 117.405 176.935 117.342 186.018 117.381C228.129 117.592 262.893 119.83 295.422 124.421C340.786 130.825 384.406 140.348 425.062 152.728C456.375 162.262 488.106 174.342 522.068 189.654C552.472 203.362 582.047 218.361 617.105 236.664C634.029 245.502 651.36 254.712 669.709 264.462C696.702 278.806 724.615 293.64 754.561 309.054C784.184 324.336 811.617 336.633 838.43 346.646C902.862 370.71 972.87 386.044 1046.51 392.225C1071.36 394.315 1097.14 395.522 1123.14 395.812C1154.54 396.126 1185.64 395.14 1215.56 392.884C1259.81 389.552 1312.1 384.195 1364.39 369.726C1389.37 362.815 1412.01 353.769 1433.6 342.068C1470.39 322.123 1499.2 297.438 1527.05 273.565C1543.46 259.502 1558.95 246.22 1575.54 234.323C1578.55 232.159 1581.56 229.987 1584.57 227.813C1602 215.231 1620.02 202.221 1639.99 190.516C1660.9 178.204 1682.34 168.733 1703.73 162.365C1729.07 154.823 1753.92 151.811 1777.59 153.413C1792 154.389 1806.4 156.709 1821.6 160.507C1856.95 169.252 1890.1 185.182 1922.15 200.585C1927 202.913 1932.01 205.321 1936.89 207.639C1970.79 223.717 2003.75 242.018 2034.86 262.029C2068.81 283.814 2102.06 308.635 2133.68 335.801C2161.63 359.812 2189.05 386.291 2215.17 414.5L2214.55 414.702Z" fill="#FFE492"/><path d="M2212.33 399.09C2160.84 337.279 2101.15 285.102 2034.92 244.009C2002.98 224.14 1968.79 206.447 1933.29 191.417C1931.6 190.702 1929.91 189.987 1928.22 189.269C1891.3 173.621 1853.13 157.441 1813.49 150.156C1798.13 147.333 1783.75 145.87 1769.55 145.681C1714.75 144.955 1668.02 168.552 1638.47 188.472C1621.08 200.126 1605.64 212.9 1590.71 225.252C1587.02 228.307 1583.2 231.465 1579.44 234.541C1565.09 246.258 1551.75 259.579 1537.62 273.684C1511.94 299.341 1485.38 325.869 1448.71 346.931C1427.49 359.116 1404.61 368.254 1378.76 374.871C1327.84 387.904 1276.13 391.326 1227.84 393.084C1198.06 394.166 1166.94 393.982 1135.34 392.536C1109.4 391.311 1083.75 389.217 1059.11 386.312C987.871 377.934 918.694 360.632 853.507 334.886C827.401 324.576 800.705 312.318 769.499 296.31C710.189 265.968 666.148 244.597 626.701 227.018C548.243 192.056 488.362 171.486 426.48 158.24C385.051 149.372 341.534 143.278 297.129 140.124C266.322 137.937 233.628 138.133 191.125 140.764C182.416 141.31 173.505 141.952 164.638 142.676C156.262 143.37 147.754 144.165 138.745 145.005C105.479 148.109 67.7725 151.628 24.6176 150.97C1.8714 150.625 -21.3622 149.677 -43.83 148.762C-69.3645 147.722 -95.7675 146.646 -120.8 146.5C-145.899 146.354 -169.359 147.531 -190.512 150.002C-266.174 158.833 -326.154 178.393 -350.956 202.322L-351.659 202.071C-345.218 195.854 -336.439 189.884 -325.568 184.326C-315.074 178.96 -302.58 173.952 -288.429 169.439C-260.942 160.67 -227.137 153.782 -190.673 149.527C-169.462 147.052 -145.95 145.87 -120.793 146.017C-95.7382 146.163 -69.3206 147.239 -43.775 148.281C-21.3145 149.196 1.90802 150.143 24.636 150.489C67.7139 151.144 105.38 147.63 138.609 144.53C147.623 143.688 156.138 142.895 164.517 142.199C173.395 141.475 182.313 140.833 191.03 140.285C233.599 137.651 266.348 137.454 297.221 139.647C341.688 142.805 385.267 148.908 426.755 157.789C488.721 171.052 548.664 191.643 627.192 226.636C666.653 244.221 710.71 265.598 770.034 295.949C801.218 311.945 827.885 324.19 853.962 334.488C919.061 360.198 988.135 377.477 1059.26 385.842C1083.87 388.742 1109.49 390.832 1135.4 392.057C1166.96 393.5 1198.04 393.685 1227.78 392.605C1276 390.849 1327.62 387.436 1378.43 374.433C1404.18 367.842 1426.98 358.733 1448.12 346.591C1484.71 325.575 1511.25 299.074 1536.91 273.446C1551.04 259.332 1564.39 246 1578.76 234.266C1582.53 231.192 1586.35 228.034 1590.03 224.979C1604.97 212.616 1620.42 199.834 1637.84 188.161C1657.12 175.16 1677.34 164.876 1697.93 157.593C1722.05 149.063 1746.15 144.897 1769.56 145.205C1783.85 145.394 1798.29 146.865 1813.73 149.701C1853.5 157.011 1891.73 173.213 1928.7 188.885C1930.39 189.602 1932.08 190.32 1933.77 191.033C1969.31 206.079 2003.54 223.794 2035.51 243.684C2101.8 284.814 2161.54 337.032 2213.07 398.886L2212.33 399.09Z" fill="#FFE492"/><path d="M1246.07 392.861C1244.01 392.861 1241.99 392.859 1239.99 392.852C1210.37 392.779 1179.26 391.426 1147.54 388.826C1121.69 386.667 1096.2 383.688 1071.79 379.973C1036.91 374.676 1001.9 367.063 967.733 357.346C934.739 347.963 901.51 336.328 868.966 322.761C837.078 309.47 807.293 294.66 784.906 283.242C732.525 256.6 682.687 234.331 636.777 217.053C562.419 189.07 496.155 172.011 428.235 163.368C387.261 158.155 343.3 155.405 300.973 155.405C300.317 155.405 299.665 155.405 299.009 155.407C262.647 155.48 228.125 159.441 196.24 163.712C187.941 164.831 179.357 166.054 170.724 167.349C165.994 168.067 161.256 168.806 156.244 169.588C120.89 175.111 80.8164 181.369 32.1325 180.855C2.48325 180.542 -27.7999 178.741 -57.0865 176.999C-75.9965 175.873 -95.5477 174.711 -114.198 174.009C-139.835 173.044 -163.427 173.353 -184.327 174.932C-259.586 180.612 -322.362 195.874 -352.256 215.758L-352.945 215.403C-337.611 205.205 -314.546 196.376 -284.391 189.158C-255.592 182.267 -221.029 177.162 -184.444 174.402C-163.49 172.821 -139.835 172.507 -114.139 173.476C-95.4707 174.178 -75.9085 175.343 -56.9912 176.468C-27.723 178.211 2.54184 180.011 32.1508 180.322C80.7101 180.836 120.714 174.587 156.009 169.074C161.026 168.29 165.763 167.551 170.497 166.834C179.137 165.538 187.729 164.314 196.035 163.194C227.974 158.917 262.556 154.95 299.005 154.874C342.006 154.786 386.755 157.545 428.43 162.849C463.483 167.31 497.467 173.878 532.316 182.926C565.878 191.641 600.21 202.658 637.268 216.606C683.215 233.897 733.089 256.183 785.503 282.843C807.872 294.254 837.635 309.054 869.49 322.33C935.527 349.857 1003.67 369.078 1072.02 379.46C1096.4 383.17 1121.85 386.145 1147.67 388.302C1179.35 390.897 1210.41 392.251 1239.99 392.322C1286.28 392.433 1340.03 391.518 1392.46 379.133C1418.99 372.865 1441.95 363.698 1462.64 351.112C1498.98 329.006 1523.06 300.635 1546.36 273.195C1558.35 259.081 1569.67 245.749 1581.97 234.209C1585.92 230.512 1589.9 226.703 1593.74 223.019C1606.74 210.572 1620.18 197.704 1635.67 185.809C1653.36 172.125 1672.35 161.025 1692.11 152.818C1715.01 143.304 1738.36 137.981 1761.5 136.997C1775.79 136.389 1790.29 137.01 1805.83 138.896C1847.38 143.935 1888.57 158.578 1930.62 174.425C1967.28 188.243 2003.77 205.848 2036.14 225.339C2072.1 246.926 2105.89 272.252 2136.56 300.611C2163.88 325.876 2188.91 353.688 2210.95 383.273L2210.11 383.488C2162.78 319.952 2104.03 266.869 2035.49 225.715C2003.16 206.252 1966.73 188.673 1930.13 174.879C1888.15 159.059 1847.04 144.445 1805.64 139.422C1790.19 137.547 1775.77 136.93 1761.57 137.534C1719.04 139.345 1674.59 156.604 1636.4 186.136C1620.94 198.009 1607.51 210.866 1594.52 223.3C1590.68 226.986 1586.69 230.797 1582.75 234.495C1570.47 246.013 1559.15 259.335 1547.18 273.436C1535.75 286.899 1523.93 300.822 1510.37 314.205C1494.99 329.378 1479.6 341.572 1463.3 351.486C1442.52 364.128 1419.46 373.335 1392.8 379.634C1369.29 385.189 1344.02 388.861 1315.55 390.863C1291.43 392.549 1267.22 392.861 1246.07 392.861Z" fill="#FFE492"/><path d="M1304.82 393.937C1286.14 393.937 1268.19 393.284 1252.14 392.622C1222.62 391.406 1191.52 388.882 1159.73 385.118C1133.98 382.027 1108.66 378.164 1084.45 373.634C1018.18 361.254 952.74 340.645 884.41 310.637C854.61 297.552 826.518 283.472 800.306 270.175C748.555 243.998 696.929 222.774 646.853 207.087C573.206 184.017 504.301 171.753 430.002 168.492C387.667 166.634 343.025 167.392 300.896 170.683C265.633 173.437 232.39 180.084 201.356 186.653C193.591 188.305 185.333 190.11 176.814 192.015C174.685 192.494 172.538 192.982 170.362 193.474C134.619 201.577 94.1755 210.746 42.271 210.746C41.3953 210.746 40.5233 210.743 39.6403 210.737C4.52426 210.529 -31.3282 207.59 -66.0045 204.746C-79.7519 203.618 -93.9683 202.453 -107.609 201.51C-134.254 199.671 -157.33 199.128 -178.16 199.854C-253.921 202.496 -317.869 213.186 -353.601 229.188L-354.213 228.718C-336.549 220.808 -311.007 213.94 -280.357 208.857C-250.21 203.858 -214.892 200.541 -178.223 199.263C-157.334 198.535 -134.199 199.079 -107.496 200.922C-93.8401 201.865 -79.62 203.031 -65.869 204.157C-31.2256 206.997 4.59387 209.934 39.6439 210.142C92.6294 210.46 133.732 201.139 169.992 192.917C172.164 192.425 174.315 191.938 176.444 191.457C184.97 189.549 193.232 187.744 201.004 186.092C232.089 179.51 265.395 172.855 300.753 170.092C342.948 166.797 387.664 166.036 430.068 167.897C466.887 169.512 501.992 173.328 537.387 179.557C573.84 185.974 609.799 194.806 647.318 206.561C697.457 222.269 749.149 243.519 800.954 269.721C827.156 283.015 855.23 297.086 885.004 310.158C953.242 340.126 1018.58 360.704 1084.75 373.065C1108.92 377.587 1134.21 381.445 1159.92 384.532C1191.67 388.291 1222.72 390.813 1252.2 392.025C1301.8 394.066 1354.57 395.114 1406.48 383.821C1433.8 377.877 1456.91 368.652 1477.15 355.619C1513.19 332.403 1535.63 300.735 1555.42 272.795C1565.38 258.737 1574.79 245.459 1585.17 234.14C1588.92 230.056 1592.69 225.835 1596.33 221.753C1607.74 208.982 1619.53 195.777 1633.48 183.444C1649.63 169.076 1667.39 157.16 1686.28 148.026C1707.97 137.536 1730.56 131.057 1753.43 128.773C1767.73 127.344 1782.28 127.117 1797.92 128.071C1841.61 130.741 1886 143.935 1927.46 157.798C1965.75 170.597 2003.54 187.603 2036.77 206.975C2073.73 228.462 2107.78 254.041 2137.98 282.997C2164.98 308.892 2188.82 337.369 2208.83 367.642L2207.89 367.855C2165.36 303.507 2105.94 248.02 2036.06 207.392C2002.9 188.056 1965.18 171.083 1926.97 158.309C1885.6 144.479 1841.33 131.317 1797.82 128.657C1782.27 127.707 1767.81 127.935 1753.61 129.353C1711.38 133.57 1669.02 152.893 1634.33 183.766C1620.4 196.073 1608.62 209.265 1597.23 222.024C1593.59 226.108 1589.82 230.329 1586.07 234.417C1575.71 245.71 1566.31 258.976 1556.36 273.019C1536.53 301.002 1514.06 332.721 1477.89 356.014C1457.55 369.118 1434.3 378.394 1406.83 384.373C1383 389.559 1357.28 392.562 1328.21 393.548C1320.36 393.827 1312.53 393.937 1304.82 393.937Z" fill="#FFE492"/><path d="M1341.7 396.264C1341.43 396.264 1341.17 396.264 1340.9 396.264C1314.5 396.225 1288.58 394.33 1264.28 392.392C1234.81 390.042 1203.73 386.345 1171.92 381.408C1146.29 377.389 1121.13 372.639 1097.13 367.295C1033.5 353.144 970.818 331.29 899.865 298.514C874.312 286.714 849.166 274.007 824.844 261.721C821.803 260.183 818.758 258.647 815.713 257.111C763.695 230.941 710.277 210.759 656.947 197.126C583.92 178.46 510.269 170.769 431.786 173.616C388.752 175.177 344.15 179.446 302.801 185.959C270.177 191.1 241.106 199.347 206.489 209.594C199.472 211.68 191.979 213.932 182.914 216.681L182.409 216.836C164.92 222.177 145.098 228.228 122.865 232.83C97.33 238.114 72.5575 240.658 47.1548 240.628C7.54312 240.57 -32.8821 236.248 -71.9735 232.065C-81.5513 231.04 -91.4588 229.981 -101.022 229.023C-128.447 226.28 -151.662 224.894 -171.994 224.789C-246.857 224.402 -313.55 230.907 -354.968 242.632L-355.444 242.052C-335.157 236.308 -307.79 231.646 -276.305 228.57C-244.762 225.487 -208.686 223.957 -171.983 224.146C-151.593 224.252 -128.319 225.64 -100.835 228.389C-91.2646 229.347 -81.3571 230.406 -71.7757 231.431C-32.7318 235.607 7.64203 239.925 47.1585 239.983C47.3344 239.983 47.5139 239.983 47.6898 239.983C104.215 239.983 147.278 226.836 181.903 216.265L182.412 216.11C191.481 213.358 198.974 211.107 205.994 209.021C240.67 198.756 269.792 190.494 302.519 185.338C343.937 178.812 388.612 174.537 431.72 172.973C470.126 171.581 506.352 172.642 542.476 176.221C581.402 180.077 618.992 186.722 657.387 196.537C710.819 210.196 764.329 230.411 816.431 256.624C819.476 258.16 822.521 259.698 825.562 261.236C849.873 273.517 875.012 286.22 900.542 298.012C971.405 330.746 1033.99 352.57 1097.52 366.697C1121.48 372.036 1146.61 376.777 1172.2 380.792C1203.97 385.722 1235 389.413 1264.43 391.759C1317.15 395.965 1368.75 398.882 1420.53 388.536C1448.62 382.921 1471.9 373.638 1491.67 360.156C1527.39 335.801 1546.91 302.055 1564.13 272.278C1572.19 258.338 1579.8 245.169 1588.39 234.104C1591.7 229.846 1595.01 225.442 1598.22 221.182C1608.24 207.863 1618.61 194.093 1631.32 181.109C1645.95 166.052 1662.49 153.317 1680.46 143.259C1700.96 131.796 1722.79 124.165 1745.37 120.582C1759.37 118.361 1773.66 117.278 1789.01 117.278C1789.34 117.278 1789.68 117.278 1790.01 117.28C1837.74 117.426 1886.86 130.139 1924.32 141.199C1964.22 152.982 2003.33 169.386 2037.41 188.638C2075.37 210.026 2109.7 235.857 2139.42 265.414C2166.09 291.939 2188.74 321.084 2206.72 352.044L2205.68 352.253C2178.92 306.186 2127.86 240.488 2036.65 189.104C2002.65 169.895 1963.63 153.529 1923.82 141.774C1886.47 130.745 1837.51 118.068 1790.01 117.925C1774.37 117.871 1759.87 118.949 1745.66 121.205C1703.83 127.845 1663.56 149.233 1632.27 181.429C1619.59 194.383 1609.24 208.138 1599.22 221.442C1596.02 225.704 1592.7 230.11 1589.39 234.37C1580.83 245.408 1573.22 258.559 1565.17 272.484C1547.92 302.315 1528.37 336.126 1492.51 360.575C1472.6 374.147 1449.17 383.492 1420.88 389.144C1396.91 393.933 1371 396.264 1341.7 396.264Z" fill="#FFE492"/><path d="M1371.03 399.288C1365.34 399.288 1359.53 399.18 1353.58 398.966C1327.53 398.027 1302.22 395.21 1276.43 392.16C1246.53 388.624 1216.33 383.893 1184.11 377.698C1158.61 372.753 1133.61 367.12 1109.8 360.952C1049.39 345.33 989.41 322.333 915.32 286.389C896.919 277.463 878.526 268.101 860.737 259.046C851.053 254.118 841.043 249.02 831.124 244.043C778.487 217.697 723.285 198.56 667.049 187.162C592.746 172.101 516.381 169.342 433.581 178.73C389.837 183.69 345.275 191.469 304.718 201.224C272.137 209.061 243.756 220.066 213.707 231.719L211.63 232.524C206.936 234.35 202.191 236.202 197.388 238.075C194.621 239.156 191.836 240.243 189.026 241.338C171.505 248.206 152.58 255.371 130.878 260.885C105.681 267.287 80.7579 270.436 54.6774 270.514C11.2588 270.638 -33.0283 264.722 -75.8534 258.995C-81.9649 258.176 -88.2891 257.332 -94.4263 256.531C-123.2 252.771 -145.884 250.608 -165.823 249.719C-239.404 246.438 -308.845 248.75 -356.345 256.062L-356.649 255.388C-309.024 248.056 -239.441 245.736 -165.732 249.023C-145.737 249.914 -122.995 252.084 -94.1662 255.85C-88.0252 256.653 -81.7011 257.497 -75.5859 258.316C-33.2848 263.972 10.4417 269.818 53.2851 269.818C53.7468 269.818 54.2085 269.818 54.6738 269.815C110.089 269.652 149.535 255.976 188.37 240.758C191.181 239.663 193.965 238.576 196.732 237.495C201.535 235.62 206.276 233.77 210.974 231.942L213.051 231.136C243.151 219.465 271.58 208.44 304.267 200.578C344.897 190.803 389.536 183.011 433.358 178.043C516.366 168.631 592.937 171.398 667.441 186.5C723.816 197.929 779.146 217.108 831.901 243.512C841.819 248.492 851.833 253.588 861.517 258.518C879.299 267.571 897.688 276.93 916.078 285.85C990.08 321.753 1049.98 344.718 1110.28 360.314C1134.06 366.471 1159.02 372.097 1184.48 377.034C1216.65 383.221 1246.81 387.945 1276.67 391.475C1321.99 396.834 1378.4 403.507 1434.57 393.23C1463.45 387.947 1486.88 378.607 1506.19 364.673C1541.57 339.152 1557.97 303.257 1572.45 271.59C1578.74 257.833 1584.68 244.838 1591.61 234.054C1594.31 229.852 1597.02 225.506 1599.63 221.302C1608.41 207.203 1617.49 192.625 1629.15 178.76C1642.3 163.003 1657.61 149.449 1674.64 138.476C1693.94 126.042 1715.03 117.262 1737.3 112.379C1751.6 109.245 1766.25 107.314 1782.1 106.474C1803.32 105.348 1825.91 106.551 1851.16 110.143C1872.52 113.185 1895.42 117.907 1921.17 124.581C1962.7 135.346 2003.11 151.151 2038.04 170.285C2077.02 191.572 2111.61 217.658 2140.85 247.815C2167.18 274.971 2188.64 304.784 2204.61 336.43L2203.47 336.628C2169.74 269.818 2110.7 210.924 2037.23 170.797C2002.39 151.714 1962.09 135.954 1920.68 125.222C1865.2 110.841 1821.21 105.103 1782.21 107.17C1766.46 108.003 1751.92 109.922 1737.72 113.033C1684.72 124.648 1650 155.355 1630.22 179.067C1618.59 192.898 1609.52 207.458 1600.75 221.54C1598.13 225.746 1595.42 230.094 1592.72 234.299C1585.81 245.051 1579.88 258.03 1573.6 271.77C1559.1 303.506 1542.66 339.476 1507.11 365.114C1487.65 379.157 1464.03 388.572 1434.92 393.898C1415.19 397.507 1394.15 399.288 1371.03 399.288Z" fill="#FFE492"/><path d="M1396.43 402.755C1357.68 402.755 1320.43 396.919 1288.56 391.926C1258.58 387.23 1228.4 381.361 1196.28 373.986C1170.93 368.121 1146.09 361.604 1122.46 354.611C1051.62 333.674 988.461 303.623 930.767 274.265C918.987 268.271 907.086 262.093 895.581 256.119C879.606 247.822 863.085 239.244 846.531 230.978C793.106 204.372 736.119 186.277 677.158 177.196C600.884 165.452 521.796 167.624 435.376 183.839C390.88 192.187 346.363 203.476 306.634 216.486C275.991 226.518 250.065 239.184 222.618 252.593C220.672 253.543 218.723 254.497 216.762 255.45L215.7 255.97C209.028 259.233 202.128 262.606 195.134 265.992C178.375 274.14 159.919 282.568 138.572 289.006C113.792 296.48 88.8111 300.207 62.192 300.4C15.4684 300.742 -32.153 293.04 -78.2024 285.592C-81.4304 285.07 -84.6437 284.55 -87.8424 284.037C-118.21 279.152 -140.363 276.256 -159.665 274.645C-231.399 268.66 -303.595 266.778 -357.742 269.483L-357.852 268.733C-303.617 266.022 -231.315 267.906 -159.485 273.9C-140.128 275.515 -117.928 278.417 -87.5053 283.311C-84.3066 283.824 -81.0933 284.344 -77.8616 284.868C-31.9001 292.301 15.6296 299.983 62.1737 299.648C119.981 299.227 160.692 281.756 194.313 265.412C201.308 262.026 208.207 258.653 214.879 255.392L215.942 254.873C217.902 253.917 219.851 252.965 221.797 252.015C249.292 238.582 275.262 225.895 306.007 215.828C345.809 202.795 390.411 191.487 434.984 183.123C475.955 175.437 514.439 170.999 552.629 169.555C595.23 167.946 637.235 170.273 677.48 176.47C736.629 185.579 793.784 203.725 847.359 230.404C863.924 238.675 880.449 247.255 896.428 255.554C907.933 261.528 919.826 267.704 931.602 273.695C989.237 303.021 1052.32 333.041 1123.03 353.939C1146.63 360.92 1171.43 367.43 1196.75 373.286C1228.81 380.65 1258.95 386.51 1288.89 391.2C1334.86 398.401 1392.07 407.363 1448.6 397.932C1478.26 392.983 1501.84 383.584 1520.69 369.2C1555.71 342.478 1568.81 304.374 1580.37 270.755C1585.01 257.246 1589.4 244.488 1594.81 234.011C1596.81 230.136 1598.82 226.131 1600.76 222.258C1608.36 207.109 1616.22 191.441 1626.96 176.419C1638.66 159.948 1652.73 145.572 1668.79 133.695C1686.91 120.292 1707.24 110.363 1729.21 104.182C1743.48 100.169 1758.18 97.3872 1774.16 95.6751C1795.69 93.37 1819.58 93.4473 1845.17 95.9049C1867.57 98.0575 1892.07 102.115 1917.99 107.969C1961.14 117.716 2002.86 132.919 2038.66 151.935C2078.65 173.123 2113.51 199.461 2142.27 230.219C2168.25 258.007 2188.52 288.49 2202.49 320.821L2201.24 321.006C2171.64 252.499 2113.6 192.653 2037.8 152.494C2002.12 133.54 1960.53 118.386 1917.53 108.672C1861.79 96.0811 1814.97 92.0703 1774.39 96.4162C1758.53 98.1155 1743.93 100.878 1729.77 104.861C1677.49 119.566 1645.65 152.047 1628.15 176.709C1617.43 191.693 1609.58 207.338 1601.99 222.468C1600.05 226.342 1598.04 230.348 1596.04 234.228C1590.65 244.671 1586.26 257.412 1581.63 270.903C1576.06 287.077 1569.76 305.408 1560.61 322.594C1550.13 342.284 1537.4 357.679 1521.71 369.657C1512.64 376.583 1502.21 382.478 1490.71 387.178C1478.35 392.233 1464.3 396.096 1448.95 398.656C1431.38 401.589 1413.75 402.755 1396.43 402.755Z" fill="#FFE492"/><path d="M1419.33 406.559C1406.52 406.559 1393.1 405.829 1378.92 404.37C1351 401.498 1324.28 396.286 1300.7 391.691C1270.98 385.898 1239.94 378.69 1208.46 370.271C1183.27 363.496 1158.6 356.093 1135.12 348.265C1067.75 325.822 1009.71 295.981 946.214 262.137C940.572 259.13 934.841 256.062 929.301 253.093C907.482 241.409 884.923 229.327 861.938 217.912C807.626 190.994 748.859 173.944 687.267 167.232C609.575 158.766 525.427 166.07 437.172 188.945C391.884 200.683 347.407 215.48 308.55 231.74C279.293 243.983 255.209 258.417 229.711 273.699C227.121 275.252 224.519 276.81 221.903 278.374C215.392 282.271 208.379 286.453 201.245 290.64C186.285 299.45 168.053 309.489 146.27 317.122C121.886 325.667 96.8427 329.975 69.7142 330.286C20.052 330.86 -30.5005 321.218 -79.3895 311.895L-81.2509 311.541C-105.188 306.978 -130.51 302.368 -153.498 299.568C-223.569 291.038 -296.596 285.115 -359.123 282.892L-359.039 282.088C-296.446 284.314 -223.353 290.241 -153.22 298.78C-130.166 301.588 -104.8 306.204 -80.8258 310.774L-78.9645 311.128C-30.1817 320.43 20.2682 330.048 69.6886 329.478C126.763 328.821 166.181 310.148 200.274 290.067C207.408 285.882 214.414 281.699 220.925 277.805C223.541 276.243 226.142 274.683 228.733 273.132C254.275 257.824 278.402 243.364 307.755 231.08C346.685 214.788 391.247 199.963 436.618 188.204C478.026 177.473 518.773 170.079 557.722 166.229C602.225 161.832 645.896 161.901 687.523 166.436C749.35 173.172 808.334 190.283 862.829 217.293C885.831 228.719 908.402 240.805 930.232 252.496C935.772 255.463 941.503 258.531 947.145 261.538C1010.58 295.349 1068.56 325.158 1135.81 347.562C1159.25 355.378 1183.89 362.77 1209.04 369.537C1240.48 377.943 1271.46 385.139 1301.14 390.924C1347.66 399.994 1405.56 411.279 1462.65 402.632C1493.1 398.02 1516.84 388.566 1535.22 373.726C1569.85 345.766 1579.87 303.624 1587.92 269.762C1591.06 256.571 1594.02 244.114 1598.03 233.974C1599.3 230.777 1600.58 227.484 1601.81 224.298C1608.22 207.748 1614.86 190.633 1624.81 174.083C1640.17 148.328 1669.35 113.875 1721.14 95.9947C1735.45 91.0581 1750.2 87.4232 1766.25 84.884C1808.24 78.145 1858.23 80.3254 1914.84 91.361C1959.61 100.089 2002.64 114.691 2039.3 133.589C2080.3 154.676 2115.43 181.267 2143.71 212.629C2156.69 227.014 2168.15 242.378 2177.8 258.294C2187.01 273.497 2194.61 289.285 2200.38 305.218L2199.04 305.386C2173.59 235.177 2116.53 174.38 2038.39 134.193C2001.87 115.365 1959 100.82 1914.4 92.1236C1858.06 81.1375 1808.33 78.9635 1766.61 85.6595C1750.68 88.1794 1736.03 91.7863 1721.84 96.6864C1670.41 114.442 1641.39 148.719 1626.1 174.347C1616.18 190.855 1609.56 207.946 1603.15 224.475C1601.91 227.66 1600.64 230.956 1599.37 234.154C1595.37 244.26 1592.41 256.7 1589.28 269.871C1585.23 286.911 1580.64 306.224 1572.79 324.451C1563.77 345.397 1551.84 361.67 1536.33 374.198C1527.48 381.345 1517.12 387.373 1505.56 392.112C1493.1 397.219 1478.78 401.021 1462.99 403.41C1449.14 405.511 1434.67 406.559 1419.33 406.559Z" fill="#FFE492"/><path d="M1440.44 410.577C1425.08 410.577 1408.89 409.411 1391.6 407.071C1363.58 403.284 1336.62 396.998 1312.83 391.451C1282.88 384.47 1251.87 376.094 1220.64 366.553C1195.62 358.873 1171.1 350.585 1147.79 341.917C1083.62 318.083 1028.59 287.363 970.323 254.843C967.44 253.234 964.556 251.622 961.665 250.011C934.57 234.905 906.555 219.283 877.349 204.847C822.092 177.588 761.544 161.579 697.387 157.265C616.8 151.845 529.857 164.221 438.967 194.045C393.504 208.963 347.868 227.766 310.466 246.991C282.224 261.507 259.573 277.84 235.592 295.133C232.752 297.18 229.905 299.234 227.036 301.292C221.305 305.41 214.487 310.293 207.349 315.288C194.129 324.562 176.117 336.347 153.964 345.213C129.969 354.817 104.87 359.713 77.2325 360.175C54.5155 360.508 29.4463 358.452 0.58844 353.887C-24.1877 349.969 -48.1541 344.848 -74.6743 339.047C-98.8824 333.687 -124.432 328.151 -147.354 324.495C-215.252 313.664 -286.971 304.179 -360.516 296.299L-360.252 295.455C-286.664 303.337 -214.904 312.83 -146.969 323.666C-123.985 327.333 -98.3988 332.878 -74.1613 338.242C-29.7094 347.967 25.6137 360.074 77.1922 359.316C136.161 358.328 174.058 337.305 206.224 314.733C213.358 309.743 220.173 304.862 225.9 300.746C228.769 298.688 231.616 296.635 234.452 294.589C258.473 277.268 281.165 260.907 309.499 246.344C346.978 227.081 392.701 208.241 438.252 193.296C529.417 163.381 616.661 150.973 697.555 156.412C728.571 158.498 759.037 163.343 788.101 170.81C819.285 178.821 849.63 190.054 878.294 204.191C907.533 218.643 935.567 234.273 962.677 249.39C965.568 251.004 968.455 252.613 971.338 254.222C1029.55 286.714 1084.53 317.404 1148.57 341.193C1171.86 349.849 1196.33 358.126 1221.32 365.793C1252.5 375.318 1283.47 383.683 1313.37 390.654C1360.37 401.61 1418.86 415.245 1476.69 407.338C1508.02 403.054 1531.91 393.542 1549.73 378.259C1584.05 349.069 1590.16 304.478 1595.07 268.649C1596.83 255.835 1598.49 243.732 1601.24 233.945C1601.81 231.925 1602.38 229.895 1602.95 227.854C1608.08 209.42 1613.4 190.357 1622.63 171.753C1635.82 144.995 1662.2 108.711 1713.06 87.8127C1727.25 81.9823 1742.05 77.4968 1758.32 74.0983C1780.93 69.3313 1806.13 67.0907 1833.21 67.4344C1857.93 67.7481 1884.33 70.2121 1911.67 74.7557C1958.05 82.4614 2002.4 96.4615 2039.92 115.241C2081.93 136.225 2117.33 163.074 2145.14 195.038C2157.9 209.704 2168.94 225.384 2177.97 241.642C2186.62 257.212 2193.45 273.354 2198.26 289.618L2196.82 289.764C2175.84 218.892 2118.3 155.519 2038.97 115.894C2001.61 97.1962 1957.45 83.2541 1911.27 75.5784C1854.32 66.1133 1801.61 65.8813 1758.81 74.9039C1742.66 78.2766 1727.97 82.7278 1713.9 88.513C1663.39 109.267 1637.15 145.364 1624.04 171.989C1614.83 190.544 1609.52 209.579 1604.39 227.99C1603.82 230.03 1603.25 232.063 1602.69 234.082C1599.94 243.833 1598.29 255.921 1596.53 268.716C1591.6 304.647 1585.47 349.367 1550.93 378.745C1542.34 386.111 1532.07 392.276 1520.41 397.065C1507.86 402.216 1493.26 405.954 1477.02 408.175C1465.3 409.774 1453.16 410.577 1440.44 410.577Z" fill="#FFE492"/><path d="M1460.27 414.76C1442.77 414.76 1424.24 413.102 1404.27 409.772C1376.01 405.061 1348.88 397.703 1324.95 391.213C1294.71 383.011 1263.71 373.462 1232.81 362.837C1207.97 354.266 1183.62 345.091 1160.44 335.572C1103.36 312.139 1054.59 283.432 1002.94 253.038C994.499 248.07 985.768 242.933 977.106 237.883C946.658 220.138 920.658 205.506 892.749 191.781C836.507 164.161 774.182 149.195 707.5 147.296C623.711 144.909 533.961 162.353 440.748 199.141C394.442 217.418 348.847 239.825 312.365 262.235C284.881 279.118 263.395 297.496 240.649 316.953C237.831 319.363 235.002 321.782 232.155 324.203C227.084 328.523 220.372 334.216 213.443 339.924C184.285 364.001 146.19 388.79 84.7408 390.058C82.8245 390.094 80.9009 390.111 78.981 390.111C30.9969 390.111 -17.9911 378.977 -68.1075 366.545L-71.2366 365.763C-96.0604 359.55 -119.51 353.684 -141.216 349.413C-223.015 333.318 -302.125 319.733 -361.907 309.696L-361.479 308.818C-301.682 318.858 -222.55 332.446 -140.721 348.547C-118.957 352.828 -95.4815 358.704 -70.6248 364.923L-67.4993 365.705C-15.5471 378.592 35.1886 390.088 84.6859 389.147C145.454 387.892 183.23 363.295 212.172 339.398C219.097 333.694 225.802 328.006 230.873 323.688C233.72 321.264 236.545 318.848 239.363 316.437C262.145 296.951 283.664 278.542 311.236 261.606C347.792 239.148 393.479 216.697 439.876 198.383C482.939 181.386 526.017 168.335 567.912 159.59C615.98 149.556 662.971 145.113 707.573 146.383C774.599 148.29 837.24 163.33 893.746 191.079C921.695 204.825 947.721 219.472 978.198 237.232C986.864 242.282 995.595 247.421 1004.04 252.39C1055.63 282.753 1104.37 311.432 1161.33 334.818C1184.48 344.326 1208.79 353.486 1233.59 362.044C1264.45 372.657 1295.4 382.191 1325.6 390.38C1373.01 403.237 1432.01 419.237 1490.73 412.034C1522.82 408.096 1546.87 398.528 1564.23 382.784C1598.11 352.264 1600.15 305.163 1601.79 267.318C1602.32 254.97 1602.83 243.305 1604.45 233.906L1604.48 233.691C1608.11 212.645 1611.85 190.883 1620.45 169.412C1627.89 150.683 1638.25 133.845 1651.25 119.362C1665.91 103.033 1683.98 89.6626 1704.96 79.6196C1719 72.8999 1733.86 67.5615 1750.37 63.3015C1794.99 51.7247 1849.66 49.9373 1908.49 58.1372C1932.16 61.4369 1955.51 66.4358 1977.9 72.9922C2000.41 79.5873 2021.49 87.6282 2040.54 96.8871C2083.57 117.77 2119.24 144.872 2146.56 177.442C2171.12 206.716 2188.26 240.11 2196.14 274.012L2194.6 274.134C2177.74 201.575 2121.23 137.227 2039.54 97.5896C2001.35 79.0245 1955.9 65.6882 1908.13 59.0308C1849.64 50.8782 1795.31 52.6462 1751.01 64.1436C1734.62 68.3714 1719.89 73.6668 1705.95 80.3328C1666.77 99.0848 1637.73 129.961 1621.97 169.624C1613.4 191.04 1609.66 212.772 1606.04 233.788L1606 234.003C1604.39 243.367 1603.88 255.015 1603.35 267.346C1601.7 305.307 1599.66 352.549 1565.53 383.284C1557.16 390.876 1546.96 397.175 1535.23 402.004C1522.58 407.211 1507.72 410.887 1491.04 412.934C1481.11 414.15 1470.88 414.76 1460.27 414.76Z" fill="#FFE492"/><path d="M85.8798 420.02C64.4233 420.02 41.0578 417.569 14.6879 412.564C-11.5135 407.591 -37.4256 400.725 -61.5275 394.048C-65.8914 392.832 -70.2222 391.618 -74.5238 390.413C-95.9363 384.413 -116.162 378.746 -135.064 374.332C-210.437 356.735 -282.281 340.92 -351.762 325.629L-363.274 323.094L-362.696 322.189L-351.183 324.724C-281.699 340.02 -209.843 355.835 -134.456 373.436C-115.502 377.861 -95.2512 383.535 -73.813 389.543C-69.515 390.748 -65.1842 391.962 -60.824 393.176C-11.3487 406.882 41.2154 420.164 92.1966 418.981C154.866 417.451 192.422 388.828 218.136 364.065C224.724 357.732 231.07 351.421 235.863 346.63C238.508 343.99 241.135 341.352 243.755 338.72C265.483 316.905 286.005 296.299 312.994 276.87C348.62 251.229 394.262 225.162 441.521 203.476C485.365 183.355 529.608 167.458 573.026 156.227C622.828 143.344 671.471 136.659 717.605 136.356C787.024 135.75 851.499 149.752 909.215 177.969C941.209 193.63 969.895 210.571 993.74 225.078C1006.71 232.973 1019.69 241.065 1032.24 248.891C1076.66 276.597 1122.59 305.244 1174.1 328.447C1197.11 338.815 1221.27 348.86 1245.88 358.301C1276.35 369.96 1307.29 380.662 1337.85 390.11C1385.61 404.877 1445.05 423.256 1504.77 416.734C1537.64 413.144 1561.84 403.52 1578.74 387.311C1612.18 355.408 1609.92 305.728 1608.1 265.809C1607.57 254.004 1607.06 242.853 1607.67 233.875C1609.04 213.637 1611.11 190.116 1618.28 167.078C1624.33 147.557 1633.45 129.896 1645.4 114.588C1658.92 97.2708 1676.25 82.753 1696.89 71.4361C1710.57 63.9365 1725.9 57.5713 1742.45 52.5143C1766.06 45.2748 1792.57 40.7227 1821.22 38.9869C1848.06 37.3607 1876.35 38.2157 1905.32 41.5261C1929.74 44.3188 1953.82 48.9117 1976.88 55.1803C2000.08 61.4876 2021.71 69.3458 2041.17 78.536C2063.6 89.1182 2084.22 101.615 2102.47 115.679C2119.75 129.005 2135.07 143.866 2148 159.849C2172.19 189.75 2188.11 223.834 2194.03 258.41L2192.39 258.507C2179.67 184.257 2124.18 118.936 2040.13 79.29C2001.64 61.1116 1953.66 48.0374 1905 42.4756C1844.84 35.5991 1788.9 39.3671 1743.21 53.3715C1726.79 58.3876 1711.58 64.7035 1698.01 72.1428C1659.12 93.4663 1632.83 125.464 1619.9 167.252C1612.75 190.227 1610.68 213.708 1609.31 233.914C1608.71 242.859 1609.21 253.994 1609.75 265.783C1610.64 285.476 1611.66 307.798 1608.26 329.378C1604.31 354.417 1595.12 373.532 1580.15 387.816C1572 395.631 1561.88 402.065 1550.07 406.938C1537.32 412.201 1522.18 415.816 1505.08 417.683C1496.45 418.626 1487.83 419.054 1479.26 419.054C1427.93 419.054 1378.2 403.677 1337.08 390.963C1306.48 381.5 1275.49 370.783 1244.99 359.107C1220.33 349.653 1196.14 339.592 1173.1 329.21C1121.48 305.96 1075.5 277.283 1031.04 249.551C1018.49 241.727 1005.52 233.637 992.557 225.746C968.744 211.256 940.099 194.339 908.163 178.708C850.759 150.642 786.661 136.721 717.631 137.318C609.223 138.032 508.199 174.098 442.539 204.232C395.376 225.875 349.825 251.886 314.277 277.476C287.368 296.847 266.875 317.42 245.181 339.201C242.561 341.833 239.93 344.471 237.285 347.113C232.488 351.906 226.139 358.222 219.547 364.561C208.753 374.957 191.807 390.089 169.361 401.432C158.46 406.94 146.86 411.268 134.882 414.3C121.527 417.679 107.186 419.578 92.2662 419.941C90.1521 419.995 88.0233 420.02 85.8798 420.02Z" fill="#FFE492"/><path d="M92.7689 449.929C71.2867 449.929 47.9689 447.289 21.7381 441.901C-5.41959 436.324 -32.2696 428.483 -54.9499 421.546C-61.9189 419.411 -68.8731 417.246 -75.6003 415.151C-94.4041 409.297 -112.167 403.765 -128.915 399.25C-189.06 383.031 -248.813 367.196 -306.602 351.881C-325.717 346.815 -345.481 341.578 -364.637 336.491L-363.919 335.561C-344.763 340.648 -324.999 345.885 -305.884 350.951C-248.095 366.266 -188.335 382.103 -128.186 398.324C-111.394 402.852 -93.609 408.388 -74.7832 414.251C-68.0598 416.345 -61.1054 418.509 -54.1438 420.644C-7.10507 435.024 47.4559 450.247 99.7012 448.814C163.847 447.014 199.876 415.759 224.102 388.732C230.313 381.808 236.318 374.856 240.854 369.574C243.184 366.863 245.5 364.154 247.812 361.451C268.594 337.144 288.222 314.186 314.757 292.138C349.269 263.464 394.875 233.786 443.167 208.572C510.42 173.609 614.364 130.962 727.634 126.337C799.669 123.317 865.969 136.279 924.685 164.868C951.066 177.719 977.154 192.542 1009.28 212.935C1025.52 223.24 1041.63 233.921 1057.21 244.248C1097.74 271.116 1139.65 298.899 1186.88 322.089C1209.75 333.327 1233.74 344.255 1258.17 354.571C1287.76 367.05 1318.68 378.921 1350.09 389.855C1398.34 406.549 1458.38 427.329 1518.82 421.448C1551.95 418.29 1576.99 408.332 1593.25 391.855C1626.22 358.508 1619.15 303.952 1613.98 264.117C1612.53 252.937 1611.16 242.379 1610.89 233.861C1610.29 214.931 1610.34 189.97 1616.12 164.761C1626.09 121.076 1650.55 86.9278 1688.81 63.2692C1702.22 54.934 1717.61 47.6923 1734.52 41.7438C1758.59 33.2712 1785.74 27.5719 1815.23 24.8071C1843.02 22.2034 1872.26 22.2443 1902.14 24.9296C1927.36 27.2454 1952.16 31.443 1975.85 37.4022C1999.78 43.4216 2021.96 51.0908 2041.8 60.1972C2064.73 70.7193 2085.68 83.2586 2104.06 97.4692C2121.49 110.937 2136.75 126.009 2149.44 142.271C2173.26 172.802 2187.95 207.573 2191.92 242.826L2190.18 242.892C2181.62 166.948 2127.15 100.651 2040.73 61.0028C2001.55 43.0156 1952.23 30.5622 1901.88 25.9392C1839.81 20.3645 1782.25 26.1326 1735.42 42.6203C1718.64 48.5194 1703.39 55.7031 1690.08 63.9717C1652.07 87.4734 1627.77 121.429 1617.85 164.898C1612.09 190.039 1612.04 214.95 1612.63 233.844C1612.91 242.332 1614.27 252.877 1615.72 264.042C1618.39 284.633 1621.42 307.973 1619.69 330.76C1617.67 357.292 1609.52 377.445 1594.76 392.369C1586.82 400.418 1576.78 406.992 1564.91 411.907C1552.05 417.237 1536.64 420.786 1519.11 422.457C1491.92 425.102 1462.66 422.726 1429.65 415.192C1400.96 408.642 1373.47 399.129 1349.21 390.738C1317.76 379.789 1286.79 367.9 1257.16 355.404C1232.69 345.073 1208.67 334.13 1185.76 322.878C1138.44 299.64 1096.48 271.827 1055.9 244.931C1040.33 234.606 1024.23 223.932 1008.01 213.635C975.934 193.279 949.894 178.484 923.575 165.663C865.207 137.237 799.328 124.352 727.751 127.353C614.969 131.961 511.369 174.477 444.317 209.335C396.121 234.497 350.61 264.113 316.172 292.727C289.71 314.712 270.111 337.638 249.362 361.909C247.05 364.614 244.734 367.323 242.404 370.034C237.864 375.32 231.855 382.279 225.637 389.209C201.198 416.476 164.807 448.011 99.7782 449.834C97.4662 449.897 95.1248 449.929 92.7689 449.929Z" fill="#FFE492"/><path d="M99.7962 479.839C41.0986 479.839 -20.49 458.702 -75.0876 439.963C-91.8651 434.206 -107.712 428.766 -122.771 424.167L-366 349.887L-365.154 348.935L-121.925 423.215C-106.825 427.825 -90.9601 433.271 -74.1606 439.037C-17.4525 458.5 46.8254 480.56 107.205 478.648C172.765 476.575 207.302 442.689 230.067 413.402C237.512 403.823 244.701 394.076 251.655 384.65C270.675 358.871 290.34 332.214 316.512 307.404C337.294 287.704 363.111 267.044 391.17 247.661C421.952 226.395 454.91 206.885 489.121 189.673C526.842 170.698 565.197 155.001 603.116 143.02C645.058 129.77 686.377 121.119 725.934 117.306C805.176 109.669 877.247 121.258 940.14 151.757C992.407 177.1 1036.83 208.438 1079.79 238.746C1117.19 265.126 1155.85 292.402 1199.64 315.719C1250.21 342.65 1304.95 367.503 1362.33 389.584C1410.68 408.19 1470.85 431.348 1532.86 426.143C1585.24 421.748 1615.52 401.202 1625.43 363.329C1633.87 331.114 1625.84 292.899 1619.4 262.194C1617.2 251.73 1615.13 241.846 1614.11 233.831C1608.49 189.646 1612.07 153.171 1625.06 122.324C1633.16 103.078 1645.12 85.922 1660.6 71.3333C1677.89 55.0368 1700.09 41.4513 1726.59 30.955C1749.5 21.8744 1775.33 15.2793 1803.36 11.3523C1830.04 7.61437 1858.12 6.36195 1886.84 7.62941C1943.32 10.1214 1998.57 22.2718 2042.41 41.8401C2065.84 52.2999 2087.12 64.8843 2105.65 79.241C2123.21 92.848 2138.42 108.133 2150.86 124.674C2174.3 155.834 2187.76 191.295 2189.79 227.22L2187.96 227.257C2183.64 150.754 2128.81 81.7588 2041.3 42.6973C1948.36 1.21476 1816.43 -3.35025 1727.6 31.8465C1639.61 66.7125 1603.08 132.756 1615.93 233.751C1616.94 241.74 1619.02 251.612 1621.21 262.063C1627.67 292.834 1635.71 331.131 1627.24 363.492C1622.62 381.118 1613.35 395.284 1599.67 405.597C1591.97 411.396 1582.7 416.135 1572.1 419.679C1560.82 423.451 1547.7 425.984 1533.12 427.209C1527.16 427.709 1521.09 427.961 1514.93 427.961C1492.45 427.961 1468.52 424.629 1442.29 417.879C1412.74 410.274 1384.23 399.301 1361.32 390.485C1303.86 368.371 1249.05 343.485 1198.4 316.516C1154.51 293.15 1115.81 265.841 1078.37 239.433C1035.47 209.164 991.099 177.865 938.964 152.586C876.492 122.296 804.915 110.781 726.22 118.367C567.032 133.71 403.053 227.407 318.058 307.971C291.956 332.712 272.317 359.333 253.322 385.077C246.364 394.508 239.172 404.261 231.719 413.849C216.605 433.293 201.678 447.215 184.743 457.66C174.172 464.178 162.704 469.316 150.657 472.932C137.261 476.951 122.671 479.237 107.289 479.725C104.805 479.8 102.302 479.839 99.7962 479.839Z" fill="#FFE492"/></g></svg>