<svg width="1920" height="702" viewBox="0 0 1920 702" fill="none" xmlns="http://www.w3.org/2000/svg"><g opacity="0.4"><path d="M720.952 701.183C713.662 701.183 706.567 700.611 699.748 699.469C685.447 697.073 672.234 692.154 660.477 684.848C647.84 676.998 636.757 666.301 627.532 653.056C608.992 626.434 599.717 594.552 590.746 563.718C588.983 557.663 587.161 551.403 585.311 545.329C572.688 503.928 556.687 467.663 536.396 434.461C495.918 368.23 438.993 311.707 371.771 271.002C294.031 223.93 210.447 200.482 136.415 204.977C92.9028 207.621 35.411 232.761 9.71648 275.696C-5.53212 301.177 -6.76171 329.454 6.16309 357.466L5.90644 357.584C-0.870402 342.893 -3.82311 328.165 -2.86707 313.81C-1.99 300.641 2.16128 287.768 9.47395 275.549C21.1043 256.114 40.2842 238.889 64.9409 225.734C87.7249 213.58 113.101 206.108 136.398 204.693C175.141 202.342 216.347 207.559 258.869 220.204C297.415 231.668 335.451 248.676 371.918 270.757C439.179 311.484 496.138 368.039 536.638 434.309C556.94 467.533 572.95 503.818 585.582 545.241C587.435 551.316 589.257 557.579 591.016 563.633C599.979 594.444 609.249 626.304 627.763 652.887C645.668 678.599 669.905 694.175 699.796 699.181C741.19 706.115 791.456 691.613 834.255 660.385C895.932 615.385 938.736 549.884 980.134 486.542C987.39 475.439 994.892 463.959 1002.32 452.873C1021.6 424.086 1047.72 386.783 1078.76 353.551C1110.49 319.583 1142.73 294.626 1177.32 277.251C1198.5 266.617 1220.94 259.451 1244.03 255.956C1265.35 252.726 1287.92 252.526 1311.11 255.356C1350.89 260.212 1393.75 273.931 1442.13 297.292C1537.39 343.296 1632.56 399.135 1724.97 463.26C1812.81 524.208 1898.96 593.176 1981.03 668.241L1980.84 668.449C1810.72 512.843 1629.43 388.054 1442.01 297.546C1336.11 246.412 1252.05 240.042 1177.45 277.502C1101.56 315.611 1048.54 384.384 1002.55 453.028C995.128 464.111 987.627 475.592 980.371 486.694C938.962 550.059 896.144 615.579 834.424 660.61C814.48 675.163 792.043 686.514 769.541 693.434C757.654 697.09 745.838 699.48 734.416 700.54C729.864 700.971 725.372 701.183 720.952 701.183Z" fill="white"/><path d="M728.08 685.396C709.489 685.396 692.269 681.858 676.88 674.876C659.719 667.091 644.91 655.027 632.862 639.022C631.796 637.605 630.739 636.139 629.718 634.662C611.376 608.155 601.688 576.687 592.323 546.254C590.428 540.103 588.47 533.741 586.485 527.569C574.66 490.813 560.421 458.418 542.95 428.537C540.798 424.858 538.57 421.171 536.323 417.58C495.25 351.919 437.862 296.112 370.365 256.19C292.063 209.922 208.242 187.443 134.343 192.897C91.1463 196.119 33.9196 221.67 8.1151 264.274C-7.33657 289.786 -9.08505 318.12 3.05292 346.214L2.79345 346.327C-3.56883 331.602 -6.18309 316.846 -4.97324 302.473C-3.8621 289.273 0.458363 276.372 7.87257 264.128C19.6214 244.727 38.7449 227.482 63.1703 214.26C85.7457 202.038 111.011 194.351 134.317 192.615C173.013 189.76 214.263 194.478 256.921 206.638C295.56 217.653 333.776 234.244 370.506 255.948C438.043 295.892 495.461 351.733 536.56 417.431C538.807 421.025 541.038 424.714 543.19 428.396C560.672 458.296 574.919 490.708 586.75 527.484C588.738 533.657 590.695 540.019 592.591 546.172C601.953 576.586 611.632 608.031 629.949 634.501C630.967 635.973 632.025 637.438 633.088 638.853C657.984 671.936 692.193 685.396 728.167 685.396C728.364 685.396 728.559 685.396 728.756 685.396C728.531 685.393 728.305 685.396 728.08 685.396ZM735.753 685.198C769.197 683.482 803.708 670.637 833.314 651.529C897.176 610.142 943.075 546.22 987.464 484.403C989.291 481.855 991.119 479.313 992.946 476.77C996.959 471.189 1001.72 464.582 1006.57 457.921C1028.36 428.052 1054.72 393.297 1085.09 362.015C1117.4 328.73 1149.67 304.029 1183.76 286.5C1204.71 275.741 1226.84 268.161 1249.55 263.973C1270.59 260.092 1292.83 258.995 1315.64 260.712C1355.04 263.68 1397.4 274.932 1445.15 295.114C1491.71 314.76 1529.98 333.254 1565.59 353.314C1616.04 381.76 1664.09 414.536 1704.44 442.844C1798.26 508.847 1890.31 583.793 1978.04 665.603L1977.84 665.808C1890.13 584.01 1798.09 509.069 1704.28 443.075C1663.93 414.77 1615.89 382 1565.45 353.562C1529.85 333.507 1491.59 315.019 1445.05 295.379C1341.02 251.413 1258.04 248.67 1183.89 286.754C1106.93 326.322 1052.13 395.941 1006.8 458.091C1001.94 464.751 997.188 471.355 993.175 476.939C991.347 479.479 989.52 482.024 987.692 484.572C943.289 546.409 897.374 610.353 833.466 651.771C817.62 661.998 800.758 670.121 783.346 675.913C767.139 681.3 751.163 684.415 735.753 685.198Z" fill="white"/><path d="M735.938 669.969C733.701 669.969 731.479 669.921 729.274 669.823C710.7 669.002 693.511 664.743 678.187 657.158C661.426 648.863 646.905 636.576 635.03 620.637C633.975 619.216 632.923 617.747 631.908 616.27C613.771 589.893 603.681 558.845 593.926 528.823C591.892 522.566 589.789 516.094 587.657 509.814C575.248 473.182 560.634 441.046 542.974 411.569C540.788 407.924 538.526 404.268 536.245 400.705C494.577 335.616 436.727 280.525 368.953 241.387C290.093 195.922 206.035 174.41 132.266 180.822C90.7302 184.489 33.6699 208.583 6.54 252.814C-9.13445 278.369 -11.416 306.778 -0.0591836 334.971L-0.321439 335.075C-6.27198 320.305 -8.54223 305.515 -7.07574 291.117C-5.72771 277.875 -1.22672 264.94 6.30029 252.668C18.1732 233.312 37.2346 216.061 61.4259 202.777C83.7898 190.496 108.94 182.601 132.24 180.543C170.89 177.186 212.186 181.403 254.976 193.078C293.711 203.648 332.105 219.819 369.094 241.145C436.908 280.308 494.789 335.43 536.482 400.556C538.763 404.122 541.028 407.777 543.214 411.428C560.882 440.922 575.504 473.078 587.919 509.73C590.051 516.012 592.155 522.484 594.188 528.742C603.94 558.747 614.022 589.772 632.136 616.118C633.151 617.595 634.198 619.061 635.252 620.476C683.508 685.244 769.027 678.29 832.37 642.67C898.898 604.931 948.338 542.206 996.151 481.548L996.642 480.925C1001.27 475.046 1006.06 468.968 1010.83 462.967C1061.12 399.66 1116.4 334.599 1190.2 295.743C1210.92 284.857 1232.75 276.863 1255.08 271.984C1275.85 267.446 1297.75 265.453 1320.17 266.062C1359.25 267.122 1401.13 275.911 1448.18 292.93C1497.64 310.752 1534.85 327.135 1568.85 346.051C1617.29 373.057 1664.22 407.183 1705.62 437.292C1797.8 504.69 1888.44 580.614 1975.05 662.951L1974.85 663.154C1888.26 580.825 1797.62 504.91 1705.45 437.517C1664.06 407.414 1617.14 373.294 1568.71 346.296C1534.73 327.386 1497.52 311.009 1448.09 293.192C1346.08 256.301 1264.18 257.189 1190.33 295.988C1116.57 334.818 1061.32 399.851 1011.05 463.137C1006.28 469.138 1001.49 475.217 996.862 481.094L996.371 481.717C972.544 511.945 947.907 543.201 921.301 571.121C891.402 602.495 862.357 625.978 832.506 642.91C801.275 660.47 767.256 669.969 735.938 669.969Z" fill="white"/><path d="M1971.87 660.496C1886.4 577.637 1797.16 500.746 1706.63 431.959C1702.8 429.067 1698.96 426.161 1695.1 423.246C1655.89 393.588 1615.34 362.921 1571.99 339.029C1529.92 315.916 1487.3 301.783 1451.14 291.007C1351.34 261.078 1270.52 265.597 1196.78 305.222C1121.09 346.02 1062.43 413.756 1015.3 468.185C1012.48 471.452 1009.65 474.724 1006.82 477.999C1004.74 480.418 1002.65 482.836 1000.56 485.252C973.724 516.274 949.316 544.01 922.347 569.319C891.536 598.231 861.84 619.405 831.555 634.053C803.172 647.783 772.853 655.047 744.651 655.05C739.513 655.05 734.451 654.81 729.476 654.323C711.314 652.544 694.5 647.546 679.503 639.468C663.137 630.654 648.904 618.133 637.192 602.253C636.146 600.829 635.102 599.358 634.092 597.878C616.17 571.639 605.688 541.028 595.552 511.426C593.369 505.05 591.11 498.455 588.826 492.053C575.825 455.537 560.833 423.658 542.998 394.591C540.779 390.975 538.481 387.353 536.168 383.821C493.902 319.304 435.593 264.929 367.545 226.572C288.127 181.91 203.835 161.37 130.195 168.732C79.852 173.865 28.3728 203.704 5.00498 241.291C-10.9148 266.899 -13.7378 295.399 -3.16505 323.71L-3.43013 323.808C-8.9661 308.985 -10.8951 294.15 -9.16353 279.716C-7.57014 266.426 -2.88303 253.448 4.76524 241.142C16.7622 221.842 35.7616 204.592 59.7104 191.259C81.86 178.928 106.88 170.827 130.167 168.453C168.772 164.592 210.11 168.31 253.032 179.5C291.86 189.625 330.437 205.378 367.686 226.324C435.776 264.703 494.117 319.11 536.408 383.666C538.723 387.201 541.022 390.826 543.241 394.442C561.087 423.525 576.085 455.422 589.094 491.955C591.378 498.359 593.637 504.952 595.82 511.33C605.95 540.915 616.427 571.507 634.327 597.715C635.336 599.192 636.377 600.66 637.42 602.081C687.797 670.389 773.42 661.857 831.433 633.797C900.648 600.316 953.614 539.089 1000.35 485.066C1002.44 482.647 1004.52 480.229 1006.61 477.813C1009.44 474.538 1012.26 471.265 1015.09 467.999C1041.99 436.931 1068.56 406.74 1097.77 378.919C1131.35 346.925 1163.7 322.737 1196.65 304.974C1217.16 293.956 1238.68 285.548 1260.62 279.986C1281.13 274.786 1302.69 271.899 1324.71 271.403C1363.54 270.53 1404.93 276.855 1451.23 290.737C1487.39 301.518 1530.04 315.657 1572.13 338.784C1615.5 362.684 1656.06 393.36 1695.28 423.024C1699.13 425.938 1702.97 428.844 1706.81 431.736C1797.34 500.529 1886.59 577.429 1972.07 660.295L1971.87 660.496Z" fill="white"/><path d="M1968.88 657.84C1882.92 572.868 1795.09 494.999 1707.81 426.4C1702.59 422.296 1697.24 418.066 1692.08 413.976C1655.07 384.684 1616.81 354.394 1575.26 331.763C1533.76 309.244 1490.77 297.417 1454.19 288.82C1356.82 265.715 1277.07 273.861 1203.23 314.456C1132.79 353.317 1077.61 411.754 1024.24 468.266L1018.38 474.47C1013.76 479.372 1008.97 484.437 1004.25 489.407C950.832 545.594 897.357 598.256 830.601 625.191C814.402 631.728 797.768 636.258 781.158 638.662C763.32 641.241 745.993 641.278 729.656 638.769C711.911 636.043 695.478 630.319 680.813 621.753C664.854 612.431 650.906 599.682 639.36 583.864C638.319 582.432 637.284 580.958 636.283 579.481C618.581 553.397 607.721 523.237 597.218 494.069C594.875 487.56 592.449 480.829 590.001 474.293C576.397 437.889 561.033 406.266 543.029 377.617C540.778 374.038 538.446 370.444 536.097 366.94C493.236 302.995 434.467 249.336 366.14 211.76C286.16 167.907 201.632 148.334 128.118 156.652C78.2355 162.416 26.9903 192.463 3.50405 229.723C-12.6808 255.396 -16.0622 284.006 -6.27624 312.46L-6.54418 312.553C-11.6656 297.665 -13.2477 282.774 -11.2482 268.297C-9.4038 254.951 -4.52212 241.923 3.26152 229.577C15.3882 210.342 34.32 193.109 58.0149 179.737C79.9445 167.36 104.83 159.064 128.085 156.375C166.645 152.012 208.025 155.228 251.083 165.934C290.007 175.613 328.762 190.947 366.273 211.515C434.639 249.11 493.442 302.804 536.328 366.785C538.677 370.291 541.012 373.888 543.263 377.468C561.278 406.131 576.651 437.771 590.261 474.194C592.709 480.731 595.134 487.465 597.478 493.973C607.974 523.124 618.829 553.27 636.512 579.323C637.51 580.794 638.545 582.266 639.583 583.697C688.747 651.056 770.435 649.164 830.491 624.932C897.193 598.019 950.646 545.377 1004.04 489.215C1008.76 484.246 1013.55 479.18 1018.18 474.279L1024.04 468.075C1050.23 440.336 1077.32 411.65 1106.73 384.966C1140.05 354.744 1171.57 331.599 1203.09 314.208C1223.38 303.052 1244.6 294.229 1266.14 287.989C1286.4 282.12 1307.63 278.337 1329.24 276.745C1367.9 273.895 1408.79 277.757 1454.25 288.544C1490.85 297.146 1533.86 308.976 1575.39 331.515C1616.97 354.154 1655.24 384.453 1692.25 413.753C1697.42 417.843 1702.76 422.071 1707.98 426.178C1795.27 494.782 1883.11 572.657 1969.07 657.637L1968.88 657.84Z" fill="white"/><path d="M1965.89 655.185C1880.67 569.268 1794.24 490.424 1708.98 420.844C1702.58 415.616 1696.01 410.178 1689.66 404.921C1654.65 375.945 1618.45 345.983 1578.52 324.501C1537.22 302.369 1494.03 292.941 1457.24 286.638C1362.57 270.174 1283.9 281.95 1209.67 323.695C1144.89 360.279 1091.71 412.126 1040.27 462.265C1034.86 467.542 1029.26 472.996 1023.81 478.281C1017.4 484.487 1012.51 489.203 1007.94 493.567C983.49 516.922 954.375 543.815 923.821 566.184C891.443 589.887 860.638 606.292 829.645 616.337C813.347 621.62 796.784 624.951 780.413 626.237C762.835 627.618 745.815 626.603 729.831 623.218C712.512 619.551 696.463 613.099 682.122 604.042C666.572 594.222 652.914 581.245 641.526 565.477C640.499 564.048 639.47 562.571 638.472 561.088C621.004 535.179 609.779 505.484 598.922 476.767C596.403 470.107 593.8 463.22 591.175 456.532C576.958 420.23 561.219 388.866 543.054 360.643C540.77 357.094 538.404 353.534 536.021 350.058C492.565 286.686 433.333 233.742 364.73 196.947C284.195 153.9 199.429 135.3 126.046 144.567C84.2903 149.957 29.7541 174.784 2.04319 218.096C-14.4322 243.847 -18.3861 272.587 -9.38693 301.205L-9.65486 301.289C-14.3617 286.325 -15.5913 271.369 -13.3126 256.836C-11.2088 243.422 -6.12402 230.337 1.80627 217.944C14.0627 198.788 32.9239 181.582 56.3567 168.182C78.0662 155.769 102.802 147.285 126.012 144.288C164.527 139.423 205.952 142.138 249.14 152.358C288.157 161.592 327.092 176.509 364.862 196.699C433.505 233.514 492.771 286.489 536.252 349.898C538.635 353.373 541.004 356.939 543.288 360.49C561.461 388.728 577.209 420.109 591.434 456.427C594.062 463.119 596.666 470.005 599.184 476.666C610.033 505.368 621.255 535.046 638.703 560.928C639.701 562.407 640.728 563.882 641.754 565.308C682.655 621.947 752.863 640.922 829.557 616.064C899.012 593.554 955.669 543.102 1007.75 493.358C1012.31 488.995 1017.21 484.279 1023.61 478.072C1029.06 472.787 1034.66 467.333 1040.07 462.056C1065.4 437.373 1091.58 411.85 1119.51 387.95C1151.09 360.922 1180.54 339.821 1209.54 323.444C1229.64 312.141 1250.54 302.905 1271.68 295.993C1291.7 289.445 1312.59 284.769 1333.77 282.089C1372.34 277.212 1412.74 278.607 1457.29 286.353C1494.1 292.661 1537.32 302.093 1578.65 324.245C1618.61 345.74 1654.82 375.711 1689.84 404.696C1696.19 409.953 1702.76 415.39 1709.16 420.619C1794.42 490.207 1880.86 569.057 1966.09 654.979L1965.89 655.185Z" fill="white"/><path d="M1962.89 652.53C1878.42 565.664 1793.39 485.841 1710.16 415.286C1703.08 409.285 1695.81 402.986 1688.77 396.894C1655.27 367.879 1620.63 337.877 1581.79 317.235C1540.45 295.368 1497.17 288.392 1460.29 284.451C1369.91 274.538 1290.04 290.396 1216.12 332.93C1157.26 366.951 1106.8 412.465 1058.01 456.482C1048.15 465.372 1037.96 474.566 1028.05 483.33C1021.99 488.694 1016.62 493.404 1011.63 497.727C988.419 517.813 957.541 543.568 924.545 564.615C891.392 585.761 860.034 599.784 828.682 607.482C794.488 615.879 760.361 615.941 729.994 607.665C713.109 603.062 697.441 595.886 683.422 586.333C668.286 576.02 654.918 562.817 643.686 547.097C642.668 545.665 641.647 544.185 640.654 542.703C623.434 516.99 611.86 487.783 600.67 459.54C597.962 452.707 595.165 445.644 592.342 438.78C577.502 402.574 561.388 371.464 543.076 343.678C540.758 340.16 538.358 336.631 535.941 333.186C491.891 270.386 432.199 218.156 363.319 182.147C282.229 139.909 197.226 122.278 123.97 132.496C74.3235 139.57 24.7536 169.279 0.624306 206.419C-16.1669 232.263 -20.7046 261.152 -12.4979 289.962L-12.7686 290.038C-17.0581 274.983 -17.9324 259.948 -15.3688 245.353C-12.9999 231.863 -7.69798 218.711 0.387423 206.264C12.7736 187.198 31.5614 170.032 54.7206 156.621C76.2018 144.182 100.782 135.512 123.93 132.214C162.4 126.847 203.87 129.062 247.191 138.795C286.304 147.584 325.419 162.083 363.449 181.893C432.368 217.924 492.094 270.183 536.173 333.023C538.59 336.467 540.99 339.999 543.31 343.52C561.63 371.323 577.753 402.447 592.601 438.67C595.424 445.534 598.222 452.6 600.929 459.433C612.114 487.662 623.682 516.855 640.885 542.542C641.878 544.025 642.896 545.499 643.914 546.931C684.113 603.203 753.159 625.736 828.615 607.208C897.404 590.316 957.141 544.504 1011.45 497.516C1016.43 493.192 1021.81 488.485 1027.86 483.121C1037.77 474.358 1047.96 465.166 1057.81 456.276C1106.62 412.251 1157.08 366.726 1215.97 332.69C1235.89 321.227 1256.5 311.578 1277.2 304.007C1297.01 296.769 1317.57 291.196 1338.3 287.445C1376.86 280.468 1416.77 279.4 1460.31 284.175C1497.22 288.118 1540.54 295.097 1581.92 316.99C1620.79 337.646 1655.44 367.659 1688.96 396.686C1695.99 402.777 1703.26 409.074 1710.34 415.075C1793.57 485.635 1878.62 565.463 1963.1 652.336L1962.89 652.53Z" fill="white"/><path d="M1959.91 649.874C1876.18 562.05 1792.55 481.255 1711.33 409.73C1703.87 403.157 1696.19 396.198 1688.77 389.467C1656.49 360.206 1623.11 329.947 1585.05 309.971C1543.55 288.29 1500.23 283.8 1463.33 282.266C1376.37 278.388 1297.61 297.981 1222.56 342.166C1169.93 373.302 1123.01 412.707 1077.63 450.813C1062.03 463.917 1047.29 476.294 1032.3 488.378C1026.21 493.296 1020.65 497.716 1015.32 501.885C980.932 528.761 952.318 548.193 925.273 563.036C891.344 581.659 859.436 593.301 827.727 598.622C815.425 600.685 803.169 601.714 791.135 601.714C769.803 601.714 749.162 598.49 730.16 592.103C695.771 580.543 667.406 559.214 645.852 528.707C644.836 527.261 643.824 525.782 642.842 524.305C625.885 498.815 613.987 470.126 602.48 442.379C599.564 435.349 596.552 428.083 593.515 421.016C578.041 384.895 561.548 354.044 543.105 326.7C540.753 323.213 538.319 319.715 535.868 316.302C491.222 254.074 431.068 202.559 361.912 167.331C280.266 125.905 195.029 109.241 121.9 120.409C72.0476 128.18 23.9074 157.325 -0.737963 194.661C-17.8704 220.613 -23.0088 249.674 -15.603 278.704L-15.8766 278.774C-19.743 263.615 -20.2563 248.49 -17.3995 233.819C-14.7541 220.238 -9.22945 207.013 -0.972025 194.506C11.5438 175.545 30.25 158.436 53.1271 145.024C74.377 132.566 98.7855 123.726 121.857 120.13C160.282 114.261 201.798 115.975 245.248 125.223C284.456 133.569 323.75 147.651 362.042 167.078C431.237 202.328 491.425 253.871 536.099 316.136C538.55 319.552 540.984 323.05 543.339 326.54C561.794 353.898 578.295 384.765 593.774 420.901C596.812 427.967 599.826 435.237 602.74 442.267C614.24 470 626.133 498.677 643.076 524.144C644.058 525.618 645.068 527.098 646.083 528.541C686.332 585.512 752.521 610.954 827.679 598.34C899.223 586.333 962.592 542.73 1015.15 501.659C1020.48 497.49 1026.03 493.073 1032.13 488.155C1047.11 476.071 1061.85 463.697 1077.45 450.593C1122.83 412.479 1169.76 373.068 1222.42 341.921C1242.19 330.28 1262.48 320.217 1282.74 312.009C1302.35 304.06 1322.57 297.592 1342.83 292.786C1381.47 283.622 1420.89 280.087 1463.34 281.982C1500.27 283.515 1543.63 288.011 1585.18 309.718C1623.27 329.708 1656.66 359.98 1688.96 389.253C1696.38 395.984 1704.06 402.943 1711.52 409.513C1792.74 481.043 1876.38 561.847 1960.11 649.677L1959.91 649.874Z" fill="white"/><path d="M1956.92 647.219C1872.78 557.179 1792.83 477.678 1712.51 404.172C1704.84 397.159 1697.3 389.997 1689.31 382.415C1658.08 352.773 1625.79 322.126 1588.32 302.708C1546.29 281.035 1501.08 279.231 1466.38 280.082C1383.38 281.852 1305.73 305.182 1229 351.406C1182.97 379.275 1140.47 412.741 1099.36 445.108C1077.76 462.119 1057.36 478.182 1036.55 493.429C1030.38 497.958 1024.64 502.085 1019.01 506.045C984.153 530.557 954.598 548.162 925.996 561.455C891.279 577.589 858.822 586.849 826.768 589.763C810.299 591.26 793.942 590.978 778.152 588.926C761.434 586.753 745.342 582.584 730.324 576.538C697.038 563.135 669.347 540.859 648.018 510.324C647.011 508.875 646.007 507.393 645.031 505.916C628.359 480.688 616.161 452.546 604.365 425.332C601.217 418.071 597.963 410.562 594.689 403.262C578.566 367.219 561.701 336.625 543.131 309.732C540.742 306.276 538.274 302.809 535.795 299.427C490.554 237.771 429.941 186.972 360.508 152.525C296.423 120.863 230.335 104.342 169.733 104.342C152.6 104.342 135.919 105.661 119.83 108.331C70.5789 116.663 22.7406 145.912 -2.04864 182.848C-19.5449 208.921 -25.3065 238.179 -18.7102 267.457L-18.9865 267.519C-22.43 252.242 -22.5738 237.012 -19.4152 222.257C-16.4879 208.577 -10.7235 195.265 -2.28556 182.691C10.36 163.848 28.9788 146.809 51.5626 133.411C72.8802 120.764 96.4708 111.995 119.779 108.054C158.159 101.684 199.72 102.899 243.302 111.66C282.604 119.558 322.081 133.22 360.632 152.268C430.104 186.735 490.755 237.562 536.024 299.255C538.506 302.637 540.976 306.107 543.365 309.566C561.944 336.473 578.817 367.081 594.948 403.14C598.223 410.441 601.48 417.95 604.627 425.214C616.418 452.417 628.61 480.547 645.268 505.755C646.244 507.229 647.248 508.712 648.252 510.158C688.138 567.256 753.193 596.164 826.746 589.478C901.173 582.711 968.507 541.208 1018.86 505.808C1024.48 501.848 1030.21 497.722 1036.39 493.195C1057.2 477.954 1077.6 461.888 1099.2 444.88C1140.31 412.51 1182.81 379.035 1228.86 351.158C1268.37 327.36 1307.13 310.017 1347.37 298.133C1386.18 286.672 1425.11 280.674 1466.38 279.795C1489.92 279.217 1509.13 280.22 1526.83 282.949C1549.68 286.472 1569.84 292.851 1588.45 302.451C1625.96 321.886 1658.27 352.551 1689.51 382.206C1697.5 389.788 1705.05 396.948 1712.7 403.961C1793.03 477.469 1872.98 556.976 1957.13 647.022L1956.92 647.219Z" fill="white"/><path d="M1953.92 644.564C1870.55 553.537 1791.97 473.089 1713.68 398.613C1705.94 391.245 1698.3 383.655 1690.22 375.618C1659.92 345.509 1628.6 314.371 1591.58 295.441C1549.21 273.869 1504.04 274.732 1469.43 277.892C1391.1 284.794 1314.56 311.862 1235.45 360.637C1196.47 384.785 1159.36 412.419 1123.46 439.146C1095.09 460.272 1068.29 480.228 1040.8 498.468C1034.59 502.595 1028.5 506.541 1022.7 510.194C987.774 532.191 956.377 548.435 926.717 559.857C891.203 573.533 858.196 580.416 825.809 580.895C809.331 581.138 793.039 579.649 777.396 576.467C760.996 573.13 745.215 567.912 730.488 560.956C698.344 545.772 671.324 522.548 650.181 491.929C649.188 490.483 648.19 488.997 647.217 487.512C630.857 462.592 618.395 435.045 606.342 408.405C602.932 400.868 599.404 393.072 595.859 385.492C579.076 349.517 561.837 319.183 543.156 292.749C540.733 289.324 538.232 285.888 535.719 282.537C489.883 221.453 428.807 171.37 359.098 137.704C276.343 97.9039 190.63 83.1791 117.755 96.2409C69.1407 105.106 21.621 134.431 -3.30642 170.948C-21.1975 197.159 -27.5993 226.636 -21.8236 256.199L-22.1 256.252C-25.1119 240.843 -24.8806 225.495 -21.409 210.638C-18.1856 196.846 -12.1758 183.437 -3.54048 170.787C9.2292 152.079 27.7548 135.125 50.0341 121.756C71.1063 109.111 94.5052 100.193 117.704 95.9619C156.041 89.0927 197.644 89.803 241.357 98.0787C280.754 105.537 320.408 118.782 359.22 137.447C428.971 171.131 490.081 221.244 535.942 282.365C538.458 285.716 540.962 289.155 543.384 292.583C562.076 319.03 579.322 349.379 596.113 385.368C599.661 392.948 603.186 400.744 606.598 408.284C618.646 434.912 631.103 462.448 647.451 487.351C648.424 488.834 649.422 490.319 650.412 491.763C690.718 550.132 753.007 581.69 825.804 580.608C884.872 579.734 947.389 557.28 1022.55 509.949C1028.34 506.296 1034.43 502.352 1040.64 498.226C1068.13 479.989 1094.92 460.038 1123.29 438.912C1159.19 412.182 1196.31 384.542 1235.3 360.389C1275.19 335.796 1313.33 317.181 1351.9 303.474C1390.97 289.589 1429.41 281.125 1469.4 277.601C1504.05 274.436 1549.28 273.576 1591.71 295.181C1628.77 314.134 1660.11 345.286 1690.42 375.41C1698.5 383.446 1706.14 391.034 1713.88 398.399C1792.17 472.877 1870.76 553.331 1954.13 644.364L1953.92 644.564Z" fill="white"/><path d="M1950.93 641.909C1868.34 549.893 1791.12 468.492 1714.86 393.058C1707.12 385.4 1699.48 377.442 1691.38 369.017C1661.95 338.37 1631.51 306.679 1594.86 288.177C1552.08 266.685 1506.99 270.222 1472.48 275.705C1398.78 287.191 1325.51 317.114 1241.9 369.874C1210.54 389.752 1179.89 411.557 1150.25 432.644C1114.26 458.254 1080.26 482.447 1045.05 503.517C1038.71 507.316 1032.43 510.964 1026.39 514.352C990.839 534.291 958.472 548.655 927.442 558.261C910.061 563.642 892.904 567.541 876.445 569.849C858.89 572.31 841.531 573.045 824.853 572.036C791.014 569.987 759.321 561.018 730.657 545.38C699.7 528.49 673.354 504.323 652.352 473.543C651.365 472.086 650.375 470.597 649.408 469.12C633.398 444.567 620.713 417.674 608.448 391.668C604.734 383.796 600.896 375.655 597.035 367.735C579.575 331.819 561.961 301.741 543.184 275.778C540.728 272.381 538.189 268.976 535.646 265.659C489.215 205.144 427.679 155.778 357.694 122.898C274.386 83.9123 188.439 70.1571 115.684 84.1632C37.783 99.3926 -38.1273 165.195 -24.9289 244.95L-25.2081 244.995C-28.5105 225.044 -26.5759 205.389 -19.4606 186.572C-12.963 169.386 -2.29995 153.213 12.2323 138.505C25.7437 124.828 41.954 113.021 60.4091 103.409C77.9618 94.2682 97.0571 87.5146 115.628 83.8841C153.92 76.5132 195.568 76.7246 239.413 84.5155C278.907 91.5312 318.741 104.359 357.812 122.644C427.837 155.547 489.409 204.941 535.868 265.49C538.415 268.81 540.953 272.215 543.412 275.614C562.197 301.589 579.821 331.684 597.289 367.614C601.149 375.534 604.988 383.674 608.702 391.55C620.964 417.547 633.643 444.429 649.645 468.968C650.609 470.445 651.596 471.933 652.584 473.388C692.949 532.541 754.135 567.473 824.87 571.757C884.753 575.379 950.627 556.525 1026.25 514.109C1032.29 510.721 1038.56 507.077 1044.91 503.277C1080.1 482.213 1114.1 458.023 1150.09 432.415C1179.73 411.326 1210.38 389.518 1241.74 369.637C1325.39 316.855 1398.7 286.92 1472.44 275.425C1495.62 271.741 1514.82 270.563 1532.85 271.722C1555.91 273.202 1576.23 278.501 1594.98 287.924C1631.67 306.445 1662.13 338.155 1691.58 368.82C1699.68 377.242 1707.32 385.199 1715.06 392.855C1791.32 468.294 1868.55 549.698 1951.14 641.72L1950.93 641.909Z" fill="white"/><path d="M1947.95 639.254C1866.14 546.234 1790.28 463.886 1716.04 387.5C1708.36 379.596 1700.76 371.317 1692.73 362.548C1664.09 331.315 1634.47 299.015 1598.12 280.911C1554.42 259.238 1507.23 266.31 1475.53 273.514C1389.5 292.828 1312.41 337.73 1248.34 379.111C1225.32 394.045 1202.35 409.863 1180.13 425.16C1135.57 455.847 1093.49 484.832 1049.3 508.565C1042.81 512.058 1036.34 515.403 1030.09 518.512C993.84 536.493 960.503 548.974 928.173 556.663C891.522 565.382 856.442 567.574 823.9 563.177C790.47 558.659 759.155 547.429 730.83 529.798C701.119 511.308 675.447 486.196 654.522 455.159C653.546 453.702 652.562 452.211 651.6 450.728C635.987 426.626 623.144 400.471 610.722 375.176C606.652 366.886 602.442 358.318 598.211 349.977C579.81 313.61 562.333 284.643 543.215 258.807C540.725 255.441 538.156 252.07 535.576 248.78C488.544 188.841 426.545 140.19 356.284 108.088C272.424 69.9204 186.24 57.132 113.609 72.0823C35.4286 88.3884 -38.9306 153.297 -28.0391 233.7L-28.3183 233.737C-31.02 213.789 -28.6821 194.154 -21.3722 175.379C-14.6715 158.176 -3.94649 141.986 10.5097 127.261C23.99 113.528 40.1157 101.633 58.4411 91.9005C75.8895 82.6327 94.9481 75.6846 113.553 71.8032C151.803 63.9306 193.493 63.6431 237.468 70.9464C277.057 77.5196 317.072 89.9303 356.402 107.832C426.706 139.951 488.738 188.63 535.793 248.606C538.373 251.898 540.945 255.272 543.438 258.637C562.567 284.485 580.05 313.469 598.46 349.85C602.69 358.191 606.9 366.762 610.97 375.052C623.39 400.339 636.23 426.485 651.831 450.576C652.793 452.059 653.774 453.547 654.75 455.004C695.428 515.336 755.512 553.653 823.934 562.898C885.301 571.191 952.692 556.587 1029.96 518.259C1036.21 515.152 1042.68 511.809 1049.17 508.317C1093.34 484.589 1135.42 455.61 1179.97 424.926C1202.19 409.629 1225.16 393.808 1248.19 378.872C1291.27 351.048 1327.11 330.491 1360.97 314.18C1400.83 294.979 1438.28 281.587 1475.46 273.238C1498.13 268.086 1517.89 265.752 1535.87 266.107C1559.02 266.564 1579.42 271.322 1598.25 280.657C1634.65 298.784 1664.28 331.103 1692.93 362.357C1700.97 371.123 1708.56 379.401 1716.24 387.299C1790.49 463.689 1866.34 546.043 1948.16 639.065L1947.95 639.254Z" fill="white"/><path d="M1944.96 636.595C1863.94 542.569 1789.44 459.271 1717.21 381.938C1709.64 373.828 1702.14 365.262 1694.21 356.192C1666.32 324.329 1637.49 291.382 1601.39 273.644C1557.21 252.021 1510.14 261.963 1478.58 271.324C1400.64 294.243 1331.11 337.882 1254.79 388.345C1241.02 397.48 1227.1 406.909 1213.64 416.03C1161.85 451.106 1108.3 487.374 1053.55 513.61C1046.9 516.801 1040.25 519.848 1033.78 522.667C997.284 538.541 961.998 549.438 928.898 555.056C891.401 561.421 855.754 561.17 822.939 554.315C789.977 547.429 759.042 533.936 730.993 514.21C702.608 494.249 677.604 468.195 656.679 436.775C655.712 435.315 654.736 433.821 653.78 432.339C638.638 408.8 625.714 383.496 613.215 359.027C608.711 350.211 604.055 341.095 599.376 332.224C580.255 295.894 562.415 267.175 543.232 241.84C540.714 238.514 538.108 235.171 535.491 231.907C487.872 172.531 425.417 124.597 354.874 93.2784C270.464 55.9279 184.045 44.1091 111.533 60.0009C35.8347 76.7721 -39.8979 139.403 -31.1526 222.448L-31.4318 222.476C-33.5328 202.528 -30.7916 182.916 -23.2872 164.183C-16.3862 146.96 -5.59633 130.756 8.78085 116.014C35.3073 88.8192 72.7365 68.3019 111.471 59.7218C149.676 51.3503 191.412 50.5611 235.519 57.3767C275.204 63.5102 315.397 75.5009 354.987 93.019C425.57 124.354 488.061 172.32 535.711 231.724C538.331 234.991 540.937 238.334 543.458 241.663C562.649 267.011 580.498 295.742 599.624 332.086C604.303 340.96 608.962 350.075 613.466 358.892C625.962 383.356 638.884 408.653 654.017 432.181C654.97 433.664 655.946 435.155 656.913 436.615C698.778 499.477 756.208 540.08 822.992 554.036C884.833 566.957 955.709 556.316 1033.66 522.407C1040.13 519.589 1046.78 516.544 1053.42 513.356C1108.15 487.129 1161.69 450.866 1213.47 415.796C1226.94 406.675 1240.86 397.246 1254.63 388.111C1288.04 366.021 1326.91 340.683 1365.5 319.529C1405.85 297.402 1442.82 281.547 1478.49 271.056C1500.95 264.395 1520.71 260.94 1538.88 260.494C1561.8 259.931 1582.87 264.271 1601.51 273.393C1617.68 281.339 1633.96 293.197 1651.27 309.647C1666.56 324.171 1680.72 340.356 1694.41 356.006C1702.35 365.073 1709.84 373.639 1717.41 381.746C1789.65 459.082 1864.14 542.383 1945.17 636.412L1944.96 636.595Z" fill="white"/><path d="M1941.96 633.94C1861.74 538.9 1788.61 454.652 1718.39 376.382C1710.95 368.095 1703.59 359.27 1695.79 349.929C1668.63 317.404 1640.55 283.771 1604.66 266.383C1571.11 250.184 1530.87 251.086 1481.63 269.14C1412.78 294.24 1351.24 336.224 1286.08 380.678C1277.97 386.214 1269.58 391.936 1261.23 397.587C1257.97 399.806 1254.69 402.03 1251.43 404.251C1189.34 446.444 1125.15 490.074 1057.8 518.661C1051 521.553 1044.16 524.302 1037.47 526.827C1000.17 540.901 963.894 549.859 929.634 553.45C891.272 557.469 855.052 554.78 821.989 545.456C789.54 536.304 758.986 520.547 731.177 498.623C704.222 477.373 679.889 450.381 658.854 418.392C657.895 416.929 656.928 415.432 655.977 413.947C641.411 391.147 628.529 366.864 616.066 343.381C611.021 333.871 605.801 324.036 600.558 314.464C580.699 278.159 562.497 249.688 543.269 224.866C540.714 221.569 538.078 218.259 535.427 215.026C487.205 156.226 424.287 109.004 353.467 78.4692C268.51 41.939 181.852 31.087 109.461 47.9202C35.1526 65.3426 -40.4728 128.487 -34.26 211.199L-34.542 211.221C-36.0395 191.27 -32.8979 171.68 -25.1988 152.995C-18.0948 135.753 -7.24286 119.529 7.05817 104.776C33.4718 77.5249 70.7713 56.7033 109.396 47.6468C147.559 38.7736 189.336 37.4826 233.573 43.8134C273.355 49.5015 313.731 61.0751 353.58 78.2099C424.439 108.764 487.396 156.011 535.638 214.843C538.289 218.076 540.932 221.391 543.487 224.689C562.723 249.524 580.935 278.004 600.801 314.323C606.046 323.895 611.264 333.733 616.312 343.243C628.768 366.72 641.651 390.997 656.211 413.789C657.162 415.275 658.126 416.769 659.085 418.231C701.858 483.276 758.214 527.171 822.062 545.177C885.09 562.951 957.529 556.686 1037.37 526.557C1044.05 524.031 1050.89 521.286 1057.69 518.396C1125.01 489.821 1189.2 446.198 1251.27 404.011C1254.54 401.787 1257.81 399.566 1261.07 397.348C1269.42 391.696 1277.81 385.974 1285.92 380.441C1351.09 335.979 1412.65 293.984 1481.53 268.872C1503.77 260.715 1523.52 256.14 1541.9 254.88C1564.91 253.304 1586.06 257.09 1604.78 266.126C1620.86 273.914 1636.93 285.826 1653.92 302.544C1668.91 317.294 1682.68 333.792 1696 349.746C1703.8 359.084 1711.17 367.906 1718.6 376.191C1788.82 454.463 1861.96 538.714 1942.18 633.757L1941.96 633.94Z" fill="white"/><path d="M1938.98 631.285C1865.76 542.722 1791.94 455.089 1719.56 370.824C1712.2 362.295 1704.89 353.131 1697.16 343.432C1672.02 311.879 1643.52 276.119 1607.92 259.119C1573.98 242.948 1533.67 245.511 1484.67 266.95C1426.41 292.357 1374.86 329.716 1320.27 369.268C1303.18 381.653 1285.51 394.464 1267.68 406.821C1236.56 428.438 1202.89 451.312 1167.6 472.145C1129.81 494.457 1095.28 511.322 1062.05 523.707C1055.06 526.309 1048.04 528.758 1041.15 530.982C1003.07 543.28 965.8 550.279 930.382 551.784C891.173 553.447 854.381 548.339 821.025 536.591C759.427 514.628 705.59 468.675 661.012 400.006C660.061 398.54 659.102 397.041 658.158 395.555C644.33 373.761 631.673 350.769 619.434 328.532C613.672 318.066 607.716 307.243 601.723 296.709C581.108 260.413 562.54 232.192 543.29 207.898C540.698 204.628 538.027 201.35 535.345 198.151C486.537 139.917 423.156 93.4139 352.06 63.6598C266.553 27.947 179.661 18.0675 107.389 35.8394C32.629 54.3272 -41.1012 116.634 -37.3702 199.949L-37.6522 199.96C-38.5462 180.004 -34.9984 160.437 -27.1104 141.8C-19.8006 124.535 -8.88656 108.294 5.33268 93.5295C18.7284 79.6193 34.606 67.4566 52.5224 57.377C69.9172 47.5933 88.3526 40.2534 107.318 35.5631C145.438 26.191 187.261 24.3983 231.628 30.2414C271.505 35.4927 312.059 46.6462 352.167 63.3977C423.306 93.1687 486.723 139.7 535.56 197.962C538.241 201.164 540.918 204.445 543.51 207.715C562.768 232.023 581.345 260.255 601.969 296.563C607.961 307.099 613.918 317.923 619.679 328.391C631.919 350.625 644.573 373.614 658.394 395.4C659.336 396.888 660.298 398.385 661.246 399.851C705.79 468.466 759.579 514.383 821.118 536.323C884.506 558.647 960.563 556.708 1041.06 530.711C1047.94 528.487 1054.97 526.041 1061.95 523.442C1136.26 495.754 1204.24 450.534 1267.51 406.587C1285.34 394.23 1303.02 381.422 1320.11 369.037C1374.7 329.477 1426.27 292.109 1484.56 266.69C1533.63 245.217 1574.02 242.655 1608.04 258.863C1623.99 266.476 1639.82 278.41 1656.44 295.342C1671.1 310.273 1684.46 327.041 1697.38 343.254C1705.11 352.953 1712.41 362.114 1719.78 370.638C1792.15 454.905 1865.97 542.539 1939.19 631.105L1938.98 631.285Z" fill="white"/><path d="M1935.99 628.63C1863.89 539.576 1791.47 450.968 1720.74 365.265C1713.6 356.643 1706.52 347.319 1699.02 337.448C1674.5 305.16 1646.7 268.562 1611.19 251.85C1576.84 235.707 1536.46 239.929 1487.72 264.754C1436.65 290.725 1389.74 327.396 1344.37 362.864C1321.62 380.647 1298.09 399.036 1274.12 416.052C1236.28 442.937 1204.45 463.446 1173.93 480.598C1136.3 501.746 1101.09 517.497 1066.3 528.749C1059.15 531.061 1051.93 533.209 1044.84 535.134C1007.89 545.16 971.595 550.233 936.879 550.236C934.95 550.236 933.032 550.219 931.115 550.188C890.978 549.534 853.617 541.975 820.068 527.723C803.875 520.806 788.017 512.026 772.938 501.625C758.763 491.85 744.835 480.336 731.538 467.403C707.614 444.138 685.25 416.075 663.174 381.617C662.227 380.134 661.282 378.648 660.343 377.157C647.533 356.826 635.415 335.573 623.697 315.019C616.932 303.155 609.938 290.886 602.893 278.943C581.203 242.148 562.83 214.998 543.312 190.918C540.686 187.679 537.982 184.432 535.266 181.264C485.865 123.608 422.025 77.8208 350.652 48.8475C264.598 13.9549 177.469 5.045 105.315 23.7555C31.9574 42.8324 -41.677 105.613 -40.4784 188.694L-40.7604 188.697C-41.3188 149.999 -25.9743 113.201 3.61195 82.2828C16.9852 68.3077 32.7781 56.0577 50.5564 45.8653C67.8552 35.9491 86.2539 28.4176 105.245 23.4792C143.32 13.6054 185.188 11.3138 229.684 16.6693C269.657 21.4808 310.392 32.2172 350.757 48.5825C422.174 77.5756 486.051 123.391 535.483 181.081C538.199 184.252 540.909 187.502 543.534 190.74C563.061 214.835 581.443 241.993 603.139 278.802C610.183 290.748 617.18 303.017 623.943 314.881C635.661 335.432 647.776 356.682 660.582 377.008C661.521 378.499 662.463 379.985 663.411 381.464C710.322 454.688 761.6 502.445 820.178 527.464C901.311 561.931 987.092 550.513 1044.77 534.863C1051.85 532.938 1059.07 530.793 1066.21 528.482C1146.24 502.6 1219.27 454.68 1273.96 415.824C1297.92 398.813 1321.45 380.424 1344.19 362.644C1389.58 327.171 1436.5 290.488 1487.59 264.506C1509.4 253.397 1529.14 246.576 1547.93 243.656C1571.11 240.053 1592.43 242.726 1611.31 251.599C1627.21 259.082 1642.89 271.113 1659.24 288.374C1673.65 303.584 1686.66 320.713 1699.25 337.281C1706.74 347.15 1713.82 356.471 1720.96 365.088C1791.68 450.79 1864.1 539.398 1936.21 628.452L1935.99 628.63Z" fill="white"/><path d="M1933 625.975L1721.92 359.71C1715.02 351.014 1708.18 341.552 1700.93 331.537C1677.01 298.485 1649.9 261.025 1614.46 244.589C1580.18 228.697 1538.57 234.746 1490.77 262.569C1444.82 289.316 1402.91 324.885 1362.37 359.284C1335.96 381.707 1308.64 404.891 1280.57 425.295C1196.2 486.624 1122.47 522.847 1048.54 539.294C1017.86 546.116 987.606 549.549 958.262 549.549C949.368 549.549 940.563 549.233 931.852 548.602C890.767 545.625 852.836 535.619 819.116 518.865C787.863 503.333 759.272 481.41 731.719 451.836C709.716 428.221 688.624 400.068 665.344 363.236C653.056 343.798 641.158 323.602 629.652 304.072C603.61 259.875 576.683 214.172 543.346 173.95C492.211 112.257 425.091 63.877 349.243 34.0383C262.644 -0.0312313 175.279 -7.9743 103.243 11.6748C33.5006 30.6981 -42.1953 90.6855 -43.5885 177.445L-43.8705 177.439C-43.2472 138.66 -27.4233 101.867 1.88945 71.0392C28.3933 43.1652 64.3616 21.9856 103.17 11.4014C141.203 1.0286 183.116 -1.76473 227.739 3.10315C267.808 7.47213 308.723 17.7942 349.347 33.7762C386.878 48.5405 422.522 67.9753 455.292 91.5424C488.336 115.307 518.035 142.969 543.561 173.764C576.912 214 603.847 259.714 629.894 303.922C641.4 323.45 653.299 343.643 665.583 363.078C699.549 416.819 747.712 483.061 819.242 518.605C901.275 559.366 989.177 552.201 1048.47 539.013C1122.37 522.577 1196.07 486.368 1280.4 425.061C1308.46 404.665 1335.77 381.481 1362.19 359.064C1402.73 324.659 1444.65 289.082 1490.63 262.321C1538.51 234.45 1580.21 228.396 1614.58 244.33C1630.44 251.689 1645.98 263.824 1662.07 281.432C1676.24 296.932 1688.91 314.439 1701.16 331.368C1708.41 341.383 1715.25 350.839 1722.14 359.532L1933.22 625.797L1933 625.975Z" fill="white"/><path d="M1931.3 605.506C1877.55 531.369 1831.43 471.209 1786.16 416.185C1764.19 389.456 1741.75 363.146 1719.47 337.987C1712.73 330.376 1706.05 322.281 1698.98 313.709C1681.21 292.166 1662.84 269.89 1641.7 253.358C1630.34 244.465 1619.42 238.098 1608.29 233.892C1574.13 220.856 1534.05 229.475 1489.16 259.514C1465.93 275.037 1444.78 292.701 1427.16 307.934C1408.5 324.059 1390.09 341.843 1372.29 359.039C1346.7 383.759 1320.24 409.319 1291.8 431.271C1274.49 444.668 1256.94 456.639 1239.65 466.854C1205.04 487.29 1167.9 504.129 1129.26 516.903C1105.38 524.708 1081.38 530.608 1057.94 534.435C1037.74 537.722 1017.51 539.619 997.791 540.073C968.284 540.755 939.535 538.153 912.343 532.332C883.431 526.143 856.069 516.263 831.021 502.965C808.685 491.106 787.587 476.176 766.524 457.316C727.273 422.201 695.966 381.597 673.078 350.146C661.834 334.624 650.855 318.794 640.237 303.486C609.664 259.399 580.785 217.758 544.648 180.667C515.174 150.614 481.546 124.679 444.69 103.579C416.367 87.3626 385.562 74.1007 353.133 64.1592C345.409 61.7943 337.538 59.5901 329.746 57.6142C296.197 49.1214 258.429 43.5912 217.495 41.1755C176.225 38.6838 140.519 40.8401 108.343 47.7741C90.1533 51.6639 72.5301 57.7664 55.956 65.9096C-2.55664 94.6602 -40.1296 142.925 -44.5517 195.02L-44.9042 194.989C-43.7253 181.101 -40.265 167.422 -34.6218 154.326C-29.2607 141.887 -21.8973 129.891 -12.7374 118.67C4.56992 97.4733 28.2705 79.118 55.8009 65.5911C72.4004 57.4338 90.0518 51.3228 108.27 47.4274C140.479 40.4878 176.213 38.3287 217.517 40.8232C258.475 43.2388 296.262 48.7747 329.833 57.2731C337.634 59.2518 345.508 61.456 353.238 63.8237C385.692 73.7709 416.522 87.0441 444.867 103.274C481.75 124.389 515.405 150.346 544.893 180.419C581.053 217.533 609.937 259.184 640.522 303.283C651.137 318.591 662.116 334.418 673.357 349.938C696.234 381.375 727.526 421.958 766.755 457.051C787.796 475.891 808.871 490.808 831.181 502.652C880.204 528.677 936.255 541.149 997.78 539.72C1017.48 539.267 1037.7 537.37 1057.89 534.086C1081.31 530.258 1105.28 524.364 1129.14 516.565C1167.77 503.799 1204.89 486.971 1239.47 466.547C1256.75 456.341 1274.29 444.375 1291.58 430.989C1320.01 409.049 1346.46 383.494 1372.04 358.783C1389.84 341.583 1408.25 323.794 1426.92 307.663C1444.56 292.422 1465.72 274.752 1488.97 259.218C1508.95 245.844 1528.3 236.604 1546.48 231.753C1568.81 225.794 1589.65 226.403 1608.41 233.562C1619.57 237.782 1630.53 244.166 1641.91 253.079C1663.09 269.636 1681.47 291.926 1699.25 313.484C1706.32 322.052 1713 330.148 1719.73 337.753C1742.02 362.915 1764.47 389.228 1786.44 415.963C1831.71 470.992 1877.83 531.157 1931.58 605.3L1931.3 605.506Z" fill="white"/><path d="M1929.59 585.031C1879.76 509.639 1832.99 446.551 1786.6 392.164C1763.98 365.598 1740.57 340.061 1717.02 316.263C1710.77 309.949 1704.61 303.387 1698.07 296.442C1678.51 275.643 1658.29 254.136 1635.63 239.256C1624.19 231.71 1613.23 226.456 1602.12 223.192C1559.56 210.689 1516.34 234.377 1487.56 256.45C1467.18 272.043 1448.56 289.674 1429.7 307.874C1413.19 323.806 1397.66 340.943 1381.22 359.084C1356.82 386.014 1331.58 413.86 1303.03 437.241C1286.08 451.191 1268.39 463.252 1250.46 473.089C1217.06 491.416 1180.48 505.648 1138.63 516.601C1115.21 522.729 1091.23 527.095 1067.35 529.573C1047.2 531.639 1027.08 532.378 1007.56 531.76C978.521 530.853 950.133 526.771 923.184 519.631C894.881 512.131 867.875 501.172 842.919 487.059C821.054 474.696 799.943 459.356 778.377 440.167C739.211 405.364 705.659 366.782 680.808 337.056C671.608 326.052 662.556 314.98 653.799 304.269C618.928 261.617 585.991 221.326 545.951 187.384C516.026 162.015 482.429 140.565 446.1 123.631C418.612 110.817 389.477 101.216 357.034 94.2795C349.546 92.6813 341.929 91.2409 334.396 89.9979C301.31 84.5663 265.999 82.5114 223.276 80.3861C192.48 78.7767 152.166 77.7168 113.437 83.8672C95.0943 86.7254 77.3639 91.6891 60.7335 98.6146C2.18128 123.005 -37.5378 165.612 -45.5189 212.594L-45.9363 212.524C-43.8212 200.065 -39.5345 187.846 -33.2033 176.202C-27.1681 165.108 -19.2378 154.47 -9.63518 144.576C8.61408 125.781 32.89 109.751 60.5699 98.2228C77.2314 91.2832 94.9956 86.311 113.369 83.4472C152.135 77.2884 192.48 78.351 223.296 79.9605C266.033 82.0858 301.355 84.1406 334.464 89.5751C342.002 90.8209 349.625 92.2613 357.121 93.8595C389.595 100.805 418.759 110.414 446.278 123.242C482.644 140.193 516.268 161.66 546.224 187.054C586.293 221.022 619.244 261.324 654.126 303.993C662.88 314.701 671.933 325.773 681.132 336.774C705.978 366.489 739.515 405.057 778.659 439.843C800.199 459.013 821.288 474.335 843.128 486.684C892.199 514.434 947.53 529.454 1007.58 531.332C1027.08 531.946 1047.17 531.211 1067.31 529.144C1091.16 526.67 1115.13 522.309 1138.52 516.184C1180.33 505.242 1216.88 491.022 1250.26 472.711C1268.17 462.885 1285.83 450.841 1302.76 436.906C1331.29 413.544 1356.52 385.71 1380.91 358.794C1397.36 340.644 1412.89 323.504 1429.41 307.564C1448.28 289.353 1466.9 271.716 1487.31 256.106C1505.96 241.796 1524.36 231.502 1541.99 225.504C1563.38 218.231 1583.65 217.315 1602.24 222.778C1613.4 226.056 1624.4 231.327 1635.87 238.895C1658.56 253.803 1678.81 275.33 1698.38 296.146C1704.91 303.088 1711.08 309.647 1717.33 315.958C1740.89 339.765 1764.3 365.311 1786.93 391.885C1833.32 446.286 1880.11 509.385 1929.95 584.794L1929.59 585.031Z" fill="white"/><path d="M1927.89 564.555C1881.25 486.886 1835.18 422.64 1787.04 368.146C1763.77 341.743 1739.39 316.981 1714.58 294.541C1709.28 289.744 1703.82 284.653 1698.54 279.732C1676.73 259.398 1654.19 238.373 1629.58 225.157C1618.02 218.91 1607.03 214.767 1595.96 212.492C1553.5 203.757 1512.7 229.909 1485.96 253.383C1467.84 269.23 1451.27 287.19 1435.25 304.562L1432.25 307.815C1417.7 323.574 1404.05 340.858 1389.6 359.16C1366.59 388.302 1342.8 418.434 1314.26 443.211C1297.65 457.732 1279.82 469.884 1261.27 479.326C1228.93 495.79 1192.93 507.539 1148 516.299C1124.76 520.829 1100.79 523.659 1076.74 524.707C1056.65 525.55 1036.66 525.127 1017.33 523.445C958.808 518.374 904.131 500.78 854.812 471.152C833.492 458.344 812.366 442.602 790.231 423.017C752.77 389.946 719.453 355.952 688.541 323.969C684.396 319.681 680.295 315.422 676.226 311.197C634.005 267.369 594.128 225.971 547.263 194.109C516.667 173.307 483.104 156.344 447.511 143.688C421.379 134.397 393.059 128.089 360.937 124.402C353.698 123.577 346.335 122.897 339.05 122.384C320.725 121.116 301.288 120.91 280.709 120.693C264.181 120.518 247.09 120.338 229.055 119.602C194.224 118.06 154.747 116.316 118.525 119.969C99.8357 121.854 81.9982 125.676 65.5059 131.331C6.97625 151.4 -34.8919 188.356 -46.4912 230.188L-46.9678 230.055C-43.9107 219.026 -38.8006 208.267 -31.7812 198.077C-25.0692 188.333 -16.5749 179.048 -6.53514 170.482C12.6673 154.1 37.5242 140.401 65.3423 130.863C81.8712 125.194 99.7454 121.364 118.471 119.475C154.73 115.819 194.226 117.567 229.072 119.109C247.096 119.842 264.186 120.025 280.709 120.2C301.297 120.417 320.739 120.623 339.081 121.894C346.371 122.41 353.743 123.089 360.988 123.915C393.149 127.604 421.503 133.921 447.671 143.226C483.307 155.896 516.906 172.878 547.536 193.703C594.444 225.593 634.341 267.011 676.578 310.859C680.648 315.084 684.751 319.34 688.894 323.63C719.8 355.608 753.106 389.593 790.555 422.654C812.668 442.216 833.771 457.944 855.066 470.735C904.32 500.326 958.927 517.895 1017.37 522.96C1036.68 524.64 1056.65 525.063 1076.72 524.22C1100.74 523.171 1124.69 520.344 1147.9 515.82C1192.79 507.068 1228.74 495.334 1261.05 478.892C1279.56 469.47 1297.35 457.341 1313.93 442.844C1342.43 418.099 1366.21 387.984 1389.21 358.858C1403.66 340.548 1417.32 323.255 1431.88 307.485L1434.88 304.232C1450.91 286.852 1467.49 268.88 1485.63 253.016C1512.46 229.466 1553.39 203.238 1596.06 212.013C1607.17 214.299 1618.21 218.457 1629.81 224.728C1654.47 237.973 1677.04 259.02 1698.87 279.377C1704.15 284.298 1709.61 289.389 1714.9 294.183C1739.73 316.634 1764.12 341.411 1787.41 367.827C1835.57 422.344 1881.65 486.613 1928.31 564.307L1927.89 564.555Z" fill="white"/><path d="M1926.19 544.077C1883.37 465.236 1836.7 397.962 1787.49 344.131C1763.56 317.894 1738.21 293.904 1712.14 272.826C1708.38 269.782 1704.52 266.622 1700.79 263.567C1676.15 243.382 1650.67 222.507 1623.53 211.063C1611.88 206.099 1600.85 203.069 1589.81 201.795C1547.47 196.913 1509.1 225.486 1484.37 250.316C1469.01 265.655 1455.15 282.714 1441.75 299.212C1439.43 302.067 1437.11 304.917 1434.79 307.755C1422.04 323.348 1410.12 340.768 1397.5 359.208C1376.05 390.557 1353.86 422.972 1325.49 449.186C1308.83 464.579 1291.36 476.479 1272.08 485.573C1231.76 504.59 1191.46 511.629 1157.36 516.009C1134.3 518.968 1110.34 520.265 1086.14 519.853C1066.1 519.473 1046.24 517.886 1027.09 515.141C970.331 507.02 916.37 486.872 866.71 455.255C846.047 442.103 824.91 425.952 802.086 405.88C779.031 385.653 757.547 366.19 736.769 347.366C722.648 334.572 709.309 322.489 696.282 310.895C647.042 267.07 601.94 228.539 548.585 200.842C517.332 184.621 483.803 172.14 448.929 163.748C423.934 157.733 397.216 154.805 364.849 154.526C357.866 154.475 350.753 154.557 343.712 154.771C333.015 155.118 321.948 155.842 310.236 156.612C287.76 158.086 262.279 159.757 234.834 158.821C224.382 158.463 213.719 157.959 203.406 157.468C176.879 156.208 149.45 154.906 123.609 156.07C104.632 156.927 86.6849 159.611 70.2716 164.047C11.8407 179.846 -32.1735 211.153 -47.4701 247.793L-47.9918 247.576C-43.9872 237.982 -38.0536 228.685 -30.3573 219.945C-22.9657 211.551 -13.9074 203.622 -3.43893 196.38C16.7337 182.428 42.1687 171.06 70.1193 163.503C86.5721 159.055 104.559 156.363 123.578 155.507C149.448 154.34 176.888 155.645 203.428 156.905C213.739 157.395 224.402 157.9 234.851 158.258C262.271 159.193 287.731 157.525 310.197 156.051C321.915 155.281 332.984 154.557 343.692 154.21C350.742 153.996 357.86 153.914 364.851 153.965C397.264 154.241 424.021 157.178 449.059 163.202C483.975 171.604 517.549 184.099 548.842 200.344C572.943 212.853 597.365 228.702 623.505 248.794C646.907 266.78 669.671 286.46 696.655 310.475C709.681 322.072 723.02 334.155 737.144 346.949C757.92 365.77 779.404 385.233 802.453 405.457C825.254 425.509 846.368 441.643 867.006 454.781C916.599 486.356 970.484 506.476 1027.17 514.585C1046.29 517.328 1066.13 518.912 1086.14 519.293C1110.31 519.704 1134.25 518.41 1157.28 515.451C1191.34 511.079 1231.58 504.049 1271.83 485.065C1291.06 475.997 1308.48 464.128 1325.1 448.775C1353.42 422.606 1375.59 390.216 1397.03 358.892C1409.66 340.441 1421.59 323.013 1434.35 307.403C1436.67 304.565 1438.99 301.715 1441.3 298.862C1454.72 282.353 1468.59 265.283 1483.96 249.924C1500.05 233.77 1516.56 221.343 1533.02 212.988C1552.52 203.092 1571.65 199.14 1589.87 201.243C1600.96 202.522 1612.04 205.567 1623.74 210.55C1650.95 222.025 1676.46 242.925 1701.13 263.136C1704.86 266.191 1708.72 269.351 1712.48 272.392C1738.57 293.487 1763.94 317.5 1787.89 343.756C1814.02 372.34 1839.61 404.907 1863.95 440.552C1885.46 472.057 1906.56 506.8 1926.67 543.812L1926.19 544.077Z" fill="white"/><path d="M1924.49 523.594C1884.85 442.492 1838.91 374.032 1787.93 320.113C1763.35 294.043 1737.03 270.828 1709.71 251.109C1708.41 250.17 1707.11 249.231 1705.8 248.29C1677.39 227.758 1648.01 206.528 1617.5 196.97C1605.67 193.266 1594.61 191.347 1583.68 191.099C1541.5 190.146 1505.53 221.106 1482.79 247.244C1469.4 262.535 1457.52 279.295 1446.03 295.503C1443.19 299.511 1440.25 303.655 1437.35 307.691C1426.31 323.064 1416.04 340.543 1405.17 359.05C1385.4 392.714 1364.95 427.522 1336.73 455.156C1320.4 471.144 1302.79 483.135 1282.9 491.816C1243.7 508.917 1203.9 513.408 1166.73 515.713C1143.81 517.134 1119.86 516.891 1095.54 514.994C1075.57 513.388 1055.83 510.64 1036.86 506.829C982.03 495.836 928.786 473.134 878.612 439.352C858.518 425.825 837.971 409.742 813.952 388.737C768.302 348.926 734.403 320.885 704.041 297.82C643.653 251.946 597.563 224.957 549.934 207.577C518.046 195.941 484.551 187.944 450.374 183.807C426.662 180.937 401.497 181.194 368.783 184.647C362.08 185.363 355.221 186.205 348.397 187.155C341.95 188.066 335.401 189.109 328.466 190.211C302.862 194.284 273.84 198.901 240.624 198.038C223.117 197.584 205.234 196.341 187.941 195.141C168.287 193.776 147.965 192.364 128.698 192.172C109.379 191.981 91.322 193.525 75.0412 196.767C16.8049 208.355 -29.3612 234.019 -48.4508 265.416L-48.9923 265.086C-44.0345 256.929 -37.2773 249.096 -28.9099 241.804C-20.833 234.763 -11.2162 228.193 -0.324776 222.27C20.8321 210.765 46.8509 201.728 74.9171 196.144C91.243 192.897 109.34 191.347 128.703 191.538C147.987 191.73 168.321 193.142 187.983 194.509C205.271 195.71 223.145 196.953 240.638 197.407C273.795 198.267 302.786 193.655 328.362 189.588C335.3 188.483 341.854 187.443 348.303 186.529C355.137 185.58 362.001 184.737 368.71 184.018C401.475 180.562 426.681 180.303 450.444 183.181C484.67 187.324 518.213 195.332 550.145 206.985C597.84 224.387 643.978 251.404 704.419 297.318C734.792 320.392 768.702 348.441 814.363 388.263C838.366 409.251 858.891 425.318 878.962 438.831C929.068 472.565 982.233 495.235 1036.98 506.211C1055.92 510.017 1075.64 512.759 1095.58 514.366C1119.87 516.26 1143.79 516.502 1166.69 515.085C1203.8 512.782 1243.53 508.303 1282.64 491.241C1302.46 482.594 1320.01 470.642 1336.28 454.711C1364.44 427.136 1384.87 392.364 1404.62 358.737C1415.49 340.219 1425.77 322.726 1436.83 307.33C1439.73 303.297 1442.67 299.153 1445.51 295.145C1457.01 278.923 1468.9 262.152 1482.3 246.835C1497.15 229.777 1512.71 216.284 1528.55 206.728C1547.12 195.535 1565.67 190.07 1583.69 190.473C1594.68 190.721 1605.8 192.652 1617.68 196.372C1648.3 205.964 1677.72 227.223 1706.17 247.785C1707.48 248.727 1708.78 249.668 1710.08 250.604C1737.43 270.346 1763.78 293.589 1788.39 319.687C1839.41 373.654 1885.39 442.168 1925.05 523.326L1924.49 523.594Z" fill="white"/><path d="M1180.76 515.42C1179.18 515.42 1177.62 515.417 1176.08 515.409C1153.28 515.313 1129.34 513.537 1104.93 510.126C1085.03 507.294 1065.41 503.384 1046.62 498.511C1019.77 491.56 992.828 481.57 966.53 468.821C941.134 456.509 915.558 441.243 890.509 423.443C865.966 406.004 843.04 386.572 825.809 371.591C785.492 336.633 747.132 307.415 711.796 284.744C654.563 248.028 603.561 225.644 551.284 214.305C519.746 207.464 485.909 203.856 453.331 203.856C452.826 203.856 452.324 203.856 451.819 203.859C423.832 203.955 397.261 209.152 372.72 214.756C366.332 216.224 359.724 217.828 353.08 219.528C349.439 220.469 345.793 221.439 341.935 222.465C314.723 229.712 283.879 237.923 246.407 237.249C223.587 236.837 200.278 234.475 177.736 232.189C163.182 230.712 148.133 229.187 133.779 228.266C114.046 227 95.8869 227.406 79.8008 229.478C21.8747 236.93 -26.4432 256.954 -49.4528 283.044L-49.983 282.579C-38.1807 269.199 -20.4277 257.614 2.78219 248.143C24.9486 239.101 51.5512 232.404 79.7105 228.782C95.839 226.707 114.046 226.295 133.824 227.567C148.192 228.488 163.249 230.016 177.81 231.493C200.337 233.779 223.632 236.141 246.421 236.55C283.797 237.224 314.588 229.024 341.754 221.791C345.615 220.762 349.261 219.793 352.905 218.851C359.555 217.152 366.168 215.545 372.562 214.076C397.145 208.464 423.762 203.258 451.817 203.16C484.914 203.044 519.357 206.663 551.433 213.623C578.414 219.477 604.57 228.094 631.393 239.966C657.226 251.402 683.651 265.856 712.174 284.158C747.539 306.845 785.927 336.086 826.269 371.066C843.486 386.039 866.394 405.457 890.913 422.877C941.74 458.995 994.187 484.214 1046.79 497.837C1065.56 502.705 1085.15 506.609 1105.02 509.439C1129.41 512.844 1153.31 514.619 1176.08 514.712C1211.71 514.859 1253.09 513.658 1293.44 497.409C1313.86 489.184 1331.53 477.156 1347.45 460.641C1375.42 431.637 1393.96 394.411 1411.89 358.408C1421.12 339.889 1429.83 322.396 1439.3 307.254C1442.34 302.403 1445.4 297.405 1448.36 292.571C1458.37 276.24 1468.71 259.356 1480.63 243.749C1494.25 225.794 1508.87 211.23 1524.07 200.462C1541.7 187.978 1559.67 180.993 1577.49 179.702C1588.48 178.905 1599.64 179.719 1611.6 182.194C1643.59 188.807 1675.29 208.019 1707.65 228.813C1735.87 246.942 1763.96 270.042 1788.87 295.616C1816.55 323.941 1842.55 357.17 1866.16 394.38C1887.19 427.53 1906.46 464.021 1923.42 502.84L1922.78 503.122C1886.35 419.756 1841.13 350.106 1788.37 296.109C1763.49 270.571 1735.45 247.506 1707.27 229.407C1674.96 208.65 1643.33 189.475 1611.46 182.885C1599.56 180.424 1588.47 179.615 1577.54 180.407C1544.8 182.783 1510.59 205.429 1481.19 244.177C1469.3 259.756 1458.96 276.626 1448.96 292.941C1446 297.777 1442.94 302.778 1439.9 307.629C1430.45 322.743 1421.74 340.221 1412.53 358.723C1403.73 376.388 1394.63 394.656 1384.19 412.216C1372.35 432.125 1360.51 448.124 1347.96 461.132C1331.97 477.72 1314.22 489.801 1293.7 498.065C1275.61 505.354 1256.15 510.172 1234.24 512.799C1215.68 515.011 1197.04 515.42 1180.76 515.42Z" fill="white"/><path d="M1225.99 516.832C1211.61 516.832 1197.79 515.975 1185.43 515.107C1162.71 513.512 1138.78 510.2 1114.31 505.262C1094.49 501.205 1075 496.137 1056.37 490.193C1005.36 473.949 954.99 446.909 902.397 407.535C879.461 390.366 857.839 371.892 837.663 354.445C797.831 320.099 758.095 292.25 719.552 271.668C662.867 241.398 609.831 225.306 552.644 221.027C520.06 218.589 485.699 219.584 453.272 223.903C426.131 227.516 400.544 236.237 376.657 244.857C370.681 247.024 364.325 249.392 357.768 251.892C356.129 252.521 354.477 253.161 352.801 253.806C325.291 264.438 294.162 276.468 254.211 276.468C253.537 276.468 252.866 276.465 252.187 276.457C225.158 276.184 197.563 272.328 170.873 268.596C160.292 267.116 149.349 265.588 138.85 264.351C118.342 261.938 100.58 261.225 84.5478 262.177C26.2353 265.644 -22.9849 279.67 -50.4872 300.667L-50.9581 300.049C-37.3621 289.671 -17.7028 280.66 5.88786 273.991C29.0921 267.432 56.2757 263.079 84.4998 261.402C100.578 260.447 118.384 261.16 138.937 263.578C149.448 264.816 160.393 266.346 170.977 267.823C197.642 271.55 225.212 275.403 252.189 275.676C292.972 276.093 324.608 263.863 352.517 253.076C354.189 252.43 355.844 251.791 357.483 251.159C364.045 248.656 370.405 246.289 376.386 244.121C400.313 235.485 425.948 226.752 453.162 223.127C485.639 218.803 520.057 217.806 552.694 220.247C581.034 222.366 608.054 227.372 635.297 235.547C663.355 243.966 691.032 255.554 719.91 270.977C758.501 291.588 798.288 319.47 838.162 353.85C858.329 371.292 879.937 389.754 902.854 406.906C955.377 446.227 1005.67 473.227 1056.6 489.446C1075.2 495.379 1094.67 500.441 1114.45 504.492C1138.89 509.425 1162.79 512.734 1185.48 514.324C1223.66 517.001 1264.27 518.377 1304.23 503.559C1325.25 495.76 1343.05 483.656 1358.62 466.555C1386.36 436.094 1403.63 394.543 1418.87 357.883C1426.54 339.438 1433.78 322.016 1441.77 307.164C1444.65 301.806 1447.55 296.267 1450.36 290.911C1459.13 274.154 1468.21 256.828 1478.95 240.646C1491.38 221.794 1505.05 206.159 1519.59 194.174C1536.28 180.41 1553.67 171.909 1571.27 168.913C1582.28 167.038 1593.48 166.739 1605.51 167.991C1639.14 171.495 1673.31 188.807 1705.22 206.996C1734.69 223.79 1763.78 246.103 1789.35 271.521C1817.8 299.714 1844.01 333.276 1867.26 371.269C1888.04 405.246 1906.39 442.61 1921.79 482.331L1921.07 482.61C1888.33 398.179 1842.6 325.375 1788.81 272.068C1763.29 246.697 1734.25 224.427 1704.84 207.667C1673.01 189.52 1638.93 172.25 1605.44 168.76C1593.47 167.515 1582.34 167.813 1571.41 169.674C1538.91 175.207 1506.31 200.561 1479.6 241.068C1468.88 257.217 1459.82 274.526 1451.05 291.266C1448.24 296.625 1445.34 302.163 1442.46 307.527C1434.48 322.345 1427.25 339.751 1419.59 358.177C1404.33 394.893 1387.03 436.511 1359.2 467.074C1343.53 484.268 1325.64 496.439 1304.5 504.283C1286.15 511.088 1266.36 515.028 1243.99 516.322C1237.94 516.688 1231.92 516.832 1225.99 516.832Z" fill="white"/><path d="M1254.37 519.885C1254.16 519.885 1253.96 519.885 1253.76 519.885C1233.43 519.834 1213.48 517.348 1194.78 514.805C1172.09 511.722 1148.18 506.871 1123.69 500.393C1103.97 495.12 1084.6 488.887 1066.12 481.875C1017.15 463.308 968.905 434.633 914.292 391.628C894.625 376.145 875.27 359.473 856.55 343.353C854.209 341.335 851.865 339.319 849.522 337.304C809.484 302.967 768.369 276.485 727.321 258.598C671.113 234.106 614.425 224.015 554.017 227.75C520.894 229.799 486.564 235.4 454.739 243.946C429.628 250.691 407.253 261.512 380.608 274.957C375.207 277.694 369.44 280.648 362.463 284.256L362.074 284.459C348.613 291.466 333.356 299.407 316.243 305.444C296.59 312.378 277.523 315.715 257.971 315.676C227.482 315.6 196.367 309.929 166.279 304.441C158.907 303.096 151.281 301.707 143.92 300.449C122.812 296.85 104.943 295.032 89.2939 294.894C31.6724 294.386 -19.6602 302.921 -51.5392 318.306L-51.9059 317.545C-36.2907 310.008 -15.2269 303.891 9.00676 299.855C33.2855 295.81 61.0528 293.803 89.3024 294.051C104.997 294.189 122.91 296.01 144.064 299.618C151.431 300.875 159.056 302.265 166.431 303.609C196.483 309.089 227.558 314.754 257.973 314.83C258.109 314.83 258.247 314.83 258.382 314.83C301.889 314.83 335.034 297.58 361.685 283.709L362.077 283.506C369.057 279.896 374.824 276.942 380.227 274.205C406.917 260.737 429.332 249.896 454.522 243.131C486.401 234.568 520.787 228.959 553.966 226.907C583.527 225.08 611.41 226.473 639.214 231.169C669.175 236.228 698.107 244.947 727.66 257.825C768.786 275.746 809.972 302.27 850.075 336.664C852.418 338.679 854.762 340.698 857.102 342.716C875.814 358.83 895.163 375.497 914.814 390.969C969.356 433.92 1017.53 462.555 1066.42 481.091C1084.87 488.095 1104.21 494.316 1123.91 499.584C1148.36 506.053 1172.24 510.896 1194.9 513.974C1235.47 519.493 1275.19 523.321 1315.04 509.746C1336.66 502.378 1354.58 490.198 1369.8 472.508C1397.3 440.553 1412.32 396.274 1425.57 357.204C1431.77 338.913 1437.64 321.635 1444.25 307.116C1446.79 301.529 1449.34 295.751 1451.81 290.161C1459.53 272.685 1467.5 254.618 1477.29 237.581C1488.55 217.825 1501.27 201.116 1515.11 187.919C1530.88 172.878 1547.69 162.866 1565.07 158.165C1575.85 155.25 1586.84 153.83 1598.66 153.83C1598.91 153.83 1599.17 153.83 1599.43 153.832C1636.17 154.024 1673.97 170.705 1702.8 185.216C1733.52 200.676 1763.62 222.2 1789.85 247.461C1819.07 275.524 1845.49 309.416 1868.36 348.198C1888.89 383 1906.32 421.242 1920.17 461.865L1919.37 462.138C1898.77 401.694 1859.47 315.493 1789.26 248.073C1763.09 222.868 1733.06 201.395 1702.42 185.971C1673.67 171.5 1635.99 154.867 1599.43 154.678C1587.39 154.608 1576.23 156.023 1565.29 158.982C1533.09 167.695 1502.1 195.758 1478.02 238.001C1468.26 254.998 1460.29 273.046 1452.58 290.502C1450.11 296.095 1447.56 301.876 1445.02 307.465C1438.42 321.948 1432.57 339.204 1426.37 357.474C1413.09 396.615 1398.05 440.978 1370.44 473.058C1355.12 490.866 1337.09 503.127 1315.31 510.543C1296.86 516.826 1276.92 519.885 1254.37 519.885Z" fill="white"/><path d="M1276.94 523.854C1272.56 523.854 1268.09 523.713 1263.51 523.431C1243.46 522.199 1223.98 518.504 1204.13 514.501C1181.11 509.862 1157.87 503.655 1133.07 495.526C1113.45 489.037 1094.2 481.647 1075.88 473.554C1029.38 453.057 983.214 422.883 926.188 375.72C912.025 364.009 897.867 351.725 884.176 339.844C876.722 333.378 869.017 326.689 861.383 320.158C820.869 285.59 778.38 260.481 735.096 245.525C677.906 225.763 619.128 222.144 555.398 234.462C521.729 240.97 487.43 251.176 456.213 263.976C431.137 274.259 409.292 288.699 386.163 303.988L384.564 305.045C380.952 307.44 377.3 309.87 373.602 312.328C371.473 313.746 369.33 315.172 367.167 316.61C353.681 325.621 339.115 335.021 322.411 342.257C303.017 350.657 283.834 354.789 263.76 354.89C230.341 355.054 196.254 347.291 163.292 339.776C158.588 338.703 153.72 337.595 148.996 336.543C126.85 331.611 109.39 328.772 94.0427 327.605C37.4082 323.301 -16.0394 326.334 -52.6 335.929L-52.8341 335.044C-16.1777 325.424 37.38 322.379 94.1132 326.692C109.503 327.862 127.008 330.709 149.197 335.65C153.923 336.704 158.791 337.812 163.498 338.886C196.056 346.307 229.712 353.977 262.688 353.977C263.044 353.977 263.399 353.977 263.757 353.974C306.409 353.76 336.771 335.816 366.662 315.849C368.825 314.411 370.968 312.985 373.098 311.567C376.795 309.106 380.444 306.679 384.06 304.281L385.659 303.224C408.826 287.91 430.708 273.444 455.866 263.128C487.139 250.303 521.497 240.079 555.226 233.56C619.117 221.211 678.053 224.841 735.398 244.657C778.789 259.652 821.376 284.818 861.981 319.462C869.615 325.996 877.323 332.682 884.776 339.151C898.462 351.029 912.617 363.31 926.771 375.013C983.73 422.122 1029.83 452.254 1076.25 472.717C1094.55 480.796 1113.76 488.178 1133.36 494.655C1158.12 502.773 1181.33 508.971 1204.31 513.602C1239.2 520.635 1282.61 529.39 1325.85 515.905C1348.08 508.974 1366.11 496.718 1380.98 478.436C1408.21 444.95 1420.83 397.853 1431.97 356.302C1436.81 338.252 1441.39 321.201 1446.72 307.051C1448.8 301.538 1450.88 295.836 1452.9 290.32C1459.65 271.821 1466.64 252.693 1475.62 234.501C1485.74 213.826 1497.52 196.043 1510.63 181.645C1525.49 165.33 1541.71 153.81 1558.86 147.404C1569.86 143.291 1581.14 140.757 1593.34 139.655C1609.67 138.178 1627.06 139.756 1646.49 144.469C1662.93 148.461 1680.56 154.656 1700.38 163.414C1732.34 177.538 1763.45 198.275 1790.34 223.381C1820.34 251.312 1846.96 285.539 1869.47 325.108C1889.73 360.739 1906.25 399.857 1918.54 441.379L1917.66 441.638C1891.7 353.977 1846.26 276.703 1789.71 224.052C1762.9 199.014 1731.88 178.336 1700.01 164.254C1657.3 145.385 1623.44 137.857 1593.42 140.568C1581.31 141.662 1570.11 144.179 1559.18 148.26C1518.38 163.501 1491.67 203.791 1476.44 234.904C1467.49 253.051 1460.51 272.156 1453.76 290.633C1451.74 296.152 1449.66 301.857 1447.58 307.373C1442.26 321.48 1437.69 338.511 1432.86 356.539C1421.7 398.18 1409.04 445.376 1381.69 479.014C1366.7 497.44 1348.53 509.794 1326.12 516.782C1310.93 521.517 1294.74 523.854 1276.94 523.854Z" fill="white"/><path d="M1296.49 528.403C1266.67 528.403 1238 520.744 1213.47 514.194C1190.39 508.032 1167.16 500.332 1142.44 490.655C1122.93 482.96 1103.81 474.408 1085.62 465.233C1031.1 437.762 982.484 398.332 938.078 359.811C929.011 351.947 919.851 343.841 910.996 336.002C898.7 325.116 885.984 313.861 873.242 303.015C832.122 268.105 788.26 244.363 742.878 232.449C684.17 217.039 623.297 219.889 556.781 241.164C522.533 252.118 488.268 266.93 457.689 284C434.104 297.163 414.148 313.782 393.023 331.376C391.525 332.622 390.025 333.874 388.516 335.125L387.698 335.807C382.563 340.089 377.252 344.514 371.869 348.957C358.969 359.648 344.764 370.706 328.334 379.153C309.261 388.959 290.033 393.85 269.545 394.104C233.582 394.552 196.928 384.447 161.485 374.674C159 373.989 156.527 373.307 154.065 372.634C130.691 366.224 113.641 362.424 98.784 360.31C43.5709 352.457 -11.9975 349.988 -53.6738 353.537L-53.7584 352.553C-12.0144 348.996 43.6358 351.468 98.9222 359.332C113.821 361.452 130.908 365.26 154.324 371.681C156.786 372.354 159.26 373.037 161.747 373.724C197.123 383.477 233.706 393.557 269.531 393.117C314.024 392.565 345.359 369.64 371.237 348.195C376.621 343.753 381.931 339.328 387.066 335.049L387.884 334.367C389.393 333.113 390.893 331.864 392.391 330.618C413.553 312.993 433.543 296.346 457.207 283.137C487.842 266.036 522.172 251.199 556.479 240.226C588.014 230.14 617.634 224.317 647.029 222.423C679.819 220.311 712.149 223.364 743.126 231.496C788.652 243.447 832.643 267.257 873.88 302.262C886.63 313.114 899.349 324.372 911.647 335.261C920.503 343.099 929.657 351.203 938.721 359.064C983.082 397.542 1031.63 436.931 1086.06 464.351C1104.23 473.512 1123.32 482.052 1142.8 489.736C1167.48 499.399 1190.68 507.088 1213.72 513.241C1249.1 522.689 1293.14 534.449 1336.65 522.075C1359.48 515.581 1377.63 503.249 1392.14 484.375C1419.09 449.313 1429.17 399.318 1438.07 355.206C1441.65 337.482 1445.02 320.741 1449.18 306.995C1450.72 301.91 1452.27 296.656 1453.76 291.574C1459.61 271.696 1465.66 251.139 1473.93 231.428C1482.93 209.817 1493.77 190.955 1506.13 175.37C1520.08 157.784 1535.72 144.756 1552.63 136.647C1563.61 131.382 1574.93 127.732 1587.23 125.485C1603.8 122.461 1622.19 122.562 1641.88 125.787C1659.13 128.611 1677.99 133.935 1697.93 141.616C1731.14 154.405 1763.26 174.353 1790.81 199.304C1821.59 227.105 1848.42 261.662 1870.56 302.02C1890.56 338.479 1906.15 378.477 1916.91 420.898L1915.95 421.14C1893.17 331.252 1848.49 252.729 1790.15 200.037C1762.69 175.167 1730.68 155.284 1697.58 142.538C1654.68 126.018 1618.64 120.755 1587.41 126.458C1575.2 128.687 1563.96 132.312 1553.06 137.538C1512.83 156.832 1488.32 199.45 1474.84 231.809C1466.59 251.469 1460.55 271.998 1454.71 291.85C1453.22 296.932 1451.67 302.189 1450.13 307.279C1445.98 320.981 1442.61 337.699 1439.04 355.4C1434.76 376.622 1429.91 400.674 1422.86 423.223C1414.8 449.06 1405 469.258 1392.92 484.975C1385.94 494.063 1377.91 501.797 1369.06 507.965C1359.55 514.597 1348.73 519.665 1336.92 523.025C1323.4 526.872 1309.83 528.403 1296.49 528.403Z" fill="white"/><path d="M1314.12 533.395C1304.26 533.395 1293.93 532.436 1283.02 530.522C1261.53 526.754 1240.96 519.916 1222.81 513.886C1199.93 506.284 1176.05 496.828 1151.82 485.781C1132.43 476.891 1113.44 467.178 1095.37 456.907C1043.51 427.46 998.841 388.305 949.967 343.9C945.624 339.953 941.214 335.928 936.949 332.033C920.155 316.702 902.792 300.85 885.101 285.871C843.298 250.553 798.065 228.181 750.658 219.375C690.859 208.267 626.092 217.851 558.162 247.864C523.305 263.265 489.071 282.68 459.163 304.015C436.645 320.079 418.108 339.018 398.482 359.07C396.488 361.108 394.486 363.151 392.472 365.203C387.461 370.316 382.063 375.804 376.572 381.298C365.058 392.857 351.024 406.029 334.259 416.044C315.49 427.257 296.215 432.908 275.334 433.317C237.11 434.07 198.2 421.419 160.571 409.186L159.138 408.721C140.714 402.734 121.224 396.685 103.53 393.013C49.5972 381.819 -6.61139 374.048 -54.7374 371.131L-54.6726 370.077C-6.49577 372.997 49.7636 380.774 103.744 391.978C121.489 395.662 141.013 401.719 159.465 407.715L160.898 408.18C198.445 420.385 237.276 433.004 275.314 432.257C319.244 431.395 349.583 406.895 375.825 380.545C381.316 375.055 386.708 369.567 391.719 364.456C393.733 362.407 395.735 360.361 397.729 358.326C417.388 338.24 435.959 319.267 458.552 303.15C488.516 281.773 522.815 262.321 557.737 246.892C589.607 232.812 620.97 223.11 650.948 218.059C685.202 212.289 718.816 212.379 750.856 218.33C798.443 227.169 843.842 249.62 885.786 285.059C903.491 300.052 920.863 315.91 937.666 331.249C941.93 335.142 946.341 339.167 950.684 343.113C999.509 387.477 1044.14 426.589 1095.9 455.985C1113.94 466.239 1132.9 475.938 1152.26 484.817C1176.46 495.847 1200.3 505.289 1223.15 512.88C1258.96 524.781 1303.52 539.587 1347.46 528.242C1370.9 522.19 1389.17 509.785 1403.32 490.314C1429.97 453.628 1437.68 398.334 1443.88 353.903C1446.3 336.596 1448.57 320.251 1451.67 306.947C1452.64 302.752 1453.62 298.431 1454.57 294.251C1459.51 272.536 1464.62 250.079 1472.27 228.364C1484.1 194.571 1506.56 149.365 1546.42 125.905C1557.43 119.427 1568.79 114.658 1581.14 111.327C1613.46 102.484 1651.94 105.345 1695.51 119.825C1729.96 131.277 1763.09 150.436 1791.3 175.232C1822.86 202.9 1849.9 237.79 1871.67 278.94C1881.66 297.814 1890.48 317.973 1897.9 338.857C1904.99 358.805 1910.84 379.519 1915.29 400.426L1914.25 400.646C1894.66 308.525 1850.75 228.753 1790.6 176.024C1762.49 151.321 1729.5 132.236 1695.17 120.826C1651.81 106.411 1613.53 103.558 1581.42 112.344C1569.15 115.65 1557.88 120.383 1546.96 126.812C1507.37 150.109 1485.04 195.084 1473.27 228.711C1465.63 250.37 1460.53 272.795 1455.6 294.482C1454.65 298.662 1453.67 302.986 1452.69 307.183C1449.62 320.442 1447.34 336.766 1444.93 354.047C1441.81 376.405 1438.28 401.745 1432.23 425.661C1425.29 453.144 1416.11 474.495 1404.17 490.934C1397.36 500.312 1389.39 508.221 1380.49 514.439C1370.9 521.139 1359.87 526.128 1347.73 529.262C1337.06 532.019 1325.93 533.395 1314.12 533.395Z" fill="white"/><path d="M1330.36 538.666C1318.55 538.666 1306.08 537.135 1292.77 534.066C1271.2 529.097 1250.45 520.849 1232.15 513.571C1209.1 504.41 1185.22 493.42 1161.19 480.903C1141.93 470.826 1123.06 459.951 1105.11 448.578C1055.73 417.304 1013.37 376.997 968.523 334.328C966.303 332.217 964.084 330.103 961.859 327.988C941.004 308.167 919.441 287.67 896.961 268.728C854.43 232.962 807.827 211.957 758.446 206.297C696.42 199.186 629.5 215.424 559.543 254.556C524.55 274.129 489.425 298.801 460.637 324.025C438.899 343.071 421.465 364.502 403.007 387.192C400.822 389.879 398.63 392.573 396.422 395.274C392.011 400.677 386.763 407.084 381.269 413.637C371.094 425.806 357.23 441.269 340.18 452.902C321.71 465.504 302.392 471.928 281.12 472.534C263.635 472.971 244.339 470.273 222.128 464.284C203.058 459.142 184.611 452.422 164.199 444.812C145.566 437.779 125.901 430.516 108.258 425.718C55.9978 411.506 0.795956 399.062 -55.8103 388.723L-55.6073 387.615C1.03284 397.957 56.2657 410.413 108.554 424.63C126.245 429.442 145.938 436.717 164.594 443.755C198.808 456.515 241.389 472.401 281.089 471.406C326.477 470.11 355.645 442.526 380.404 412.91C385.895 406.362 391.14 399.958 395.548 394.558C397.756 391.857 399.947 389.163 402.13 386.479C420.619 363.752 438.084 342.285 459.893 323.177C488.74 297.902 523.933 273.182 558.993 253.572C629.162 214.322 696.312 198.041 758.576 205.178C782.449 207.915 805.898 214.271 828.268 224.069C852.27 234.58 875.627 249.319 897.689 267.869C920.194 286.83 941.771 307.339 962.637 327.174C964.862 329.291 967.084 331.402 969.304 333.513C1014.11 376.146 1056.43 416.414 1105.72 447.628C1123.64 458.984 1142.48 469.845 1161.71 479.905C1185.71 492.403 1209.55 503.379 1232.57 512.525C1268.74 526.901 1313.76 544.791 1358.27 534.415C1382.38 528.795 1400.77 516.314 1414.48 496.262C1440.9 457.961 1445.6 399.454 1449.39 352.443C1450.74 335.63 1452.02 319.749 1454.13 306.908C1454.57 304.258 1455.01 301.594 1455.45 298.917C1459.4 274.729 1463.49 249.716 1470.6 225.306C1480.75 190.197 1501.06 142.589 1540.2 115.169C1551.12 107.519 1562.51 101.634 1575.03 97.1743C1592.44 90.9197 1611.83 87.9798 1632.68 88.4308C1651.71 88.8423 1672.03 92.0753 1693.07 98.0369C1728.76 108.148 1762.9 126.517 1791.78 151.158C1824.12 178.691 1851.37 213.919 1872.76 255.858C1882.58 275.101 1891.09 295.675 1898.04 317.007C1904.69 337.437 1909.95 358.616 1913.65 379.957L1912.54 380.148C1896.4 287.157 1852.11 204.006 1791.05 152.015C1762.29 127.481 1728.3 109.188 1692.76 99.1164C1648.93 86.6973 1608.35 86.3928 1575.41 98.2313C1562.98 102.657 1551.68 108.497 1540.84 116.088C1501.97 143.319 1481.78 190.682 1471.68 225.616C1464.59 249.962 1460.51 274.938 1456.56 299.094C1456.12 301.772 1455.68 304.438 1455.25 307.088C1453.13 319.882 1451.86 335.743 1450.51 352.531C1446.71 399.676 1442 458.353 1415.41 496.899C1408.8 506.564 1400.9 514.654 1391.92 520.936C1382.26 527.696 1371.02 532.6 1358.53 535.515C1349.5 537.612 1340.16 538.666 1330.36 538.666Z" fill="white"/><path d="M1345.63 544.154C1332.16 544.154 1317.9 541.978 1302.53 537.609C1280.78 531.428 1259.9 521.774 1241.48 513.258C1218.2 502.497 1194.34 489.968 1170.56 476.026C1151.43 464.78 1132.69 452.741 1114.85 440.251C1070.92 409.505 1033.38 371.839 993.629 331.96C987.131 325.441 980.41 318.701 973.744 312.074C950.308 288.792 930.296 269.594 908.815 251.585C865.526 215.345 817.555 195.707 766.231 193.216C701.739 190.084 632.659 212.972 560.914 261.242C525.273 285.223 490.179 314.622 462.099 344.027C440.945 366.179 424.407 390.293 406.9 415.822C404.731 418.984 402.554 422.158 400.363 425.335C396.46 431.003 391.293 438.473 385.96 445.962C363.517 477.554 334.196 510.079 286.899 511.742C285.424 511.79 283.944 511.812 282.466 511.812C245.533 511.812 207.827 497.203 169.253 480.891L166.845 479.865C147.738 471.714 129.689 464.016 112.983 458.412C50.0226 437.295 -10.8675 419.469 -56.8812 406.3L-56.5513 405.147C-10.5262 418.322 50.3808 436.15 113.363 457.276C130.115 462.894 148.184 470.603 167.316 478.763L169.721 479.789C209.709 496.699 248.759 511.781 286.857 510.547C333.629 508.901 362.705 476.627 384.982 445.272C390.312 437.788 395.473 430.324 399.376 424.658C401.567 421.479 403.741 418.308 405.91 415.145C423.446 389.577 440.008 365.424 461.23 343.201C489.367 313.735 524.531 284.276 560.243 260.247C593.389 237.946 626.545 220.822 658.791 209.347C695.789 196.181 731.957 190.352 766.287 192.018C817.876 194.521 866.09 214.254 909.582 250.663C931.094 268.7 951.126 287.918 974.584 311.22C981.254 317.847 987.974 324.589 994.475 331.109C1034.19 370.948 1071.69 408.578 1115.54 439.262C1133.35 451.738 1152.07 463.757 1171.16 474.986C1194.91 488.911 1218.73 501.42 1241.98 512.165C1278.46 529.035 1323.88 550.028 1369.07 540.577C1393.78 535.41 1412.28 522.856 1425.64 502.198C1451.73 462.153 1453.29 400.353 1454.56 350.696C1454.97 334.494 1455.36 319.189 1456.6 306.857L1456.63 306.575C1459.42 278.96 1462.3 250.407 1468.92 222.234C1474.64 197.661 1482.62 175.568 1492.62 156.564C1503.91 135.139 1517.81 117.596 1533.97 104.418C1544.78 95.6016 1556.21 88.5971 1568.92 83.0077C1603.26 67.8177 1645.34 65.4726 1690.62 76.2315C1708.84 80.5611 1726.81 87.1201 1744.04 95.7228C1761.37 104.376 1777.59 114.927 1792.26 127.075C1825.38 154.476 1852.84 190.036 1873.86 232.77C1892.76 271.181 1905.96 314.997 1912.02 359.479L1910.83 359.64C1897.86 264.436 1854.36 180.004 1791.49 127.997C1762.09 103.638 1727.11 86.1392 1690.34 77.4041C1645.33 66.7072 1603.51 69.027 1569.41 84.1126C1556.79 89.6598 1545.46 96.6079 1534.73 105.354C1504.57 129.959 1482.22 170.472 1470.09 222.513C1463.49 250.613 1460.61 279.127 1457.82 306.702L1457.8 306.984C1456.55 319.27 1456.17 334.553 1455.75 350.733C1454.49 400.542 1452.91 462.528 1426.65 502.855C1420.21 512.816 1412.36 521.08 1403.33 527.417C1393.59 534.249 1382.15 539.072 1369.32 541.758C1361.67 543.354 1353.8 544.154 1345.63 544.154Z" fill="white"/><path d="M287.777 551.057C271.262 551.057 253.278 547.841 232.981 541.273C212.814 534.748 192.87 525.74 174.319 516.979C170.96 515.384 167.627 513.791 164.316 512.21C147.835 504.337 132.268 496.902 117.718 491.109C59.7048 468.021 4.40717 447.27 -49.0715 427.207L-57.9325 423.881L-57.4869 422.694L-48.626 426.02C4.85556 446.089 60.1617 466.84 118.187 489.934C132.775 495.74 148.362 503.184 164.863 511.068C168.171 512.65 171.504 514.242 174.86 515.835C212.941 533.818 253.399 551.246 292.639 549.693C340.875 547.686 369.781 510.13 389.573 477.639C394.644 469.329 399.529 461.048 403.217 454.762C405.253 451.298 407.276 447.837 409.292 444.384C426.015 415.76 441.811 388.723 462.584 363.231C490.005 329.587 525.136 295.385 561.51 266.93C595.256 240.53 629.31 219.672 662.729 204.936C701.06 188.032 738.501 179.26 774.009 178.863C827.44 178.068 877.066 196.44 921.489 233.464C946.115 254.012 968.194 276.24 986.548 295.275C996.534 305.634 1006.52 316.252 1016.18 326.52C1050.37 362.873 1085.72 400.46 1125.37 430.905C1143.08 444.508 1161.67 457.688 1180.62 470.076C1204.07 485.373 1227.88 499.416 1251.4 511.812C1288.17 531.188 1333.92 555.302 1379.88 546.744C1405.18 542.034 1423.81 529.407 1436.81 508.14C1462.55 466.279 1460.81 401.094 1459.42 348.717C1459 333.229 1458.61 318.597 1459.08 306.817C1460.14 280.263 1461.73 249.401 1467.25 219.173C1471.9 193.56 1478.93 170.387 1488.12 150.301C1498.53 127.58 1511.86 108.531 1527.75 93.6821C1538.28 83.842 1550.08 75.4902 1562.82 68.855C1581 59.356 1601.4 53.3832 1623.45 51.1057C1644.11 48.972 1665.89 50.0938 1688.18 54.4374C1706.98 58.1017 1725.51 64.1281 1743.26 72.353C1761.12 80.6287 1777.77 90.9395 1792.74 102.998C1810.01 116.883 1825.88 133.279 1839.92 151.733C1853.23 169.217 1865.02 188.717 1874.97 209.688C1893.59 248.922 1905.84 293.643 1910.4 339.01L1909.13 339.137C1899.35 241.714 1856.63 156.006 1791.95 103.987C1762.32 80.1354 1725.38 62.9809 1687.94 55.6833C1641.63 46.6606 1598.57 51.6046 1563.41 69.9797C1550.77 76.5613 1539.07 84.8483 1528.62 94.6094C1498.68 122.588 1478.45 164.572 1468.5 219.401C1462.99 249.547 1461.4 280.356 1460.35 306.868C1459.88 318.605 1460.27 333.214 1460.68 348.683C1461.37 374.522 1462.15 403.811 1459.54 432.125C1456.5 464.98 1449.42 490.061 1437.9 508.802C1431.63 519.056 1423.84 527.498 1414.75 533.891C1404.94 540.797 1393.28 545.541 1380.12 547.99C1373.48 549.228 1366.84 549.789 1360.24 549.789C1320.74 549.789 1282.46 529.612 1250.81 512.931C1227.26 500.515 1203.41 486.453 1179.93 471.133C1160.95 458.728 1142.34 445.528 1124.6 431.905C1084.87 401.399 1049.48 363.772 1015.26 327.385C1005.6 317.12 995.617 306.505 985.637 296.152C967.309 277.139 945.261 254.942 920.68 234.433C876.497 197.607 827.161 179.342 774.029 180.126C690.589 181.061 612.831 228.385 562.294 267.922C525.993 296.321 490.933 330.449 463.572 364.026C442.86 389.442 427.087 416.436 410.389 445.015C408.373 448.468 406.348 451.929 404.312 455.396C400.62 461.685 395.733 469.972 390.659 478.29C382.351 491.929 369.308 511.784 352.031 526.667C343.641 533.894 334.713 539.574 325.494 543.551C315.214 547.985 304.176 550.476 292.692 550.953C291.065 551.023 289.427 551.057 287.777 551.057Z" fill="white"/><path d="M293.078 590.299C276.544 590.299 258.596 586.834 238.407 579.765C217.504 572.448 196.838 562.159 179.381 553.058C174.017 550.256 168.664 547.415 163.486 544.667C149.013 536.986 135.341 529.728 122.45 523.803C76.1573 502.522 30.1662 481.745 -14.3134 461.651C-29.0262 455.004 -44.2381 448.132 -58.9819 441.458L-58.4292 440.237C-43.6854 446.912 -28.4734 453.784 -13.7607 460.43C30.7189 480.525 76.7157 501.304 123.011 522.588C135.936 528.53 149.625 535.793 164.115 543.486C169.29 546.234 174.643 549.072 180.001 551.874C216.207 570.742 258.202 590.716 298.414 588.836C347.787 586.474 375.517 545.464 394.164 510.002C398.944 500.918 403.567 491.797 407.058 484.865C408.852 481.308 410.634 477.754 412.414 474.208C428.41 442.314 443.517 412.191 463.941 383.263C490.504 345.639 525.606 306.699 562.776 273.616C614.54 227.742 694.545 171.785 781.728 165.716C837.172 161.753 888.203 178.761 933.396 216.272C953.701 233.134 973.781 252.583 998.508 279.34C1011 292.862 1023.4 306.876 1035.4 320.426C1066.59 355.679 1098.85 392.133 1135.2 422.561C1152.81 437.306 1171.27 451.644 1190.08 465.18C1212.85 481.553 1236.65 497.129 1260.83 511.477C1297.96 533.381 1344.17 560.646 1390.69 552.928C1416.2 548.785 1435.47 535.72 1447.98 514.101C1473.36 470.346 1467.92 398.763 1463.94 346.496C1462.82 331.827 1461.77 317.973 1461.56 306.797C1461.1 281.959 1461.14 249.209 1465.59 216.131C1473.26 158.813 1492.09 114.007 1521.54 82.965C1531.86 72.0285 1543.7 62.5267 1556.72 54.7218C1575.24 43.6048 1596.14 36.1269 1618.84 32.4992C1640.23 29.083 1662.73 29.1365 1685.74 32.6599C1705.15 35.6984 1724.23 41.2061 1742.47 49.0252C1760.88 56.9232 1777.96 66.9859 1793.23 78.9343C1810.88 92.7403 1827 109.193 1841.15 127.839C1854.56 145.509 1866.31 165.285 1876.08 186.622C1894.41 226.682 1905.71 272.305 1908.77 318.56L1907.44 318.647C1900.85 219.001 1858.92 132.013 1792.4 79.9913C1762.24 56.3904 1724.29 40.0505 1685.54 33.9847C1637.76 26.6702 1593.45 34.2383 1557.41 55.8718C1544.5 63.6119 1532.76 73.0376 1522.52 83.8868C1493.26 114.723 1474.55 159.275 1466.92 216.312C1462.48 249.299 1462.44 281.984 1462.9 306.775C1463.11 317.911 1464.16 331.748 1465.28 346.397C1467.33 373.414 1469.66 404.039 1468.33 433.937C1466.78 468.751 1460.5 495.193 1449.14 514.775C1443.03 525.336 1435.31 533.961 1426.17 540.411C1416.27 547.404 1404.41 552.06 1390.92 554.253C1369.99 557.723 1347.47 554.605 1322.06 544.72C1299.98 536.126 1278.82 523.645 1260.15 512.635C1235.94 498.268 1212.1 482.67 1189.3 466.273C1170.47 452.718 1151.98 438.36 1134.34 423.595C1097.92 393.106 1065.62 356.612 1034.39 321.322C1022.41 307.775 1010.01 293.769 997.526 280.259C972.842 253.549 952.799 234.137 932.541 217.315C887.616 180.018 836.91 163.112 781.818 167.049C695.011 173.096 615.271 228.88 563.662 274.616C526.565 307.632 491.536 346.49 465.029 384.035C444.662 412.882 429.577 442.963 413.607 474.808C411.827 478.357 410.045 481.911 408.251 485.469C404.757 492.405 400.132 501.535 395.346 510.628C376.535 546.406 348.526 587.781 298.473 590.174C296.694 590.256 294.892 590.299 293.078 590.299Z" fill="white"/><path d="M298.487 629.544C253.308 629.544 205.904 601.811 163.881 577.223C150.967 569.669 138.77 562.532 127.179 556.497L-60.0312 459.035L-59.3798 457.787L127.831 555.249C139.453 561.298 151.664 568.443 164.595 576.008C208.242 601.546 257.716 630.491 304.19 627.982C354.651 625.262 381.234 580.8 398.755 542.373C404.486 529.804 410.019 517.016 415.372 504.647C430.011 470.823 445.147 435.846 465.291 403.293C481.287 377.446 501.158 350.338 522.755 324.905C546.447 297.003 571.814 271.404 598.146 248.82C627.18 223.923 656.701 203.327 685.887 187.607C718.169 170.221 749.972 158.87 780.419 153.867C841.41 143.847 896.883 159.053 945.291 199.07C985.521 232.322 1019.71 273.442 1052.78 313.208C1081.56 347.821 1111.32 383.61 1145.02 414.204C1183.95 449.539 1226.08 482.149 1270.25 511.122C1307.46 535.535 1353.77 565.92 1401.5 559.091C1441.81 553.323 1465.12 526.366 1472.75 476.672C1479.25 434.403 1473.07 384.261 1468.11 343.974C1466.42 330.244 1464.82 317.275 1464.04 306.758C1459.71 248.784 1462.47 200.925 1472.47 160.451C1478.7 135.199 1487.91 112.689 1499.82 93.547C1513.13 72.1645 1530.22 54.339 1550.61 40.5669C1568.25 28.6523 1588.13 19.9989 1609.7 14.8464C1630.23 9.94184 1651.85 8.29855 1673.96 9.96157C1717.43 13.2313 1759.96 29.1738 1793.7 54.8492C1811.73 68.5734 1828.11 85.0853 1842.37 103.923C1855.88 121.776 1867.59 141.831 1877.17 163.535C1895.21 204.42 1905.57 250.948 1907.13 298.085L1905.72 298.133C1902.4 197.754 1860.2 107.226 1792.84 55.9739C1721.31 1.54496 1619.77 -4.44475 1551.39 41.7367C1483.67 87.484 1455.55 174.139 1465.44 306.654C1466.22 317.137 1467.82 330.089 1469.51 343.802C1474.48 384.177 1480.67 434.425 1474.14 476.886C1470.59 500.014 1463.45 518.6 1452.92 532.133C1447 539.74 1439.86 545.958 1431.7 550.609C1423.02 555.559 1412.93 558.882 1401.7 560.489C1397.11 561.145 1392.44 561.475 1387.7 561.475C1370.4 561.475 1351.98 557.103 1331.79 548.247C1309.05 538.269 1287.1 523.871 1269.47 512.303C1225.24 483.287 1183.05 450.636 1144.07 415.25C1110.29 384.591 1080.5 348.76 1051.69 314.11C1018.66 274.394 984.514 233.326 944.386 200.158C896.302 160.415 841.21 145.307 780.639 155.259C658.114 175.391 531.901 298.331 466.481 404.037C446.391 436.5 431.274 471.429 416.655 505.208C411.299 517.582 405.763 530.379 400.027 542.959C388.394 568.471 376.905 586.739 363.87 600.444C355.734 608.995 346.907 615.738 337.634 620.482C327.323 625.755 316.094 628.755 304.254 629.394C302.342 629.493 300.416 629.544 298.487 629.544Z" fill="white"/></g></svg>