<svg width="680" height="88" viewBox="0 0 680 88" fill="none" xmlns="http://www.w3.org/2000/svg"><path d="M454.195 67.7286C453.534 67.7619 452.866 67.7852 452.218 67.8343C451.798 67.865 451.617 67.7781 451.336 67.7331C451.242 67.7174 451.141 67.6859 451.054 67.69C450.4 67.7232 449.746 67.7604 449.091 67.7976C448.892 67.8755 448.766 67.9789 448.459 68.0173C448.159 68.0537 447.804 68.0545 447.471 68.0731C447.03 68.0959 446.589 68.1188 446.148 68.1396C445.928 68.15 445.748 68.1881 445.675 68.2597C445.662 68.2717 445.809 68.3011 445.89 68.3188C446.157 68.3777 446.418 68.4446 446.713 68.4896C446.994 68.5326 447.341 68.4604 447.642 68.5153C448.318 68.6388 448.324 68.6368 448.839 68.6118C449.279 68.589 449.72 68.5642 450.161 68.5473C450.248 68.5432 450.348 68.5727 450.442 68.5884C450.723 68.6314 450.904 68.7302 451.318 68.6916C451.632 68.6611 451.979 68.6544 452.306 68.6378C452.581 68.6947 452.835 68.7596 453.129 68.8046C453.404 68.8476 453.484 68.8812 453.338 68.9391C453.205 68.993 453.018 69.0152 452.771 69.0197C452.55 69.0222 452.33 69.0405 452.11 69.051C451.996 69.0572 451.889 69.0614 451.782 69.0676C451.362 69.0904 451.362 69.0904 450.592 68.9651C450.291 68.9161 449.951 68.9864 449.663 68.9394C449.469 68.9081 449.302 68.8608 449.114 68.8275C449.034 68.8138 448.907 68.8121 448.807 68.8163C448.473 68.8309 448.139 68.8416 447.819 68.8681C447.592 68.8865 447.459 68.9423 447.486 68.9978C447.493 69.0197 447.653 69.0511 447.747 69.0528C447.961 69.0563 448.188 69.028 448.395 69.0414C448.595 69.0549 448.803 69.0941 448.95 69.1374C449.252 69.228 449.592 69.1459 449.879 69.1691C450.18 69.1942 450.428 69.273 450.716 69.32C450.789 69.3318 450.929 69.3116 451.043 69.3054C451.37 69.2908 451.698 69.2781 452.025 69.2635C452.299 69.3204 452.594 69.3714 452.841 69.4363C453.29 69.5544 453.772 69.5989 454.352 69.5401C454.679 69.5076 455 69.5188 455.261 69.5956C455.529 69.6743 455.837 69.6657 456.177 69.6491C456.491 69.6325 456.811 69.5881 457.132 69.643C457.828 69.7644 457.835 69.7704 458.656 69.7209C458.903 69.7065 459.09 69.7021 459.278 69.7473C459.452 69.7886 459.639 69.8239 459.82 69.8632C460.147 69.8485 460.481 69.8339 460.808 69.8173C461.229 69.7945 461.463 69.8218 461.564 69.9327C461.625 70 461.652 70.0615 461.8 70.1068C461.974 70.162 462.161 70.1595 462.415 70.1431C462.655 70.1287 462.829 70.1065 462.928 70.0348C462.968 70.0049 463.048 69.977 463.121 69.953C463.181 69.935 463.274 69.907 463.328 69.9109C463.428 69.9186 463.562 69.9401 463.596 69.9658C463.925 70.2052 463.925 70.2072 464.26 70.2759C464.628 70.3525 465.01 70.421 465.344 70.5076C465.646 70.5843 465.946 70.5499 466.273 70.5492C466.521 70.5486 466.681 70.5999 466.662 70.6515C466.649 70.6813 466.556 70.7252 466.475 70.7293C465.821 70.7705 465.16 70.8057 464.499 70.835C464.419 70.8391 464.318 70.8036 464.225 70.786C464.037 70.7507 463.87 70.6955 463.669 70.684C463.469 70.6726 463.235 70.7028 463.015 70.7133C462.794 70.7237 462.561 70.75 462.36 70.7346C462.16 70.7192 461.999 70.662 461.811 70.6247C461.724 70.607 461.604 70.5815 461.531 70.5876C461.043 70.6363 460.682 70.5717 460.334 70.4851C460.26 70.4674 460.133 70.4558 460.04 70.46C459.265 70.4955 458.497 70.5369 457.722 70.5763C457.409 70.5929 457.154 70.524 457.086 70.4071C457.052 70.3417 456.985 70.2763 456.984 70.2108C456.983 70.0918 456.615 70.0271 456.348 70.0416C455.907 70.0624 455.46 70.0793 455.026 70.1101C454.672 70.1347 454.371 70.1115 454.13 70.0406C453.848 69.9599 453.528 69.9765 453.208 69.999C452.967 70.0155 452.901 70.0811 452.916 70.2458C452.93 70.3787 452.817 70.4206 452.383 70.4434C451.836 70.4724 451.281 70.5015 450.727 70.5245C450.64 70.5287 450.54 70.4952 450.453 70.4775C450.265 70.4422 450.098 70.385 449.897 70.3736C449.697 70.3601 449.463 70.3904 449.243 70.4028C449.022 70.4133 448.789 70.4416 448.588 70.4281C448.388 70.4147 448.22 70.3555 448.04 70.3182C447.952 70.3006 447.845 70.275 447.759 70.2792C447.318 70.296 446.877 70.3208 446.436 70.3437C445.942 70.3686 445.942 70.3686 445.24 70.2471C444.918 70.1923 444.598 70.2367 444.284 70.2532C443.951 70.2699 443.637 70.2785 443.375 70.1997C443.201 70.1485 443.007 70.1172 442.8 70.1276C442.246 70.1526 441.698 70.1836 441.144 70.2087C441.051 70.2129 440.924 70.2032 440.85 70.1855C440.495 70.103 440.147 70.0383 439.653 70.0811C439.226 70.1177 438.765 70.1207 438.338 70.1554C438.104 70.1738 437.998 70.2376 438.045 70.2871C438.072 70.3128 438.213 70.3423 438.306 70.3421C438.52 70.3436 438.753 70.3133 438.954 70.3247C439.368 70.3476 439.577 70.5138 440.118 70.467C440.438 70.4385 440.772 70.4278 441.106 70.4191C441.193 70.4169 441.287 70.4544 441.38 70.4741C441.648 70.527 441.883 70.596 442.27 70.5594C442.59 70.5309 442.931 70.5222 443.258 70.5056C443.779 70.4786 443.779 70.4806 444.455 70.6001C444.776 70.657 445.096 70.6106 445.41 70.596C445.644 70.5856 445.864 70.5652 446.051 70.5926C446.339 70.6336 446.547 70.7284 446.901 70.7216C447.235 70.7149 447.562 70.6864 447.896 70.6757C448.103 70.6693 448.297 70.7006 448.465 70.7538C448.639 70.807 448.826 70.8304 449.053 70.818C449.38 70.8014 449.714 70.7808 450.048 70.7701C450.141 70.7679 450.249 70.7856 450.336 70.8012C450.523 70.8365 450.704 70.8778 450.884 70.9151C451.212 70.9025 451.546 70.8978 451.866 70.8732C452.113 70.8548 452.287 70.8624 452.488 70.9016C452.742 70.9546 452.95 71.0494 453.364 71.0028C453.571 70.9805 453.811 70.9859 454.018 70.9656C454.272 70.9393 454.446 70.9488 454.627 71.0079C454.968 71.1203 455.396 71.1213 455.836 71.0766C456.317 71.0279 456.678 71.0827 457.04 71.1692C457.422 71.2596 457.422 71.2576 457.718 71.4773C457.805 71.5406 458.052 71.5698 458.259 71.5574C458.607 71.5368 458.907 71.546 459.162 71.6209C459.43 71.7016 459.75 71.691 460.078 71.6684C460.511 71.6377 460.946 71.6109 461.301 71.7252C461.475 71.7804 461.662 71.7938 461.896 71.7794C462.557 71.7422 463.225 71.7189 463.872 71.6738C464.266 71.6451 464.494 71.7081 464.762 71.7611C465.123 71.8337 465.518 71.8983 465.519 72.0551C465.52 72.0809 465.613 72.1104 465.694 72.1301C465.868 72.1714 466.055 72.2067 466.236 72.246C466.504 72.3049 466.765 72.3539 467.132 72.3213C467.452 72.2948 467.793 72.2861 468.12 72.2675C468.447 72.2489 468.748 72.2383 469.043 72.3131C469.384 72.3976 469.745 72.4782 470.134 72.5408C470.408 72.5859 470.768 72.5077 471.063 72.5685C471.243 72.6058 471.417 72.6491 471.611 72.6804C471.692 72.6941 471.819 72.6839 471.925 72.6797C472.146 72.6713 472.373 72.6648 472.586 72.6445C472.833 72.6221 473.02 72.6257 473.208 72.6709C473.382 72.7122 473.556 72.7693 473.757 72.7808C474.058 72.7979 474.391 72.7178 474.692 72.8084C474.846 72.8537 475.041 72.897 475.241 72.9104C475.442 72.9238 475.675 72.8935 475.889 72.895C475.983 72.8948 476.096 72.9263 476.15 72.952C476.184 72.9658 476.137 73.0036 476.091 73.0236C476.031 73.0475 475.944 73.0795 475.857 73.0836C475.196 73.1208 474.535 73.1521 473.874 73.1873C473.48 73.208 473.48 73.208 472.684 73.0848C472.497 73.0555 472.29 73.0619 472.056 73.0763C471.742 73.0948 471.422 73.1293 471.094 73.0943C470.665 72.9604 470.137 72.9496 469.577 73.0025C469.343 73.0248 469.129 73.0253 468.955 72.988C468.587 72.9134 468.199 72.8448 467.871 72.7563C467.616 72.6874 467.496 72.6817 467.39 72.7772C467.357 72.807 467.324 72.8388 467.331 72.8666C467.372 72.9657 467.446 73.0628 467.487 73.1619C467.501 73.1897 467.448 73.2216 467.415 73.2514C467.309 73.335 467.168 73.3293 466.934 73.2604C466.699 73.1915 466.418 73.1465 466.044 73.1791C465.724 73.2076 465.377 73.2044 465.056 73.2349C464.562 73.2796 464.214 73.2169 463.859 73.1324C463.786 73.1147 463.659 73.1051 463.565 73.1092C462.57 73.1571 461.582 73.2109 460.587 73.2588C460.373 73.2692 460.179 73.2399 460.012 73.1867C459.838 73.1335 459.643 73.1061 459.43 73.1165C458.548 73.1602 457.667 73.1999 456.786 73.2534C456.425 73.2761 456.138 73.2509 455.89 73.182C455.702 73.1308 455.528 73.1153 455.294 73.1218C455.041 73.1284 454.861 73.1486 454.734 73.2064C454.614 73.2623 454.702 73.2958 454.969 73.3389C455.257 73.3858 455.525 73.4468 455.799 73.5017C456.02 73.4933 456.24 73.4769 456.454 73.4784C456.547 73.4782 456.634 73.5137 456.728 73.5334C456.996 73.5903 457.244 73.6473 457.624 73.6147C457.944 73.5862 458.285 73.5795 458.612 73.5609C459.066 73.538 459.066 73.538 459.802 73.6614C459.99 73.6927 460.19 73.6903 460.43 73.6719C460.637 73.6575 460.851 73.6848 460.999 73.744C461.059 73.7677 461.04 73.8075 460.914 73.9387C460.915 74.036 461.055 73.992 461.101 73.9284C461.174 73.8369 461.033 73.8075 460.766 73.8577C460.579 73.8938 460.487 73.9456 460.534 73.9872C460.561 74.009 460.688 74.0365 460.914 73.9387C461.501 73.8183 461.948 73.8034 462.376 73.7707C462.629 73.7523 462.79 73.7599 462.99 73.811C463.232 73.872 463.473 73.9369 463.867 73.9043C464.294 73.8676 464.748 73.8626 465.182 73.8319C465.583 73.8032 465.79 73.8901 466.045 73.9411C466.353 74.0019 466.693 73.9317 466.974 73.9668C467.268 74.0019 467.476 74.0887 467.817 74.1038C468.311 74.0491 468.625 74.1476 469 74.2123C469.295 74.2612 469.642 74.2168 469.955 74.1943C470.309 74.1696 470.603 74.1908 470.851 74.2617C471.133 74.3424 471.446 74.3239 471.767 74.3053C472.515 74.2639 472.541 74.2579 472.977 74.3661C473.291 74.4448 473.592 74.4084 473.906 74.3977C474.18 74.4507 474.448 74.5076 474.736 74.5546C474.809 74.5664 474.949 74.5462 475.063 74.54C475.39 74.5234 475.724 74.5068 476.051 74.4902C476.271 74.4797 476.505 74.4495 476.705 74.4609C476.906 74.4744 477.074 74.5315 477.254 74.5688C477.435 74.6061 477.622 74.6434 477.797 74.6827C478.064 74.7416 478.319 74.7907 478.692 74.7601C479.013 74.7336 479.347 74.7249 479.681 74.7063C480.101 74.6835 480.088 74.6895 480.871 74.8068C481.292 74.8713 481.726 74.791 482.153 74.7821C482.367 74.7776 482.574 74.799 482.722 74.8562C482.782 74.8799 482.763 74.9196 482.783 74.9533C481.681 75.0094 480.572 75.0575 479.484 75.1254C479.064 75.1522 478.842 75.0812 478.615 75.0222C478.24 74.9278 477.747 75.0678 477.391 74.9455C477.177 74.8726 476.869 74.8316 476.502 74.8682C476.289 74.8885 476.061 74.887 475.841 74.9054C475.28 74.9503 474.766 74.9534 474.317 74.8175C474.163 74.7702 473.942 74.7449 473.782 74.6997C473.594 74.6505 473.413 74.6231 473.193 74.6335C472.198 74.6833 471.21 74.7332 470.222 74.787C470.135 74.7912 470.048 74.8211 469.975 74.8431C469.788 74.8991 469.849 74.9426 470.15 74.9777C470.25 74.9894 470.331 75.015 470.424 75.0346C470.605 75.0719 470.773 75.1311 470.973 75.1445C471.174 75.1579 471.407 75.1296 471.628 75.1192C471.848 75.1088 472.082 75.0785 472.282 75.09C472.483 75.1034 472.65 75.1606 472.838 75.1959C472.925 75.2136 473.032 75.2431 473.119 75.2409C473.559 75.228 473.993 75.2052 474.434 75.1864C474.709 75.2393 474.943 75.3162 475.271 75.3333C475.478 75.3448 475.698 75.3224 475.912 75.3259C476.005 75.3277 476.126 75.3572 476.173 75.3829C476.2 75.3987 476.113 75.4386 476.047 75.4586C475.794 75.5346 475.446 75.5214 475.132 75.5459C474.792 75.5725 474.485 75.5653 474.223 75.4885C474.049 75.4373 473.855 75.4099 473.641 75.4203C473.087 75.4474 472.54 75.4784 471.985 75.5014C471.892 75.5056 471.778 75.488 471.691 75.4743C470.988 75.3548 470.988 75.3509 470.494 75.3778C469.766 75.4171 469.767 75.4171 469.278 75.313C469.184 75.2934 469.084 75.2559 469.003 75.2581C468.229 75.2916 467.461 75.325 466.693 75.3724C466.439 75.3869 466.266 75.3873 466.078 75.3361C465.917 75.2928 465.73 75.2436 465.529 75.2321C465.322 75.2207 465.095 75.251 464.875 75.2614C464.654 75.2718 464.421 75.2981 464.227 75.2827C464.026 75.2672 463.852 75.2121 463.678 75.1728C463.497 75.1315 463.304 75.1339 463.057 75.1503C462.295 75.1977 462.289 75.1918 461.533 75.0704C461.446 75.0567 461.332 75.0411 461.239 75.0453C460.684 75.0704 460.137 75.1014 459.582 75.1264C459.369 75.1368 459.161 75.1115 459.014 75.0543C458.953 75.0306 458.973 74.9908 458.932 74.9135C458.886 74.8958 458.939 74.9274 458.953 74.9572C459.053 74.953 459.173 74.9567 459.247 74.9406C459.433 74.9025 459.526 74.8527 459.479 74.8111C459.452 74.7893 459.325 74.7618 459.245 74.762C459.098 74.7623 458.972 74.8063 458.932 74.9135C458.512 74.98 458.065 74.9949 457.631 75.0276C457.377 75.048 457.217 75.0385 457.016 74.9873C456.775 74.9243 456.527 74.8634 456.133 74.896C455.706 74.9327 455.252 74.9397 454.811 74.9684C454.303 75.0013 454.081 74.8232 453.654 74.8281C453.213 74.8331 452.772 74.8678 452.332 74.8926C451.944 74.9133 451.944 74.9133 451.141 74.7861C450.847 74.7392 450.5 74.8094 450.213 74.7604C450.019 74.7291 449.851 74.6819 449.664 74.6486C449.583 74.6349 449.457 74.6351 449.356 74.6393C448.802 74.6644 448.241 74.6815 447.707 74.7264C447.1 74.7793 446.638 74.7248 446.203 74.6087C445.655 74.6318 445.101 74.6449 444.56 74.6838C444.166 74.7125 443.938 74.6475 443.671 74.5946C443.577 74.5769 443.497 74.5473 443.396 74.5396C443.296 74.5319 443.176 74.548 443.069 74.5542C442.628 74.577 442.174 74.588 441.747 74.6247C441.219 74.6715 441.018 74.5092 440.61 74.4903C440.337 74.5881 440.191 74.7214 439.65 74.7325C439.209 74.7415 438.769 74.7742 438.328 74.797C438.108 74.8075 437.887 74.8199 437.667 74.8303C437.313 74.8489 437.147 74.9267 437.221 75.0456C437.262 75.111 437.296 75.1764 437.33 75.2418C437.398 75.3587 437.232 75.4583 436.951 75.4729C436.177 75.5123 435.409 75.5537 434.634 75.5892C434.427 75.5996 434.226 75.5663 434.059 75.5131C433.885 75.4599 433.691 75.4365 433.477 75.4469C432.703 75.4863 431.935 75.5278 431.16 75.5632C431.073 75.5674 430.96 75.5478 430.873 75.5321C430.685 75.4968 430.504 75.4556 430.324 75.4183C429.883 75.4371 429.449 75.45 429.015 75.4748C428.314 75.5121 428.314 75.514 427.798 75.4061C427.705 75.3864 427.611 75.3489 427.524 75.3511C427.19 75.3598 426.863 75.3804 426.529 75.399C425.547 75.4528 425.547 75.4528 425.259 75.3939C424.998 75.3389 424.764 75.272 424.37 75.3046C423.943 75.3413 423.489 75.3542 423.048 75.375C422.721 75.3897 422.393 75.4063 422.066 75.411C421.979 75.4132 421.886 75.3757 421.792 75.356C421.524 75.2951 421.263 75.2461 420.896 75.2807C420.682 75.301 420.455 75.3055 420.235 75.3159C419.661 75.345 419.661 75.3449 418.717 75.228C418.624 75.2163 418.51 75.2027 418.417 75.2088C417.642 75.2463 416.874 75.2877 416.1 75.3232C416.006 75.3273 415.892 75.3157 415.799 75.306C414.742 75.1932 414.742 75.1933 413.62 75.2513C413.193 75.2721 413.18 75.2801 412.731 75.1759C412.53 75.1307 412.363 75.1093 412.129 75.1237C411.248 75.1733 410.36 75.2071 409.485 75.2646C409.091 75.2893 408.863 75.2302 408.596 75.1773C408.502 75.1596 408.402 75.1202 408.321 75.1223C407.44 75.162 406.558 75.2096 405.677 75.2493C405.597 75.2535 405.496 75.214 405.403 75.1963C405.222 75.161 405.048 75.1078 404.847 75.0964C404.64 75.0849 404.413 75.1152 404.186 75.1257C403.632 75.1527 403.632 75.1507 402.989 75.0351C402.902 75.0194 402.788 74.9978 402.702 75.002C401.82 75.0436 400.932 75.0794 400.057 75.1389C399.557 75.1718 399.215 75.115 398.861 75.0324C398.787 75.0147 398.66 75.0071 398.566 75.0113C397.571 75.0591 396.583 75.1129 395.588 75.1608C395.381 75.1712 395.18 75.1379 395.013 75.0867C394.745 75.0059 394.431 75.0166 394.097 75.0352C393.329 75.0786 393.323 75.0766 392.868 74.9824C392.774 74.9627 392.693 74.9371 392.593 74.9274C392.5 74.9177 392.379 74.9239 392.279 74.9281C391.838 74.949 391.398 74.9718 390.957 74.9946C390.516 75.0174 390.069 75.0303 389.635 75.065C389.101 75.1079 388.846 74.9795 388.471 74.9208C387.923 74.9478 387.362 74.9649 386.822 75.0078C386.408 75.0405 386.213 74.9536 385.939 74.9086C385.845 74.8929 385.745 74.8594 385.658 74.8636C384.663 74.9095 383.668 74.9593 382.68 75.0151C382.439 75.0276 382.279 75.0121 382.078 74.9649C381.629 74.8587 381.609 74.8628 380.862 74.9041C380.534 74.9227 380.22 74.9393 379.939 74.8586C379.691 74.7857 379.391 74.7685 379.037 74.7931C378.603 74.8238 378.155 74.8407 377.715 74.8616C377.274 74.8844 376.833 74.9151 376.392 74.926C376.038 74.9368 375.824 74.844 375.543 74.797C375.456 74.7833 375.336 74.7816 375.235 74.7858C374.795 74.8046 374.34 74.8195 373.913 74.8542C373.393 74.897 373.104 74.7886 372.736 74.7259C372.656 74.7122 372.522 74.7204 372.422 74.7266C371.647 74.7641 370.88 74.8055 370.105 74.8449C369.831 74.7919 369.55 74.741 369.275 74.688C368.834 74.7089 368.394 74.7317 367.953 74.7525C367.619 74.7691 367.278 74.7758 366.965 74.8063C366.558 74.8469 366.356 74.7541 366.082 74.7091C365.988 74.6934 365.888 74.6599 365.801 74.6641C365.247 74.6871 364.692 74.7122 364.145 74.7472C363.624 74.7821 363.415 74.6039 362.988 74.6069C362.547 74.6098 362.093 74.6367 361.666 74.6733C361.172 74.7161 360.824 74.6534 360.469 74.5689C360.395 74.5512 360.268 74.5415 360.175 74.5457C359.62 74.5708 359.073 74.6018 358.519 74.6268C358.425 74.631 358.312 74.6213 358.218 74.6096C357.161 74.4949 357.161 74.4929 356.701 74.5178C356.373 74.5344 356.04 74.555 355.706 74.5657C355.612 74.5698 355.498 74.5522 355.411 74.5365C354.715 74.4171 354.715 74.4151 354.214 74.44C353.774 74.4628 353.333 74.4856 352.892 74.5085C352.618 74.4555 352.337 74.4045 352.062 74.3516C351.515 74.3786 350.954 74.3997 350.413 74.4366C350.159 74.4531 349.992 74.4475 349.798 74.3983C349.557 74.3393 349.316 74.2704 348.915 74.305C348.488 74.3417 348.034 74.3467 347.6 74.3774C347.079 74.4143 346.864 74.2342 346.443 74.2372C346.002 74.2401 345.548 74.267 345.121 74.3036C344.627 74.3464 344.279 74.2837 343.924 74.1992C343.85 74.1815 343.723 74.1718 343.63 74.176C342.414 74.2363 341.206 74.2965 339.991 74.3608C339.243 74.4002 339.243 74.4021 337.819 74.2962C337.719 74.2885 337.611 74.2808 337.511 74.285C337.07 74.3038 336.616 74.3187 336.189 74.3534C335.668 74.3963 335.38 74.2898 335.012 74.2251C334.932 74.2114 334.805 74.2196 334.698 74.2238C334.364 74.2385 334.037 74.2571 333.703 74.2737C333.262 74.2965 332.822 74.3193 332.381 74.3421C332.107 74.2912 331.826 74.2382 331.551 74.1872C331.004 74.2142 330.443 74.2294 329.902 74.2723C329.488 74.305 329.293 74.2221 329.019 74.1751C328.925 74.1594 328.825 74.1259 328.738 74.1281C327.743 74.1739 326.748 74.2218 325.76 74.2796C325.353 74.3043 325.165 74.2154 324.89 74.1704C324.797 74.1567 324.69 74.1312 324.603 74.1353C323.942 74.1646 323.281 74.1998 322.62 74.235C322.246 74.2557 322.246 74.2557 321.429 74.1345C321.336 74.1208 321.229 74.1072 321.135 74.1114C319.039 74.2153 316.948 74.3252 314.852 74.4291C314.638 74.4395 314.444 74.4102 314.277 74.357C314.102 74.3038 313.908 74.2764 313.695 74.2868C312.813 74.3305 311.925 74.3702 311.05 74.4237C310.69 74.4464 310.402 74.4212 310.154 74.3523C309.967 74.3011 309.793 74.2817 309.559 74.2941C309.119 74.3189 308.678 74.3397 308.237 74.3626C307.797 74.3854 307.356 74.4082 306.915 74.431C306.474 74.4538 306.027 74.4667 305.593 74.5015C305.059 74.5443 304.797 74.4219 304.429 74.3612C303.768 74.3924 303.107 74.4237 302.453 74.4569C301.571 74.5005 300.69 74.5482 299.808 74.5898C299.728 74.594 299.628 74.5585 299.534 74.5408C299.26 74.4918 299.058 74.4228 298.651 74.4456C296.675 74.5552 294.685 74.649 292.702 74.7566C292.288 74.7794 292.106 74.6944 291.825 74.6494C291.732 74.6357 291.625 74.6082 291.538 74.6124C290.436 74.6644 289.334 74.7225 288.232 74.7785C287.785 74.8013 287.785 74.8013 287.036 74.68C286.949 74.6663 286.835 74.6487 286.741 74.6529C285.306 74.7236 283.877 74.7982 282.441 74.8709C282.227 74.8813 282.033 74.8539 281.859 74.8008C281.692 74.7476 281.491 74.7182 281.284 74.7286C279.962 74.7951 278.633 74.8596 277.318 74.932C276.964 74.9526 276.67 74.9354 276.415 74.8646C276.234 74.8134 276.054 74.7919 275.827 74.8044C273.843 74.906 271.86 75.0038 269.877 75.1114C269.496 75.1321 269.229 75.095 268.988 75.0301C268.793 74.9789 268.626 74.9694 268.386 74.9778C268.132 74.9883 267.979 75.0105 267.839 75.0703C267.659 75.1481 267.547 75.2456 267.119 75.2525C266.678 75.2595 266.231 75.2843 265.797 75.319C265.383 75.3537 265.189 75.2648 264.927 75.2118C264.733 75.1745 264.553 75.169 264.306 75.1874C264.079 75.2038 263.939 75.2378 263.806 75.3016C263.513 75.4372 263.487 75.4373 263.125 75.3528C262.931 75.3076 262.757 75.2722 262.543 75.2807C261.662 75.3223 260.78 75.368 259.899 75.4156C259.391 75.4425 259.385 75.4465 259.003 75.3481C258.816 75.2989 258.635 75.2755 258.415 75.2879C255.991 75.4124 253.567 75.533 251.143 75.6634C250.769 75.6841 250.515 75.643 250.247 75.5841C250.16 75.5644 250.073 75.5368 249.972 75.5291C249.872 75.5214 249.759 75.5296 249.652 75.5338C247.889 75.6231 246.119 75.7084 244.363 75.8076C243.963 75.8304 243.748 75.7673 243.474 75.7164C243.38 75.6987 243.3 75.6711 243.199 75.6634C243.099 75.6577 242.979 75.6718 242.872 75.678C241.109 75.7673 239.34 75.8526 237.584 75.9518C237.163 75.9746 236.982 75.8917 236.708 75.8486C236.614 75.833 236.513 75.8034 236.427 75.8076C235.872 75.8306 235.325 75.8616 234.771 75.8887C233.448 75.9571 232.126 76.0216 230.804 76.0921C230.297 76.119 230.074 75.9429 229.647 75.9518C229.093 75.9629 228.545 76.0038 227.991 76.0329C227.55 76.0557 227.109 76.0765 226.669 76.1013C226.235 76.1241 226.235 76.1241 225.151 76.0115C225.058 76.0017 224.944 75.9881 224.851 75.9923C223.308 76.0692 221.759 76.1461 220.223 76.2289C219.869 76.2476 219.575 76.2383 219.321 76.1654C219.14 76.1143 218.953 76.0889 218.732 76.1013C216.415 76.2196 214.105 76.3379 211.787 76.4542C211.701 76.4584 211.587 76.4388 211.5 76.4231C211.313 76.3878 211.132 76.3465 210.951 76.3092C210.818 76.3552 210.645 76.3972 210.558 76.449C210.439 76.5187 210.278 76.539 210.025 76.5514C209.771 76.5639 209.611 76.5603 209.41 76.5092C209.169 76.4462 208.921 76.3971 208.527 76.4178C206.103 76.5483 203.679 76.6669 201.255 76.7953C200.855 76.8161 200.667 76.7292 200.386 76.6842C200.292 76.6705 200.185 76.6489 200.098 76.6531C199.103 76.701 198.115 76.7528 197.12 76.8026C194.362 76.9438 191.604 77.0789 188.853 77.228C188.353 77.2549 188.011 77.2061 187.656 77.1215C187.583 77.1038 187.456 77.0942 187.362 77.0984C183.503 77.2936 179.643 77.4907 175.79 77.6879C175.583 77.6983 175.382 77.667 175.215 77.6158C175.041 77.5626 174.847 77.5372 174.633 77.5476C172.87 77.6369 171.107 77.7262 169.345 77.8175C168.904 77.8403 168.897 77.8423 168.442 77.748C168.348 77.7284 168.248 77.6909 168.174 77.6951C168.021 77.7053 167.874 77.7553 167.768 77.823C167.662 77.8946 167.495 77.9149 167.248 77.9293C166.994 77.9438 166.827 77.9382 166.633 77.891C166.385 77.832 166.157 77.775 165.757 77.7958C160.689 78.0611 155.62 78.3166 150.552 78.58C150.145 78.6007 149.957 78.5178 149.676 78.4728C149.582 78.4591 149.489 78.4395 149.388 78.4357C149.281 78.432 149.168 78.4442 149.061 78.4504C140.794 78.8717 132.528 79.2951 124.261 79.7165C123.767 79.7414 123.774 79.7414 123.234 79.9252C123.168 79.9472 123.081 79.9771 122.987 79.9813C120.457 80.114 117.919 80.2427 115.382 80.3714C114.28 80.4275 113.178 80.4855 112.076 80.5396C111.683 80.5583 111.683 80.5583 110.743 80.7748C110.663 80.7928 110.569 80.8168 110.476 80.821C106.069 81.0472 101.661 81.2734 97.2475 81.4956C96.9003 81.5123 96.6201 81.5486 96.4606 81.6442C96.3477 81.7119 96.2011 81.752 95.9808 81.7644C92.8958 81.9221 89.8109 82.0818 86.7192 82.2356C86.3519 82.2543 86.1319 82.3103 85.9523 82.3941C85.8924 82.422 85.8392 82.4539 85.7526 82.4739C85.6726 82.4919 85.5524 82.4982 85.4523 82.5043C82.808 82.6393 80.1638 82.7782 77.5128 82.9071C77.1188 82.9259 76.9591 82.9997 76.7661 83.0775C76.6995 83.1034 76.653 83.1393 76.5664 83.1573C76.4797 83.1734 76.3527 83.1737 76.2459 83.1779C74.0423 83.29 71.8388 83.4041 69.6352 83.5162C69.2076 83.5072 69.1151 83.6225 68.9087 83.6924C68.8354 83.7164 68.7824 83.7483 68.6957 83.7643C68.6023 83.7804 68.4819 83.7787 68.3683 83.7829C66.6055 83.8722 64.8427 83.9675 63.0731 84.0508C62.6658 84.0696 62.5865 84.171 62.3667 84.2409C62.2934 84.2629 62.2203 84.2968 62.1336 84.303C61.0318 84.363 59.9301 84.419 58.8282 84.4731C58.461 84.4918 58.461 84.4898 57.8148 84.6877C57.7415 84.7097 57.6548 84.7337 57.5613 84.7399C55.912 84.8269 54.256 84.91 52.6 84.9951C52.3863 85.0055 52.2398 85.0534 52.1336 85.1211C52.0273 85.1889 51.8741 85.2329 51.6604 85.2433C50.3383 85.3117 49.0161 85.3821 47.6939 85.4446C47.3266 85.4613 47.0866 85.5115 46.9271 85.6011C46.8075 85.6689 46.6609 85.7029 46.4272 85.7154C45.105 85.7818 43.7829 85.8543 42.454 85.9128C42.0667 85.9296 41.8668 85.9975 41.7073 86.0812C41.581 86.1489 41.4342 86.1731 41.1872 86.1855C38.7632 86.3061 36.3326 86.4266 33.9155 86.559C33.5082 86.5818 33.3004 86.5128 33.0327 86.4638C32.6512 86.3952 32.2965 86.3206 32.2951 86.1658C32.2949 86.142 32.181 86.1144 32.1006 86.0948C31.5047 85.9473 31.5047 85.9473 31.4096 85.7888C31.3553 85.6916 31.2942 85.5926 31.2465 85.4935C31.1581 85.3309 30.9439 85.2897 30.3296 85.3209C30.1092 85.3313 29.8889 85.3457 29.6685 85.3541C29.3413 85.3687 29.0935 85.3038 29.0323 85.1849C28.9982 85.1195 28.9576 85.0541 28.9236 84.9887C29.2575 84.972 29.2507 84.9701 29.8363 84.7286C30.0825 84.6269 30.0826 84.6269 29.6074 84.5267C29.4266 84.4894 29.2525 84.4481 29.0584 84.4129C28.9714 84.3972 28.8578 84.3875 28.7643 84.3917C28.21 84.4167 27.6625 84.4458 27.115 84.4748C26.2336 84.5204 26.2334 84.5204 25.3363 84.32C25.2627 84.3043 25.1489 84.2748 25.1621 84.2589C25.2349 84.1853 25.4149 84.1531 25.642 84.1447C25.9759 84.132 26.303 84.1115 26.6302 84.0948C26.8506 84.0844 27.0709 84.072 27.2913 84.0616C27.4977 83.9858 27.7109 83.9119 27.9039 83.834C28.2101 83.7143 28.2099 83.7103 27.7883 83.6279C27.5205 83.5729 27.2328 83.524 26.9584 83.473C26.6312 83.4896 26.2974 83.5082 25.9702 83.5228C25.5561 83.5416 25.3887 83.5043 25.2806 83.3755C25.186 83.2626 25.2987 83.1652 25.6191 83.1406C25.9463 83.1161 26.2536 83.0995 26.4196 82.9979C26.579 82.9004 26.8592 82.862 27.2065 82.8533C27.4269 82.8468 27.6472 82.8325 27.8676 82.8201C28.1547 82.8035 28.3075 82.702 28.2463 82.589C28.2122 82.5157 28.1448 82.4543 27.8841 82.439C26.7277 82.3722 26.7143 82.3742 26.1385 82.2405C26.0849 82.2287 26.0446 82.1931 26.0644 82.1752C26.0976 82.1454 26.1707 82.1015 26.2508 82.0954C27.0186 82.05 27.7865 82.0086 28.5545 81.9771C28.8082 81.9666 28.9952 81.9523 29.0813 81.8787C29.2006 81.7772 29.1463 81.6841 28.9118 81.6151C28.8382 81.5935 28.7175 81.566 28.6374 81.5681C27.7559 81.6058 26.8812 81.6534 25.9997 81.6911C25.9196 81.6953 25.7724 81.6619 25.7387 81.6362C25.6715 81.5887 25.771 81.525 26.0046 81.5026C26.3116 81.4722 26.6256 81.4695 26.8318 81.3698C27.1177 81.2282 27.4705 81.0985 27.7899 80.9628C27.8431 80.9389 27.9297 80.893 27.9096 80.8891C27.7422 80.8458 27.5481 80.8125 27.374 80.7712C27.0794 80.7025 27.0784 80.6052 27.1443 80.5118C27.1971 80.4363 27.3972 80.4061 27.6444 80.4055C27.7513 80.4053 27.8849 80.405 27.9716 80.3869C28.1983 80.3428 28.2713 80.287 28.1573 80.2456C28.0903 80.2219 27.9698 80.1885 27.8896 80.1926C26.4606 80.2613 25.0248 80.328 23.6026 80.4126C23.1819 80.4373 22.9876 80.3624 22.7333 80.3094C22.5391 80.2681 22.3585 80.2527 22.1183 80.283C21.8914 80.3112 21.6709 80.2959 21.53 80.2307C21.4159 80.1774 21.6158 80.1313 22.1565 80.0785C22.2566 80.0683 22.3701 80.0621 22.4434 80.0421C23.2163 79.8261 23.2162 79.8241 23.7504 79.7951C24.2713 79.7681 24.2714 79.7662 24.5442 79.6505C24.6706 79.5966 24.8103 79.5427 24.93 79.4869C24.9766 79.4649 25.0565 79.425 25.0296 79.4132C24.8821 79.352 24.6814 79.3386 24.4478 79.353C23.927 79.3879 23.3122 79.3615 23.0401 79.5506C22.9339 79.6223 22.767 79.6425 22.5266 79.655C20.1094 79.7755 17.6921 79.904 15.2681 80.0205C14.8741 80.0393 14.6945 80.1131 14.5416 80.1948C14.4087 80.2626 14.2618 80.2827 14.0081 80.2952C13.7543 80.3077 13.5539 80.3141 13.4063 80.2489C13.3191 80.2094 13.392 80.1537 13.5919 80.0977C13.8785 80.0177 13.8241 79.9186 13.7296 79.8255C13.6623 79.7642 13.4548 79.721 13.2343 79.7254C12.9071 79.7341 12.5934 79.7566 12.3187 79.6779C12.158 79.6326 11.9572 79.6013 11.7764 79.562C11.4283 79.4814 11.0801 79.3989 10.5929 79.4535C10.2587 79.4344 10.0242 79.3635 9.75647 79.3086C9.30802 79.2183 9.2678 79.2045 9.58755 79.1065C9.94727 78.9966 9.66529 78.8543 9.8647 78.7467C10.0774 78.6311 10.3705 78.5293 10.63 78.4216C10.6966 78.3936 10.7565 78.3677 10.823 78.3398C10.669 78.3004 10.5282 78.2511 10.3476 78.2237C10.1135 78.1886 9.99279 78.1452 10.005 78.0221C9.95806 78.0043 9.97839 78.0499 10.0319 78.0617C10.0922 78.0735 10.2392 78.0633 10.3125 78.0492C10.4992 78.0111 10.5922 77.9612 10.545 77.9197C10.5181 77.8979 10.391 77.8704 10.3108 77.8706C10.1639 77.8709 10.0374 77.9149 9.9983 78.0221C9.25084 78.1052 8.47615 78.1466 7.7015 78.1801C7.62137 78.1842 7.52085 78.1448 7.42714 78.1251C7.11919 78.0583 7.11917 78.0603 6.21711 78.0425C6.12356 78.0407 5.99644 78.0132 5.94941 77.9856C5.75453 77.8649 5.76001 77.732 5.66527 77.6032C5.83818 77.5195 6.01097 77.4377 6.19058 77.3559C6.54978 77.1904 7.01615 77.0445 7.29504 76.8633C7.23399 76.7662 7.1529 76.6692 7.4461 76.5891C8.28023 76.488 8.2736 76.4881 8.49984 76.3923C9.14532 76.121 9.78405 75.8477 10.4563 75.5802C10.636 75.5104 10.6357 75.4727 10.3147 75.4436C10.2144 75.4359 10.1074 75.4342 10.0005 75.4384C9.66664 75.453 9.33295 75.4895 9.00553 75.4823C8.67813 75.4771 8.4368 75.3903 8.16908 75.3373C7.89465 75.2824 7.62022 75.2254 7.34577 75.1685C7.03184 75.1752 6.71844 75.2314 6.40361 75.1428C6.16245 75.0739 5.86138 75.025 5.58694 74.968C5.79261 74.8168 6.17906 74.7008 6.47843 74.5672C6.75119 74.4455 6.75774 74.4475 7.49173 74.3526C7.8387 74.3081 7.95685 74.0836 7.66228 74.0188C7.30747 73.9402 6.93274 73.8676 6.57128 73.793C6.25735 73.7997 5.93725 73.854 5.63579 73.7654C5.40133 73.6984 5.13363 73.6534 4.7464 73.6801C4.09211 73.7252 3.42428 73.7485 2.76324 73.7857C2.53622 73.7981 2.28889 73.7908 2.18804 73.7235C2.12079 73.676 2.31392 73.6101 2.53425 73.5957C2.86809 73.5751 3.16846 73.5507 3.33454 73.4511C3.49394 73.3515 3.78757 73.321 4.13483 73.3064C4.22832 73.3022 4.33506 73.2781 4.3816 73.2542C4.62101 73.1386 4.88732 73.0388 5.40176 73.0416C5.61517 73.0014 5.7282 72.9515 5.66094 72.9041C5.62062 72.8784 5.48008 72.845 5.39995 72.8491C4.84565 72.8702 4.29137 72.8913 3.75058 72.9282C3.49687 72.9447 3.30306 72.9491 3.14217 72.8899C3.02823 72.8504 3.08784 72.7967 3.30108 72.7387C3.48766 72.6887 3.54062 72.631 3.52663 72.5636C3.49175 72.4069 3.29086 72.3617 2.64962 72.3731C2.18874 72.382 2.07492 72.3565 1.97344 72.2218C1.94642 72.1901 1.87932 72.1466 1.92587 72.1246C2.21187 71.9891 2.39736 71.822 2.93789 71.7572C3.15144 71.7329 3.37849 71.7324 3.51162 71.6805C3.64474 71.6286 3.76449 71.5688 3.90431 71.5189C4.07745 71.459 4.19706 71.4032 4.11654 71.3657C3.98229 71.2985 3.76853 71.293 3.52157 71.3174C3.30798 71.3377 3.08086 71.3402 2.86052 71.3526C2.46657 71.3753 2.14549 71.3244 2.0979 71.2372C1.9688 71.0073 1.833 70.7794 1.71726 70.5495C1.70364 70.5217 1.73661 70.4859 1.78983 70.462C1.9761 70.3782 2.17585 70.2984 2.36882 70.2166C2.59508 70.1228 2.95606 70.1399 3.2632 70.1213C3.69719 70.0946 3.69706 70.0965 4.27647 69.9047C4.5029 69.8288 4.89735 69.8577 5.13054 69.7897C5.20382 69.7677 5.31705 69.7317 5.29682 69.7119C5.26986 69.6862 5.13613 69.6667 5.03581 69.655C4.94217 69.6433 4.82857 69.6376 4.72842 69.6438C3.5131 69.704 2.30453 69.7683 1.08919 69.8266C0.882185 69.837 0.654628 69.7938 0.580562 69.7325C0.506533 69.6751 0.525855 69.6056 0.511877 69.5401C0.704846 69.4583 0.924509 69.3824 1.0907 69.2947C1.217 69.227 1.36371 69.1969 1.61754 69.1923C1.95151 69.1856 2.27867 69.1611 2.65261 69.1424C3.34466 68.8511 4.02317 68.546 4.76866 68.2546C5.06818 68.1368 4.99369 68.0179 5.05264 67.8928C5.11168 67.7775 5.55942 67.7944 5.85973 67.76C6.09996 67.7317 6.17943 67.668 6.08549 67.6245C6.0318 67.5989 5.91134 67.5694 5.81781 67.5696C5.59735 67.5701 5.37706 67.5884 5.1567 67.5988C4.93634 67.6093 4.68243 67.6039 4.50237 67.638C4.32898 67.6702 4.21598 67.7379 4.10295 67.7957C3.97662 67.8595 3.80993 67.8817 3.5561 67.8862C3.22879 67.8909 2.90163 67.9095 2.57442 67.9241C2.21294 67.8475 1.83804 67.773 1.48988 67.6924C1.42293 67.6767 1.40906 67.6311 1.41546 67.6013C1.4281 67.5239 1.32746 67.4765 1.10665 67.4393C0.919295 67.4079 0.765199 67.3626 0.59113 67.3233C0.724236 67.2695 0.870774 67.2175 0.977121 67.1597C1.2098 67.0382 1.50295 66.9502 2.01072 66.953C2.2104 66.8752 2.36979 66.7796 2.62983 66.7254C2.87652 66.6733 3.29791 66.7239 3.48386 66.6064C3.57684 66.5487 3.7166 66.4829 3.89675 66.4586C4.18366 66.4203 4.55795 66.4393 4.72391 66.3278C4.82353 66.2641 4.9699 66.2062 5.16348 66.1899C5.38377 66.1715 5.61082 66.1671 5.77079 66.129C5.85745 66.109 5.9507 66.077 5.95043 66.0492C5.95027 66.0314 5.8165 66.0039 5.72286 65.9922C5.63588 65.9785 5.52209 65.9688 5.42191 65.973C5.088 65.9857 4.76086 66.0082 4.42695 66.0209C4.33346 66.0251 4.22647 66.0114 4.12615 65.9997C3.8319 65.9686 3.85153 65.9289 4.08468 65.857C4.31785 65.787 4.48411 65.6973 4.67708 65.6155C4.89073 65.6011 5.15796 65.6065 5.30458 65.5684C5.55118 65.5064 5.72399 65.4167 5.92368 65.3388C6.14402 65.3264 6.37111 65.322 6.578 65.2997C6.66478 65.2915 6.70448 65.2478 6.77773 65.2218C6.91087 65.1719 7.02386 65.1002 7.20401 65.076C7.49762 65.0396 7.85849 65.0527 8.03116 64.9432C8.13077 64.8795 8.28372 64.8117 8.47074 64.8073C8.99175 64.7982 9.21119 64.6885 9.47744 64.5847C9.67713 64.5069 10.1051 64.5456 10.3248 64.4677C10.4713 64.4178 10.5777 64.356 10.7242 64.3081C10.7841 64.2881 10.9109 64.2779 11.0111 64.2717C11.5586 64.2407 12.1129 64.2176 12.6604 64.1847C12.7472 64.1785 12.8271 64.1486 12.8937 64.1246C13.0335 64.0727 13.1196 64.0011 13.293 63.967C13.4663 63.9328 13.7135 63.9323 13.9272 63.9219C14.615 63.8906 14.6686 63.8984 14.981 63.729C15.2335 63.5915 15.8558 63.6874 16.0615 63.5361C16.1809 63.4485 16.4006 63.3766 16.7947 63.3658C17.349 63.3506 17.8965 63.3117 18.4507 63.2846C18.9448 63.2597 18.9382 63.2597 19.4709 63.074C19.7106 62.9901 20.0649 63.0012 20.3787 62.9846C20.7126 62.968 21.0196 62.9435 21.179 62.844C21.3384 62.7464 21.632 62.7139 21.9726 62.6993C22.2865 62.6847 22.6407 62.6938 22.8871 62.6139C23.4866 62.422 23.4799 62.4201 23.9006 62.3993C24.5617 62.366 25.2227 62.3328 25.8838 62.2976C26.3245 62.2748 26.7854 62.2698 27.1992 62.2252C27.4995 62.1928 27.632 62.0813 27.825 62.0035C28.3726 61.9725 28.9201 61.9415 29.4676 61.9125C30.2355 61.8711 31.0101 61.8336 31.7847 61.7942C32.118 61.718 32.1633 61.5512 32.7244 61.5421C33.0584 61.5373 33.3855 61.5108 33.7194 61.4942C34.2736 61.4652 34.821 61.4282 35.3754 61.4131C35.7962 61.4022 35.8685 61.2949 36.0884 61.2269C36.1616 61.2029 36.2282 61.1691 36.315 61.1629C37.1829 61.1054 38.0779 61.0915 38.9256 61.0082C39.0124 61.0001 39.0922 60.9582 39.1119 60.9284C39.1251 60.9125 39.0113 60.883 38.9377 60.8693C38.8507 60.8536 38.737 60.838 38.6435 60.8422C35.8857 60.9813 33.128 61.1224 30.3701 61.2616C29.9828 61.2823 29.9828 61.2803 29.0429 61.5007C28.9629 61.5187 28.8695 61.5388 28.7693 61.545C28.3286 61.5698 27.8812 61.5847 27.4472 61.6154C27.0934 61.64 26.7993 61.6169 26.5448 61.546C26.3639 61.4948 26.1766 61.4794 25.9495 61.4838C25.6957 61.4904 25.529 61.5126 25.3825 61.5665C25.1895 61.6403 25.0902 61.7358 24.6828 61.7565C22.8064 61.8461 20.9299 61.9456 19.0602 62.041C18.7994 62.0138 18.6721 61.9724 18.7385 61.9227C18.7783 61.8928 18.8581 61.853 18.9382 61.8488C19.7061 61.8054 20.4807 61.768 21.2486 61.7266C21.3554 61.7204 21.5024 61.724 21.5623 61.704C21.8554 61.614 21.9611 61.469 22.5155 61.4578C22.8361 61.4511 23.1631 61.4206 23.4701 61.3922C23.5569 61.384 23.6367 61.3422 23.6565 61.3124C23.663 61.2965 23.5558 61.2669 23.4755 61.2532C23.181 61.1963 22.8411 61.2666 22.5467 61.2275C22.4464 61.2139 22.3058 61.1943 22.2856 61.1706C22.272 61.1488 22.3852 61.1128 22.4652 61.0908C22.5385 61.0708 22.6385 61.0527 22.7386 61.0465C23.62 60.9989 24.5016 60.9493 25.3831 60.9116C25.7437 60.8969 25.997 60.8467 26.1565 60.7551C26.2761 60.6873 26.4227 60.6513 26.6498 60.6409C28.1923 60.564 29.7347 60.4792 31.2839 60.4082C31.6713 60.3915 31.8712 60.3255 32.0307 60.2399C32.157 60.1721 32.3037 60.148 32.5508 60.1355C34.7611 60.0273 36.9579 59.9073 39.1682 59.8031C39.5755 59.7844 39.6951 59.6988 39.9015 59.6249C39.9747 59.5989 40.0211 59.5671 40.1144 59.551C40.2078 59.5349 40.3281 59.5366 40.4416 59.5324C42.2045 59.4431 43.9674 59.3479 45.737 59.2645C46.151 59.2457 46.2301 59.1463 46.4433 59.0764C46.5165 59.0544 46.5831 59.0185 46.6699 59.0124C47.992 58.9419 49.3141 58.8755 50.6362 58.807C51.5176 58.7614 52.399 58.7158 53.2805 58.6721C53.7145 58.6513 53.7145 58.6493 54.3006 58.4595C54.3672 58.4375 54.4606 58.4115 54.5474 58.4053C57.0848 58.2726 59.6155 58.1459 62.153 58.0152C62.3667 58.0048 62.5198 57.9588 62.6261 57.8911C62.7324 57.8234 62.8857 57.7774 63.0927 57.767C65.0759 57.6633 67.0591 57.5617 69.049 57.4639C69.4096 57.4472 69.663 57.399 69.8224 57.3094C69.9421 57.2417 70.0887 57.2056 70.3157 57.1952C72.299 57.0955 74.2822 56.9898 76.2722 56.8941C76.6528 56.8754 76.8392 56.8075 77.0255 56.7277C77.092 56.6997 77.1451 56.654 77.2252 56.6498C78.2134 56.5921 79.1948 56.5323 80.1899 56.4924C80.6039 56.4756 80.7435 56.3919 80.9098 56.3121C81.0428 56.2483 81.1963 56.2262 81.45 56.2177C82.0044 56.1986 82.5518 56.1636 83.0926 56.1287C83.1728 56.1225 83.2726 56.0787 83.279 56.0509C83.2919 55.9992 83.1378 55.9639 82.8838 55.9466C80.2395 56.0815 77.5886 56.2164 74.9443 56.3513C74.5103 56.3741 74.5103 56.3741 73.9241 56.564C73.8575 56.586 73.7642 56.612 73.6707 56.6181C71.1333 56.7488 68.6026 56.8776 66.0651 57.0083C65.8514 57.0187 65.6982 57.0646 65.592 57.1324C65.4857 57.2001 65.3324 57.2461 65.1254 57.2564C62.7015 57.3809 60.2776 57.5074 57.847 57.626C57.4864 57.6427 57.233 57.6889 57.0735 57.7805C56.9539 57.8483 56.8073 57.8843 56.5802 57.8947C54.2631 58.0111 51.9526 58.1333 49.6288 58.2457C49.3951 58.2561 49.221 58.199 49.2338 58.1454C49.2402 58.1176 49.3399 58.0717 49.42 58.0676C50.6286 57.9994 51.8305 57.9292 53.0459 57.8769C53.4533 57.8601 53.5726 57.7725 53.779 57.6986C53.8456 57.6727 53.8988 57.6388 53.9855 57.6247C54.0789 57.6086 54.1991 57.6104 54.3127 57.6061C57.1773 57.4588 60.042 57.3095 62.9134 57.1701C63.3274 57.1493 63.4065 57.0519 63.6196 56.982C63.6929 56.958 63.7594 56.9222 63.8462 56.918C64.7276 56.8684 65.609 56.8247 66.4905 56.7811C68.033 56.7022 69.5754 56.6233 71.1246 56.5445C71.572 56.5216 71.572 56.5216 72.1448 56.3338C72.2114 56.3118 72.3048 56.2838 72.3916 56.2797C76.4715 56.0701 80.5515 55.8605 84.6314 55.6529C84.8451 55.6425 84.9983 55.5965 85.1046 55.5288C85.2108 55.4631 85.364 55.4151 85.571 55.4028C91.0866 55.1205 96.5955 54.8383 102.111 54.56C102.472 54.5413 102.725 54.4991 102.885 54.4054C102.998 54.3377 103.151 54.3017 103.378 54.2892C109.441 53.98 115.504 53.6707 121.574 53.3594C125.654 53.1518 129.734 52.9402 133.814 52.7366C134.188 52.7179 134.388 52.6559 134.574 52.5742C134.634 52.5462 134.694 52.5005 134.774 52.4963C135.648 52.4447 136.523 52.3971 137.398 52.3495C137.672 52.4025 137.947 52.4535 138.221 52.5065C138.427 52.4306 138.627 52.3527 138.834 52.2769C140.156 52.2164 141.458 52.1241 142.793 52.0934C142.88 52.0912 142.974 52.1287 143.068 52.1483C143.69 52.2719 144.044 52.2612 144.437 52.0936C144.577 52.0338 144.696 51.9799 144.91 51.9695C145.571 51.9323 146.239 51.907 146.893 51.8639C147.247 51.8413 147.541 51.8604 147.796 51.9313C147.977 51.9825 148.164 52.0039 148.384 51.9915C149.6 51.9293 150.808 51.869 152.023 51.8028C152.11 51.7986 152.19 51.7647 152.257 51.7407C152.396 51.6888 152.516 51.633 152.649 51.5791C152.83 51.6124 153.031 51.6378 153.178 51.6811C153.366 51.7323 153.539 51.7319 153.793 51.7174C158.641 51.4664 163.495 51.2214 168.343 50.9684C168.757 50.9476 168.938 51.0306 169.219 51.0736C169.313 51.0893 169.407 51.1089 169.507 51.1127C169.614 51.1164 169.727 51.1042 169.834 51.098C173.473 50.9113 177.113 50.7265 180.752 50.5397C181.233 50.5148 181.233 50.5148 181.949 50.6363C182.036 50.6519 182.149 50.6695 182.243 50.6634C183.899 50.5823 185.555 50.4952 187.204 50.4121C187.418 50.4017 187.599 50.4331 187.793 50.4783C188.175 50.5667 188.201 50.5667 188.48 50.4351C188.613 50.3733 188.753 50.3352 188.974 50.3169C189.214 50.2965 189.408 50.302 189.595 50.3373C189.863 50.3863 190.058 50.4692 190.465 50.4465C192.228 50.3493 193.997 50.2679 195.753 50.1687C196.154 50.146 196.368 50.213 196.636 50.262C196.73 50.2796 196.817 50.3072 196.917 50.313C197.017 50.3187 197.137 50.3045 197.244 50.2983C199.448 50.1862 201.658 50.0761 203.855 49.9561C204.269 49.9333 204.45 50.0182 204.731 50.0613C204.825 50.0769 204.932 50.1045 205.019 50.1003C206.341 50.0358 207.67 49.9674 208.992 49.8989C209.466 49.874 209.466 49.876 210.189 49.9954C210.276 50.0111 210.389 50.0267 210.483 50.0226C212.025 49.9457 213.575 49.8668 215.117 49.7879C215.591 49.763 215.591 49.7631 216.962 49.8632C217.062 49.8709 217.169 49.8826 217.269 49.8784C219.032 49.7891 220.801 49.7018 222.564 49.6065C222.918 49.5879 223.212 49.6031 223.467 49.6739C223.648 49.7251 223.835 49.7466 224.055 49.7342C226.038 49.6325 228.029 49.5347 230.005 49.4271C230.386 49.4064 230.633 49.4495 230.901 49.5065C230.988 49.5261 231.075 49.5537 231.175 49.5614C231.276 49.5691 231.389 49.5609 231.496 49.5547C233.479 49.453 235.469 49.3573 237.446 49.2477C237.846 49.225 238.061 49.2919 238.328 49.341C238.422 49.3586 238.522 49.3941 238.603 49.3919C239.377 49.3565 240.152 49.325 240.92 49.2736C241.334 49.2449 241.515 49.3358 241.796 49.3788C241.89 49.3925 241.997 49.422 242.083 49.4179C243.74 49.3368 245.396 49.2517 247.045 49.1647C247.279 49.1522 247.452 49.1697 247.64 49.2208C247.888 49.2897 248.175 49.3169 248.536 49.2942C249.304 49.2469 250.078 49.2134 250.853 49.174C251.307 49.1511 251.307 49.1511 252.698 49.2512C252.798 49.2589 252.905 49.2706 253.005 49.2664C254.327 49.1999 255.656 49.1354 256.971 49.063C257.325 49.0424 257.62 49.0596 257.874 49.1304C258.055 49.1816 258.235 49.2031 258.462 49.1906C259.678 49.1284 260.887 49.0661 262.102 49.0039C262.543 48.9811 262.983 48.9424 263.424 48.9414C263.745 48.9426 263.979 49.0373 264.267 49.0843C264.347 49.098 264.481 49.0819 264.588 49.0777C266.13 48.9988 267.679 48.9259 269.215 48.8371C269.616 48.8144 269.83 48.8814 270.098 48.9304C270.192 48.948 270.292 48.9835 270.372 48.9813C270.927 48.9583 271.474 48.9273 272.028 48.9002C272.689 48.867 273.357 48.8417 274.011 48.7966C274.546 48.7596 274.748 48.9318 275.175 48.9368C275.503 48.942 275.836 48.9076 276.164 48.891C276.825 48.8577 277.486 48.8205 278.147 48.7913C278.38 48.7808 278.561 48.7486 278.633 48.677C278.647 48.6631 278.533 48.6336 278.459 48.6159C277.569 48.4155 277.569 48.4155 276.674 48.4612C276.12 48.4902 275.572 48.5192 275.018 48.5443C274.924 48.5484 274.817 48.5328 274.724 48.5211C274.456 48.488 274.483 48.4482 274.709 48.3763C274.935 48.3043 275.108 48.2166 275.301 48.1349C275.576 48.1858 275.843 48.2368 276.118 48.2878C276.338 48.2774 276.559 48.265 276.779 48.2546C277.881 48.2005 278.982 48.1444 280.084 48.0944C280.164 48.0902 280.265 48.1297 280.359 48.1493C280.626 48.2063 280.867 48.2553 281.255 48.2326C282.243 48.1728 283.238 48.1289 284.226 48.0771C284.66 48.0543 284.66 48.0543 285.423 48.1756C285.51 48.1893 285.624 48.205 285.717 48.2008C286.712 48.1529 287.7 48.1011 288.695 48.0512C288.909 48.0408 289.116 48.0662 289.271 48.1234C289.331 48.147 289.318 48.1867 289.575 48.5116C290.366 48.7738 290.907 48.7448 291.454 48.7197C291.688 48.7093 291.895 48.6989 292.048 48.6589C292.128 48.6369 292.228 48.6049 292.228 48.5791C292.228 48.5592 292.08 48.5278 291.987 48.5241C291.325 48.4859 290.698 48.5706 290.05 48.5899C289.749 48.5985 289.488 48.5297 289.434 48.4167C289.42 48.385 289.4 48.3513 289.379 48.3196C289.359 48.2879 289.345 48.2542 289.325 48.2225C289.064 48.2131 288.911 48.2492 288.798 48.3169C288.705 48.3727 288.572 48.4365 288.392 48.4666C288.212 48.4988 287.965 48.4934 287.744 48.5038C287.531 48.5142 287.297 48.5405 287.096 48.5271C286.896 48.5117 286.735 48.4545 286.548 48.4192C286.461 48.4015 286.353 48.376 286.267 48.3801C285.499 48.4156 284.738 48.451 283.976 48.4964C283.576 48.5211 283.375 48.4382 283.12 48.3872C282.919 48.348 282.719 48.3583 282.686 48.4497C282.602 48.6681 282.91 48.7587 283.591 48.7155C284.152 48.6786 284.659 48.6715 285.102 48.8054C285.162 48.8232 285.302 48.8308 285.389 48.8266C285.937 48.8016 286.477 48.7706 287.025 48.7455C287.125 48.7414 287.232 48.749 287.326 48.7568C288.69 48.8609 288.69 48.8629 289.15 48.838C289.371 48.8256 289.584 48.8152 289.561 48.5136C289.979 48.1892 290.647 48.1659 291.295 48.1168C291.715 48.0861 291.896 48.173 292.171 48.2181C292.264 48.2337 292.365 48.2652 292.452 48.2611C293.888 48.1924 295.317 48.1197 296.746 48.0431C296.986 48.0306 297.16 48.0421 297.347 48.0933C297.588 48.1583 297.856 48.1993 298.237 48.1747C298.998 48.1253 299.772 48.0938 300.547 48.0524C300.941 48.0317 300.941 48.0317 301.737 48.1529C301.824 48.1666 301.938 48.1822 302.031 48.1781C302.806 48.1426 303.574 48.0992 304.342 48.0618C304.555 48.0514 304.749 48.0787 304.917 48.1319C305.084 48.1851 305.285 48.2124 305.492 48.2021C306.267 48.1646 307.035 48.1232 307.802 48.0858C307.896 48.0816 308.01 48.0952 308.097 48.1089C308.913 48.2301 308.913 48.2301 309.287 48.2094C309.834 48.1784 310.395 48.1633 310.936 48.1224C311.463 48.0815 311.738 48.196 312.1 48.2587C313.088 48.2108 314.083 48.1709 315.065 48.1131C315.465 48.0884 315.68 48.1534 315.947 48.2044C316.041 48.222 316.135 48.2595 316.222 48.2574C316.556 48.2487 316.883 48.2261 317.21 48.2095C317.537 48.1929 317.871 48.1763 318.198 48.1597C318.573 48.2164 318.822 48.3508 319.356 48.3039C319.676 48.2754 320.017 48.2687 320.344 48.2521C320.671 48.2355 321.005 48.2189 321.332 48.2023C321.552 48.1918 321.779 48.1854 321.993 48.167C322.387 48.1364 322.582 48.2332 322.863 48.2762C322.956 48.2899 323.063 48.3135 323.15 48.3093C323.811 48.28 324.479 48.2547 325.127 48.2076C325.627 48.1708 325.969 48.2296 326.324 48.3121C326.397 48.3298 326.524 48.3394 326.618 48.3353C327.392 48.2998 328.16 48.2564 328.928 48.2189C329.135 48.2085 329.336 48.2398 329.503 48.2911C329.678 48.3443 329.871 48.3696 330.085 48.3592C330.853 48.3218 331.628 48.2804 332.396 48.2429C332.489 48.2387 332.603 48.2544 332.69 48.27C333.439 48.3914 333.439 48.3934 333.88 48.3686C333.987 48.3624 334.1 48.3581 334.207 48.3519C334.755 48.3229 335.322 48.3118 335.856 48.2629C336.471 48.208 336.919 48.2744 337.354 48.3866C337.902 48.3615 338.463 48.3464 338.997 48.3055C339.397 48.2748 339.612 48.3498 339.88 48.3988C339.973 48.4164 340.074 48.4519 340.154 48.4478C340.928 48.4123 341.703 48.3808 342.464 48.3295C342.878 48.3008 343.059 48.3896 343.34 48.4347C343.434 48.4503 343.534 48.4779 343.621 48.4737C344.062 48.4569 344.503 48.4321 344.944 48.4092C345.458 48.3823 345.458 48.3843 346.14 48.5038C346.461 48.5606 346.782 48.5143 347.096 48.4997C347.43 48.483 347.743 48.4704 348.011 48.5512C348.179 48.6024 348.38 48.6337 348.587 48.6253C349.027 48.6065 349.475 48.5876 349.909 48.5569C350.256 48.5323 350.557 48.5475 350.811 48.6203C350.992 48.6715 351.179 48.6969 351.4 48.6845C352.388 48.6347 353.383 48.5828 354.371 48.5349C354.458 48.5308 354.578 48.5484 354.659 48.566C354.846 48.6013 355.027 48.6406 355.208 48.6799C355.642 48.6611 356.089 48.6521 356.517 48.6234C356.971 48.5946 357.385 48.5838 357.74 48.6921C357.814 48.7157 357.921 48.7492 358.007 48.747C358.341 48.7384 358.669 48.7178 358.996 48.7012C359.323 48.6846 359.657 48.6679 359.984 48.6513C360.365 48.7001 360.607 48.8424 361.141 48.7956C361.462 48.7671 361.802 48.7604 362.13 48.7438C362.457 48.7271 362.791 48.7085 363.118 48.6939C363.225 48.6897 363.345 48.6795 363.438 48.6872C363.539 48.6949 363.626 48.7225 363.713 48.7422C363.981 48.7991 364.228 48.8561 364.609 48.8215C364.929 48.793 365.27 48.7863 365.597 48.7677C366.044 48.7449 366.044 48.7449 366.787 48.8683C367.088 48.9192 367.428 48.8509 367.716 48.894C367.91 48.9233 368.077 48.9725 368.265 49.0058C368.345 49.0195 368.472 49.0252 368.566 49.021C369.006 49.0022 369.454 48.9833 369.888 48.9526C370.242 48.928 370.536 48.9511 370.784 49.022C370.965 49.0732 371.145 49.0946 371.372 49.0822C372.474 49.0242 373.576 48.9741 374.671 48.9101C375.045 48.8874 375.346 48.9205 375.553 48.9915C375.909 49.1137 376.408 48.9677 376.777 49.0661C377.004 49.1271 377.232 49.1981 377.646 49.1674C378.407 49.1141 379.182 49.0845 379.95 49.0471C380.224 49.1 380.499 49.153 380.78 49.206C381.22 49.1832 381.661 49.1603 382.102 49.1395C382.429 49.1229 382.763 49.1043 383.09 49.0896C383.197 49.0854 383.31 49.0772 383.411 49.0869C383.511 49.0966 383.592 49.1223 383.685 49.1419C384.147 49.2381 384.147 49.2401 384.908 49.1987C385.235 49.1801 385.549 49.1675 385.824 49.2463C386.079 49.3191 386.379 49.3323 386.726 49.3097C387.381 49.2685 388.042 49.2373 388.71 49.208C388.917 49.1976 389.111 49.2309 389.285 49.2821C389.546 49.3629 389.867 49.3543 390.194 49.3317C390.628 49.3029 391.055 49.2742 391.424 49.3845C391.497 49.4082 391.611 49.4416 391.692 49.4395C392.239 49.4224 392.794 49.4092 393.328 49.3703C393.862 49.3314 394.123 49.4538 394.491 49.5126C395.039 49.4855 395.593 49.4585 396.141 49.4315C396.248 49.4253 396.374 49.4071 396.468 49.4168C396.863 49.4576 397.091 49.6059 397.632 49.5591C397.945 49.5326 398.286 49.5239 398.613 49.5172C398.7 49.515 398.814 49.5485 398.875 49.5742C398.908 49.588 398.875 49.6258 398.835 49.6457C398.715 49.7015 398.569 49.7535 398.463 49.8112C398.449 49.8192 398.577 49.8546 398.65 49.8703C398.831 49.9057 399.038 49.8993 399.278 49.8828C399.485 49.8685 399.699 49.8958 399.847 49.955C399.907 49.9787 399.887 50.0184 399.762 50.1496C399.763 50.2469 399.903 50.2029 399.949 50.1393C400.021 50.0478 399.881 50.0184 399.614 50.0686C399.427 50.1047 399.334 50.1566 399.381 50.1981C399.408 50.2199 399.535 50.2474 399.762 50.1496C400.348 50.0293 400.789 50.0065 401.23 49.9836C401.344 49.9774 401.477 49.9573 401.557 49.969C401.845 50.016 402.113 50.0729 402.394 50.1259C402.714 50.1133 403.015 50.0828 403.329 50.1595C403.771 50.2676 403.791 50.2577 404.219 50.2349C404.439 50.2225 404.659 50.2121 404.88 50.2017C405.1 50.1913 405.274 50.2206 405.468 50.2658C405.863 50.3582 405.897 50.3581 406.156 50.2306C406.309 50.1528 406.415 50.1268 406.61 50.1621C407.252 50.2817 407.259 50.2896 407.806 50.2526C408.26 50.2219 408.688 50.213 409.023 50.3253C409.251 50.4042 409.324 50.3862 409.504 50.3024C409.983 50.0811 410.203 50.0845 411.106 50.2413C411.528 50.3157 411.962 50.2334 412.389 50.2225C412.75 50.2138 413.004 50.2608 413.032 50.3858C413.053 50.4631 413.113 50.5186 413.354 50.5438C413.448 50.5535 413.561 50.5672 413.655 50.563C414.209 50.5379 414.757 50.5089 415.311 50.4799C415.591 50.4654 415.744 50.3718 415.69 50.2489C415.628 50.118 415.735 50.0702 416.135 50.0315C416.375 50.0092 416.569 50.0127 416.763 50.048C416.977 50.0872 416.918 50.1231 416.731 50.1949C416.285 50.3706 416.34 50.4776 416.915 50.5973C417.116 50.6386 417.277 50.6759 417.324 50.7373C417.351 50.769 417.325 50.8108 417.385 50.8344C417.714 50.9667 418.169 51.051 418.677 51.1133C419.164 51.0587 419.499 51.1472 419.874 51.2178C420.169 51.2727 420.515 51.2243 420.829 51.2038C421.183 51.1811 421.477 51.1963 421.732 51.2692C421.913 51.3204 422.1 51.3438 422.32 51.3333C422.761 51.3105 423.208 51.2956 423.642 51.2629C424.016 51.2343 424.297 51.2734 424.532 51.3403C424.826 51.425 425.153 51.3667 425.461 51.3779C425.875 51.3909 426.084 51.567 426.625 51.5182C426.945 51.4897 427.279 51.479 427.613 51.4703C427.7 51.4681 427.807 51.5016 427.88 51.5253C428.236 51.6336 428.65 51.6267 429.104 51.594C429.418 51.5714 429.725 51.5509 430.033 51.6256C430.541 51.7515 431.104 51.8614 431.639 51.9772C431.714 52.0684 431.661 52.1756 432.042 52.2283C432.243 52.2557 432.431 52.2969 432.585 52.3422C432.772 52.3954 432.946 52.4089 433.186 52.3945C433.62 52.3657 434.075 52.3587 434.502 52.322C434.896 52.2894 435.143 52.3544 435.385 52.4153C435.579 52.4645 435.759 52.4879 435.993 52.4517C436.233 52.4174 436.407 52.4388 436.601 52.492C436.876 52.5648 436.896 52.5568 437.805 52.5766C437.898 52.5784 438.012 52.6079 438.066 52.6335C438.092 52.6474 438.033 52.6872 437.986 52.7072C437.926 52.7311 437.833 52.7591 437.746 52.7652C436.758 52.8191 435.763 52.8669 434.775 52.9207C434.675 52.9269 434.568 52.9411 434.495 52.9611C434.415 52.9831 434.315 53.013 434.315 53.0408C434.315 53.0607 434.449 53.0842 434.543 53.0979C434.837 53.1429 435.184 53.0726 435.471 53.1236C435.666 53.1569 435.826 53.2041 436.02 53.2354C436.101 53.2492 436.228 53.2469 436.328 53.2427C436.662 53.2281 436.989 53.2075 437.323 53.1948C437.416 53.1926 437.523 53.2123 437.61 53.2279C438.253 53.3456 438.253 53.3456 438.807 53.3185C439.027 53.3081 439.261 53.2778 439.468 53.2892C439.669 53.3007 439.843 53.3539 440.024 53.3872C440.398 53.4578 440.753 53.5265 440.781 53.6812C440.795 53.7407 441.016 53.7918 441.237 53.7953C441.45 53.7988 441.677 53.7764 441.898 53.764C442.418 53.7391 442.418 53.739 443.094 53.8586C443.282 53.8919 443.482 53.8954 443.722 53.875C443.816 53.8669 443.93 53.8746 444.03 53.8843C444.358 53.9133 444.358 53.951 444.145 54.0229C443.845 54.1288 443.872 54.1386 444.715 54.226C445.036 54.2591 445.283 54.322 445.551 54.377C445.986 54.4653 445.98 54.4653 445.693 54.583C445.627 54.609 445.567 54.6369 445.5 54.6648C445.307 54.7426 445.154 54.8263 444.754 54.8352C444.313 54.8441 443.872 54.8768 443.432 54.8997C443.004 54.9224 442.891 54.9703 442.932 55.1051C442.981 55.2678 443.068 55.2854 443.836 55.2817C444.057 55.2812 444.25 55.2967 444.418 55.3499C444.338 55.4136 444.192 55.4635 443.978 55.4759C443.431 55.5069 442.876 55.5339 442.329 55.5609C441.888 55.5838 441.447 55.6066 441.007 55.6294C440.733 55.6439 440.56 55.7475 440.635 55.8624C440.675 55.9278 440.709 55.9932 440.743 56.0586C440.818 56.1894 440.959 56.2229 441.406 56.2159C441.52 56.2137 441.627 56.1975 441.733 56.2013C442.168 56.2142 442.376 56.3784 442.897 56.3435C443.331 56.3148 443.786 56.3078 444.213 56.2711C444.607 56.2385 444.828 56.3094 445.102 56.3624C445.196 56.38 445.296 56.4175 445.377 56.4153C445.931 56.3923 446.485 56.3692 447.026 56.3303C447.28 56.3139 447.433 56.3254 447.634 56.3726C448.116 56.4866 448.13 56.4806 448.844 56.4433C449.365 56.4143 449.372 56.4183 450.041 56.5378C450.228 56.5712 450.429 56.5707 450.669 56.5543C450.983 56.5337 451.31 56.5013 451.637 56.5303C451.738 56.538 451.865 56.5615 451.899 56.5873C451.919 56.6051 451.826 56.6489 451.746 56.663C451.159 56.7675 450.47 56.7512 449.829 56.7943C449.629 56.8067 449.428 56.7694 449.261 56.7162C449.087 56.663 448.899 56.6416 448.672 56.6521C448.232 56.6749 447.784 56.6898 447.35 56.7225C446.976 56.7511 446.715 56.706 446.454 56.6451C446.367 56.6255 446.267 56.588 446.18 56.5902C445.192 56.6321 444.197 56.674 443.215 56.7318C442.821 56.7565 442.593 56.6935 442.326 56.6405C442.232 56.6228 442.138 56.5853 442.051 56.5875C441.717 56.5962 441.39 56.6188 441.056 56.6354C439.841 56.6977 438.632 56.7599 437.417 56.8182C437.337 56.8223 437.236 56.7809 437.143 56.7632C436.962 56.7279 436.774 56.6946 436.587 56.6613C436.253 56.6779 435.926 56.6985 435.592 56.7111C435.352 56.7196 435.138 56.7479 435.105 56.8234C435.086 56.873 435.307 56.9182 435.541 56.9137C435.768 56.9092 435.995 56.8849 436.182 56.9102C437.112 57.0352 437.112 57.0372 437.693 57.0101C438.2 56.9851 438.146 56.9654 438.595 57.0735C438.789 57.1207 438.963 57.1481 439.184 57.1357C439.731 57.1067 440.285 57.0777 440.84 57.0526C440.927 57.0484 441.04 57.068 441.127 57.0837C441.783 57.2013 441.783 57.2053 442.324 57.1743C443.032 57.137 443.058 57.127 443.534 57.247C443.862 57.3296 444.162 57.2714 444.476 57.2667C444.837 57.3433 445.232 57.4119 445.561 57.4984C445.949 57.6008 446.356 57.582 446.797 57.5512C447.124 57.5287 447.445 57.52 447.713 57.6008C447.967 57.6756 448.275 57.6829 448.622 57.6622C448.936 57.6437 449.256 57.6052 449.584 57.6482C449.671 57.6599 449.804 57.6893 449.798 57.7072C449.792 57.735 449.705 57.7749 449.618 57.787C449.004 57.8697 448.33 57.8693 447.682 57.9084C447.595 57.9146 447.482 57.893 447.395 57.8773C447.207 57.842 447.026 57.8008 446.846 57.7635C446.518 57.7761 446.184 57.7808 445.864 57.8053C445.617 57.8237 445.43 57.8222 445.249 57.775C445.082 57.7317 444.901 57.6785 444.7 57.6651C444.5 57.6516 444.266 57.6819 444.046 57.6943C443.826 57.7067 443.572 57.7013 443.398 57.7335C443.225 57.7656 443.119 57.8353 443.005 57.8911C442.879 57.9529 442.706 57.9732 442.452 57.9797C442.218 57.9862 442.031 57.9787 441.857 57.9235C441.783 57.8998 441.683 57.8822 441.582 57.8665C441.489 57.8529 441.381 57.8313 441.295 57.8354C440.3 57.8833 439.311 57.9351 438.317 57.985C437.822 58.0099 437.829 58.0099 436.799 57.8951C436.705 57.8854 436.592 57.8718 436.498 57.876C435.944 57.901 435.397 57.93 434.842 57.9591C434.281 57.9881 434.288 57.9841 433.332 57.8612C433.158 57.8378 432.904 57.8701 432.697 57.8666C432.263 57.8577 432.047 57.6915 431.54 57.7244C431.106 57.7531 430.652 57.7601 430.218 57.7968C429.824 57.8294 429.596 57.7605 429.328 57.7075C429.235 57.6899 429.134 57.6504 429.054 57.6545C428.059 57.7004 427.071 57.7522 425.748 57.7612C425.421 57.7619 425.568 57.8033 425.782 57.8167C426.089 57.8378 426.189 57.7959 426.022 57.7169C425.901 57.6616 425.727 57.6342 425.587 57.6484C425.513 57.6565 425.42 57.6944 425.748 57.7612C426.096 57.8358 426.076 57.8775 426.137 57.9012C426.284 57.9584 426.492 57.9817 426.705 57.9733C427.039 57.9587 427.366 57.9381 427.7 57.9255C427.794 57.9213 427.908 57.9349 427.995 57.9506C428.731 58.072 428.737 58.0799 429.518 58.0305C429.766 58.0161 429.946 58.0157 430.14 58.053C430.408 58.1039 430.602 58.1908 431.01 58.1621C431.55 58.1232 432.105 58.1001 432.659 58.0771C432.746 58.0729 432.839 58.1084 432.94 58.1241C433.214 58.1711 433.415 58.2599 433.823 58.2213C434.136 58.1908 434.477 58.1821 434.811 58.1754C434.898 58.1732 435.032 58.2047 435.072 58.2304C435.153 58.2759 435.053 58.3297 434.826 58.3679C434.733 58.384 434.606 58.3803 434.499 58.3865C434.058 58.4093 433.618 58.4341 433.177 58.4529C432.943 58.4634 432.723 58.4937 432.697 58.5671C432.677 58.6168 432.918 58.6599 433.145 58.6554C433.479 58.6487 433.813 58.6321 434.134 58.6056C434.701 58.5606 435.195 58.5714 435.658 58.6954C435.986 58.782 435.965 58.7503 436.315 59.0075C436.403 59.0728 436.663 59.0782 436.89 59.0737C437.438 59.0625 437.692 59.0917 437.646 59.1534C437.587 59.2289 437.393 59.2531 437.146 59.2636C436.705 59.2805 436.265 59.3073 435.824 59.3301C435.717 59.3363 435.597 59.3484 435.497 59.3447C435.396 59.341 435.303 59.3174 435.216 59.2997C435.028 59.2624 434.867 59.2052 434.667 59.1918C434.466 59.1783 434.233 59.2086 434.012 59.221C433.792 59.2314 433.559 59.2617 433.358 59.2483C433.157 59.2348 432.99 59.1757 432.809 59.1404C432.722 59.1227 432.615 59.0952 432.528 59.0973C432.087 59.1142 431.647 59.141 431.206 59.1618C430.665 59.1888 430.665 59.1889 430.009 59.0673C429.822 59.032 429.628 59.0344 429.381 59.0508C428.847 59.0838 428.84 59.0778 427.864 58.9649C427.77 58.9532 427.656 58.9396 427.563 58.9458C426.568 58.9936 425.58 59.0455 424.591 59.0953C423.743 59.1389 423.743 59.1389 423.278 59.3384C422.932 59.486 422.925 59.486 423.266 59.5527C423.541 59.6077 423.789 59.6885 424.09 59.7176C424.37 59.7447 424.717 59.6546 425.025 59.7452C425.179 59.7905 425.38 59.8397 425.574 59.8472C425.881 59.8564 426.208 59.7981 426.503 59.8848C426.65 59.9281 426.871 59.9733 427.058 59.9748C427.386 59.9781 427.719 59.9456 428.047 59.9309C428.147 59.9267 428.26 59.9265 428.354 59.9362C428.454 59.9479 428.541 59.9715 428.628 59.9912C428.896 60.058 429.184 60.0891 429.531 60.0546C430.098 59.9978 430.606 60.0244 431.048 60.1504C431.109 60.1682 431.256 60.1698 431.349 60.1617C431.589 60.1413 431.796 60.1388 431.977 60.1761C432.051 60.1918 432.158 60.2194 432.145 60.2373C432.125 60.2671 432.045 60.3069 431.958 60.3171C431.331 60.3859 430.656 60.3954 430.009 60.4326C429.922 60.4367 429.815 60.4112 429.728 60.3935C429.54 60.3582 429.38 60.299 429.179 60.2856C428.978 60.2722 428.745 60.2985 428.524 60.3089C428.304 60.3193 428.071 60.3496 427.87 60.3382C427.67 60.3247 427.482 60.2755 427.321 60.2322C427.134 60.183 426.953 60.1775 426.706 60.1979C426.386 60.2244 426.052 60.2291 425.725 60.2437C425.544 60.2064 425.363 60.1652 425.176 60.1299C425.089 60.1122 424.982 60.0906 424.888 60.0928C424.447 60.1097 424.007 60.1345 423.566 60.1573C423.125 60.1801 423.125 60.1801 422.376 60.0588C422.289 60.0451 422.175 60.0295 422.082 60.0336C421.527 60.0587 420.98 60.0897 420.426 60.1147C420.212 60.1251 420.018 60.0978 419.844 60.0446C419.676 59.9914 419.475 59.9621 419.268 59.9725C418.387 60.0161 417.506 60.0578 416.624 60.1094C416.27 60.13 415.969 60.1128 415.728 60.0419C415.447 59.9612 415.133 59.9817 414.806 59.9984C414.065 60.0397 414.058 60.0377 413.583 59.9376C413.489 59.918 413.395 59.8805 413.308 59.8826C412.541 59.9141 411.766 59.9436 411.005 59.993C410.604 60.0197 410.39 59.9507 410.122 59.8997C410.028 59.8821 409.928 59.8446 409.848 59.8487C409.293 59.8718 408.739 59.8929 408.198 59.9338C407.657 59.9747 407.449 59.7906 407.041 59.7935C406.487 59.7967 405.939 59.8436 405.392 59.8726C404.951 59.8954 404.51 59.9183 404.07 59.9411C403.629 59.9639 403.188 59.9827 402.747 60.0095C402.514 60.0239 402.34 60.0065 402.146 59.9573C401.898 59.8924 401.604 59.8414 401.336 59.7825C400.927 59.6981 400.927 59.6981 400.433 59.723C400.326 59.7292 400.213 59.7334 400.106 59.7396C399.298 59.7851 399.298 59.7811 398.268 59.6584C398.221 59.6526 398.101 59.6747 398.055 59.6906C397.915 59.7426 397.788 59.7984 397.662 59.8523C397.481 59.8209 397.261 59.8035 397.14 59.7582C396.798 59.63 396.265 59.8078 395.917 59.6815C395.789 59.6342 395.568 59.593 395.368 59.5816C395.161 59.5701 394.927 59.5984 394.713 59.6108C394.159 59.6418 394.159 59.6398 393.687 59.8175C393.447 59.9054 393.099 59.8903 392.786 59.9108C392.459 59.9334 392.145 59.946 391.87 59.8652C391.622 59.7924 391.321 59.7752 390.967 59.7998C390.534 59.8305 390.086 59.8494 389.645 59.8682C389.552 59.8724 389.438 59.8628 389.344 59.8511C388.321 59.7363 388.321 59.7343 387.827 59.7612C387.607 59.7736 387.38 59.7781 387.166 59.7964C386.806 59.829 386.531 59.7879 386.27 59.725C386.183 59.7054 386.083 59.6679 385.996 59.6701C385.555 59.681 385.121 59.6998 384.687 59.7186C384.353 59.7333 384.019 59.742 383.699 59.7705C383.164 59.8173 382.903 59.6889 382.535 59.6302C381.987 59.6572 381.433 59.6763 380.885 59.7133C380.632 59.7297 380.465 59.7241 380.27 59.677C380.023 59.618 379.795 59.551 379.394 59.5817C378.86 59.6226 378.299 59.6377 377.752 59.6628C377.384 59.6021 377.115 59.4776 376.588 59.5245C376.268 59.553 375.927 59.5597 375.6 59.5763C375.159 59.5991 374.718 59.62 374.278 59.6448C373.804 59.6696 373.81 59.6637 373.081 59.5482C372.659 59.4797 372.226 59.5581 371.798 59.5709C371.464 59.5816 371.298 59.6733 371.38 59.7902C371.461 59.9071 371.281 59.9987 370.974 60.0153C370.206 60.0547 369.432 60.0962 368.664 60.1316C368.57 60.1358 368.456 60.1222 368.37 60.1085C367.547 59.9853 367.547 59.9873 367.179 60.006C366.632 60.037 366.071 60.0541 365.53 60.093C365.156 60.1196 364.882 60.0786 364.641 60.0117C364.453 59.9605 364.279 59.949 364.039 59.9614C361.395 60.1003 358.75 60.2293 356.113 60.3721C355.719 60.3928 355.491 60.3358 355.224 60.2828C355.13 60.2652 355.043 60.2277 354.949 60.2279C354.729 60.2284 354.508 60.2467 354.288 60.2591C353.3 60.309 352.312 60.3687 351.316 60.4067C350.896 60.4235 350.783 60.515 350.603 60.5909C350.464 60.6487 350.304 60.6729 350.056 60.6814C349.816 60.6899 349.642 60.6803 349.455 60.6291C349.213 60.5622 348.939 60.5211 348.565 60.5498C348.131 60.5825 347.691 60.5974 347.243 60.6202C347.016 60.6307 346.843 60.6668 346.77 60.7384C346.757 60.7503 346.897 60.7798 346.978 60.7974C347.245 60.8564 347.5 60.9252 347.801 60.9662C348.109 61.0072 348.442 60.9588 348.763 60.9462C348.876 60.942 348.983 60.9299 349.09 60.9316C349.19 60.9334 349.311 60.943 349.384 60.9607C349.733 61.0492 350.1 61.1099 350.581 61.0553C350.995 61.0801 351.211 61.2443 351.738 61.1995C352.059 61.173 352.393 61.1603 352.726 61.1497C352.813 61.1475 352.907 61.183 353.001 61.2006C353.268 61.2497 353.483 61.3286 353.884 61.2939C354.311 61.2572 354.765 61.2503 355.199 61.2215C355.439 61.2051 355.613 61.2186 355.801 61.2698C356.042 61.3347 356.316 61.3837 356.69 61.3511C357.01 61.3226 357.351 61.3159 357.678 61.2973C358.106 61.2745 358.106 61.2765 358.868 61.3978C358.955 61.4115 359.069 61.4271 359.162 61.423C359.717 61.3979 360.264 61.3669 360.819 61.3419C361.032 61.3314 361.24 61.3568 361.387 61.414C361.447 61.4377 361.428 61.4774 361.448 61.5111C360.346 61.5672 359.244 61.6153 358.149 61.6832C357.736 61.7099 357.548 61.629 357.273 61.584C357.18 61.5683 357.079 61.5348 356.992 61.539C356.218 61.5744 355.45 61.6119 354.682 61.6573C354.442 61.6717 354.261 61.6641 354.08 61.607C353.618 61.4552 353.057 61.5398 352.537 61.5628C352.136 61.5796 352.01 61.6414 352.058 61.7723C352.119 61.9269 352.36 61.974 352.974 61.9449C353.195 61.9345 353.415 61.9201 353.635 61.9116C353.849 61.9032 354.043 61.9286 354.217 61.9818C354.385 62.035 354.586 62.0623 354.793 62.0539C355.233 62.035 355.681 62.0162 356.108 61.9855C356.462 61.9609 356.756 61.98 357.004 62.0529C357.279 62.1336 357.599 62.1151 357.92 62.0965C358.667 62.0551 358.674 62.0571 359.143 62.1553C359.236 62.1749 359.33 62.2124 359.417 62.2102C360.185 62.1787 360.96 62.1512 361.714 62.1019C362.108 62.0772 362.336 62.1402 362.597 62.1912C362.691 62.2088 362.785 62.2483 362.871 62.2441C363.426 62.2211 363.98 62.198 364.521 62.1591C364.774 62.1406 364.928 62.1522 365.136 62.1994C365.631 62.3153 365.644 62.3113 366.346 62.2721C366.559 62.2597 366.793 62.2373 366.993 62.2528C367.194 62.2682 367.355 62.3254 367.542 62.3607C367.629 62.3764 367.736 62.3979 367.83 62.3937C368.271 62.3769 368.711 62.3521 369.152 62.3293C369.566 62.3065 369.566 62.3085 370.342 62.4298C370.657 62.4807 370.984 62.4363 371.297 62.4197C371.638 62.4011 371.945 62.4004 372.206 62.4772C372.468 62.554 372.782 62.5493 373.116 62.5327C373.429 62.5161 373.75 62.4718 374.071 62.5246C374.807 62.646 374.807 62.648 375.261 62.6231C375.922 62.5879 376.576 62.5547 377.244 62.5234C377.331 62.5193 377.445 62.5429 377.532 62.5585C377.719 62.5938 377.88 62.653 378.081 62.6664C378.281 62.6819 378.515 62.6575 378.728 62.6451C379.416 62.6059 379.463 62.5919 379.925 62.7218C380.314 62.8281 380.793 62.6723 381.155 62.7945C381.363 62.8635 381.644 62.9184 382.031 62.8838C382.351 62.8553 382.685 62.8466 383.019 62.83C383.547 62.803 383.547 62.805 384.216 62.9226C384.303 62.9383 384.417 62.9578 384.503 62.9537C384.944 62.9368 385.392 62.9219 385.819 62.8852C386.32 62.8424 386.641 62.9171 387.016 62.9897C387.31 63.0466 387.657 62.9982 387.971 62.9776C388.312 62.957 388.619 62.9623 388.873 63.0391C389.141 63.1179 389.455 63.1073 389.789 63.0906C390.103 63.076 390.423 63.0297 390.744 63.0845C391.434 63.206 391.434 63.206 391.935 63.1811C392.375 63.1583 392.816 63.1335 393.257 63.1166C393.344 63.1124 393.451 63.138 393.538 63.1556C393.725 63.1909 393.886 63.2501 394.087 63.2636C394.287 63.277 394.521 63.2507 394.741 63.2403C394.961 63.2299 395.195 63.1996 395.395 63.211C395.596 63.2225 395.784 63.2717 395.944 63.315C396.132 63.3661 396.306 63.3717 396.559 63.3513C396.88 63.3248 397.214 63.3181 397.541 63.3034C397.722 63.3407 397.909 63.378 398.083 63.4193C398.264 63.4626 398.457 63.4582 398.705 63.4437C399.526 63.3942 399.533 63.4002 400.222 63.5217C400.536 63.5765 400.863 63.5302 401.177 63.5156C401.511 63.4989 401.825 63.4903 402.086 63.5691C402.341 63.6439 402.655 63.6531 402.989 63.6286C403.202 63.6122 403.429 63.6018 403.65 63.5954C403.75 63.5931 403.87 63.6008 403.944 63.6165C404.299 63.6991 404.647 63.7737 405.134 63.719C405.562 63.7339 405.777 63.8962 406.291 63.8633C406.725 63.8345 407.179 63.8275 407.607 63.7909C408 63.7582 408.282 63.8132 408.483 63.8822C408.845 64.0044 409.351 63.8366 409.713 63.9568C409.92 64.0258 410.188 64.0808 410.589 64.0501C411.029 64.0174 411.17 64.0587 411.298 64.1834C411.372 64.2547 411.359 64.3123 411.226 64.3682C411.093 64.426 410.946 64.4164 410.732 64.3514C410.484 64.2785 410.19 64.2653 409.836 64.282C409.489 64.2986 409.274 64.1959 408.986 64.1569C408.699 64.1159 408.359 64.1861 408.057 64.1332C407.348 64.0097 407.348 64.0097 406.867 64.0346C406.54 64.0512 406.2 64.0599 405.879 64.0884C405.499 64.123 405.251 64.0621 404.99 64.0071C404.896 63.9874 404.802 63.95 404.722 63.9521C403.954 63.9836 403.179 64.0131 402.418 64.0645C402.018 64.0911 401.803 64.0202 401.536 63.9712C401.442 63.9535 401.341 63.918 401.261 63.9222C400.6 63.9515 399.946 63.9886 399.285 64.0239C399.158 64.0777 399.018 64.1296 398.899 64.1874C398.772 64.2472 398.599 64.2734 398.345 64.272C397.924 64.273 397.511 64.3573 397.089 64.253C396.654 64.1468 396.62 64.1529 396.2 64.1796C395.666 64.2145 395.098 64.2079 394.597 64.2864C394.51 64.3005 394.417 64.3384 394.418 64.3662C394.411 64.384 394.552 64.4095 394.639 64.4252C394.933 64.4722 395.273 64.402 395.567 64.4509C395.761 64.4822 395.922 64.5295 396.116 64.5628C396.197 64.5765 396.317 64.5742 396.424 64.572C396.537 64.5698 396.644 64.5557 396.751 64.5574C396.851 64.5592 396.958 64.5708 397.039 64.5885C397.407 64.6631 397.795 64.7317 398.123 64.8202C398.444 64.9068 398.744 64.8466 399.065 64.8419C400.349 64.978 400.349 64.9799 401.211 64.9344C401.424 64.924 401.645 64.9116 401.865 64.913C401.959 64.9128 402.046 64.9483 402.139 64.968C402.407 65.0269 402.662 65.0799 403.035 65.0473C403.356 65.0188 403.697 65.0121 404.024 64.9935C404.464 64.9707 404.464 64.9707 405.214 65.094C405.401 65.1254 405.602 65.121 405.842 65.1046C406.049 65.0902 406.263 65.1195 406.41 65.1767C406.471 65.2004 406.451 65.2401 406.471 65.2738C405.81 65.307 405.143 65.3304 404.502 65.3794C404.088 65.4101 403.9 65.3252 403.626 65.2802C403.532 65.2645 403.431 65.231 403.345 65.2352C402.69 65.2664 402.036 65.3016 401.382 65.3427C401.301 65.3469 401.202 65.3928 401.195 65.4206C401.182 65.4722 401.35 65.5214 401.59 65.5189C401.911 65.5162 402.225 65.4818 402.513 65.5625C402.754 65.6334 403.055 65.6645 403.408 65.6319C403.622 65.6136 403.849 65.6131 404.063 65.5967C404.63 65.5478 405.145 65.5566 405.573 65.6906C405.901 65.7255 406.222 65.6911 406.535 65.6725C406.769 65.6581 406.996 65.6437 407.163 65.681C407.518 65.7596 407.866 65.8382 408.354 65.7835C408.882 65.8379 409.284 65.9541 409.726 66.0484C409.933 66.0935 410.094 66.119 410.334 66.0887C410.434 66.0765 410.554 66.0763 410.661 66.0701C410.881 66.0596 411.115 66.0294 411.316 66.0408C411.516 66.0543 411.684 66.1114 411.864 66.1467C411.951 66.1644 412.052 66.194 412.139 66.1918C412.473 66.1811 412.8 66.1605 413.127 66.1439C413.454 66.1293 413.781 66.1147 414.109 66.1C414.383 66.151 414.664 66.202 414.938 66.253C415.379 66.2302 415.82 66.2073 416.254 66.1865C416.741 66.1616 416.741 66.1636 417.444 66.2851C417.758 66.3399 418.092 66.3034 418.393 66.277C418.893 66.2342 419.228 66.3088 419.583 66.3874C419.657 66.4031 419.79 66.4127 419.877 66.4046C420.224 66.3761 420.525 66.3972 420.779 66.4701C420.96 66.5212 421.141 66.5447 421.361 66.5342C422.129 66.4948 422.897 66.4534 423.665 66.4179C423.758 66.4138 423.865 66.4314 423.952 66.4471C424.635 66.5666 424.642 66.5725 425.143 66.5396C425.59 66.5109 426.004 66.498 426.359 66.6064C426.433 66.63 426.547 66.6635 426.627 66.6613C427.174 66.6403 427.729 66.6172 428.27 66.5822C428.517 66.5658 428.69 66.5714 428.885 66.6166C429.132 66.6736 429.353 66.7425 429.761 66.7158C430.889 66.6399 430.896 66.6517 432.233 66.7857C432.327 66.7954 432.454 66.7792 432.56 66.7711C432.787 66.7507 432.955 66.7781 433.155 66.8233C433.604 66.9255 433.617 66.9195 434.045 66.8967C434.372 66.8781 434.712 66.8734 435.033 66.8429C435.527 66.7981 435.855 66.8748 436.223 66.9474C436.518 67.0043 436.858 66.9559 437.172 66.9373C437.512 66.9167 437.82 66.922 438.074 66.9968C438.248 67.048 438.436 67.0754 438.656 67.065C439.424 67.0275 440.192 66.9861 440.96 66.9487C441.053 66.9445 441.167 66.9601 441.254 66.9738C442.017 67.0951 442.017 67.1011 442.771 67.0538C443.012 67.0393 443.212 67.0349 443.393 67.0762C443.567 67.1155 443.754 67.1528 443.935 67.1901C444.262 67.1754 444.596 67.1707 444.917 67.1462C445.164 67.1278 445.337 67.1353 445.531 67.1766C445.786 67.2296 446 67.3223 446.401 67.2758C446.608 67.2535 446.848 67.2589 447.055 67.2386C447.302 67.2123 447.469 67.2278 447.664 67.2789C447.905 67.3399 448.152 67.4028 448.54 67.3702C448.967 67.3335 449.421 67.3266 449.855 67.2978C450.095 67.2814 450.263 67.2969 450.457 67.3481C450.698 67.413 450.972 67.4541 451.346 67.4274C452.107 67.3761 452.114 67.386 452.857 67.5094C453.044 67.5407 453.244 67.5363 453.485 67.5199C453.692 67.5055 453.906 67.5348 454.053 67.592C454.194 67.6552 454.181 67.6949 454.195 67.7286ZM394.496 49.965C394.275 49.9754 394.055 49.9878 393.733 49.8159C393.712 49.7862 393.725 49.7504 393.678 49.7247C393.571 49.6714 393.404 49.6341 393.203 49.6286C392.842 49.6214 392.409 49.6899 392.416 49.7415C392.423 49.7851 392.537 49.8225 392.758 49.8578C392.851 49.8714 392.925 49.8951 393.012 49.9108C393.266 49.9558 393.468 50.0447 393.835 49.9982C393.767 49.8754 393.801 49.9368 393.835 49.9982C393.802 50.0737 393.903 50.1271 394.143 50.1484C394.21 50.1542 394.31 50.15 394.364 50.1379C394.57 50.0938 394.603 50.0342 394.448 49.8778C394.422 49.9037 394.442 49.9492 394.502 49.961C394.563 49.9728 394.709 49.9625 394.783 49.9485C394.969 49.9104 395.063 49.8605 395.015 49.819C394.988 49.7972 394.861 49.7697 394.781 49.7699C394.641 49.7702 394.514 49.8141 394.496 49.965ZM448.731 72.8567C448.244 72.8955 447.683 72.8829 447.196 72.9614C447.109 72.9755 447.023 73.0114 447.016 73.0392C447.01 73.0571 447.144 73.0826 447.224 73.0963C447.405 73.1276 447.605 73.1172 447.839 73.1068C448.193 73.0921 448.401 73.1829 448.675 73.228C448.762 73.2416 448.876 73.2513 448.969 73.2471C449.51 73.2221 450.044 73.1951 450.585 73.1661C450.678 73.16 450.779 73.1458 450.859 73.1278C451.125 73.0697 451.098 73.032 450.837 72.989C450.55 72.942 450.322 72.8631 450.027 72.826C449.606 72.7734 449.179 72.8458 448.731 72.8567ZM410.806 74.3905C410.479 74.4071 410.159 74.4237 409.831 74.4403C409.725 74.4465 409.611 74.4487 409.511 74.4569C409.304 74.4712 409.151 74.5132 409.051 74.5789C409.205 74.6302 409.393 74.6595 409.6 74.6531C409.927 74.6405 410.247 74.614 410.575 74.6073C410.929 74.5985 411.136 74.6874 411.411 74.7324C411.498 74.7461 411.605 74.7478 411.705 74.7496C412.199 74.7564 412.499 74.6526 412.404 74.5079C412.336 74.395 412.082 74.3281 411.775 74.3426C411.454 74.3573 411.127 74.3739 410.806 74.3905ZM450.989 69.9187C451.069 69.8848 451.155 69.8608 451.195 69.8309C451.314 69.7294 451.267 69.6541 451.046 69.5753C450.777 69.4786 450.451 69.5448 450.15 69.5554C450.077 69.5576 449.997 69.5994 449.957 69.6253C449.931 69.6432 449.931 69.681 449.971 69.6908C450.299 69.7694 450.647 69.8421 450.989 69.9187ZM392.98 64.1868C392.659 64.2034 392.332 64.2161 392.011 64.2386C391.931 64.2447 391.858 64.2826 391.812 64.3085C391.725 64.3563 391.819 64.4216 392.093 64.4269C392.407 64.4342 392.734 64.3997 393.062 64.3831C393.476 64.3623 393.722 64.2883 393.568 64.2252C393.42 64.164 393.22 64.1526 392.98 64.1868ZM41.2813 60.735C41.495 60.7246 41.7154 60.7162 41.929 60.7018C42.1293 60.6875 42.2827 60.6435 42.3823 60.5778C42.2148 60.5266 42.0274 60.4992 41.8204 60.5056C41.4931 60.5183 41.1726 60.5349 40.8522 60.5554C40.6518 60.5678 40.4586 60.6119 40.4125 60.6794C40.3662 60.7311 40.8139 60.7599 41.2813 60.735ZM364.685 59.704C364.772 59.7216 364.859 59.7572 364.946 59.757C365.159 59.7565 365.38 59.7441 365.58 59.7238C365.667 59.7157 365.733 59.6798 365.773 59.6519C365.8 59.634 365.793 59.6023 365.752 59.5865C365.558 59.4917 364.783 59.5271 364.657 59.6366C364.644 59.6564 364.678 59.6822 364.685 59.704ZM343.505 48.8848C343.525 48.9165 343.532 48.9482 343.559 48.9799C343.613 49.0393 343.761 49.0826 343.975 49.1119C344.141 49.0619 344.228 49.0062 344.22 48.9467C344.213 48.9149 344.193 48.8832 344.166 48.8515C344.112 48.7921 343.965 48.7488 343.751 48.7195C343.584 48.7675 343.504 48.8232 343.505 48.8848ZM466.472 74.6109C466.412 74.6368 466.352 74.6627 466.286 74.6867C466.467 74.7438 466.634 74.7613 466.76 74.7293C466.84 74.7093 466.887 74.6794 466.947 74.6535C466.766 74.5963 466.605 74.5808 466.472 74.6109ZM462.319 74.8901C462.406 74.9077 462.487 74.9314 462.58 74.9431C462.734 74.9626 462.874 74.9285 462.98 74.8568C462.893 74.8392 462.813 74.8155 462.719 74.8038C462.565 74.7843 462.425 74.8184 462.319 74.8901ZM464.948 74.521C464.902 74.5688 464.996 74.6082 465.243 74.6414C465.303 74.6155 465.383 74.5915 465.423 74.5636C465.489 74.5178 465.375 74.4764 465.134 74.4452C465.068 74.4692 465.008 74.4951 464.948 74.521ZM450.825 72.4135C450.779 72.4612 450.873 72.5007 451.12 72.5339C451.18 72.5079 451.26 72.4839 451.3 72.4561C451.366 72.4103 451.252 72.3689 451.012 72.3377C450.945 72.3616 450.885 72.3876 450.825 72.4135ZM431.479 58.4151C431.42 58.441 431.36 58.4669 431.293 58.4909C431.474 58.548 431.641 58.5655 431.768 58.5335C431.848 58.5135 431.894 58.4836 431.954 58.4577C431.773 58.4005 431.613 58.385 431.479 58.4151ZM413.004 51.007C413.165 51.0205 413.298 50.9924 413.411 50.9188C413.324 50.9011 413.244 50.8775 413.15 50.8658C412.996 50.8463 412.856 50.8803 412.75 50.952C412.837 50.9716 412.924 50.9893 413.004 51.007ZM403.226 50.5626C403.166 50.5885 403.107 50.6144 403.04 50.6384C403.221 50.6955 403.388 50.713 403.515 50.681C403.595 50.661 403.641 50.6311 403.701 50.6052C403.52 50.548 403.36 50.5345 403.226 50.5626ZM336.931 48.8975C336.872 48.9234 336.812 48.9494 336.745 48.9733C336.926 49.0305 337.093 49.048 337.22 49.0159C337.3 48.9959 337.346 48.966 337.406 48.9401C337.225 48.883 337.065 48.8694 336.931 48.8975ZM7.07024 65.7828C6.98322 65.7651 6.89628 65.7475 6.81593 65.7278C6.6227 65.7818 6.56306 65.8315 6.6703 65.869C6.73733 65.8927 6.8376 65.9063 6.92461 65.924C7.12452 65.87 7.17082 65.8222 7.07024 65.7828Z" fill="#FFE492"/><path d="M239.065 11.4055C238.297 11.4449 237.536 11.4942 236.768 11.5197C236.361 11.5325 236.215 11.6182 236.048 11.698C235.915 11.7618 235.762 11.782 235.515 11.7944C233.431 11.8963 231.355 12.0041 229.278 12.1099C229.017 12.0847 228.89 12.0433 228.95 11.9936C228.983 11.9637 229.062 11.9219 229.143 11.9177C230.565 11.8411 231.98 11.7626 233.409 11.7018C233.817 11.685 233.93 11.5975 234.136 11.5255C234.203 11.5016 234.256 11.4657 234.343 11.4517C234.429 11.4356 234.556 11.4373 234.67 11.4331C236.967 11.3148 239.264 11.1986 241.561 11.0804C241.822 11.1056 241.949 11.147 241.889 11.1967C241.856 11.2266 241.776 11.2684 241.696 11.2726C240.815 11.3162 239.94 11.3599 239.065 11.4055Z" fill="#FFE492"/><path d="M659.873 20.5551C659.526 20.5797 659.085 20.6144 658.723 20.5001C658.549 20.4449 658.362 20.4275 658.135 20.4399C657.808 20.4605 657.474 20.4771 657.14 20.4898C657.053 20.4919 656.939 20.4703 656.852 20.4527C656.665 20.4174 656.504 20.3582 656.303 20.3428C656.103 20.3273 655.863 20.3715 655.656 20.3621C655.381 20.3488 655.267 20.2954 655.34 20.2457C655.38 20.2178 655.46 20.1779 655.547 20.1718C656.782 20.0956 656.789 20.0956 657.137 20.1662C657.405 20.2212 657.652 20.2822 658.033 20.2476C658.353 20.2191 658.694 20.2124 659.021 20.1938C659.475 20.169 659.475 20.171 660.211 20.2944C660.399 20.3257 660.599 20.3233 660.839 20.3049C661.046 20.2906 661.247 20.3219 661.414 20.3751C661.308 20.4428 661.155 20.4868 660.948 20.4992C660.614 20.5198 660.287 20.5344 659.873 20.5551Z" fill="#FFE492"/><path d="M647.57 19.9824C648.412 19.9389 649.26 19.9013 650.101 19.8519C650.448 19.8313 650.722 19.8525 650.964 19.9194C651.225 19.9922 651.519 19.9856 651.839 19.971C652.04 19.9626 652.234 19.9939 652.368 20.0491C652.421 20.0708 652.408 20.1105 652.429 20.1422C651.694 20.1795 650.953 20.2188 650.212 20.2522C650.125 20.2563 650.018 20.2368 649.938 20.2211C649.757 20.1878 649.603 20.1286 649.409 20.1172C648.994 20.0903 648.581 20.1448 648.16 20.1556C647.96 20.16 647.766 20.1307 647.631 20.0775C647.578 20.0518 647.591 20.0141 647.57 19.9824Z" fill="#FFE492"/><path d="M343.189 4.05374C344.064 4.00814 344.938 3.96454 345.813 3.91894C346.074 3.94615 346.195 3.98556 346.142 4.03529C346.108 4.06514 346.029 4.10699 345.949 4.11114C344.199 4.20432 342.45 4.29353 340.707 4.38273C340.446 4.35553 340.325 4.31611 340.378 4.26638C340.412 4.23654 340.491 4.19468 340.571 4.19053C341.439 4.14296 342.314 4.09934 343.189 4.05374Z" fill="#FFE492"/><path d="M208.384 15.3779C207.99 15.3827 207.577 15.4567 207.135 15.4024C207.048 15.3927 206.928 15.3614 206.934 15.3436C206.947 15.3139 207.027 15.2762 207.114 15.2642C207.494 15.214 207.968 15.207 208.161 15.0684C208.254 14.9971 208.427 14.973 208.661 14.9587C208.908 14.9424 209.081 14.9479 209.276 14.9889C209.53 15.0417 209.745 15.1399 210.145 15.0877C210.165 15.1192 210.212 15.1547 210.192 15.1843C210.173 15.214 210.086 15.2418 210.006 15.2637C209.933 15.2836 209.833 15.3016 209.739 15.3078C209.299 15.3324 208.858 15.3532 208.384 15.3779Z" fill="#FFE492"/><path d="M555.894 13.9052C556.221 13.8887 556.562 13.88 556.882 13.8515C557.136 13.8292 557.296 13.8427 557.497 13.8898C557.839 13.9722 557.859 13.9643 558.694 13.9743C558.787 13.9761 558.901 14.0056 558.955 14.0312C558.988 14.045 558.942 14.0828 558.902 14.1027C558.842 14.1285 558.756 14.1624 558.675 14.1626C558.148 14.1697 557.614 14.2878 557.099 14.1542C556.838 14.0874 556.55 14.0563 556.196 14.0868C555.983 14.1051 555.756 14.1136 555.535 14.122C555.322 14.1304 555.101 14.1091 554.967 14.0499C554.772 13.9632 554.885 13.9293 555.233 13.9344C555.453 13.9379 555.674 13.9156 555.894 13.9052Z" fill="#FFE492"/><path d="M677.087 27.0564C677.508 27.0358 677.928 27.0112 678.356 26.9944C678.442 26.9903 678.55 27.0118 678.63 27.0254C678.951 27.0839 678.905 27.1847 678.919 27.2735C678.927 27.3663 678.186 27.443 677.872 27.3805C677.524 27.3102 677.209 27.2299 676.728 27.2744C676.542 27.2906 676.321 27.2556 676.2 27.1986C676.019 27.1161 676.119 27.0823 676.46 27.0874C676.66 27.0909 676.874 27.0688 677.087 27.0564Z" fill="#FFE492"/><path d="M464.77 1.00493C465.204 0.982198 465.638 0.947608 466.072 0.944675C466.326 0.942138 466.453 1.00718 466.394 1.05482C466.361 1.08459 466.281 1.12634 466.201 1.13047C465.333 1.17989 464.465 1.22139 463.597 1.26685C463.343 1.23969 463.215 1.19841 463.275 1.15076C463.308 1.12099 463.388 1.08122 463.468 1.07511C463.902 1.04644 464.336 1.02766 464.77 1.00493Z" fill="#FFE492"/><path d="M668.716 20.6962C669.137 20.6755 669.564 20.6449 669.985 20.634C670.205 20.6296 670.379 20.6747 670.407 20.7261C670.42 20.7498 670.314 20.7916 670.227 20.8017C669.626 20.8703 668.978 20.8797 668.351 20.9147C668.15 20.9251 667.936 20.8939 667.816 20.8387C667.634 20.754 667.734 20.7222 668.075 20.7273C668.289 20.7288 668.502 20.7066 668.716 20.6962Z" fill="#FFE492"/><path d="M566.934 14.1366C567.148 14.1262 567.368 14.1001 567.575 14.1075C567.796 14.1169 567.936 14.1738 568.004 14.2308C568.078 14.2957 568.072 14.3568 568.005 14.4122C567.899 14.507 567.792 14.5033 567.545 14.4408C567.163 14.3431 567.137 14.3549 566.382 14.3606C566.295 14.3607 566.188 14.3314 566.121 14.3059C566.02 14.2667 566.073 14.2055 566.307 14.1695C566.48 14.1435 566.721 14.1469 566.934 14.1366Z" fill="#FFE492"/><path d="M653.055 20.1002C653.369 20.0837 653.683 20.0573 653.997 20.0566C654.217 20.0541 654.391 20.0992 654.412 20.1486C654.419 20.1723 654.319 20.212 654.239 20.2241C653.859 20.2783 653.431 20.2832 653.017 20.3019C652.823 20.3102 652.609 20.2791 652.489 20.224C652.307 20.1414 652.414 20.1036 652.741 20.1147C652.842 20.1184 652.948 20.1063 653.055 20.1002Z" fill="#FFE492"/><path d="M603.61 17.8468C603.143 17.8715 602.701 17.8429 602.734 17.7914C602.78 17.7241 602.974 17.6802 603.174 17.6678C603.494 17.6474 603.815 17.6309 604.142 17.6183C604.349 17.6099 604.536 17.6391 604.704 17.6902C604.604 17.7536 604.451 17.7995 604.251 17.8137C604.044 17.828 603.824 17.8364 603.61 17.8468Z" fill="#FFE492"/><path d="M600.543 17.6042C600.856 17.5877 601.17 17.5613 601.484 17.5606C601.704 17.5582 601.879 17.6032 601.899 17.6526C601.906 17.6763 601.806 17.7161 601.726 17.7281C601.346 17.7823 600.918 17.7872 600.504 17.8059C600.311 17.8143 600.097 17.7831 599.976 17.728C599.795 17.6454 599.901 17.6076 600.229 17.6187C600.329 17.6225 600.436 17.6104 600.543 17.6042Z" fill="#FFE492"/><path d="M563.145 14.1331C563.459 14.1166 563.772 14.0901 564.086 14.0875C564.307 14.085 564.481 14.1301 564.501 14.1795C564.508 14.2032 564.408 14.241 564.328 14.255C563.948 14.3092 563.521 14.3141 563.107 14.3328C562.913 14.3411 562.699 14.31 562.578 14.2549C562.397 14.1723 562.503 14.1345 562.831 14.1456C562.931 14.1493 563.038 14.1373 563.145 14.1331Z" fill="#FFE492"/><path d="M561.388 14.0224C561.721 14.0058 561.828 13.9957 561.935 13.9955C562.136 13.995 562.343 14.0183 562.464 14.0753C562.645 14.158 562.538 14.1819 562.211 14.1866C561.79 14.1915 561.376 14.2339 560.956 14.2428C560.735 14.2472 560.561 14.2001 560.547 14.1507C560.54 14.127 560.64 14.0853 560.72 14.0772C561 14.047 561.308 14.0285 561.388 14.0224Z" fill="#FFE492"/><path d="M597.72 2.36742C597.506 2.37776 597.279 2.40591 597.079 2.39648C596.812 2.38325 596.704 2.33017 596.771 2.28066C596.81 2.25292 596.884 2.21327 596.964 2.20717C597.391 2.17858 597.825 2.15983 598.252 2.13914C598.506 2.1682 598.62 2.20942 598.554 2.25893C598.514 2.28667 598.441 2.32435 598.361 2.33242C598.154 2.35263 597.934 2.35707 597.72 2.36742Z" fill="#FFE492"/><path d="M338.402 4.3009C338.609 4.29847 338.796 4.32371 338.957 4.37269C338.857 4.43605 338.711 4.47781 338.511 4.49601C338.411 4.50413 338.297 4.51029 338.19 4.5125C337.983 4.5169 337.796 4.48969 337.635 4.44071C337.735 4.37735 337.888 4.33557 338.081 4.31739C338.182 4.30927 338.295 4.30706 338.402 4.3009Z" fill="#FFE492"/><path d="M666.428 20.6944C666.421 20.6372 666.828 20.5712 667.195 20.5723C667.389 20.5739 667.59 20.6011 667.704 20.6541C667.878 20.7346 667.778 20.7664 667.451 20.7612C667.25 20.7577 667.037 20.7917 666.837 20.7862C666.61 20.7848 666.476 20.7417 666.428 20.6944Z" fill="#FFE492"/><path d="M568.874 14.3694C568.867 14.3478 568.834 14.3222 568.853 14.3025C568.979 14.1938 569.747 14.1586 569.948 14.2527C569.982 14.2704 569.996 14.2999 569.969 14.3177C569.929 14.3454 569.856 14.3811 569.776 14.3891C569.569 14.4093 569.356 14.4196 569.142 14.4221C569.048 14.4223 568.961 14.3889 568.874 14.3694Z" fill="#FFE492"/><path d="M210.759 15.0567C209.971 15.0998 209.958 15.0959 210.097 14.997C210.223 14.9079 210.456 14.8542 210.797 14.8534C210.897 14.8532 211.004 14.849 211.091 14.8567C211.185 14.8664 211.318 14.8858 211.339 14.9094C211.379 14.9547 211.266 15.0042 211.066 15.0382C210.979 15.0542 210.866 15.0505 210.759 15.0567Z" fill="#FFE492"/><path d="M348.268 3.99416C348.035 4.02819 347.834 4.01681 347.687 3.95405C347.539 3.8913 347.772 3.81587 348.18 3.79723C348.286 3.79305 348.4 3.77705 348.5 3.78471C348.6 3.7904 348.701 3.81382 348.761 3.83734C348.868 3.87653 348.802 3.92991 348.589 3.97572C348.502 3.99365 348.375 3.98998 348.268 3.99416Z" fill="#FFE492"/><path d="M665.039 20.552C665.098 20.5263 665.158 20.5006 665.224 20.4769C665.471 20.5097 665.578 20.5488 665.512 20.5942C665.472 20.6219 665.392 20.6456 665.333 20.6713C665.086 20.6384 664.986 20.5974 665.039 20.552Z" fill="#FFE492"/><path d="M221.497 37.3608C221.497 37.3371 221.59 37.2995 221.663 37.2915C221.803 37.2774 221.976 37.3046 222.096 37.3594C222.264 37.4378 222.164 37.4794 221.858 37.4584C221.644 37.4431 221.497 37.4041 221.497 37.3608Z" fill="#FFE492"/><path d="M571.581 12.5332C571.668 12.5507 571.755 12.5683 571.835 12.5878C571.723 12.6609 571.583 12.6927 571.436 12.6734C571.343 12.6617 571.263 12.6383 571.176 12.6207C571.288 12.5476 571.421 12.5197 571.581 12.5332Z" fill="#FFE492"/><path d="M569.265 12.4521C569.398 12.4222 569.558 12.4376 569.745 12.4944C569.686 12.5201 569.633 12.5498 569.56 12.5696C569.433 12.6014 569.267 12.586 569.086 12.5273C569.139 12.5036 569.199 12.4778 569.265 12.4521Z" fill="#FFE492"/><path d="M567.495 12.5444C567.582 12.5619 567.669 12.5794 567.749 12.599C567.637 12.6721 567.504 12.7039 567.35 12.6846C567.257 12.6729 567.177 12.6495 567.09 12.6319C567.203 12.5588 567.335 12.529 567.495 12.5444Z" fill="#FFE492"/><path d="M566.193 12.4446C566.293 12.4837 566.24 12.531 566.048 12.5845C565.961 12.567 565.861 12.5535 565.794 12.53C565.687 12.4929 565.74 12.4436 565.939 12.3901C566.019 12.4096 566.106 12.4271 566.193 12.4446Z" fill="#FFE492"/></svg>